G04 (created by PCBNEW (2013-07-07 BZR 4022)-stable) date 09/11/2015 23:04:07*
%MOIN*%
G04 Gerber Fmt 3.4, Leading zero omitted, Abs format*
%FSLAX34Y34*%
G01*
G70*
G90*
G04 APERTURE LIST*
%ADD10C,0.00393701*%
%ADD11R,0.055X0.055*%
%ADD12C,0.055*%
%ADD13C,0.0826772*%
%ADD14C,0.0866142*%
%ADD15R,0.0433071X0.0590551*%
%ADD16C,0.01*%
G04 APERTURE END LIST*
G54D10*
G54D11*
X76000Y-47500D03*
G54D12*
X77000Y-47500D03*
X78000Y-47500D03*
X79000Y-47500D03*
X80000Y-47500D03*
X81000Y-47500D03*
X82000Y-47500D03*
G54D13*
X87500Y-51500D03*
X83500Y-51500D03*
G54D14*
X85500Y-55000D03*
G54D13*
X85500Y-51500D03*
X95000Y-51500D03*
X91000Y-51500D03*
G54D14*
X93000Y-55000D03*
G54D13*
X93000Y-51500D03*
X80000Y-58500D03*
X76000Y-58500D03*
G54D14*
X78000Y-62000D03*
G54D13*
X78000Y-58500D03*
X87500Y-58500D03*
X83500Y-58500D03*
G54D14*
X85500Y-62000D03*
G54D13*
X85500Y-58500D03*
X95000Y-58500D03*
X91000Y-58500D03*
G54D14*
X93000Y-62000D03*
G54D13*
X93000Y-58500D03*
X102500Y-51500D03*
X98500Y-51500D03*
G54D14*
X100500Y-55000D03*
G54D13*
X100500Y-51500D03*
X102500Y-58500D03*
X98500Y-58500D03*
G54D14*
X100500Y-62000D03*
G54D13*
X100500Y-58500D03*
X80000Y-65500D03*
X76000Y-65500D03*
G54D14*
X78000Y-69000D03*
G54D13*
X78000Y-65500D03*
X87500Y-65500D03*
X83500Y-65500D03*
G54D14*
X85500Y-69000D03*
G54D13*
X85500Y-65500D03*
X95000Y-65500D03*
X91000Y-65500D03*
G54D14*
X93000Y-69000D03*
G54D13*
X93000Y-65500D03*
X102500Y-65500D03*
X98500Y-65500D03*
G54D14*
X100500Y-69000D03*
G54D13*
X100500Y-65500D03*
X80000Y-51500D03*
X76000Y-51500D03*
G54D14*
X78000Y-55000D03*
G54D13*
X78000Y-51500D03*
G54D15*
X100500Y-63500D03*
X101799Y-63500D03*
X100500Y-70500D03*
X101799Y-70500D03*
X78000Y-70500D03*
X79299Y-70500D03*
X85500Y-70500D03*
X86799Y-70500D03*
X93000Y-70500D03*
X94299Y-70500D03*
X93000Y-63500D03*
X94299Y-63500D03*
X85500Y-63500D03*
X86799Y-63500D03*
X78000Y-63500D03*
X79299Y-63500D03*
X100500Y-56500D03*
X101799Y-56500D03*
X93000Y-56500D03*
X94299Y-56500D03*
X85500Y-56500D03*
X86799Y-56500D03*
X78000Y-56500D03*
X79299Y-56500D03*
G54D16*
X100500Y-55000D02*
X100500Y-56500D01*
X85500Y-62000D02*
X85500Y-63500D01*
X85500Y-69000D02*
X85500Y-70500D01*
X93000Y-55000D02*
X93000Y-56500D01*
X94299Y-63500D02*
X94299Y-70500D01*
X94299Y-56500D02*
X94299Y-63500D01*
X81000Y-47500D02*
X81000Y-49000D01*
X94000Y-56200D02*
X94299Y-56500D01*
X94000Y-50500D02*
X94000Y-56200D01*
X93500Y-50000D02*
X94000Y-50500D01*
X81500Y-50000D02*
X93500Y-50000D01*
X81000Y-49500D02*
X81500Y-50000D01*
X81000Y-49000D02*
X81000Y-49500D01*
X93000Y-69000D02*
X93000Y-70500D01*
X79299Y-63500D02*
X79299Y-70500D01*
X79299Y-56500D02*
X79299Y-63500D01*
X79000Y-47500D02*
X79000Y-55500D01*
X79299Y-55799D02*
X79299Y-56500D01*
X79000Y-55500D02*
X79299Y-55799D01*
X87500Y-58500D02*
X91000Y-58500D01*
X91000Y-58500D02*
X93000Y-58500D01*
X101799Y-63500D02*
X101799Y-70500D01*
X101799Y-56500D02*
X101799Y-63500D01*
X82000Y-47500D02*
X82000Y-49000D01*
X101500Y-56200D02*
X101799Y-56500D01*
X101500Y-50500D02*
X101500Y-56200D01*
X100500Y-49500D02*
X101500Y-50500D01*
X82500Y-49500D02*
X100500Y-49500D01*
X82000Y-49000D02*
X82500Y-49500D01*
X95000Y-51500D02*
X98500Y-51500D01*
X98500Y-51500D02*
X100500Y-51500D01*
X95000Y-58500D02*
X98500Y-58500D01*
X98500Y-58500D02*
X100500Y-58500D01*
X76000Y-65500D02*
X78000Y-65500D01*
X76000Y-47500D02*
X76000Y-49000D01*
X74500Y-64000D02*
X76000Y-65500D01*
X74500Y-50500D02*
X74500Y-64000D01*
X76000Y-49000D02*
X74500Y-50500D01*
X80000Y-65500D02*
X83500Y-65500D01*
X83500Y-65500D02*
X85500Y-65500D01*
X78000Y-56500D02*
X78000Y-55000D01*
X80000Y-51500D02*
X83500Y-51500D01*
X83500Y-51500D02*
X85500Y-51500D01*
X91000Y-51500D02*
X93000Y-51500D01*
X87500Y-51500D02*
X91000Y-51500D01*
X87500Y-65500D02*
X91000Y-65500D01*
X91000Y-65500D02*
X93000Y-65500D01*
X78000Y-63500D02*
X78000Y-62000D01*
X76000Y-58500D02*
X78000Y-58500D01*
X77000Y-47500D02*
X77000Y-48500D01*
X75000Y-57500D02*
X76000Y-58500D01*
X75000Y-50500D02*
X75000Y-57500D01*
X77000Y-48500D02*
X75000Y-50500D01*
X100500Y-62000D02*
X100500Y-63500D01*
X80000Y-58500D02*
X83500Y-58500D01*
X83500Y-58500D02*
X85500Y-58500D01*
X95000Y-65500D02*
X98500Y-65500D01*
X98500Y-65500D02*
X100500Y-65500D01*
X100500Y-69000D02*
X100500Y-70500D01*
X93000Y-62000D02*
X93000Y-63500D01*
X78000Y-47500D02*
X78000Y-51500D01*
X78000Y-51500D02*
X76000Y-51500D01*
X78000Y-69000D02*
X78000Y-70500D01*
X85500Y-55000D02*
X85500Y-56500D01*
X86799Y-63500D02*
X86799Y-70500D01*
X86799Y-56500D02*
X86799Y-63500D01*
X80000Y-47500D02*
X80000Y-49500D01*
X86500Y-56200D02*
X86799Y-56500D01*
X86500Y-51000D02*
X86500Y-56200D01*
X86000Y-50500D02*
X86500Y-51000D01*
X81000Y-50500D02*
X86000Y-50500D01*
X80000Y-49500D02*
X81000Y-50500D01*
M02*
