G04 (created by PCBNEW (2013-07-07 BZR 4022)-stable) date 09/11/2015 23:04:07*
%MOIN*%
G04 Gerber Fmt 3.4, Leading zero omitted, Abs format*
%FSLAX34Y34*%
G01*
G70*
G90*
G04 APERTURE LIST*
%ADD10C,0.00393701*%
%ADD11C,0.012*%
%ADD12C,0.0107*%
%ADD13C,0.00590551*%
G04 APERTURE END LIST*
G54D10*
G54D11*
X75500Y-47000D02*
X75500Y-47000D01*
X75500Y-47000D02*
X82500Y-47000D01*
X82500Y-47000D02*
X82500Y-48000D01*
X82500Y-48000D02*
X75500Y-48000D01*
X75500Y-48000D02*
X75500Y-47000D01*
X76500Y-48000D02*
X76500Y-48000D01*
X76500Y-48000D02*
X76500Y-47000D01*
G54D12*
X78684Y-46775D02*
X78684Y-46094D01*
X78847Y-46094D01*
X78887Y-46127D01*
X78908Y-46159D01*
X78928Y-46224D01*
X78928Y-46321D01*
X78908Y-46386D01*
X78887Y-46418D01*
X78847Y-46451D01*
X78684Y-46451D01*
X79336Y-46775D02*
X79091Y-46775D01*
X79214Y-46775D02*
X79214Y-46094D01*
X79173Y-46191D01*
X79132Y-46256D01*
X79091Y-46289D01*
G54D11*
G54D13*
X85740Y-54321D02*
X85722Y-54340D01*
X85665Y-54359D01*
X85628Y-54359D01*
X85572Y-54340D01*
X85534Y-54303D01*
X85515Y-54265D01*
X85497Y-54190D01*
X85497Y-54134D01*
X85515Y-54059D01*
X85534Y-54021D01*
X85572Y-53984D01*
X85628Y-53965D01*
X85665Y-53965D01*
X85722Y-53984D01*
X85740Y-54003D01*
X85909Y-54359D02*
X85909Y-53965D01*
X85909Y-54153D02*
X86134Y-54153D01*
X86134Y-54359D02*
X86134Y-53965D01*
X86321Y-54153D02*
X86453Y-54153D01*
X86509Y-54359D02*
X86321Y-54359D01*
X86321Y-53965D01*
X86509Y-53965D01*
X86903Y-54359D02*
X86771Y-54171D01*
X86678Y-54359D02*
X86678Y-53965D01*
X86828Y-53965D01*
X86865Y-53984D01*
X86884Y-54003D01*
X86903Y-54040D01*
X86903Y-54096D01*
X86884Y-54134D01*
X86865Y-54153D01*
X86828Y-54171D01*
X86678Y-54171D01*
X87296Y-54359D02*
X87165Y-54171D01*
X87071Y-54359D02*
X87071Y-53965D01*
X87221Y-53965D01*
X87259Y-53984D01*
X87278Y-54003D01*
X87296Y-54040D01*
X87296Y-54096D01*
X87278Y-54134D01*
X87259Y-54153D01*
X87221Y-54171D01*
X87071Y-54171D01*
X87540Y-54171D02*
X87540Y-54359D01*
X87409Y-53965D02*
X87540Y-54171D01*
X87671Y-53965D01*
X87709Y-54396D02*
X88009Y-54396D01*
X88102Y-54359D02*
X88102Y-53965D01*
X88234Y-54246D01*
X88365Y-53965D01*
X88365Y-54359D01*
X88740Y-54359D02*
X88552Y-54359D01*
X88552Y-53965D01*
X93240Y-54321D02*
X93222Y-54340D01*
X93165Y-54359D01*
X93128Y-54359D01*
X93072Y-54340D01*
X93034Y-54303D01*
X93015Y-54265D01*
X92997Y-54190D01*
X92997Y-54134D01*
X93015Y-54059D01*
X93034Y-54021D01*
X93072Y-53984D01*
X93128Y-53965D01*
X93165Y-53965D01*
X93222Y-53984D01*
X93240Y-54003D01*
X93409Y-54359D02*
X93409Y-53965D01*
X93409Y-54153D02*
X93634Y-54153D01*
X93634Y-54359D02*
X93634Y-53965D01*
X93821Y-54153D02*
X93953Y-54153D01*
X94009Y-54359D02*
X93821Y-54359D01*
X93821Y-53965D01*
X94009Y-53965D01*
X94403Y-54359D02*
X94271Y-54171D01*
X94178Y-54359D02*
X94178Y-53965D01*
X94328Y-53965D01*
X94365Y-53984D01*
X94384Y-54003D01*
X94403Y-54040D01*
X94403Y-54096D01*
X94384Y-54134D01*
X94365Y-54153D01*
X94328Y-54171D01*
X94178Y-54171D01*
X94796Y-54359D02*
X94665Y-54171D01*
X94571Y-54359D02*
X94571Y-53965D01*
X94721Y-53965D01*
X94759Y-53984D01*
X94778Y-54003D01*
X94796Y-54040D01*
X94796Y-54096D01*
X94778Y-54134D01*
X94759Y-54153D01*
X94721Y-54171D01*
X94571Y-54171D01*
X95040Y-54171D02*
X95040Y-54359D01*
X94909Y-53965D02*
X95040Y-54171D01*
X95171Y-53965D01*
X95209Y-54396D02*
X95509Y-54396D01*
X95602Y-54359D02*
X95602Y-53965D01*
X95734Y-54246D01*
X95865Y-53965D01*
X95865Y-54359D01*
X96240Y-54359D02*
X96052Y-54359D01*
X96052Y-53965D01*
X78240Y-61321D02*
X78222Y-61340D01*
X78165Y-61359D01*
X78128Y-61359D01*
X78072Y-61340D01*
X78034Y-61303D01*
X78015Y-61265D01*
X77997Y-61190D01*
X77997Y-61134D01*
X78015Y-61059D01*
X78034Y-61021D01*
X78072Y-60984D01*
X78128Y-60965D01*
X78165Y-60965D01*
X78222Y-60984D01*
X78240Y-61003D01*
X78409Y-61359D02*
X78409Y-60965D01*
X78409Y-61153D02*
X78634Y-61153D01*
X78634Y-61359D02*
X78634Y-60965D01*
X78821Y-61153D02*
X78953Y-61153D01*
X79009Y-61359D02*
X78821Y-61359D01*
X78821Y-60965D01*
X79009Y-60965D01*
X79403Y-61359D02*
X79271Y-61171D01*
X79178Y-61359D02*
X79178Y-60965D01*
X79328Y-60965D01*
X79365Y-60984D01*
X79384Y-61003D01*
X79403Y-61040D01*
X79403Y-61096D01*
X79384Y-61134D01*
X79365Y-61153D01*
X79328Y-61171D01*
X79178Y-61171D01*
X79796Y-61359D02*
X79665Y-61171D01*
X79571Y-61359D02*
X79571Y-60965D01*
X79721Y-60965D01*
X79759Y-60984D01*
X79778Y-61003D01*
X79796Y-61040D01*
X79796Y-61096D01*
X79778Y-61134D01*
X79759Y-61153D01*
X79721Y-61171D01*
X79571Y-61171D01*
X80040Y-61171D02*
X80040Y-61359D01*
X79909Y-60965D02*
X80040Y-61171D01*
X80171Y-60965D01*
X80209Y-61396D02*
X80509Y-61396D01*
X80602Y-61359D02*
X80602Y-60965D01*
X80734Y-61246D01*
X80865Y-60965D01*
X80865Y-61359D01*
X81240Y-61359D02*
X81052Y-61359D01*
X81052Y-60965D01*
X85740Y-61321D02*
X85722Y-61340D01*
X85665Y-61359D01*
X85628Y-61359D01*
X85572Y-61340D01*
X85534Y-61303D01*
X85515Y-61265D01*
X85497Y-61190D01*
X85497Y-61134D01*
X85515Y-61059D01*
X85534Y-61021D01*
X85572Y-60984D01*
X85628Y-60965D01*
X85665Y-60965D01*
X85722Y-60984D01*
X85740Y-61003D01*
X85909Y-61359D02*
X85909Y-60965D01*
X85909Y-61153D02*
X86134Y-61153D01*
X86134Y-61359D02*
X86134Y-60965D01*
X86321Y-61153D02*
X86453Y-61153D01*
X86509Y-61359D02*
X86321Y-61359D01*
X86321Y-60965D01*
X86509Y-60965D01*
X86903Y-61359D02*
X86771Y-61171D01*
X86678Y-61359D02*
X86678Y-60965D01*
X86828Y-60965D01*
X86865Y-60984D01*
X86884Y-61003D01*
X86903Y-61040D01*
X86903Y-61096D01*
X86884Y-61134D01*
X86865Y-61153D01*
X86828Y-61171D01*
X86678Y-61171D01*
X87296Y-61359D02*
X87165Y-61171D01*
X87071Y-61359D02*
X87071Y-60965D01*
X87221Y-60965D01*
X87259Y-60984D01*
X87278Y-61003D01*
X87296Y-61040D01*
X87296Y-61096D01*
X87278Y-61134D01*
X87259Y-61153D01*
X87221Y-61171D01*
X87071Y-61171D01*
X87540Y-61171D02*
X87540Y-61359D01*
X87409Y-60965D02*
X87540Y-61171D01*
X87671Y-60965D01*
X87709Y-61396D02*
X88009Y-61396D01*
X88102Y-61359D02*
X88102Y-60965D01*
X88234Y-61246D01*
X88365Y-60965D01*
X88365Y-61359D01*
X88740Y-61359D02*
X88552Y-61359D01*
X88552Y-60965D01*
X93240Y-61321D02*
X93222Y-61340D01*
X93165Y-61359D01*
X93128Y-61359D01*
X93072Y-61340D01*
X93034Y-61303D01*
X93015Y-61265D01*
X92997Y-61190D01*
X92997Y-61134D01*
X93015Y-61059D01*
X93034Y-61021D01*
X93072Y-60984D01*
X93128Y-60965D01*
X93165Y-60965D01*
X93222Y-60984D01*
X93240Y-61003D01*
X93409Y-61359D02*
X93409Y-60965D01*
X93409Y-61153D02*
X93634Y-61153D01*
X93634Y-61359D02*
X93634Y-60965D01*
X93821Y-61153D02*
X93953Y-61153D01*
X94009Y-61359D02*
X93821Y-61359D01*
X93821Y-60965D01*
X94009Y-60965D01*
X94403Y-61359D02*
X94271Y-61171D01*
X94178Y-61359D02*
X94178Y-60965D01*
X94328Y-60965D01*
X94365Y-60984D01*
X94384Y-61003D01*
X94403Y-61040D01*
X94403Y-61096D01*
X94384Y-61134D01*
X94365Y-61153D01*
X94328Y-61171D01*
X94178Y-61171D01*
X94796Y-61359D02*
X94665Y-61171D01*
X94571Y-61359D02*
X94571Y-60965D01*
X94721Y-60965D01*
X94759Y-60984D01*
X94778Y-61003D01*
X94796Y-61040D01*
X94796Y-61096D01*
X94778Y-61134D01*
X94759Y-61153D01*
X94721Y-61171D01*
X94571Y-61171D01*
X95040Y-61171D02*
X95040Y-61359D01*
X94909Y-60965D02*
X95040Y-61171D01*
X95171Y-60965D01*
X95209Y-61396D02*
X95509Y-61396D01*
X95602Y-61359D02*
X95602Y-60965D01*
X95734Y-61246D01*
X95865Y-60965D01*
X95865Y-61359D01*
X96240Y-61359D02*
X96052Y-61359D01*
X96052Y-60965D01*
X100740Y-54321D02*
X100722Y-54340D01*
X100665Y-54359D01*
X100628Y-54359D01*
X100572Y-54340D01*
X100534Y-54303D01*
X100515Y-54265D01*
X100497Y-54190D01*
X100497Y-54134D01*
X100515Y-54059D01*
X100534Y-54021D01*
X100572Y-53984D01*
X100628Y-53965D01*
X100665Y-53965D01*
X100722Y-53984D01*
X100740Y-54003D01*
X100909Y-54359D02*
X100909Y-53965D01*
X100909Y-54153D02*
X101134Y-54153D01*
X101134Y-54359D02*
X101134Y-53965D01*
X101321Y-54153D02*
X101453Y-54153D01*
X101509Y-54359D02*
X101321Y-54359D01*
X101321Y-53965D01*
X101509Y-53965D01*
X101903Y-54359D02*
X101771Y-54171D01*
X101678Y-54359D02*
X101678Y-53965D01*
X101828Y-53965D01*
X101865Y-53984D01*
X101884Y-54003D01*
X101903Y-54040D01*
X101903Y-54096D01*
X101884Y-54134D01*
X101865Y-54153D01*
X101828Y-54171D01*
X101678Y-54171D01*
X102296Y-54359D02*
X102165Y-54171D01*
X102071Y-54359D02*
X102071Y-53965D01*
X102221Y-53965D01*
X102259Y-53984D01*
X102278Y-54003D01*
X102296Y-54040D01*
X102296Y-54096D01*
X102278Y-54134D01*
X102259Y-54153D01*
X102221Y-54171D01*
X102071Y-54171D01*
X102540Y-54171D02*
X102540Y-54359D01*
X102409Y-53965D02*
X102540Y-54171D01*
X102671Y-53965D01*
X102709Y-54396D02*
X103009Y-54396D01*
X103102Y-54359D02*
X103102Y-53965D01*
X103234Y-54246D01*
X103365Y-53965D01*
X103365Y-54359D01*
X103740Y-54359D02*
X103552Y-54359D01*
X103552Y-53965D01*
X100740Y-61321D02*
X100722Y-61340D01*
X100665Y-61359D01*
X100628Y-61359D01*
X100572Y-61340D01*
X100534Y-61303D01*
X100515Y-61265D01*
X100497Y-61190D01*
X100497Y-61134D01*
X100515Y-61059D01*
X100534Y-61021D01*
X100572Y-60984D01*
X100628Y-60965D01*
X100665Y-60965D01*
X100722Y-60984D01*
X100740Y-61003D01*
X100909Y-61359D02*
X100909Y-60965D01*
X100909Y-61153D02*
X101134Y-61153D01*
X101134Y-61359D02*
X101134Y-60965D01*
X101321Y-61153D02*
X101453Y-61153D01*
X101509Y-61359D02*
X101321Y-61359D01*
X101321Y-60965D01*
X101509Y-60965D01*
X101903Y-61359D02*
X101771Y-61171D01*
X101678Y-61359D02*
X101678Y-60965D01*
X101828Y-60965D01*
X101865Y-60984D01*
X101884Y-61003D01*
X101903Y-61040D01*
X101903Y-61096D01*
X101884Y-61134D01*
X101865Y-61153D01*
X101828Y-61171D01*
X101678Y-61171D01*
X102296Y-61359D02*
X102165Y-61171D01*
X102071Y-61359D02*
X102071Y-60965D01*
X102221Y-60965D01*
X102259Y-60984D01*
X102278Y-61003D01*
X102296Y-61040D01*
X102296Y-61096D01*
X102278Y-61134D01*
X102259Y-61153D01*
X102221Y-61171D01*
X102071Y-61171D01*
X102540Y-61171D02*
X102540Y-61359D01*
X102409Y-60965D02*
X102540Y-61171D01*
X102671Y-60965D01*
X102709Y-61396D02*
X103009Y-61396D01*
X103102Y-61359D02*
X103102Y-60965D01*
X103234Y-61246D01*
X103365Y-60965D01*
X103365Y-61359D01*
X103740Y-61359D02*
X103552Y-61359D01*
X103552Y-60965D01*
X78240Y-68321D02*
X78222Y-68340D01*
X78165Y-68359D01*
X78128Y-68359D01*
X78072Y-68340D01*
X78034Y-68303D01*
X78015Y-68265D01*
X77997Y-68190D01*
X77997Y-68134D01*
X78015Y-68059D01*
X78034Y-68021D01*
X78072Y-67984D01*
X78128Y-67965D01*
X78165Y-67965D01*
X78222Y-67984D01*
X78240Y-68003D01*
X78409Y-68359D02*
X78409Y-67965D01*
X78409Y-68153D02*
X78634Y-68153D01*
X78634Y-68359D02*
X78634Y-67965D01*
X78821Y-68153D02*
X78953Y-68153D01*
X79009Y-68359D02*
X78821Y-68359D01*
X78821Y-67965D01*
X79009Y-67965D01*
X79403Y-68359D02*
X79271Y-68171D01*
X79178Y-68359D02*
X79178Y-67965D01*
X79328Y-67965D01*
X79365Y-67984D01*
X79384Y-68003D01*
X79403Y-68040D01*
X79403Y-68096D01*
X79384Y-68134D01*
X79365Y-68153D01*
X79328Y-68171D01*
X79178Y-68171D01*
X79796Y-68359D02*
X79665Y-68171D01*
X79571Y-68359D02*
X79571Y-67965D01*
X79721Y-67965D01*
X79759Y-67984D01*
X79778Y-68003D01*
X79796Y-68040D01*
X79796Y-68096D01*
X79778Y-68134D01*
X79759Y-68153D01*
X79721Y-68171D01*
X79571Y-68171D01*
X80040Y-68171D02*
X80040Y-68359D01*
X79909Y-67965D02*
X80040Y-68171D01*
X80171Y-67965D01*
X80209Y-68396D02*
X80509Y-68396D01*
X80602Y-68359D02*
X80602Y-67965D01*
X80734Y-68246D01*
X80865Y-67965D01*
X80865Y-68359D01*
X81240Y-68359D02*
X81052Y-68359D01*
X81052Y-67965D01*
X85740Y-68321D02*
X85722Y-68340D01*
X85665Y-68359D01*
X85628Y-68359D01*
X85572Y-68340D01*
X85534Y-68303D01*
X85515Y-68265D01*
X85497Y-68190D01*
X85497Y-68134D01*
X85515Y-68059D01*
X85534Y-68021D01*
X85572Y-67984D01*
X85628Y-67965D01*
X85665Y-67965D01*
X85722Y-67984D01*
X85740Y-68003D01*
X85909Y-68359D02*
X85909Y-67965D01*
X85909Y-68153D02*
X86134Y-68153D01*
X86134Y-68359D02*
X86134Y-67965D01*
X86321Y-68153D02*
X86453Y-68153D01*
X86509Y-68359D02*
X86321Y-68359D01*
X86321Y-67965D01*
X86509Y-67965D01*
X86903Y-68359D02*
X86771Y-68171D01*
X86678Y-68359D02*
X86678Y-67965D01*
X86828Y-67965D01*
X86865Y-67984D01*
X86884Y-68003D01*
X86903Y-68040D01*
X86903Y-68096D01*
X86884Y-68134D01*
X86865Y-68153D01*
X86828Y-68171D01*
X86678Y-68171D01*
X87296Y-68359D02*
X87165Y-68171D01*
X87071Y-68359D02*
X87071Y-67965D01*
X87221Y-67965D01*
X87259Y-67984D01*
X87278Y-68003D01*
X87296Y-68040D01*
X87296Y-68096D01*
X87278Y-68134D01*
X87259Y-68153D01*
X87221Y-68171D01*
X87071Y-68171D01*
X87540Y-68171D02*
X87540Y-68359D01*
X87409Y-67965D02*
X87540Y-68171D01*
X87671Y-67965D01*
X87709Y-68396D02*
X88009Y-68396D01*
X88102Y-68359D02*
X88102Y-67965D01*
X88234Y-68246D01*
X88365Y-67965D01*
X88365Y-68359D01*
X88740Y-68359D02*
X88552Y-68359D01*
X88552Y-67965D01*
X93240Y-68321D02*
X93222Y-68340D01*
X93165Y-68359D01*
X93128Y-68359D01*
X93072Y-68340D01*
X93034Y-68303D01*
X93015Y-68265D01*
X92997Y-68190D01*
X92997Y-68134D01*
X93015Y-68059D01*
X93034Y-68021D01*
X93072Y-67984D01*
X93128Y-67965D01*
X93165Y-67965D01*
X93222Y-67984D01*
X93240Y-68003D01*
X93409Y-68359D02*
X93409Y-67965D01*
X93409Y-68153D02*
X93634Y-68153D01*
X93634Y-68359D02*
X93634Y-67965D01*
X93821Y-68153D02*
X93953Y-68153D01*
X94009Y-68359D02*
X93821Y-68359D01*
X93821Y-67965D01*
X94009Y-67965D01*
X94403Y-68359D02*
X94271Y-68171D01*
X94178Y-68359D02*
X94178Y-67965D01*
X94328Y-67965D01*
X94365Y-67984D01*
X94384Y-68003D01*
X94403Y-68040D01*
X94403Y-68096D01*
X94384Y-68134D01*
X94365Y-68153D01*
X94328Y-68171D01*
X94178Y-68171D01*
X94796Y-68359D02*
X94665Y-68171D01*
X94571Y-68359D02*
X94571Y-67965D01*
X94721Y-67965D01*
X94759Y-67984D01*
X94778Y-68003D01*
X94796Y-68040D01*
X94796Y-68096D01*
X94778Y-68134D01*
X94759Y-68153D01*
X94721Y-68171D01*
X94571Y-68171D01*
X95040Y-68171D02*
X95040Y-68359D01*
X94909Y-67965D02*
X95040Y-68171D01*
X95171Y-67965D01*
X95209Y-68396D02*
X95509Y-68396D01*
X95602Y-68359D02*
X95602Y-67965D01*
X95734Y-68246D01*
X95865Y-67965D01*
X95865Y-68359D01*
X96240Y-68359D02*
X96052Y-68359D01*
X96052Y-67965D01*
X100740Y-68321D02*
X100722Y-68340D01*
X100665Y-68359D01*
X100628Y-68359D01*
X100572Y-68340D01*
X100534Y-68303D01*
X100515Y-68265D01*
X100497Y-68190D01*
X100497Y-68134D01*
X100515Y-68059D01*
X100534Y-68021D01*
X100572Y-67984D01*
X100628Y-67965D01*
X100665Y-67965D01*
X100722Y-67984D01*
X100740Y-68003D01*
X100909Y-68359D02*
X100909Y-67965D01*
X100909Y-68153D02*
X101134Y-68153D01*
X101134Y-68359D02*
X101134Y-67965D01*
X101321Y-68153D02*
X101453Y-68153D01*
X101509Y-68359D02*
X101321Y-68359D01*
X101321Y-67965D01*
X101509Y-67965D01*
X101903Y-68359D02*
X101771Y-68171D01*
X101678Y-68359D02*
X101678Y-67965D01*
X101828Y-67965D01*
X101865Y-67984D01*
X101884Y-68003D01*
X101903Y-68040D01*
X101903Y-68096D01*
X101884Y-68134D01*
X101865Y-68153D01*
X101828Y-68171D01*
X101678Y-68171D01*
X102296Y-68359D02*
X102165Y-68171D01*
X102071Y-68359D02*
X102071Y-67965D01*
X102221Y-67965D01*
X102259Y-67984D01*
X102278Y-68003D01*
X102296Y-68040D01*
X102296Y-68096D01*
X102278Y-68134D01*
X102259Y-68153D01*
X102221Y-68171D01*
X102071Y-68171D01*
X102540Y-68171D02*
X102540Y-68359D01*
X102409Y-67965D02*
X102540Y-68171D01*
X102671Y-67965D01*
X102709Y-68396D02*
X103009Y-68396D01*
X103102Y-68359D02*
X103102Y-67965D01*
X103234Y-68246D01*
X103365Y-67965D01*
X103365Y-68359D01*
X103740Y-68359D02*
X103552Y-68359D01*
X103552Y-67965D01*
X78240Y-54321D02*
X78222Y-54340D01*
X78165Y-54359D01*
X78128Y-54359D01*
X78072Y-54340D01*
X78034Y-54303D01*
X78015Y-54265D01*
X77997Y-54190D01*
X77997Y-54134D01*
X78015Y-54059D01*
X78034Y-54021D01*
X78072Y-53984D01*
X78128Y-53965D01*
X78165Y-53965D01*
X78222Y-53984D01*
X78240Y-54003D01*
X78409Y-54359D02*
X78409Y-53965D01*
X78409Y-54153D02*
X78634Y-54153D01*
X78634Y-54359D02*
X78634Y-53965D01*
X78821Y-54153D02*
X78953Y-54153D01*
X79009Y-54359D02*
X78821Y-54359D01*
X78821Y-53965D01*
X79009Y-53965D01*
X79403Y-54359D02*
X79271Y-54171D01*
X79178Y-54359D02*
X79178Y-53965D01*
X79328Y-53965D01*
X79365Y-53984D01*
X79384Y-54003D01*
X79403Y-54040D01*
X79403Y-54096D01*
X79384Y-54134D01*
X79365Y-54153D01*
X79328Y-54171D01*
X79178Y-54171D01*
X79796Y-54359D02*
X79665Y-54171D01*
X79571Y-54359D02*
X79571Y-53965D01*
X79721Y-53965D01*
X79759Y-53984D01*
X79778Y-54003D01*
X79796Y-54040D01*
X79796Y-54096D01*
X79778Y-54134D01*
X79759Y-54153D01*
X79721Y-54171D01*
X79571Y-54171D01*
X80040Y-54171D02*
X80040Y-54359D01*
X79909Y-53965D02*
X80040Y-54171D01*
X80171Y-53965D01*
X80209Y-54396D02*
X80509Y-54396D01*
X80602Y-54359D02*
X80602Y-53965D01*
X80734Y-54246D01*
X80865Y-53965D01*
X80865Y-54359D01*
X81240Y-54359D02*
X81052Y-54359D01*
X81052Y-53965D01*
X100221Y-64659D02*
X100221Y-64265D01*
X100315Y-64265D01*
X100371Y-64284D01*
X100409Y-64321D01*
X100428Y-64359D01*
X100446Y-64434D01*
X100446Y-64490D01*
X100428Y-64565D01*
X100409Y-64603D01*
X100371Y-64640D01*
X100315Y-64659D01*
X100221Y-64659D01*
X100615Y-64659D02*
X100615Y-64265D01*
X100878Y-64265D02*
X100953Y-64265D01*
X100990Y-64284D01*
X101028Y-64321D01*
X101046Y-64396D01*
X101046Y-64528D01*
X101028Y-64603D01*
X100990Y-64640D01*
X100953Y-64659D01*
X100878Y-64659D01*
X100840Y-64640D01*
X100803Y-64603D01*
X100784Y-64528D01*
X100784Y-64396D01*
X100803Y-64321D01*
X100840Y-64284D01*
X100878Y-64265D01*
X101215Y-64659D02*
X101215Y-64265D01*
X101309Y-64265D01*
X101365Y-64284D01*
X101403Y-64321D01*
X101421Y-64359D01*
X101440Y-64434D01*
X101440Y-64490D01*
X101421Y-64565D01*
X101403Y-64603D01*
X101365Y-64640D01*
X101309Y-64659D01*
X101215Y-64659D01*
X101609Y-64453D02*
X101740Y-64453D01*
X101796Y-64659D02*
X101609Y-64659D01*
X101609Y-64265D01*
X101796Y-64265D01*
X100221Y-71659D02*
X100221Y-71265D01*
X100315Y-71265D01*
X100371Y-71284D01*
X100409Y-71321D01*
X100428Y-71359D01*
X100446Y-71434D01*
X100446Y-71490D01*
X100428Y-71565D01*
X100409Y-71603D01*
X100371Y-71640D01*
X100315Y-71659D01*
X100221Y-71659D01*
X100615Y-71659D02*
X100615Y-71265D01*
X100878Y-71265D02*
X100953Y-71265D01*
X100990Y-71284D01*
X101028Y-71321D01*
X101046Y-71396D01*
X101046Y-71528D01*
X101028Y-71603D01*
X100990Y-71640D01*
X100953Y-71659D01*
X100878Y-71659D01*
X100840Y-71640D01*
X100803Y-71603D01*
X100784Y-71528D01*
X100784Y-71396D01*
X100803Y-71321D01*
X100840Y-71284D01*
X100878Y-71265D01*
X101215Y-71659D02*
X101215Y-71265D01*
X101309Y-71265D01*
X101365Y-71284D01*
X101403Y-71321D01*
X101421Y-71359D01*
X101440Y-71434D01*
X101440Y-71490D01*
X101421Y-71565D01*
X101403Y-71603D01*
X101365Y-71640D01*
X101309Y-71659D01*
X101215Y-71659D01*
X101609Y-71453D02*
X101740Y-71453D01*
X101796Y-71659D02*
X101609Y-71659D01*
X101609Y-71265D01*
X101796Y-71265D01*
X77721Y-71659D02*
X77721Y-71265D01*
X77815Y-71265D01*
X77871Y-71284D01*
X77909Y-71321D01*
X77928Y-71359D01*
X77946Y-71434D01*
X77946Y-71490D01*
X77928Y-71565D01*
X77909Y-71603D01*
X77871Y-71640D01*
X77815Y-71659D01*
X77721Y-71659D01*
X78115Y-71659D02*
X78115Y-71265D01*
X78378Y-71265D02*
X78453Y-71265D01*
X78490Y-71284D01*
X78528Y-71321D01*
X78546Y-71396D01*
X78546Y-71528D01*
X78528Y-71603D01*
X78490Y-71640D01*
X78453Y-71659D01*
X78378Y-71659D01*
X78340Y-71640D01*
X78303Y-71603D01*
X78284Y-71528D01*
X78284Y-71396D01*
X78303Y-71321D01*
X78340Y-71284D01*
X78378Y-71265D01*
X78715Y-71659D02*
X78715Y-71265D01*
X78809Y-71265D01*
X78865Y-71284D01*
X78903Y-71321D01*
X78921Y-71359D01*
X78940Y-71434D01*
X78940Y-71490D01*
X78921Y-71565D01*
X78903Y-71603D01*
X78865Y-71640D01*
X78809Y-71659D01*
X78715Y-71659D01*
X79109Y-71453D02*
X79240Y-71453D01*
X79296Y-71659D02*
X79109Y-71659D01*
X79109Y-71265D01*
X79296Y-71265D01*
X85221Y-71659D02*
X85221Y-71265D01*
X85315Y-71265D01*
X85371Y-71284D01*
X85409Y-71321D01*
X85428Y-71359D01*
X85446Y-71434D01*
X85446Y-71490D01*
X85428Y-71565D01*
X85409Y-71603D01*
X85371Y-71640D01*
X85315Y-71659D01*
X85221Y-71659D01*
X85615Y-71659D02*
X85615Y-71265D01*
X85878Y-71265D02*
X85953Y-71265D01*
X85990Y-71284D01*
X86028Y-71321D01*
X86046Y-71396D01*
X86046Y-71528D01*
X86028Y-71603D01*
X85990Y-71640D01*
X85953Y-71659D01*
X85878Y-71659D01*
X85840Y-71640D01*
X85803Y-71603D01*
X85784Y-71528D01*
X85784Y-71396D01*
X85803Y-71321D01*
X85840Y-71284D01*
X85878Y-71265D01*
X86215Y-71659D02*
X86215Y-71265D01*
X86309Y-71265D01*
X86365Y-71284D01*
X86403Y-71321D01*
X86421Y-71359D01*
X86440Y-71434D01*
X86440Y-71490D01*
X86421Y-71565D01*
X86403Y-71603D01*
X86365Y-71640D01*
X86309Y-71659D01*
X86215Y-71659D01*
X86609Y-71453D02*
X86740Y-71453D01*
X86796Y-71659D02*
X86609Y-71659D01*
X86609Y-71265D01*
X86796Y-71265D01*
X92721Y-71659D02*
X92721Y-71265D01*
X92815Y-71265D01*
X92871Y-71284D01*
X92909Y-71321D01*
X92928Y-71359D01*
X92946Y-71434D01*
X92946Y-71490D01*
X92928Y-71565D01*
X92909Y-71603D01*
X92871Y-71640D01*
X92815Y-71659D01*
X92721Y-71659D01*
X93115Y-71659D02*
X93115Y-71265D01*
X93378Y-71265D02*
X93453Y-71265D01*
X93490Y-71284D01*
X93528Y-71321D01*
X93546Y-71396D01*
X93546Y-71528D01*
X93528Y-71603D01*
X93490Y-71640D01*
X93453Y-71659D01*
X93378Y-71659D01*
X93340Y-71640D01*
X93303Y-71603D01*
X93284Y-71528D01*
X93284Y-71396D01*
X93303Y-71321D01*
X93340Y-71284D01*
X93378Y-71265D01*
X93715Y-71659D02*
X93715Y-71265D01*
X93809Y-71265D01*
X93865Y-71284D01*
X93903Y-71321D01*
X93921Y-71359D01*
X93940Y-71434D01*
X93940Y-71490D01*
X93921Y-71565D01*
X93903Y-71603D01*
X93865Y-71640D01*
X93809Y-71659D01*
X93715Y-71659D01*
X94109Y-71453D02*
X94240Y-71453D01*
X94296Y-71659D02*
X94109Y-71659D01*
X94109Y-71265D01*
X94296Y-71265D01*
X92721Y-64659D02*
X92721Y-64265D01*
X92815Y-64265D01*
X92871Y-64284D01*
X92909Y-64321D01*
X92928Y-64359D01*
X92946Y-64434D01*
X92946Y-64490D01*
X92928Y-64565D01*
X92909Y-64603D01*
X92871Y-64640D01*
X92815Y-64659D01*
X92721Y-64659D01*
X93115Y-64659D02*
X93115Y-64265D01*
X93378Y-64265D02*
X93453Y-64265D01*
X93490Y-64284D01*
X93528Y-64321D01*
X93546Y-64396D01*
X93546Y-64528D01*
X93528Y-64603D01*
X93490Y-64640D01*
X93453Y-64659D01*
X93378Y-64659D01*
X93340Y-64640D01*
X93303Y-64603D01*
X93284Y-64528D01*
X93284Y-64396D01*
X93303Y-64321D01*
X93340Y-64284D01*
X93378Y-64265D01*
X93715Y-64659D02*
X93715Y-64265D01*
X93809Y-64265D01*
X93865Y-64284D01*
X93903Y-64321D01*
X93921Y-64359D01*
X93940Y-64434D01*
X93940Y-64490D01*
X93921Y-64565D01*
X93903Y-64603D01*
X93865Y-64640D01*
X93809Y-64659D01*
X93715Y-64659D01*
X94109Y-64453D02*
X94240Y-64453D01*
X94296Y-64659D02*
X94109Y-64659D01*
X94109Y-64265D01*
X94296Y-64265D01*
X85221Y-64659D02*
X85221Y-64265D01*
X85315Y-64265D01*
X85371Y-64284D01*
X85409Y-64321D01*
X85428Y-64359D01*
X85446Y-64434D01*
X85446Y-64490D01*
X85428Y-64565D01*
X85409Y-64603D01*
X85371Y-64640D01*
X85315Y-64659D01*
X85221Y-64659D01*
X85615Y-64659D02*
X85615Y-64265D01*
X85878Y-64265D02*
X85953Y-64265D01*
X85990Y-64284D01*
X86028Y-64321D01*
X86046Y-64396D01*
X86046Y-64528D01*
X86028Y-64603D01*
X85990Y-64640D01*
X85953Y-64659D01*
X85878Y-64659D01*
X85840Y-64640D01*
X85803Y-64603D01*
X85784Y-64528D01*
X85784Y-64396D01*
X85803Y-64321D01*
X85840Y-64284D01*
X85878Y-64265D01*
X86215Y-64659D02*
X86215Y-64265D01*
X86309Y-64265D01*
X86365Y-64284D01*
X86403Y-64321D01*
X86421Y-64359D01*
X86440Y-64434D01*
X86440Y-64490D01*
X86421Y-64565D01*
X86403Y-64603D01*
X86365Y-64640D01*
X86309Y-64659D01*
X86215Y-64659D01*
X86609Y-64453D02*
X86740Y-64453D01*
X86796Y-64659D02*
X86609Y-64659D01*
X86609Y-64265D01*
X86796Y-64265D01*
X77721Y-64659D02*
X77721Y-64265D01*
X77815Y-64265D01*
X77871Y-64284D01*
X77909Y-64321D01*
X77928Y-64359D01*
X77946Y-64434D01*
X77946Y-64490D01*
X77928Y-64565D01*
X77909Y-64603D01*
X77871Y-64640D01*
X77815Y-64659D01*
X77721Y-64659D01*
X78115Y-64659D02*
X78115Y-64265D01*
X78378Y-64265D02*
X78453Y-64265D01*
X78490Y-64284D01*
X78528Y-64321D01*
X78546Y-64396D01*
X78546Y-64528D01*
X78528Y-64603D01*
X78490Y-64640D01*
X78453Y-64659D01*
X78378Y-64659D01*
X78340Y-64640D01*
X78303Y-64603D01*
X78284Y-64528D01*
X78284Y-64396D01*
X78303Y-64321D01*
X78340Y-64284D01*
X78378Y-64265D01*
X78715Y-64659D02*
X78715Y-64265D01*
X78809Y-64265D01*
X78865Y-64284D01*
X78903Y-64321D01*
X78921Y-64359D01*
X78940Y-64434D01*
X78940Y-64490D01*
X78921Y-64565D01*
X78903Y-64603D01*
X78865Y-64640D01*
X78809Y-64659D01*
X78715Y-64659D01*
X79109Y-64453D02*
X79240Y-64453D01*
X79296Y-64659D02*
X79109Y-64659D01*
X79109Y-64265D01*
X79296Y-64265D01*
X100221Y-57659D02*
X100221Y-57265D01*
X100315Y-57265D01*
X100371Y-57284D01*
X100409Y-57321D01*
X100428Y-57359D01*
X100446Y-57434D01*
X100446Y-57490D01*
X100428Y-57565D01*
X100409Y-57603D01*
X100371Y-57640D01*
X100315Y-57659D01*
X100221Y-57659D01*
X100615Y-57659D02*
X100615Y-57265D01*
X100878Y-57265D02*
X100953Y-57265D01*
X100990Y-57284D01*
X101028Y-57321D01*
X101046Y-57396D01*
X101046Y-57528D01*
X101028Y-57603D01*
X100990Y-57640D01*
X100953Y-57659D01*
X100878Y-57659D01*
X100840Y-57640D01*
X100803Y-57603D01*
X100784Y-57528D01*
X100784Y-57396D01*
X100803Y-57321D01*
X100840Y-57284D01*
X100878Y-57265D01*
X101215Y-57659D02*
X101215Y-57265D01*
X101309Y-57265D01*
X101365Y-57284D01*
X101403Y-57321D01*
X101421Y-57359D01*
X101440Y-57434D01*
X101440Y-57490D01*
X101421Y-57565D01*
X101403Y-57603D01*
X101365Y-57640D01*
X101309Y-57659D01*
X101215Y-57659D01*
X101609Y-57453D02*
X101740Y-57453D01*
X101796Y-57659D02*
X101609Y-57659D01*
X101609Y-57265D01*
X101796Y-57265D01*
X92721Y-57659D02*
X92721Y-57265D01*
X92815Y-57265D01*
X92871Y-57284D01*
X92909Y-57321D01*
X92928Y-57359D01*
X92946Y-57434D01*
X92946Y-57490D01*
X92928Y-57565D01*
X92909Y-57603D01*
X92871Y-57640D01*
X92815Y-57659D01*
X92721Y-57659D01*
X93115Y-57659D02*
X93115Y-57265D01*
X93378Y-57265D02*
X93453Y-57265D01*
X93490Y-57284D01*
X93528Y-57321D01*
X93546Y-57396D01*
X93546Y-57528D01*
X93528Y-57603D01*
X93490Y-57640D01*
X93453Y-57659D01*
X93378Y-57659D01*
X93340Y-57640D01*
X93303Y-57603D01*
X93284Y-57528D01*
X93284Y-57396D01*
X93303Y-57321D01*
X93340Y-57284D01*
X93378Y-57265D01*
X93715Y-57659D02*
X93715Y-57265D01*
X93809Y-57265D01*
X93865Y-57284D01*
X93903Y-57321D01*
X93921Y-57359D01*
X93940Y-57434D01*
X93940Y-57490D01*
X93921Y-57565D01*
X93903Y-57603D01*
X93865Y-57640D01*
X93809Y-57659D01*
X93715Y-57659D01*
X94109Y-57453D02*
X94240Y-57453D01*
X94296Y-57659D02*
X94109Y-57659D01*
X94109Y-57265D01*
X94296Y-57265D01*
X85221Y-57659D02*
X85221Y-57265D01*
X85315Y-57265D01*
X85371Y-57284D01*
X85409Y-57321D01*
X85428Y-57359D01*
X85446Y-57434D01*
X85446Y-57490D01*
X85428Y-57565D01*
X85409Y-57603D01*
X85371Y-57640D01*
X85315Y-57659D01*
X85221Y-57659D01*
X85615Y-57659D02*
X85615Y-57265D01*
X85878Y-57265D02*
X85953Y-57265D01*
X85990Y-57284D01*
X86028Y-57321D01*
X86046Y-57396D01*
X86046Y-57528D01*
X86028Y-57603D01*
X85990Y-57640D01*
X85953Y-57659D01*
X85878Y-57659D01*
X85840Y-57640D01*
X85803Y-57603D01*
X85784Y-57528D01*
X85784Y-57396D01*
X85803Y-57321D01*
X85840Y-57284D01*
X85878Y-57265D01*
X86215Y-57659D02*
X86215Y-57265D01*
X86309Y-57265D01*
X86365Y-57284D01*
X86403Y-57321D01*
X86421Y-57359D01*
X86440Y-57434D01*
X86440Y-57490D01*
X86421Y-57565D01*
X86403Y-57603D01*
X86365Y-57640D01*
X86309Y-57659D01*
X86215Y-57659D01*
X86609Y-57453D02*
X86740Y-57453D01*
X86796Y-57659D02*
X86609Y-57659D01*
X86609Y-57265D01*
X86796Y-57265D01*
X77721Y-57659D02*
X77721Y-57265D01*
X77815Y-57265D01*
X77871Y-57284D01*
X77909Y-57321D01*
X77928Y-57359D01*
X77946Y-57434D01*
X77946Y-57490D01*
X77928Y-57565D01*
X77909Y-57603D01*
X77871Y-57640D01*
X77815Y-57659D01*
X77721Y-57659D01*
X78115Y-57659D02*
X78115Y-57265D01*
X78378Y-57265D02*
X78453Y-57265D01*
X78490Y-57284D01*
X78528Y-57321D01*
X78546Y-57396D01*
X78546Y-57528D01*
X78528Y-57603D01*
X78490Y-57640D01*
X78453Y-57659D01*
X78378Y-57659D01*
X78340Y-57640D01*
X78303Y-57603D01*
X78284Y-57528D01*
X78284Y-57396D01*
X78303Y-57321D01*
X78340Y-57284D01*
X78378Y-57265D01*
X78715Y-57659D02*
X78715Y-57265D01*
X78809Y-57265D01*
X78865Y-57284D01*
X78903Y-57321D01*
X78921Y-57359D01*
X78940Y-57434D01*
X78940Y-57490D01*
X78921Y-57565D01*
X78903Y-57603D01*
X78865Y-57640D01*
X78809Y-57659D01*
X78715Y-57659D01*
X79109Y-57453D02*
X79240Y-57453D01*
X79296Y-57659D02*
X79109Y-57659D01*
X79109Y-57265D01*
X79296Y-57265D01*
M02*
