M48
;DRILL file {Pcbnew (2013-07-07 BZR 4022)-stable} date 08/11/2015 21:30:32
;FORMAT={-:-/ absolute / inch / decimal}
FMAT,2
INCH,TZ
T1C0.032
T2C0.055
T3C0.059
%
G90
G05
M72
T1
X4.74Y-2.88
X4.84Y-2.88
X4.94Y-2.88
X5.04Y-2.88
X5.14Y-2.88
X5.24Y-2.88
X5.34Y-2.88
T2
X4.74Y-3.33
X4.74Y-4.08
X4.74Y-4.83
X4.94Y-3.33
X4.94Y-4.08
X4.94Y-4.83
X5.14Y-3.33
X5.14Y-4.08
X5.14Y-4.83
X5.49Y-3.33
X5.49Y-4.08
X5.49Y-4.83
X5.69Y-3.33
X5.69Y-4.08
X5.69Y-4.83
X5.89Y-3.33
X5.89Y-4.08
X5.89Y-4.83
X6.24Y-3.33
X6.24Y-4.08
X6.24Y-4.83
X6.44Y-3.33
X6.44Y-4.08
X6.44Y-4.83
X6.64Y-3.33
X6.64Y-4.08
X6.64Y-4.83
X6.99Y-3.33
X6.99Y-4.08
X6.99Y-4.83
X7.19Y-3.33
X7.19Y-4.08
X7.19Y-4.83
X7.39Y-3.33
X7.39Y-4.08
X7.39Y-4.83
T3
X4.94Y-3.68
X4.94Y-4.43
X4.94Y-5.18
X5.69Y-3.68
X5.69Y-4.43
X5.69Y-5.18
X6.44Y-3.68
X6.44Y-4.43
X6.44Y-5.18
X7.19Y-3.68
X7.19Y-4.43
X7.19Y-5.18
T0
M30
