<?xml version="1.0" standalone="no"?>
 <!DOCTYPE svg PUBLIC "-//W3C//DTD SVG 1.1//EN" 
 "http://www.w3.org/Graphics/SVG/1.1/DTD/svg11.dtd"> 
<svg xmlns="http://www.w3.org/2000/svg" version="1.1" 
    width="41.9989cm" height="29.7002cm" viewBox="0 0 165350 116930 ">
<title>SVG Picture created as proto2-F_SilkS.svg date 2015/11/09 23:22:50 </title>
  <desc>Picture generated by PCBNEW </desc>
<g style="fill:#000000; fill-opacity:1;stroke:#000000; stroke-opacity:1;
stroke-linecap:round; stroke-linejoin:round; "
 transform="translate(0 0) scale(1 1)">
</g>
<g style="fill:#000000; fill-opacity:0.0; 
stroke:#000000; stroke-width:39.3701; stroke-opacity:1; 
stroke-linecap:round; stroke-linejoin:round;">
<path d="M4000 4000
L161350 4000
L161350 112930
L4000 112930
L4000 4000
" />
<path d="M4700 4700
L160650 4700
L160650 112230
L4700 112230
L4700 4700
" />
<path d="M26470 4000
L26470 4700
" />
<path d="M15382 4552
L15097 4552
" />
<path d="M15240 4552
L15240 4052
L15192 4123
L15144 4171
L15097 4195
" />
<path d="M26470 112930
L26470 112230
" />
<path d="M15382 112782
L15097 112782
" />
<path d="M15240 112782
L15240 112282
L15192 112353
L15144 112401
L15097 112425
" />
<path d="M48940 4000
L48940 4700
" />
<path d="M37567 4100
L37590 4076
L37638 4052
L37757 4052
L37805 4076
L37829 4100
L37852 4147
L37852 4195
L37829 4266
L37543 4552
L37852 4552
" />
<path d="M48940 112930
L48940 112230
" />
<path d="M37567 112330
L37590 112306
L37638 112282
L37757 112282
L37805 112306
L37829 112330
L37852 112377
L37852 112425
L37829 112496
L37543 112782
L37852 112782
" />
<path d="M71410 4000
L71410 4700
" />
<path d="M60013 4052
L60322 4052
L60156 4242
L60227 4242
L60275 4266
L60299 4290
L60322 4338
L60322 4457
L60299 4504
L60275 4528
L60227 4552
L60084 4552
L60037 4528
L60013 4504
" />
<path d="M71410 112930
L71410 112230
" />
<path d="M60013 112282
L60322 112282
L60156 112472
L60227 112472
L60275 112496
L60299 112520
L60322 112568
L60322 112687
L60299 112734
L60275 112758
L60227 112782
L60084 112782
L60037 112758
L60013 112734
" />
<path d="M93880 4000
L93880 4700
" />
<path d="M82745 4219
L82745 4552
" />
<path d="M82626 4028
L82507 4385
L82816 4385
" />
<path d="M93880 112930
L93880 112230
" />
<path d="M82745 112449
L82745 112782
" />
<path d="M82626 112258
L82507 112615
L82816 112615
" />
<path d="M116350 4000
L116350 4700
" />
<path d="M105239 4052
L105000 4052
L104977 4290
L105000 4266
L105048 4242
L105167 4242
L105215 4266
L105239 4290
L105262 4338
L105262 4457
L105239 4504
L105215 4528
L105167 4552
L105048 4552
L105000 4528
L104977 4504
" />
<path d="M116350 112930
L116350 112230
" />
<path d="M105239 112282
L105000 112282
L104977 112520
L105000 112496
L105048 112472
L105167 112472
L105215 112496
L105239 112520
L105262 112568
L105262 112687
L105239 112734
L105215 112758
L105167 112782
L105048 112782
L105000 112758
L104977 112734
" />
<path d="M138820 4000
L138820 4700
" />
<path d="M127685 4052
L127590 4052
L127542 4076
L127518 4100
L127470 4171
L127447 4266
L127447 4457
L127470 4504
L127494 4528
L127542 4552
L127637 4552
L127685 4528
L127709 4504
L127732 4457
L127732 4338
L127709 4290
L127685 4266
L127637 4242
L127542 4242
L127494 4266
L127470 4290
L127447 4338
" />
<path d="M138820 112930
L138820 112230
" />
<path d="M127685 112282
L127590 112282
L127542 112306
L127518 112330
L127470 112401
L127447 112496
L127447 112687
L127470 112734
L127494 112758
L127542 112782
L127637 112782
L127685 112758
L127709 112734
L127732 112687
L127732 112568
L127709 112520
L127685 112496
L127637 112472
L127542 112472
L127494 112496
L127470 112520
L127447 112568
" />
<path d="M149893 4052
L150226 4052
L150012 4552
" />
<path d="M149893 112282
L150226 112282
L150012 112782
" />
<path d="M4000 25780
L4700 25780
" />
<path d="M4230 14949
L4469 14949
" />
<path d="M4183 15092
L4350 14592
L4516 15092
" />
<path d="M161350 25780
L160650 25780
" />
<path d="M160880 14949
L161119 14949
" />
<path d="M160833 15092
L161000 14592
L161166 15092
" />
<path d="M4000 47560
L4700 47560
" />
<path d="M4385 36610
L4457 36634
L4480 36658
L4504 36705
L4504 36777
L4480 36824
L4457 36848
L4409 36872
L4219 36872
L4219 36372
L4385 36372
L4433 36396
L4457 36420
L4480 36467
L4480 36515
L4457 36562
L4433 36586
L4385 36610
L4219 36610
" />
<path d="M161350 47560
L160650 47560
" />
<path d="M161035 36610
L161107 36634
L161130 36658
L161154 36705
L161154 36777
L161130 36824
L161107 36848
L161059 36872
L160869 36872
L160869 36372
L161035 36372
L161083 36396
L161107 36420
L161130 36467
L161130 36515
L161107 36562
L161083 36586
L161035 36610
L160869 36610
" />
<path d="M4000 69340
L4700 69340
" />
<path d="M4504 58604
L4480 58628
L4409 58652
L4361 58652
L4290 58628
L4242 58580
L4219 58533
L4195 58438
L4195 58366
L4219 58271
L4242 58223
L4290 58176
L4361 58152
L4409 58152
L4480 58176
L4504 58200
" />
<path d="M161350 69340
L160650 69340
" />
<path d="M161154 58604
L161130 58628
L161059 58652
L161011 58652
L160940 58628
L160892 58580
L160869 58533
L160845 58438
L160845 58366
L160869 58271
L160892 58223
L160940 58176
L161011 58152
L161059 58152
L161130 58176
L161154 58200
" />
<path d="M4000 91120
L4700 91120
" />
<path d="M4219 80432
L4219 79932
L4338 79932
L4409 79956
L4457 80003
L4480 80051
L4504 80146
L4504 80218
L4480 80313
L4457 80360
L4409 80408
L4338 80432
L4219 80432
" />
<path d="M161350 91120
L160650 91120
" />
<path d="M160869 80432
L160869 79932
L160988 79932
L161059 79956
L161107 80003
L161130 80051
L161154 80146
L161154 80218
L161130 80313
L161107 80360
L161059 80408
L160988 80432
L160869 80432
" />
<path d="M4242 101950
L4409 101950
" />
<path d="M4480 102212
L4242 102212
L4242 101712
L4480 101712
" />
<path d="M160892 101950
L161059 101950
" />
<path d="M161130 102212
L160892 102212
L160892 101712
L161130 101712
" />
<path d="M127800 110672
L127875 110072
L128017 110072
L128100 110101
L128150 110158
L128171 110215
L128185 110330
L128175 110415
L128132 110530
L128096 110587
L128032 110644
L127942 110672
L127800 110672
" />
<path d="M128657 110672
L128696 110358
L128675 110301
L128621 110272
L128507 110272
L128446 110301
" />
<path d="M128660 110644
L128600 110672
L128457 110672
L128403 110644
L128382 110587
L128389 110530
L128425 110472
L128485 110444
L128628 110444
L128689 110415
" />
<path d="M128907 110272
L129135 110272
" />
<path d="M129017 110072
L128953 110587
L128975 110644
L129028 110672
L129085 110672
" />
<path d="M129517 110644
L129457 110672
L129342 110672
L129289 110644
L129267 110587
L129296 110358
L129332 110301
L129392 110272
L129507 110272
L129560 110301
L129582 110358
L129575 110415
L129282 110472
" />
<path d="M129807 110615
L129832 110644
L129800 110672
L129775 110644
L129807 110615
L129800 110672
" />
<path d="M129846 110301
L129871 110330
L129839 110358
L129814 110330
L129846 110301
L129839 110358
" />
<path d="M119392 111872
L119392 111272
" />
<path d="M119735 111872
L119478 111530
" />
<path d="M119735 111272
L119392 111615
" />
<path d="M119992 111872
L119992 111472
" />
<path d="M119992 111272
L119964 111301
L119992 111330
L120021 111301
L119992 111272
L119992 111330
" />
<path d="M120621 111815
L120592 111844
L120507 111872
L120450 111872
L120364 111844
L120307 111787
L120278 111730
L120250 111615
L120250 111530
L120278 111415
L120307 111358
L120364 111301
L120450 111272
L120507 111272
L120592 111301
L120621 111330
" />
<path d="M121135 111872
L121135 111558
L121107 111501
L121050 111472
L120935 111472
L120878 111501
" />
<path d="M121135 111844
L121078 111872
L120935 111872
L120878 111844
L120850 111787
L120850 111730
L120878 111672
L120935 111644
L121078 111644
L121135 111615
" />
<path d="M121678 111872
L121678 111272
" />
<path d="M121678 111844
L121621 111872
L121507 111872
L121450 111844
L121421 111815
L121392 111758
L121392 111587
L121421 111530
L121450 111501
L121507 111472
L121621 111472
L121678 111501
" />
<path d="M122421 111558
L122621 111558
" />
<path d="M122707 111872
L122421 111872
L122421 111272
L122707 111272
" />
<path d="M122964 111815
L122992 111844
L122964 111872
L122935 111844
L122964 111815
L122964 111872
" />
<path d="M123249 111872
L123249 111272
L123392 111272
L123478 111301
L123535 111358
L123564 111415
L123592 111530
L123592 111615
L123564 111730
L123535 111787
L123478 111844
L123392 111872
L123249 111872
" />
<path d="M123849 111815
L123878 111844
L123849 111872
L123821 111844
L123849 111815
L123849 111872
" />
<path d="M124107 111701
L124392 111701
" />
<path d="M124049 111872
L124249 111272
L124449 111872
" />
<path d="M124649 111815
L124678 111844
L124649 111872
L124621 111844
L124649 111815
L124649 111872
" />
<path d="M152942 110672
L152778 110387
" />
<path d="M152600 110672
L152675 110072
L152903 110072
L152957 110101
L152982 110130
L153003 110187
L152992 110272
L152957 110330
L152925 110358
L152864 110387
L152635 110387
" />
<path d="M153432 110644
L153371 110672
L153257 110672
L153203 110644
L153182 110587
L153210 110358
L153246 110301
L153307 110272
L153421 110272
L153475 110301
L153496 110358
L153489 110415
L153196 110472
" />
<path d="M153707 110272
L153800 110672
L153992 110272
" />
<path d="M154178 110615
L154203 110644
L154171 110672
L154146 110644
L154178 110615
L154171 110672
" />
<path d="M154217 110301
L154242 110330
L154210 110358
L154185 110330
L154217 110301
L154210 110358
" />
<path d="M119364 110644
L119450 110672
L119592 110672
L119650 110644
L119678 110615
L119707 110558
L119707 110501
L119678 110444
L119650 110415
L119592 110387
L119478 110358
L119421 110330
L119392 110301
L119364 110244
L119364 110187
L119392 110130
L119421 110101
L119478 110072
L119621 110072
L119707 110101
" />
<path d="M119964 110672
L119964 110272
" />
<path d="M119964 110072
L119935 110101
L119964 110130
L119992 110101
L119964 110072
L119964 110130
" />
<path d="M120192 110272
L120507 110272
L120192 110672
L120507 110672
" />
<path d="M120964 110644
L120907 110672
L120792 110672
L120735 110644
L120707 110587
L120707 110358
L120735 110301
L120792 110272
L120907 110272
L120964 110301
L120992 110358
L120992 110415
L120707 110472
" />
<path d="M121250 110615
L121278 110644
L121250 110672
L121221 110644
L121250 110615
L121250 110672
" />
<path d="M121250 110301
L121278 110330
L121250 110358
L121221 110330
L121250 110301
L121250 110358
" />
<path d="M121964 110501
L122250 110501
" />
<path d="M121907 110672
L122107 110072
L122307 110672
" />
<path d="M122450 110072
L122821 110072
L122621 110301
L122707 110301
L122764 110330
L122792 110358
L122821 110415
L122821 110558
L122792 110615
L122764 110644
L122707 110672
L122535 110672
L122478 110644
L122450 110615
" />
<path d="M152592 111872
L152592 111272
" />
<path d="M153135 111872
L153135 111272
" />
<path d="M153135 111844
L153078 111872
L152964 111872
L152907 111844
L152878 111815
L152850 111758
L152850 111587
L152878 111530
L152907 111501
L152964 111472
L153078 111472
L153135 111501
" />
<path d="M153421 111815
L153450 111844
L153421 111872
L153392 111844
L153421 111815
L153421 111872
" />
<path d="M153421 111501
L153450 111530
L153421 111558
L153392 111530
L153421 111501
L153421 111558
" />
<path d="M154478 111872
L154135 111872
" />
<path d="M154307 111872
L154307 111272
L154249 111358
L154192 111415
L154135 111444
" />
<path d="M155164 111244
L154650 112015
" />
<path d="M155678 111872
L155335 111872
" />
<path d="M155507 111872
L155507 111272
L155449 111358
L155392 111415
L155335 111444
" />
<path d="M119389 108872
L119732 108872
" />
<path d="M119485 109472
L119560 108872
" />
<path d="M119857 109472
L119907 109072
" />
<path d="M119932 108872
L119900 108901
L119925 108930
L119957 108901
L119932 108872
L119925 108930
" />
<path d="M120107 109072
L120335 109072
" />
<path d="M120217 108872
L120153 109387
L120175 109444
L120228 109472
L120285 109472
" />
<path d="M120571 109472
L120517 109444
L120496 109387
L120560 108872
" />
<path d="M121032 109444
L120971 109472
L120857 109472
L120803 109444
L120782 109387
L120810 109158
L120846 109101
L120907 109072
L121021 109072
L121075 109101
L121096 109158
L121089 109215
L120796 109272
" />
<path d="M121321 109415
L121346 109444
L121314 109472
L121289 109444
L121321 109415
L121314 109472
" />
<path d="M121360 109101
L121385 109130
L121353 109158
L121328 109130
L121360 109101
L121353 109158
" />
<path d="M119592 106758
L119392 106758
" />
<path d="M119392 107072
L119392 106472
L119678 106472
" />
<path d="M119907 107072
L119907 106672
" />
<path d="M119907 106472
L119878 106501
L119907 106530
L119935 106501
L119907 106472
L119907 106530
" />
<path d="M120278 107072
L120221 107044
L120192 106987
L120192 106472
" />
<path d="M120735 107044
L120678 107072
L120564 107072
L120507 107044
L120478 106987
L120478 106758
L120507 106701
L120564 106672
L120678 106672
L120735 106701
L120764 106758
L120764 106815
L120478 106872
" />
<path d="M121021 107015
L121050 107044
L121021 107072
L120992 107044
L121021 107015
L121021 107072
" />
<path d="M121021 106701
L121050 106730
L121021 106758
L120992 106730
L121021 106701
L121021 106758
" />
<path d="M121764 106672
L121764 107272
" />
<path d="M121764 106701
L121821 106672
L121935 106672
L121992 106701
L122021 106730
L122050 106787
L122050 106958
L122021 107015
L121992 107044
L121935 107072
L121821 107072
L121764 107044
" />
<path d="M122307 107072
L122307 106672
" />
<path d="M122307 106787
L122335 106730
L122364 106701
L122421 106672
L122478 106672
" />
<path d="M122764 107072
L122707 107044
L122678 107015
L122650 106958
L122650 106787
L122678 106730
L122707 106701
L122764 106672
L122850 106672
L122907 106701
L122935 106730
L122964 106787
L122964 106958
L122935 107015
L122907 107044
L122850 107072
L122764 107072
" />
<path d="M123135 106672
L123364 106672
" />
<path d="M123221 106472
L123221 106987
L123250 107044
L123307 107072
L123364 107072
" />
<path d="M123650 107072
L123592 107044
L123564 107015
L123535 106958
L123535 106787
L123564 106730
L123592 106701
L123650 106672
L123735 106672
L123792 106701
L123821 106730
L123850 106787
L123850 106958
L123821 107015
L123792 107044
L123735 107072
L123650 107072
" />
<path d="M124078 106530
L124107 106501
L124164 106472
L124307 106472
L124364 106501
L124392 106530
L124421 106587
L124421 106644
L124392 106730
L124050 107072
L124421 107072
" />
<path d="M124678 107015
L124707 107044
L124678 107072
L124650 107044
L124678 107015
L124678 107072
" />
<path d="M124964 107072
L124964 106472
" />
<path d="M125021 106844
L125192 107072
" />
<path d="M125192 106672
L124964 106901
" />
<path d="M125450 107072
L125450 106672
" />
<path d="M125450 106472
L125421 106501
L125450 106530
L125478 106501
L125450 106472
L125450 106530
" />
<path d="M125992 107044
L125935 107072
L125821 107072
L125764 107044
L125735 107015
L125707 106958
L125707 106787
L125735 106730
L125764 106701
L125821 106672
L125935 106672
L125992 106701
" />
<path d="M126507 107072
L126507 106758
L126478 106701
L126421 106672
L126307 106672
L126250 106701
" />
<path d="M126507 107044
L126450 107072
L126307 107072
L126250 107044
L126221 106987
L126221 106930
L126250 106872
L126307 106844
L126450 106844
L126507 106815
" />
<path d="M127050 107072
L127050 106472
" />
<path d="M127050 107044
L126992 107072
L126878 107072
L126821 107044
L126792 107015
L126764 106958
L126764 106787
L126792 106730
L126821 106701
L126878 106672
L126992 106672
L127050 106701
" />
<path d="M127192 107130
L127650 107130
" />
<path d="M127792 106672
L127792 107272
" />
<path d="M127792 106701
L127850 106672
L127964 106672
L128021 106701
L128050 106730
L128078 106787
L128078 106958
L128050 107015
L128021 107044
L127964 107072
L127850 107072
L127792 107044
" />
<path d="M128592 107044
L128535 107072
L128421 107072
L128364 107044
L128335 107015
L128307 106958
L128307 106787
L128335 106730
L128364 106701
L128421 106672
L128535 106672
L128592 106701
" />
<path d="M128850 107072
L128850 106472
" />
<path d="M128850 106701
L128907 106672
L129021 106672
L129078 106701
L129107 106730
L129135 106787
L129135 106958
L129107 107015
L129078 107044
L129021 107072
L128907 107072
L128850 107044
" />
<path d="M119364 108244
L119450 108272
L119592 108272
L119650 108244
L119678 108215
L119707 108158
L119707 108101
L119678 108044
L119650 108015
L119592 107987
L119478 107958
L119421 107930
L119392 107901
L119364 107844
L119364 107787
L119392 107730
L119421 107701
L119478 107672
L119621 107672
L119707 107701
" />
<path d="M119964 108272
L119964 107672
" />
<path d="M120221 108272
L120221 107958
L120192 107901
L120135 107872
L120050 107872
L119992 107901
L119964 107930
" />
<path d="M120735 108244
L120678 108272
L120564 108272
L120507 108244
L120478 108187
L120478 107958
L120507 107901
L120564 107872
L120678 107872
L120735 107901
L120764 107958
L120764 108015
L120478 108072
" />
<path d="M121250 108244
L121192 108272
L121078 108272
L121021 108244
L120992 108187
L120992 107958
L121021 107901
L121078 107872
L121192 107872
L121250 107901
L121278 107958
L121278 108015
L120992 108072
" />
<path d="M121450 107872
L121678 107872
" />
<path d="M121535 107672
L121535 108187
L121564 108244
L121621 108272
L121678 108272
" />
<path d="M121878 108215
L121907 108244
L121878 108272
L121850 108244
L121878 108215
L121878 108272
" />
<path d="M121878 107901
L121907 107930
L121878 107958
L121850 107930
L121878 107901
L121878 107958
" />
<path d="M118650 106230
L118650 112230
" />
<path d="M118650 106230
L160650 106230
" />
<path d="M118650 106230
L160650 106230
" />
<path d="M118650 108630
L160650 108630
" />
<path d="M151850 109830
L151850 112230
" />
<path d="M118650 111030
L160650 111030
" />
<path d="M118650 109830
L160650 109830
" />
<path d="M125250 109830
L125250 111030
" />
</g>
<g style="fill:#009F9F; fill-opacity:0.0; 
stroke:#009F9F; stroke-width:120; stroke-opacity:1; 
stroke-linecap:round; stroke-linejoin:round;">
</g>
<g style="fill:#009F9F; fill-opacity:0.0; 
stroke:#009F9F; stroke-width:107; stroke-opacity:1; 
stroke-linecap:round; stroke-linejoin:round;">
<path d="M70184 41775
L70184 41094
L70347 41094
L70387 41127
L70408 41159
L70428 41224
L70428 41321
L70408 41386
L70387 41418
L70347 41451
L70184 41451
" />
<path d="M70836 41775
L70591 41775
" />
<path d="M70714 41775
L70714 41094
L70673 41191
L70632 41256
L70591 41289
" />
</g>
<g style="fill:#009F9F; fill-opacity:0.0; 
stroke:#009F9F; stroke-width:120; stroke-opacity:1; 
stroke-linecap:round; stroke-linejoin:round;">
</g>
<g style="fill:#009F9F; fill-opacity:0.0; 
stroke:#009F9F; stroke-width:59.0551; stroke-opacity:1; 
stroke-linecap:round; stroke-linejoin:round;">
<path d="M74740 48821
L74722 48840
L74665 48859
L74628 48859
L74572 48840
L74534 48803
L74515 48765
L74497 48690
L74497 48634
L74515 48559
L74534 48521
L74572 48484
L74628 48465
L74665 48465
L74722 48484
L74740 48503
" />
<path d="M74909 48859
L74909 48465
" />
<path d="M74909 48653
L75134 48653
" />
<path d="M75134 48859
L75134 48465
" />
<path d="M75321 48653
L75453 48653
" />
<path d="M75509 48859
L75321 48859
L75321 48465
L75509 48465
" />
<path d="M75903 48859
L75771 48671
" />
<path d="M75678 48859
L75678 48465
L75828 48465
L75865 48484
L75884 48503
L75903 48540
L75903 48596
L75884 48634
L75865 48653
L75828 48671
L75678 48671
" />
<path d="M76296 48859
L76165 48671
" />
<path d="M76071 48859
L76071 48465
L76221 48465
L76259 48484
L76278 48503
L76296 48540
L76296 48596
L76278 48634
L76259 48653
L76221 48671
L76071 48671
" />
<path d="M76540 48671
L76540 48859
" />
<path d="M76409 48465
L76540 48671
L76671 48465
" />
<path d="M76709 48896
L77009 48896
" />
<path d="M77102 48859
L77102 48465
L77234 48746
L77365 48465
L77365 48859
" />
<path d="M77740 48859
L77552 48859
L77552 48465
" />
<path d="M82240 48821
L82222 48840
L82165 48859
L82128 48859
L82072 48840
L82034 48803
L82015 48765
L81997 48690
L81997 48634
L82015 48559
L82034 48521
L82072 48484
L82128 48465
L82165 48465
L82222 48484
L82240 48503
" />
<path d="M82409 48859
L82409 48465
" />
<path d="M82409 48653
L82634 48653
" />
<path d="M82634 48859
L82634 48465
" />
<path d="M82821 48653
L82953 48653
" />
<path d="M83009 48859
L82821 48859
L82821 48465
L83009 48465
" />
<path d="M83403 48859
L83271 48671
" />
<path d="M83178 48859
L83178 48465
L83328 48465
L83365 48484
L83384 48503
L83403 48540
L83403 48596
L83384 48634
L83365 48653
L83328 48671
L83178 48671
" />
<path d="M83796 48859
L83665 48671
" />
<path d="M83571 48859
L83571 48465
L83721 48465
L83759 48484
L83778 48503
L83796 48540
L83796 48596
L83778 48634
L83759 48653
L83721 48671
L83571 48671
" />
<path d="M84040 48671
L84040 48859
" />
<path d="M83909 48465
L84040 48671
L84171 48465
" />
<path d="M84209 48896
L84509 48896
" />
<path d="M84602 48859
L84602 48465
L84734 48746
L84865 48465
L84865 48859
" />
<path d="M85240 48859
L85052 48859
L85052 48465
" />
<path d="M67240 55821
L67222 55840
L67165 55859
L67128 55859
L67072 55840
L67034 55803
L67015 55765
L66997 55690
L66997 55634
L67015 55559
L67034 55521
L67072 55484
L67128 55465
L67165 55465
L67222 55484
L67240 55503
" />
<path d="M67409 55859
L67409 55465
" />
<path d="M67409 55653
L67634 55653
" />
<path d="M67634 55859
L67634 55465
" />
<path d="M67821 55653
L67953 55653
" />
<path d="M68009 55859
L67821 55859
L67821 55465
L68009 55465
" />
<path d="M68403 55859
L68271 55671
" />
<path d="M68178 55859
L68178 55465
L68328 55465
L68365 55484
L68384 55503
L68403 55540
L68403 55596
L68384 55634
L68365 55653
L68328 55671
L68178 55671
" />
<path d="M68796 55859
L68665 55671
" />
<path d="M68571 55859
L68571 55465
L68721 55465
L68759 55484
L68778 55503
L68796 55540
L68796 55596
L68778 55634
L68759 55653
L68721 55671
L68571 55671
" />
<path d="M69040 55671
L69040 55859
" />
<path d="M68909 55465
L69040 55671
L69171 55465
" />
<path d="M69209 55896
L69509 55896
" />
<path d="M69602 55859
L69602 55465
L69734 55746
L69865 55465
L69865 55859
" />
<path d="M70240 55859
L70052 55859
L70052 55465
" />
<path d="M74740 55821
L74722 55840
L74665 55859
L74628 55859
L74572 55840
L74534 55803
L74515 55765
L74497 55690
L74497 55634
L74515 55559
L74534 55521
L74572 55484
L74628 55465
L74665 55465
L74722 55484
L74740 55503
" />
<path d="M74909 55859
L74909 55465
" />
<path d="M74909 55653
L75134 55653
" />
<path d="M75134 55859
L75134 55465
" />
<path d="M75321 55653
L75453 55653
" />
<path d="M75509 55859
L75321 55859
L75321 55465
L75509 55465
" />
<path d="M75903 55859
L75771 55671
" />
<path d="M75678 55859
L75678 55465
L75828 55465
L75865 55484
L75884 55503
L75903 55540
L75903 55596
L75884 55634
L75865 55653
L75828 55671
L75678 55671
" />
<path d="M76296 55859
L76165 55671
" />
<path d="M76071 55859
L76071 55465
L76221 55465
L76259 55484
L76278 55503
L76296 55540
L76296 55596
L76278 55634
L76259 55653
L76221 55671
L76071 55671
" />
<path d="M76540 55671
L76540 55859
" />
<path d="M76409 55465
L76540 55671
L76671 55465
" />
<path d="M76709 55896
L77009 55896
" />
<path d="M77102 55859
L77102 55465
L77234 55746
L77365 55465
L77365 55859
" />
<path d="M77740 55859
L77552 55859
L77552 55465
" />
<path d="M82240 55821
L82222 55840
L82165 55859
L82128 55859
L82072 55840
L82034 55803
L82015 55765
L81997 55690
L81997 55634
L82015 55559
L82034 55521
L82072 55484
L82128 55465
L82165 55465
L82222 55484
L82240 55503
" />
<path d="M82409 55859
L82409 55465
" />
<path d="M82409 55653
L82634 55653
" />
<path d="M82634 55859
L82634 55465
" />
<path d="M82821 55653
L82953 55653
" />
<path d="M83009 55859
L82821 55859
L82821 55465
L83009 55465
" />
<path d="M83403 55859
L83271 55671
" />
<path d="M83178 55859
L83178 55465
L83328 55465
L83365 55484
L83384 55503
L83403 55540
L83403 55596
L83384 55634
L83365 55653
L83328 55671
L83178 55671
" />
<path d="M83796 55859
L83665 55671
" />
<path d="M83571 55859
L83571 55465
L83721 55465
L83759 55484
L83778 55503
L83796 55540
L83796 55596
L83778 55634
L83759 55653
L83721 55671
L83571 55671
" />
<path d="M84040 55671
L84040 55859
" />
<path d="M83909 55465
L84040 55671
L84171 55465
" />
<path d="M84209 55896
L84509 55896
" />
<path d="M84602 55859
L84602 55465
L84734 55746
L84865 55465
L84865 55859
" />
<path d="M85240 55859
L85052 55859
L85052 55465
" />
<path d="M89740 48821
L89722 48840
L89665 48859
L89628 48859
L89572 48840
L89534 48803
L89515 48765
L89497 48690
L89497 48634
L89515 48559
L89534 48521
L89572 48484
L89628 48465
L89665 48465
L89722 48484
L89740 48503
" />
<path d="M89909 48859
L89909 48465
" />
<path d="M89909 48653
L90134 48653
" />
<path d="M90134 48859
L90134 48465
" />
<path d="M90321 48653
L90453 48653
" />
<path d="M90509 48859
L90321 48859
L90321 48465
L90509 48465
" />
<path d="M90903 48859
L90771 48671
" />
<path d="M90678 48859
L90678 48465
L90828 48465
L90865 48484
L90884 48503
L90903 48540
L90903 48596
L90884 48634
L90865 48653
L90828 48671
L90678 48671
" />
<path d="M91296 48859
L91165 48671
" />
<path d="M91071 48859
L91071 48465
L91221 48465
L91259 48484
L91278 48503
L91296 48540
L91296 48596
L91278 48634
L91259 48653
L91221 48671
L91071 48671
" />
<path d="M91540 48671
L91540 48859
" />
<path d="M91409 48465
L91540 48671
L91671 48465
" />
<path d="M91709 48896
L92009 48896
" />
<path d="M92102 48859
L92102 48465
L92234 48746
L92365 48465
L92365 48859
" />
<path d="M92740 48859
L92552 48859
L92552 48465
" />
<path d="M89740 55821
L89722 55840
L89665 55859
L89628 55859
L89572 55840
L89534 55803
L89515 55765
L89497 55690
L89497 55634
L89515 55559
L89534 55521
L89572 55484
L89628 55465
L89665 55465
L89722 55484
L89740 55503
" />
<path d="M89909 55859
L89909 55465
" />
<path d="M89909 55653
L90134 55653
" />
<path d="M90134 55859
L90134 55465
" />
<path d="M90321 55653
L90453 55653
" />
<path d="M90509 55859
L90321 55859
L90321 55465
L90509 55465
" />
<path d="M90903 55859
L90771 55671
" />
<path d="M90678 55859
L90678 55465
L90828 55465
L90865 55484
L90884 55503
L90903 55540
L90903 55596
L90884 55634
L90865 55653
L90828 55671
L90678 55671
" />
<path d="M91296 55859
L91165 55671
" />
<path d="M91071 55859
L91071 55465
L91221 55465
L91259 55484
L91278 55503
L91296 55540
L91296 55596
L91278 55634
L91259 55653
L91221 55671
L91071 55671
" />
<path d="M91540 55671
L91540 55859
" />
<path d="M91409 55465
L91540 55671
L91671 55465
" />
<path d="M91709 55896
L92009 55896
" />
<path d="M92102 55859
L92102 55465
L92234 55746
L92365 55465
L92365 55859
" />
<path d="M92740 55859
L92552 55859
L92552 55465
" />
<path d="M67240 62821
L67222 62840
L67165 62859
L67128 62859
L67072 62840
L67034 62803
L67015 62765
L66997 62690
L66997 62634
L67015 62559
L67034 62521
L67072 62484
L67128 62465
L67165 62465
L67222 62484
L67240 62503
" />
<path d="M67409 62859
L67409 62465
" />
<path d="M67409 62653
L67634 62653
" />
<path d="M67634 62859
L67634 62465
" />
<path d="M67821 62653
L67953 62653
" />
<path d="M68009 62859
L67821 62859
L67821 62465
L68009 62465
" />
<path d="M68403 62859
L68271 62671
" />
<path d="M68178 62859
L68178 62465
L68328 62465
L68365 62484
L68384 62503
L68403 62540
L68403 62596
L68384 62634
L68365 62653
L68328 62671
L68178 62671
" />
<path d="M68796 62859
L68665 62671
" />
<path d="M68571 62859
L68571 62465
L68721 62465
L68759 62484
L68778 62503
L68796 62540
L68796 62596
L68778 62634
L68759 62653
L68721 62671
L68571 62671
" />
<path d="M69040 62671
L69040 62859
" />
<path d="M68909 62465
L69040 62671
L69171 62465
" />
<path d="M69209 62896
L69509 62896
" />
<path d="M69602 62859
L69602 62465
L69734 62746
L69865 62465
L69865 62859
" />
<path d="M70240 62859
L70052 62859
L70052 62465
" />
<path d="M74740 62821
L74722 62840
L74665 62859
L74628 62859
L74572 62840
L74534 62803
L74515 62765
L74497 62690
L74497 62634
L74515 62559
L74534 62521
L74572 62484
L74628 62465
L74665 62465
L74722 62484
L74740 62503
" />
<path d="M74909 62859
L74909 62465
" />
<path d="M74909 62653
L75134 62653
" />
<path d="M75134 62859
L75134 62465
" />
<path d="M75321 62653
L75453 62653
" />
<path d="M75509 62859
L75321 62859
L75321 62465
L75509 62465
" />
<path d="M75903 62859
L75771 62671
" />
<path d="M75678 62859
L75678 62465
L75828 62465
L75865 62484
L75884 62503
L75903 62540
L75903 62596
L75884 62634
L75865 62653
L75828 62671
L75678 62671
" />
<path d="M76296 62859
L76165 62671
" />
<path d="M76071 62859
L76071 62465
L76221 62465
L76259 62484
L76278 62503
L76296 62540
L76296 62596
L76278 62634
L76259 62653
L76221 62671
L76071 62671
" />
<path d="M76540 62671
L76540 62859
" />
<path d="M76409 62465
L76540 62671
L76671 62465
" />
<path d="M76709 62896
L77009 62896
" />
<path d="M77102 62859
L77102 62465
L77234 62746
L77365 62465
L77365 62859
" />
<path d="M77740 62859
L77552 62859
L77552 62465
" />
<path d="M82240 62821
L82222 62840
L82165 62859
L82128 62859
L82072 62840
L82034 62803
L82015 62765
L81997 62690
L81997 62634
L82015 62559
L82034 62521
L82072 62484
L82128 62465
L82165 62465
L82222 62484
L82240 62503
" />
<path d="M82409 62859
L82409 62465
" />
<path d="M82409 62653
L82634 62653
" />
<path d="M82634 62859
L82634 62465
" />
<path d="M82821 62653
L82953 62653
" />
<path d="M83009 62859
L82821 62859
L82821 62465
L83009 62465
" />
<path d="M83403 62859
L83271 62671
" />
<path d="M83178 62859
L83178 62465
L83328 62465
L83365 62484
L83384 62503
L83403 62540
L83403 62596
L83384 62634
L83365 62653
L83328 62671
L83178 62671
" />
<path d="M83796 62859
L83665 62671
" />
<path d="M83571 62859
L83571 62465
L83721 62465
L83759 62484
L83778 62503
L83796 62540
L83796 62596
L83778 62634
L83759 62653
L83721 62671
L83571 62671
" />
<path d="M84040 62671
L84040 62859
" />
<path d="M83909 62465
L84040 62671
L84171 62465
" />
<path d="M84209 62896
L84509 62896
" />
<path d="M84602 62859
L84602 62465
L84734 62746
L84865 62465
L84865 62859
" />
<path d="M85240 62859
L85052 62859
L85052 62465
" />
<path d="M89740 62821
L89722 62840
L89665 62859
L89628 62859
L89572 62840
L89534 62803
L89515 62765
L89497 62690
L89497 62634
L89515 62559
L89534 62521
L89572 62484
L89628 62465
L89665 62465
L89722 62484
L89740 62503
" />
<path d="M89909 62859
L89909 62465
" />
<path d="M89909 62653
L90134 62653
" />
<path d="M90134 62859
L90134 62465
" />
<path d="M90321 62653
L90453 62653
" />
<path d="M90509 62859
L90321 62859
L90321 62465
L90509 62465
" />
<path d="M90903 62859
L90771 62671
" />
<path d="M90678 62859
L90678 62465
L90828 62465
L90865 62484
L90884 62503
L90903 62540
L90903 62596
L90884 62634
L90865 62653
L90828 62671
L90678 62671
" />
<path d="M91296 62859
L91165 62671
" />
<path d="M91071 62859
L91071 62465
L91221 62465
L91259 62484
L91278 62503
L91296 62540
L91296 62596
L91278 62634
L91259 62653
L91221 62671
L91071 62671
" />
<path d="M91540 62671
L91540 62859
" />
<path d="M91409 62465
L91540 62671
L91671 62465
" />
<path d="M91709 62896
L92009 62896
" />
<path d="M92102 62859
L92102 62465
L92234 62746
L92365 62465
L92365 62859
" />
<path d="M92740 62859
L92552 62859
L92552 62465
" />
<path d="M67240 48821
L67222 48840
L67165 48859
L67128 48859
L67072 48840
L67034 48803
L67015 48765
L66997 48690
L66997 48634
L67015 48559
L67034 48521
L67072 48484
L67128 48465
L67165 48465
L67222 48484
L67240 48503
" />
<path d="M67409 48859
L67409 48465
" />
<path d="M67409 48653
L67634 48653
" />
<path d="M67634 48859
L67634 48465
" />
<path d="M67821 48653
L67953 48653
" />
<path d="M68009 48859
L67821 48859
L67821 48465
L68009 48465
" />
<path d="M68403 48859
L68271 48671
" />
<path d="M68178 48859
L68178 48465
L68328 48465
L68365 48484
L68384 48503
L68403 48540
L68403 48596
L68384 48634
L68365 48653
L68328 48671
L68178 48671
" />
<path d="M68796 48859
L68665 48671
" />
<path d="M68571 48859
L68571 48465
L68721 48465
L68759 48484
L68778 48503
L68796 48540
L68796 48596
L68778 48634
L68759 48653
L68721 48671
L68571 48671
" />
<path d="M69040 48671
L69040 48859
" />
<path d="M68909 48465
L69040 48671
L69171 48465
" />
<path d="M69209 48896
L69509 48896
" />
<path d="M69602 48859
L69602 48465
L69734 48746
L69865 48465
L69865 48859
" />
<path d="M70240 48859
L70052 48859
L70052 48465
" />
<path d="M89221 59159
L89221 58765
L89315 58765
L89371 58784
L89409 58821
L89428 58859
L89446 58934
L89446 58990
L89428 59065
L89409 59103
L89371 59140
L89315 59159
L89221 59159
" />
<path d="M89615 59159
L89615 58765
" />
<path d="M89878 58765
L89953 58765
L89990 58784
L90028 58821
L90046 58896
L90046 59028
L90028 59103
L89990 59140
L89953 59159
L89878 59159
L89840 59140
L89803 59103
L89784 59028
L89784 58896
L89803 58821
L89840 58784
L89878 58765
" />
<path d="M90215 59159
L90215 58765
L90309 58765
L90365 58784
L90403 58821
L90421 58859
L90440 58934
L90440 58990
L90421 59065
L90403 59103
L90365 59140
L90309 59159
L90215 59159
" />
<path d="M90609 58953
L90740 58953
" />
<path d="M90796 59159
L90609 59159
L90609 58765
L90796 58765
" />
<path d="M89221 66159
L89221 65765
L89315 65765
L89371 65784
L89409 65821
L89428 65859
L89446 65934
L89446 65990
L89428 66065
L89409 66103
L89371 66140
L89315 66159
L89221 66159
" />
<path d="M89615 66159
L89615 65765
" />
<path d="M89878 65765
L89953 65765
L89990 65784
L90028 65821
L90046 65896
L90046 66028
L90028 66103
L89990 66140
L89953 66159
L89878 66159
L89840 66140
L89803 66103
L89784 66028
L89784 65896
L89803 65821
L89840 65784
L89878 65765
" />
<path d="M90215 66159
L90215 65765
L90309 65765
L90365 65784
L90403 65821
L90421 65859
L90440 65934
L90440 65990
L90421 66065
L90403 66103
L90365 66140
L90309 66159
L90215 66159
" />
<path d="M90609 65953
L90740 65953
" />
<path d="M90796 66159
L90609 66159
L90609 65765
L90796 65765
" />
<path d="M66721 66159
L66721 65765
L66815 65765
L66871 65784
L66909 65821
L66928 65859
L66946 65934
L66946 65990
L66928 66065
L66909 66103
L66871 66140
L66815 66159
L66721 66159
" />
<path d="M67115 66159
L67115 65765
" />
<path d="M67378 65765
L67453 65765
L67490 65784
L67528 65821
L67546 65896
L67546 66028
L67528 66103
L67490 66140
L67453 66159
L67378 66159
L67340 66140
L67303 66103
L67284 66028
L67284 65896
L67303 65821
L67340 65784
L67378 65765
" />
<path d="M67715 66159
L67715 65765
L67809 65765
L67865 65784
L67903 65821
L67921 65859
L67940 65934
L67940 65990
L67921 66065
L67903 66103
L67865 66140
L67809 66159
L67715 66159
" />
<path d="M68109 65953
L68240 65953
" />
<path d="M68296 66159
L68109 66159
L68109 65765
L68296 65765
" />
<path d="M74221 66159
L74221 65765
L74315 65765
L74371 65784
L74409 65821
L74428 65859
L74446 65934
L74446 65990
L74428 66065
L74409 66103
L74371 66140
L74315 66159
L74221 66159
" />
<path d="M74615 66159
L74615 65765
" />
<path d="M74878 65765
L74953 65765
L74990 65784
L75028 65821
L75046 65896
L75046 66028
L75028 66103
L74990 66140
L74953 66159
L74878 66159
L74840 66140
L74803 66103
L74784 66028
L74784 65896
L74803 65821
L74840 65784
L74878 65765
" />
<path d="M75215 66159
L75215 65765
L75309 65765
L75365 65784
L75403 65821
L75421 65859
L75440 65934
L75440 65990
L75421 66065
L75403 66103
L75365 66140
L75309 66159
L75215 66159
" />
<path d="M75609 65953
L75740 65953
" />
<path d="M75796 66159
L75609 66159
L75609 65765
L75796 65765
" />
<path d="M81721 66159
L81721 65765
L81815 65765
L81871 65784
L81909 65821
L81928 65859
L81946 65934
L81946 65990
L81928 66065
L81909 66103
L81871 66140
L81815 66159
L81721 66159
" />
<path d="M82115 66159
L82115 65765
" />
<path d="M82378 65765
L82453 65765
L82490 65784
L82528 65821
L82546 65896
L82546 66028
L82528 66103
L82490 66140
L82453 66159
L82378 66159
L82340 66140
L82303 66103
L82284 66028
L82284 65896
L82303 65821
L82340 65784
L82378 65765
" />
<path d="M82715 66159
L82715 65765
L82809 65765
L82865 65784
L82903 65821
L82921 65859
L82940 65934
L82940 65990
L82921 66065
L82903 66103
L82865 66140
L82809 66159
L82715 66159
" />
<path d="M83109 65953
L83240 65953
" />
<path d="M83296 66159
L83109 66159
L83109 65765
L83296 65765
" />
<path d="M81721 59159
L81721 58765
L81815 58765
L81871 58784
L81909 58821
L81928 58859
L81946 58934
L81946 58990
L81928 59065
L81909 59103
L81871 59140
L81815 59159
L81721 59159
" />
<path d="M82115 59159
L82115 58765
" />
<path d="M82378 58765
L82453 58765
L82490 58784
L82528 58821
L82546 58896
L82546 59028
L82528 59103
L82490 59140
L82453 59159
L82378 59159
L82340 59140
L82303 59103
L82284 59028
L82284 58896
L82303 58821
L82340 58784
L82378 58765
" />
<path d="M82715 59159
L82715 58765
L82809 58765
L82865 58784
L82903 58821
L82921 58859
L82940 58934
L82940 58990
L82921 59065
L82903 59103
L82865 59140
L82809 59159
L82715 59159
" />
<path d="M83109 58953
L83240 58953
" />
<path d="M83296 59159
L83109 59159
L83109 58765
L83296 58765
" />
<path d="M74221 59159
L74221 58765
L74315 58765
L74371 58784
L74409 58821
L74428 58859
L74446 58934
L74446 58990
L74428 59065
L74409 59103
L74371 59140
L74315 59159
L74221 59159
" />
<path d="M74615 59159
L74615 58765
" />
<path d="M74878 58765
L74953 58765
L74990 58784
L75028 58821
L75046 58896
L75046 59028
L75028 59103
L74990 59140
L74953 59159
L74878 59159
L74840 59140
L74803 59103
L74784 59028
L74784 58896
L74803 58821
L74840 58784
L74878 58765
" />
<path d="M75215 59159
L75215 58765
L75309 58765
L75365 58784
L75403 58821
L75421 58859
L75440 58934
L75440 58990
L75421 59065
L75403 59103
L75365 59140
L75309 59159
L75215 59159
" />
<path d="M75609 58953
L75740 58953
" />
<path d="M75796 59159
L75609 59159
L75609 58765
L75796 58765
" />
<path d="M66721 59159
L66721 58765
L66815 58765
L66871 58784
L66909 58821
L66928 58859
L66946 58934
L66946 58990
L66928 59065
L66909 59103
L66871 59140
L66815 59159
L66721 59159
" />
<path d="M67115 59159
L67115 58765
" />
<path d="M67378 58765
L67453 58765
L67490 58784
L67528 58821
L67546 58896
L67546 59028
L67528 59103
L67490 59140
L67453 59159
L67378 59159
L67340 59140
L67303 59103
L67284 59028
L67284 58896
L67303 58821
L67340 58784
L67378 58765
" />
<path d="M67715 59159
L67715 58765
L67809 58765
L67865 58784
L67903 58821
L67921 58859
L67940 58934
L67940 58990
L67921 59065
L67903 59103
L67865 59140
L67809 59159
L67715 59159
" />
<path d="M68109 58953
L68240 58953
" />
<path d="M68296 59159
L68109 59159
L68109 58765
L68296 58765
" />
<path d="M89221 52159
L89221 51765
L89315 51765
L89371 51784
L89409 51821
L89428 51859
L89446 51934
L89446 51990
L89428 52065
L89409 52103
L89371 52140
L89315 52159
L89221 52159
" />
<path d="M89615 52159
L89615 51765
" />
<path d="M89878 51765
L89953 51765
L89990 51784
L90028 51821
L90046 51896
L90046 52028
L90028 52103
L89990 52140
L89953 52159
L89878 52159
L89840 52140
L89803 52103
L89784 52028
L89784 51896
L89803 51821
L89840 51784
L89878 51765
" />
<path d="M90215 52159
L90215 51765
L90309 51765
L90365 51784
L90403 51821
L90421 51859
L90440 51934
L90440 51990
L90421 52065
L90403 52103
L90365 52140
L90309 52159
L90215 52159
" />
<path d="M90609 51953
L90740 51953
" />
<path d="M90796 52159
L90609 52159
L90609 51765
L90796 51765
" />
<path d="M81721 52159
L81721 51765
L81815 51765
L81871 51784
L81909 51821
L81928 51859
L81946 51934
L81946 51990
L81928 52065
L81909 52103
L81871 52140
L81815 52159
L81721 52159
" />
<path d="M82115 52159
L82115 51765
" />
<path d="M82378 51765
L82453 51765
L82490 51784
L82528 51821
L82546 51896
L82546 52028
L82528 52103
L82490 52140
L82453 52159
L82378 52159
L82340 52140
L82303 52103
L82284 52028
L82284 51896
L82303 51821
L82340 51784
L82378 51765
" />
<path d="M82715 52159
L82715 51765
L82809 51765
L82865 51784
L82903 51821
L82921 51859
L82940 51934
L82940 51990
L82921 52065
L82903 52103
L82865 52140
L82809 52159
L82715 52159
" />
<path d="M83109 51953
L83240 51953
" />
<path d="M83296 52159
L83109 52159
L83109 51765
L83296 51765
" />
<path d="M74221 52159
L74221 51765
L74315 51765
L74371 51784
L74409 51821
L74428 51859
L74446 51934
L74446 51990
L74428 52065
L74409 52103
L74371 52140
L74315 52159
L74221 52159
" />
<path d="M74615 52159
L74615 51765
" />
<path d="M74878 51765
L74953 51765
L74990 51784
L75028 51821
L75046 51896
L75046 52028
L75028 52103
L74990 52140
L74953 52159
L74878 52159
L74840 52140
L74803 52103
L74784 52028
L74784 51896
L74803 51821
L74840 51784
L74878 51765
" />
<path d="M75215 52159
L75215 51765
L75309 51765
L75365 51784
L75403 51821
L75421 51859
L75440 51934
L75440 51990
L75421 52065
L75403 52103
L75365 52140
L75309 52159
L75215 52159
" />
<path d="M75609 51953
L75740 51953
" />
<path d="M75796 52159
L75609 52159
L75609 51765
L75796 51765
" />
<path d="M66721 52159
L66721 51765
L66815 51765
L66871 51784
L66909 51821
L66928 51859
L66946 51934
L66946 51990
L66928 52065
L66909 52103
L66871 52140
L66815 52159
L66721 52159
" />
<path d="M67115 52159
L67115 51765
" />
<path d="M67378 51765
L67453 51765
L67490 51784
L67528 51821
L67546 51896
L67546 52028
L67528 52103
L67490 52140
L67453 52159
L67378 52159
L67340 52140
L67303 52103
L67284 52028
L67284 51896
L67303 51821
L67340 51784
L67378 51765
" />
<path d="M67715 52159
L67715 51765
L67809 51765
L67865 51784
L67903 51821
L67921 51859
L67940 51934
L67940 51990
L67921 52065
L67903 52103
L67865 52140
L67809 52159
L67715 52159
" />
<path d="M68109 51953
L68240 51953
" />
<path d="M68296 52159
L68109 52159
L68109 51765
L68296 51765
" />
</g>
<g style="fill:#009F9F; fill-opacity:0.0; 
stroke:#009F9F; stroke-width:120; stroke-opacity:1; 
stroke-linecap:round; stroke-linejoin:round;">
<path d="M64500 42000
L64500 42000
" />
<path d="M64500 42000
L71500 42000
" />
<path d="M71500 42000
L71500 43000
" />
<path d="M71500 43000
L64500 43000
" />
<path d="M64500 43000
L64500 42000
" />
<path d="M65500 43000
L65500 43000
" />
<path d="M65500 43000
L65500 42000
" />
</g>
<g style="fill:#7F7F00; fill-opacity:0.0; 
stroke:#7F7F00; stroke-width:39.3701; stroke-opacity:1; 
stroke-linecap:round; stroke-linejoin:round;">
</g>
<g style="fill:#7F7F00; fill-opacity:1.0; 
stroke:#7F7F00; stroke-width:39.3701; stroke-opacity:1; 
stroke-linecap:round; stroke-linejoin:round;">
<polyline style="fill-rule:evenodd;"
points="64744,42755
64744,42244
65255,42244
65255,42755
64744,42755
" /> 
<circle cx="66000" cy="42500" r="255.315" /> 
<circle cx="67000" cy="42500" r="255.315" /> 
<circle cx="68000" cy="42500" r="255.315" /> 
<circle cx="69000" cy="42500" r="255.315" /> 
<circle cx="70000" cy="42500" r="255.315" /> 
<circle cx="71000" cy="42500" r="255.315" /> 
<circle cx="74500" cy="47500" r="492.126" /> 
<circle cx="72500" cy="47500" r="285.433" /> 
<circle cx="76500" cy="47500" r="285.433" /> 
<circle cx="76500" cy="46000" r="393.701" /> 
<circle cx="72500" cy="46000" r="393.701" /> 
<circle cx="74500" cy="49500" r="413.386" /> 
<circle cx="74500" cy="46000" r="393.701" /> 
<circle cx="82000" cy="47500" r="492.126" /> 
<circle cx="80000" cy="47500" r="285.433" /> 
<circle cx="84000" cy="47500" r="285.433" /> 
<circle cx="84000" cy="46000" r="393.701" /> 
<circle cx="80000" cy="46000" r="393.701" /> 
<circle cx="82000" cy="49500" r="413.386" /> 
<circle cx="82000" cy="46000" r="393.701" /> 
<circle cx="67000" cy="54500" r="492.126" /> 
<circle cx="65000" cy="54500" r="285.433" /> 
<circle cx="69000" cy="54500" r="285.433" /> 
<circle cx="69000" cy="53000" r="393.701" /> 
<circle cx="65000" cy="53000" r="393.701" /> 
<circle cx="67000" cy="56500" r="413.386" /> 
<circle cx="67000" cy="53000" r="393.701" /> 
<circle cx="74500" cy="54500" r="492.126" /> 
<circle cx="72500" cy="54500" r="285.433" /> 
<circle cx="76500" cy="54500" r="285.433" /> 
<circle cx="76500" cy="53000" r="393.701" /> 
<circle cx="72500" cy="53000" r="393.701" /> 
<circle cx="74500" cy="56500" r="413.386" /> 
<circle cx="74500" cy="53000" r="393.701" /> 
<circle cx="82000" cy="54500" r="492.126" /> 
<circle cx="80000" cy="54500" r="285.433" /> 
<circle cx="84000" cy="54500" r="285.433" /> 
<circle cx="84000" cy="53000" r="393.701" /> 
<circle cx="80000" cy="53000" r="393.701" /> 
<circle cx="82000" cy="56500" r="413.386" /> 
<circle cx="82000" cy="53000" r="393.701" /> 
<circle cx="89500" cy="47500" r="492.126" /> 
<circle cx="87500" cy="47500" r="285.433" /> 
<circle cx="91500" cy="47500" r="285.433" /> 
<circle cx="91500" cy="46000" r="393.701" /> 
<circle cx="87500" cy="46000" r="393.701" /> 
<circle cx="89500" cy="49500" r="413.386" /> 
<circle cx="89500" cy="46000" r="393.701" /> 
<circle cx="89500" cy="54500" r="492.126" /> 
<circle cx="87500" cy="54500" r="285.433" /> 
<circle cx="91500" cy="54500" r="285.433" /> 
<circle cx="91500" cy="53000" r="393.701" /> 
<circle cx="87500" cy="53000" r="393.701" /> 
<circle cx="89500" cy="56500" r="413.386" /> 
<circle cx="89500" cy="53000" r="393.701" /> 
<circle cx="67000" cy="61500" r="492.126" /> 
<circle cx="65000" cy="61500" r="285.433" /> 
<circle cx="69000" cy="61500" r="285.433" /> 
<circle cx="69000" cy="60000" r="393.701" /> 
<circle cx="65000" cy="60000" r="393.701" /> 
<circle cx="67000" cy="63500" r="413.386" /> 
<circle cx="67000" cy="60000" r="393.701" /> 
<circle cx="74500" cy="61500" r="492.126" /> 
<circle cx="72500" cy="61500" r="285.433" /> 
<circle cx="76500" cy="61500" r="285.433" /> 
<circle cx="76500" cy="60000" r="393.701" /> 
<circle cx="72500" cy="60000" r="393.701" /> 
<circle cx="74500" cy="63500" r="413.386" /> 
<circle cx="74500" cy="60000" r="393.701" /> 
<circle cx="82000" cy="61500" r="492.126" /> 
<circle cx="80000" cy="61500" r="285.433" /> 
<circle cx="84000" cy="61500" r="285.433" /> 
<circle cx="84000" cy="60000" r="393.701" /> 
<circle cx="80000" cy="60000" r="393.701" /> 
<circle cx="82000" cy="63500" r="413.386" /> 
<circle cx="82000" cy="60000" r="393.701" /> 
<circle cx="89500" cy="61500" r="492.126" /> 
<circle cx="87500" cy="61500" r="285.433" /> 
<circle cx="91500" cy="61500" r="285.433" /> 
<circle cx="91500" cy="60000" r="393.701" /> 
<circle cx="87500" cy="60000" r="393.701" /> 
<circle cx="89500" cy="63500" r="413.386" /> 
<circle cx="89500" cy="60000" r="393.701" /> 
<circle cx="67000" cy="47500" r="492.126" /> 
<circle cx="65000" cy="47500" r="285.433" /> 
<circle cx="69000" cy="47500" r="285.433" /> 
<circle cx="69000" cy="46000" r="393.701" /> 
<circle cx="65000" cy="46000" r="393.701" /> 
<circle cx="67000" cy="49500" r="413.386" /> 
<circle cx="67000" cy="46000" r="393.701" /> 
</g> 
</svg>
