M48
;DRILL file {Pcbnew (2013-07-07 BZR 4022)-stable} date 09/11/2015 23:22:38
;FORMAT={-:-/ absolute / inch / decimal}
FMAT,2
INCH,TZ
T1C0.061
T2C0.102
%
G90
G05
M72
T1
X6.5Y-4.75
X6.5Y-5.45
X6.5Y-6.15
X6.9Y-4.75
X6.9Y-5.45
X6.9Y-6.15
X7.25Y-4.75
X7.25Y-5.45
X7.25Y-6.15
X7.65Y-4.75
X7.65Y-5.45
X7.65Y-6.15
X8.Y-4.75
X8.Y-5.45
X8.Y-6.15
X8.4Y-4.75
X8.4Y-5.45
X8.4Y-6.15
X8.75Y-4.75
X8.75Y-5.45
X8.75Y-6.15
X9.15Y-4.75
X9.15Y-5.45
X9.15Y-6.15
T2
X6.7Y-4.75
X6.7Y-5.45
X6.7Y-6.15
X7.45Y-4.75
X7.45Y-5.45
X7.45Y-6.15
X8.2Y-4.75
X8.2Y-5.45
X8.2Y-6.15
X8.95Y-4.75
X8.95Y-5.45
X8.95Y-6.15
T0
M30
