M48
;DRILL file {Pcbnew (2013-07-07 BZR 4022)-stable} date 21/11/2015 23:20:15
;FORMAT={-:-/ absolute / inch / decimal}
FMAT,2
INCH,TZ
T1C0.032
T2C0.055
T3C0.059
%
G90
G05
M72
T1
X5.75Y-3.15
X5.85Y-3.15
X5.95Y-3.15
X6.05Y-3.15
T2
X5.65Y-3.5
X5.65Y-4.2
X5.85Y-3.5
X5.85Y-4.2
X6.05Y-3.5
X6.05Y-4.2
X6.4Y-3.5
X6.4Y-4.2
X6.6Y-3.5
X6.6Y-4.2
X6.8Y-3.5
X6.8Y-4.2
T3
X5.85Y-3.85
X5.85Y-4.55
X6.6Y-3.85
X6.6Y-4.55
T0
M30
