G04 (created by PCBNEW (2013-07-07 BZR 4022)-stable) date 08/11/2015 21:30:27*
%MOIN*%
G04 Gerber Fmt 3.4, Leading zero omitted, Abs format*
%FSLAX34Y34*%
G01*
G70*
G90*
G04 APERTURE LIST*
%ADD10C,0.00590551*%
%ADD11R,0.055X0.055*%
%ADD12C,0.055*%
%ADD13C,0.0826772*%
%ADD14C,0.0866142*%
%ADD15C,0.01*%
G04 APERTURE END LIST*
G54D10*
G54D11*
X47400Y-28800D03*
G54D12*
X48400Y-28800D03*
X49400Y-28800D03*
X50400Y-28800D03*
X51400Y-28800D03*
X52400Y-28800D03*
X53400Y-28800D03*
G54D13*
X51400Y-33300D03*
X47400Y-33300D03*
G54D14*
X49400Y-36800D03*
G54D13*
X49400Y-33300D03*
X73900Y-48300D03*
X69900Y-48300D03*
G54D14*
X71900Y-51800D03*
G54D13*
X71900Y-48300D03*
X66400Y-48300D03*
X62400Y-48300D03*
G54D14*
X64400Y-51800D03*
G54D13*
X64400Y-48300D03*
X58900Y-48300D03*
X54900Y-48300D03*
G54D14*
X56900Y-51800D03*
G54D13*
X56900Y-48300D03*
X51400Y-48300D03*
X47400Y-48300D03*
G54D14*
X49400Y-51800D03*
G54D13*
X49400Y-48300D03*
X73900Y-40800D03*
X69900Y-40800D03*
G54D14*
X71900Y-44300D03*
G54D13*
X71900Y-40800D03*
X73900Y-33300D03*
X69900Y-33300D03*
G54D14*
X71900Y-36800D03*
G54D13*
X71900Y-33300D03*
X66400Y-40800D03*
X62400Y-40800D03*
G54D14*
X64400Y-44300D03*
G54D13*
X64400Y-40800D03*
X58900Y-40800D03*
X54900Y-40800D03*
G54D14*
X56900Y-44300D03*
G54D13*
X56900Y-40800D03*
X51400Y-40800D03*
X47400Y-40800D03*
G54D14*
X49400Y-44300D03*
G54D13*
X49400Y-40800D03*
X66400Y-33300D03*
X62400Y-33300D03*
G54D14*
X64400Y-36800D03*
G54D13*
X64400Y-33300D03*
X58900Y-33300D03*
X54900Y-33300D03*
G54D14*
X56900Y-36800D03*
G54D13*
X56900Y-33300D03*
G54D15*
X71900Y-36800D02*
X71900Y-38800D01*
X56900Y-44300D02*
X56900Y-46300D01*
X56900Y-51800D02*
X56900Y-53800D01*
X56900Y-51800D02*
X56900Y-53800D01*
X64400Y-36800D02*
X64400Y-38800D01*
X65700Y-53800D02*
X65700Y-46200D01*
X65700Y-38800D02*
X65700Y-38000D01*
X65400Y-37600D02*
X65400Y-32400D01*
X65400Y-37700D02*
X65700Y-38000D01*
X65400Y-37600D02*
X65400Y-37700D01*
X65700Y-46200D02*
X65700Y-38800D01*
X64600Y-31500D02*
X65400Y-32300D01*
X53300Y-31500D02*
X64600Y-31500D01*
X52400Y-28800D02*
X52400Y-30500D01*
X52400Y-30600D02*
X53100Y-31300D01*
X52400Y-30500D02*
X52400Y-30600D01*
X53100Y-31300D02*
X53300Y-31500D01*
X65400Y-32300D02*
X65400Y-32400D01*
X65400Y-32400D02*
X65400Y-32500D01*
X64400Y-51800D02*
X64400Y-53800D01*
X50700Y-53800D02*
X50700Y-46400D01*
X50400Y-35800D02*
X50700Y-36100D01*
X50400Y-35800D02*
X50400Y-28800D01*
X50700Y-36100D02*
X50700Y-38800D01*
X50700Y-46400D02*
X50700Y-38800D01*
X64400Y-40800D02*
X62400Y-40800D01*
X62400Y-40800D02*
X58900Y-40800D01*
X73200Y-53800D02*
X73200Y-46300D01*
X73200Y-38800D02*
X73200Y-37200D01*
X71500Y-31100D02*
X72800Y-32400D01*
X53400Y-30300D02*
X53400Y-28800D01*
X53400Y-30800D02*
X53700Y-31100D01*
X53400Y-30700D02*
X53400Y-30800D01*
X53400Y-30300D02*
X53400Y-30700D01*
X71500Y-31100D02*
X53700Y-31100D01*
X72800Y-36800D02*
X73100Y-37100D01*
X72800Y-32400D02*
X72800Y-36800D01*
X73200Y-37200D02*
X73100Y-37100D01*
X73200Y-46300D02*
X73200Y-38800D01*
X66400Y-33300D02*
X69900Y-33300D01*
X69900Y-33300D02*
X71900Y-33300D01*
X66400Y-40800D02*
X69900Y-40800D01*
X69900Y-40800D02*
X71900Y-40800D01*
X49400Y-48300D02*
X47400Y-48300D01*
X47400Y-28800D02*
X47400Y-30800D01*
X45400Y-46300D02*
X47400Y-48300D01*
X45400Y-32800D02*
X45400Y-46300D01*
X47400Y-30800D02*
X45400Y-32800D01*
X51400Y-48300D02*
X54900Y-48300D01*
X54900Y-48300D02*
X56900Y-48300D01*
X49400Y-36800D02*
X49400Y-38800D01*
X49400Y-38800D02*
X49150Y-38800D01*
X49150Y-38800D02*
X49400Y-38800D01*
X54900Y-33300D02*
X56900Y-33300D01*
X51400Y-33300D02*
X54900Y-33300D01*
X58900Y-33300D02*
X62400Y-33300D01*
X62400Y-33300D02*
X64400Y-33300D01*
X62400Y-48300D02*
X64400Y-48300D01*
X58900Y-48300D02*
X62400Y-48300D01*
X49400Y-44300D02*
X49400Y-46300D01*
X49400Y-44300D02*
X49400Y-46300D01*
X49400Y-40800D02*
X47400Y-40800D01*
X48400Y-28800D02*
X48400Y-30800D01*
X45900Y-39300D02*
X47400Y-40800D01*
X45900Y-33300D02*
X45900Y-39300D01*
X48400Y-30800D02*
X45900Y-33300D01*
X71900Y-44300D02*
X71900Y-46300D01*
X54900Y-40800D02*
X56900Y-40800D01*
X51400Y-40800D02*
X54900Y-40800D01*
X66400Y-48300D02*
X69900Y-48300D01*
X69900Y-48300D02*
X71900Y-48300D01*
X71900Y-51800D02*
X71900Y-53800D01*
X71900Y-51800D02*
X71900Y-53800D01*
X64400Y-44300D02*
X64400Y-46300D01*
X64400Y-44300D02*
X64400Y-46300D01*
X49400Y-28800D02*
X49400Y-33300D01*
X49400Y-33300D02*
X47400Y-33300D01*
X49400Y-51800D02*
X49400Y-53800D01*
X49400Y-51800D02*
X49400Y-53800D01*
X56900Y-36800D02*
X56900Y-38800D01*
X58200Y-53800D02*
X58200Y-46300D01*
X58000Y-37700D02*
X58200Y-37900D01*
X58000Y-32600D02*
X58000Y-37700D01*
X51800Y-31600D02*
X52100Y-31900D01*
X51400Y-30200D02*
X51400Y-28800D01*
X51400Y-31200D02*
X51800Y-31600D01*
X51400Y-31000D02*
X51400Y-31200D01*
X51400Y-30900D02*
X51400Y-31000D01*
X51400Y-30200D02*
X51400Y-30900D01*
X57300Y-31900D02*
X57900Y-32500D01*
X52100Y-31900D02*
X57300Y-31900D01*
X57900Y-32500D02*
X58000Y-32600D01*
X58200Y-37900D02*
X58200Y-38800D01*
X58200Y-46300D02*
X58200Y-38800D01*
M02*
