M48
;DRILL file {Pcbnew (2013-07-07 BZR 4022)-stable} date 09/11/2015 23:04:09
;FORMAT={-:-/ absolute / inch / decimal}
FMAT,2
INCH,TZ
T1C0.061
T2C0.102
%
G90
G05
M72
T1
X7.6Y-5.3
X7.6Y-6.
X7.6Y-6.7
X8.Y-5.3
X8.Y-6.
X8.Y-6.7
X8.35Y-5.3
X8.35Y-6.
X8.35Y-6.7
X8.75Y-5.3
X8.75Y-6.
X8.75Y-6.7
X9.1Y-5.3
X9.1Y-6.
X9.1Y-6.7
X9.5Y-5.3
X9.5Y-6.
X9.5Y-6.7
X9.85Y-5.3
X9.85Y-6.
X9.85Y-6.7
X10.25Y-5.3
X10.25Y-6.
X10.25Y-6.7
T2
X7.8Y-5.3
X7.8Y-6.
X7.8Y-6.7
X8.55Y-5.3
X8.55Y-6.
X8.55Y-6.7
X9.3Y-5.3
X9.3Y-6.
X9.3Y-6.7
X10.05Y-5.3
X10.05Y-6.
X10.05Y-6.7
T0
M30
