M48
;DRILL file {Pcbnew (2013-07-07 BZR 4022)-stable} date 08/11/2015 21:30:32
;FORMAT={-:-/ absolute / inch / decimal}
FMAT,2
INCH,TZ
T1C0.061
T2C0.102
%
G90
G05
M72
T1
X4.74Y-3.48
X4.74Y-4.23
X4.74Y-4.98
X5.14Y-3.48
X5.14Y-4.23
X5.14Y-4.98
X5.49Y-3.48
X5.49Y-4.23
X5.49Y-4.98
X5.89Y-3.48
X5.89Y-4.23
X5.89Y-4.98
X6.24Y-3.48
X6.24Y-4.23
X6.24Y-4.98
X6.64Y-3.48
X6.64Y-4.23
X6.64Y-4.98
X6.99Y-3.48
X6.99Y-4.23
X6.99Y-4.98
X7.39Y-3.48
X7.39Y-4.23
X7.39Y-4.98
T2
X4.94Y-3.48
X4.94Y-4.23
X4.94Y-4.98
X5.69Y-3.48
X5.69Y-4.23
X5.69Y-4.98
X6.44Y-3.48
X6.44Y-4.23
X6.44Y-4.98
X7.19Y-3.48
X7.19Y-4.23
X7.19Y-4.98
T0
M30
