G04 (created by PCBNEW (2013-07-07 BZR 4022)-stable) date 09/11/2015 23:22:36*
%MOIN*%
G04 Gerber Fmt 3.4, Leading zero omitted, Abs format*
%FSLAX34Y34*%
G01*
G70*
G90*
G04 APERTURE LIST*
%ADD10C,0.00393701*%
%ADD11R,0.055X0.055*%
%ADD12C,0.055*%
%ADD13C,0.0826772*%
%ADD14C,0.0866142*%
%ADD15R,0.0433071X0.0590551*%
%ADD16C,0.01*%
G04 APERTURE END LIST*
G54D10*
G54D11*
X65000Y-42500D03*
G54D12*
X66000Y-42500D03*
X67000Y-42500D03*
X68000Y-42500D03*
X69000Y-42500D03*
X70000Y-42500D03*
X71000Y-42500D03*
G54D13*
X76500Y-46000D03*
X72500Y-46000D03*
G54D14*
X74500Y-49500D03*
G54D13*
X74500Y-46000D03*
X84000Y-46000D03*
X80000Y-46000D03*
G54D14*
X82000Y-49500D03*
G54D13*
X82000Y-46000D03*
X69000Y-53000D03*
X65000Y-53000D03*
G54D14*
X67000Y-56500D03*
G54D13*
X67000Y-53000D03*
X76500Y-53000D03*
X72500Y-53000D03*
G54D14*
X74500Y-56500D03*
G54D13*
X74500Y-53000D03*
X84000Y-53000D03*
X80000Y-53000D03*
G54D14*
X82000Y-56500D03*
G54D13*
X82000Y-53000D03*
X91500Y-46000D03*
X87500Y-46000D03*
G54D14*
X89500Y-49500D03*
G54D13*
X89500Y-46000D03*
X91500Y-53000D03*
X87500Y-53000D03*
G54D14*
X89500Y-56500D03*
G54D13*
X89500Y-53000D03*
X69000Y-60000D03*
X65000Y-60000D03*
G54D14*
X67000Y-63500D03*
G54D13*
X67000Y-60000D03*
X76500Y-60000D03*
X72500Y-60000D03*
G54D14*
X74500Y-63500D03*
G54D13*
X74500Y-60000D03*
X84000Y-60000D03*
X80000Y-60000D03*
G54D14*
X82000Y-63500D03*
G54D13*
X82000Y-60000D03*
X91500Y-60000D03*
X87500Y-60000D03*
G54D14*
X89500Y-63500D03*
G54D13*
X89500Y-60000D03*
X69000Y-46000D03*
X65000Y-46000D03*
G54D14*
X67000Y-49500D03*
G54D13*
X67000Y-46000D03*
G54D15*
X89500Y-58000D03*
X90799Y-58000D03*
X89500Y-65000D03*
X90799Y-65000D03*
X67000Y-65000D03*
X68299Y-65000D03*
X74500Y-65000D03*
X75799Y-65000D03*
X82000Y-65000D03*
X83299Y-65000D03*
X82000Y-58000D03*
X83299Y-58000D03*
X74500Y-58000D03*
X75799Y-58000D03*
X67000Y-58000D03*
X68299Y-58000D03*
X89500Y-51000D03*
X90799Y-51000D03*
X82000Y-51000D03*
X83299Y-51000D03*
X74500Y-51000D03*
X75799Y-51000D03*
X67000Y-51000D03*
X68299Y-51000D03*
G54D16*
X89500Y-49500D02*
X89500Y-51000D01*
X74500Y-56500D02*
X74500Y-58000D01*
X74500Y-63500D02*
X74500Y-65000D01*
X82000Y-49500D02*
X82000Y-51000D01*
X83299Y-58000D02*
X83299Y-65000D01*
X83299Y-51000D02*
X83299Y-58000D01*
X70000Y-42500D02*
X70000Y-44000D01*
X83000Y-50700D02*
X83299Y-51000D01*
X83000Y-45500D02*
X83000Y-50700D01*
X82000Y-44500D02*
X83000Y-45500D01*
X70500Y-44500D02*
X82000Y-44500D01*
X70000Y-44000D02*
X70500Y-44500D01*
X82000Y-63500D02*
X82000Y-65000D01*
X68299Y-58000D02*
X68299Y-65000D01*
X68299Y-51000D02*
X68299Y-58000D01*
X68000Y-42500D02*
X68000Y-50700D01*
X68000Y-50700D02*
X68299Y-51000D01*
X76500Y-53000D02*
X80000Y-53000D01*
X80000Y-53000D02*
X82000Y-53000D01*
X90799Y-58000D02*
X90799Y-65000D01*
X90799Y-51000D02*
X90799Y-58000D01*
X71000Y-42500D02*
X71000Y-43500D01*
X90500Y-50700D02*
X90799Y-51000D01*
X90500Y-45000D02*
X90500Y-50700D01*
X89500Y-44000D02*
X90500Y-45000D01*
X71500Y-44000D02*
X89500Y-44000D01*
X71000Y-43500D02*
X71500Y-44000D01*
X84000Y-46000D02*
X87500Y-46000D01*
X87500Y-46000D02*
X89500Y-46000D01*
X84000Y-53000D02*
X87500Y-53000D01*
X87500Y-53000D02*
X89500Y-53000D01*
X67000Y-60000D02*
X65000Y-60000D01*
X65000Y-60000D02*
X63500Y-58500D01*
X63500Y-58500D02*
X63500Y-45000D01*
X63500Y-45000D02*
X65000Y-43500D01*
X65000Y-43500D02*
X65000Y-42500D01*
X69000Y-60000D02*
X72500Y-60000D01*
X72500Y-60000D02*
X74500Y-60000D01*
X67000Y-49500D02*
X67000Y-50500D01*
X67000Y-50500D02*
X67000Y-51000D01*
X69000Y-46000D02*
X72500Y-46000D01*
X72500Y-46000D02*
X74500Y-46000D01*
X76500Y-46000D02*
X80000Y-46000D01*
X80000Y-46000D02*
X82000Y-46000D01*
X76500Y-60000D02*
X80000Y-60000D01*
X80000Y-60000D02*
X82000Y-60000D01*
X67000Y-56500D02*
X67000Y-58000D01*
X66000Y-42500D02*
X66000Y-43500D01*
X64000Y-52000D02*
X65000Y-53000D01*
X64000Y-45500D02*
X64000Y-52000D01*
X66000Y-43500D02*
X64000Y-45500D01*
X65000Y-53000D02*
X67000Y-53000D01*
X89500Y-56500D02*
X89500Y-58000D01*
X69000Y-53000D02*
X72500Y-53000D01*
X72500Y-53000D02*
X74500Y-53000D01*
X84000Y-60000D02*
X87500Y-60000D01*
X87500Y-60000D02*
X89500Y-60000D01*
X89500Y-63500D02*
X89500Y-65000D01*
X82000Y-56500D02*
X82000Y-58000D01*
X67000Y-42500D02*
X67000Y-46000D01*
X67000Y-46000D02*
X65000Y-46000D01*
X67000Y-65000D02*
X67000Y-63500D01*
X74500Y-49500D02*
X74500Y-51000D01*
X69000Y-42500D02*
X69000Y-44000D01*
X75500Y-50700D02*
X75799Y-51000D01*
X75500Y-45500D02*
X75500Y-50700D01*
X75000Y-45000D02*
X75500Y-45500D01*
X70000Y-45000D02*
X75000Y-45000D01*
X69000Y-44000D02*
X70000Y-45000D01*
X75799Y-58000D02*
X75799Y-51000D01*
X75799Y-65000D02*
X75799Y-58000D01*
M02*
