G04 (created by PCBNEW (2013-07-07 BZR 4022)-stable) date 09/11/2015 23:22:36*
%MOIN*%
G04 Gerber Fmt 3.4, Leading zero omitted, Abs format*
%FSLAX34Y34*%
G01*
G70*
G90*
G04 APERTURE LIST*
%ADD10C,0.00393701*%
%ADD11R,0.055X0.055*%
%ADD12C,0.055*%
%ADD13C,0.0826772*%
%ADD14C,0.0866142*%
G04 APERTURE END LIST*
G54D10*
G54D11*
X65000Y-42500D03*
G54D12*
X66000Y-42500D03*
X67000Y-42500D03*
X68000Y-42500D03*
X69000Y-42500D03*
X70000Y-42500D03*
X71000Y-42500D03*
G54D13*
X76500Y-46000D03*
X72500Y-46000D03*
G54D14*
X74500Y-49500D03*
G54D13*
X74500Y-46000D03*
X84000Y-46000D03*
X80000Y-46000D03*
G54D14*
X82000Y-49500D03*
G54D13*
X82000Y-46000D03*
X69000Y-53000D03*
X65000Y-53000D03*
G54D14*
X67000Y-56500D03*
G54D13*
X67000Y-53000D03*
X76500Y-53000D03*
X72500Y-53000D03*
G54D14*
X74500Y-56500D03*
G54D13*
X74500Y-53000D03*
X84000Y-53000D03*
X80000Y-53000D03*
G54D14*
X82000Y-56500D03*
G54D13*
X82000Y-53000D03*
X91500Y-46000D03*
X87500Y-46000D03*
G54D14*
X89500Y-49500D03*
G54D13*
X89500Y-46000D03*
X91500Y-53000D03*
X87500Y-53000D03*
G54D14*
X89500Y-56500D03*
G54D13*
X89500Y-53000D03*
X69000Y-60000D03*
X65000Y-60000D03*
G54D14*
X67000Y-63500D03*
G54D13*
X67000Y-60000D03*
X76500Y-60000D03*
X72500Y-60000D03*
G54D14*
X74500Y-63500D03*
G54D13*
X74500Y-60000D03*
X84000Y-60000D03*
X80000Y-60000D03*
G54D14*
X82000Y-63500D03*
G54D13*
X82000Y-60000D03*
X91500Y-60000D03*
X87500Y-60000D03*
G54D14*
X89500Y-63500D03*
G54D13*
X89500Y-60000D03*
X69000Y-46000D03*
X65000Y-46000D03*
G54D14*
X67000Y-49500D03*
G54D13*
X67000Y-46000D03*
M02*
