G04 (created by PCBNEW (2013-07-07 BZR 4022)-stable) date 09/11/2015 23:22:36*
%MOIN*%
G04 Gerber Fmt 3.4, Leading zero omitted, Abs format*
%FSLAX34Y34*%
G01*
G70*
G90*
G04 APERTURE LIST*
%ADD10C,0.00393701*%
%ADD11C,0.012*%
%ADD12C,0.0107*%
%ADD13C,0.00590551*%
G04 APERTURE END LIST*
G54D10*
G54D11*
X64500Y-42000D02*
X64500Y-42000D01*
X64500Y-42000D02*
X71500Y-42000D01*
X71500Y-42000D02*
X71500Y-43000D01*
X71500Y-43000D02*
X64500Y-43000D01*
X64500Y-43000D02*
X64500Y-42000D01*
X65500Y-43000D02*
X65500Y-43000D01*
X65500Y-43000D02*
X65500Y-42000D01*
G54D12*
X70184Y-41775D02*
X70184Y-41094D01*
X70347Y-41094D01*
X70387Y-41127D01*
X70408Y-41159D01*
X70428Y-41224D01*
X70428Y-41321D01*
X70408Y-41386D01*
X70387Y-41418D01*
X70347Y-41451D01*
X70184Y-41451D01*
X70836Y-41775D02*
X70591Y-41775D01*
X70714Y-41775D02*
X70714Y-41094D01*
X70673Y-41191D01*
X70632Y-41256D01*
X70591Y-41289D01*
G54D11*
G54D13*
X74740Y-48821D02*
X74722Y-48840D01*
X74665Y-48859D01*
X74628Y-48859D01*
X74572Y-48840D01*
X74534Y-48803D01*
X74515Y-48765D01*
X74497Y-48690D01*
X74497Y-48634D01*
X74515Y-48559D01*
X74534Y-48521D01*
X74572Y-48484D01*
X74628Y-48465D01*
X74665Y-48465D01*
X74722Y-48484D01*
X74740Y-48503D01*
X74909Y-48859D02*
X74909Y-48465D01*
X74909Y-48653D02*
X75134Y-48653D01*
X75134Y-48859D02*
X75134Y-48465D01*
X75321Y-48653D02*
X75453Y-48653D01*
X75509Y-48859D02*
X75321Y-48859D01*
X75321Y-48465D01*
X75509Y-48465D01*
X75903Y-48859D02*
X75771Y-48671D01*
X75678Y-48859D02*
X75678Y-48465D01*
X75828Y-48465D01*
X75865Y-48484D01*
X75884Y-48503D01*
X75903Y-48540D01*
X75903Y-48596D01*
X75884Y-48634D01*
X75865Y-48653D01*
X75828Y-48671D01*
X75678Y-48671D01*
X76296Y-48859D02*
X76165Y-48671D01*
X76071Y-48859D02*
X76071Y-48465D01*
X76221Y-48465D01*
X76259Y-48484D01*
X76278Y-48503D01*
X76296Y-48540D01*
X76296Y-48596D01*
X76278Y-48634D01*
X76259Y-48653D01*
X76221Y-48671D01*
X76071Y-48671D01*
X76540Y-48671D02*
X76540Y-48859D01*
X76409Y-48465D02*
X76540Y-48671D01*
X76671Y-48465D01*
X76709Y-48896D02*
X77009Y-48896D01*
X77102Y-48859D02*
X77102Y-48465D01*
X77234Y-48746D01*
X77365Y-48465D01*
X77365Y-48859D01*
X77740Y-48859D02*
X77552Y-48859D01*
X77552Y-48465D01*
X82240Y-48821D02*
X82222Y-48840D01*
X82165Y-48859D01*
X82128Y-48859D01*
X82072Y-48840D01*
X82034Y-48803D01*
X82015Y-48765D01*
X81997Y-48690D01*
X81997Y-48634D01*
X82015Y-48559D01*
X82034Y-48521D01*
X82072Y-48484D01*
X82128Y-48465D01*
X82165Y-48465D01*
X82222Y-48484D01*
X82240Y-48503D01*
X82409Y-48859D02*
X82409Y-48465D01*
X82409Y-48653D02*
X82634Y-48653D01*
X82634Y-48859D02*
X82634Y-48465D01*
X82821Y-48653D02*
X82953Y-48653D01*
X83009Y-48859D02*
X82821Y-48859D01*
X82821Y-48465D01*
X83009Y-48465D01*
X83403Y-48859D02*
X83271Y-48671D01*
X83178Y-48859D02*
X83178Y-48465D01*
X83328Y-48465D01*
X83365Y-48484D01*
X83384Y-48503D01*
X83403Y-48540D01*
X83403Y-48596D01*
X83384Y-48634D01*
X83365Y-48653D01*
X83328Y-48671D01*
X83178Y-48671D01*
X83796Y-48859D02*
X83665Y-48671D01*
X83571Y-48859D02*
X83571Y-48465D01*
X83721Y-48465D01*
X83759Y-48484D01*
X83778Y-48503D01*
X83796Y-48540D01*
X83796Y-48596D01*
X83778Y-48634D01*
X83759Y-48653D01*
X83721Y-48671D01*
X83571Y-48671D01*
X84040Y-48671D02*
X84040Y-48859D01*
X83909Y-48465D02*
X84040Y-48671D01*
X84171Y-48465D01*
X84209Y-48896D02*
X84509Y-48896D01*
X84602Y-48859D02*
X84602Y-48465D01*
X84734Y-48746D01*
X84865Y-48465D01*
X84865Y-48859D01*
X85240Y-48859D02*
X85052Y-48859D01*
X85052Y-48465D01*
X67240Y-55821D02*
X67222Y-55840D01*
X67165Y-55859D01*
X67128Y-55859D01*
X67072Y-55840D01*
X67034Y-55803D01*
X67015Y-55765D01*
X66997Y-55690D01*
X66997Y-55634D01*
X67015Y-55559D01*
X67034Y-55521D01*
X67072Y-55484D01*
X67128Y-55465D01*
X67165Y-55465D01*
X67222Y-55484D01*
X67240Y-55503D01*
X67409Y-55859D02*
X67409Y-55465D01*
X67409Y-55653D02*
X67634Y-55653D01*
X67634Y-55859D02*
X67634Y-55465D01*
X67821Y-55653D02*
X67953Y-55653D01*
X68009Y-55859D02*
X67821Y-55859D01*
X67821Y-55465D01*
X68009Y-55465D01*
X68403Y-55859D02*
X68271Y-55671D01*
X68178Y-55859D02*
X68178Y-55465D01*
X68328Y-55465D01*
X68365Y-55484D01*
X68384Y-55503D01*
X68403Y-55540D01*
X68403Y-55596D01*
X68384Y-55634D01*
X68365Y-55653D01*
X68328Y-55671D01*
X68178Y-55671D01*
X68796Y-55859D02*
X68665Y-55671D01*
X68571Y-55859D02*
X68571Y-55465D01*
X68721Y-55465D01*
X68759Y-55484D01*
X68778Y-55503D01*
X68796Y-55540D01*
X68796Y-55596D01*
X68778Y-55634D01*
X68759Y-55653D01*
X68721Y-55671D01*
X68571Y-55671D01*
X69040Y-55671D02*
X69040Y-55859D01*
X68909Y-55465D02*
X69040Y-55671D01*
X69171Y-55465D01*
X69209Y-55896D02*
X69509Y-55896D01*
X69602Y-55859D02*
X69602Y-55465D01*
X69734Y-55746D01*
X69865Y-55465D01*
X69865Y-55859D01*
X70240Y-55859D02*
X70052Y-55859D01*
X70052Y-55465D01*
X74740Y-55821D02*
X74722Y-55840D01*
X74665Y-55859D01*
X74628Y-55859D01*
X74572Y-55840D01*
X74534Y-55803D01*
X74515Y-55765D01*
X74497Y-55690D01*
X74497Y-55634D01*
X74515Y-55559D01*
X74534Y-55521D01*
X74572Y-55484D01*
X74628Y-55465D01*
X74665Y-55465D01*
X74722Y-55484D01*
X74740Y-55503D01*
X74909Y-55859D02*
X74909Y-55465D01*
X74909Y-55653D02*
X75134Y-55653D01*
X75134Y-55859D02*
X75134Y-55465D01*
X75321Y-55653D02*
X75453Y-55653D01*
X75509Y-55859D02*
X75321Y-55859D01*
X75321Y-55465D01*
X75509Y-55465D01*
X75903Y-55859D02*
X75771Y-55671D01*
X75678Y-55859D02*
X75678Y-55465D01*
X75828Y-55465D01*
X75865Y-55484D01*
X75884Y-55503D01*
X75903Y-55540D01*
X75903Y-55596D01*
X75884Y-55634D01*
X75865Y-55653D01*
X75828Y-55671D01*
X75678Y-55671D01*
X76296Y-55859D02*
X76165Y-55671D01*
X76071Y-55859D02*
X76071Y-55465D01*
X76221Y-55465D01*
X76259Y-55484D01*
X76278Y-55503D01*
X76296Y-55540D01*
X76296Y-55596D01*
X76278Y-55634D01*
X76259Y-55653D01*
X76221Y-55671D01*
X76071Y-55671D01*
X76540Y-55671D02*
X76540Y-55859D01*
X76409Y-55465D02*
X76540Y-55671D01*
X76671Y-55465D01*
X76709Y-55896D02*
X77009Y-55896D01*
X77102Y-55859D02*
X77102Y-55465D01*
X77234Y-55746D01*
X77365Y-55465D01*
X77365Y-55859D01*
X77740Y-55859D02*
X77552Y-55859D01*
X77552Y-55465D01*
X82240Y-55821D02*
X82222Y-55840D01*
X82165Y-55859D01*
X82128Y-55859D01*
X82072Y-55840D01*
X82034Y-55803D01*
X82015Y-55765D01*
X81997Y-55690D01*
X81997Y-55634D01*
X82015Y-55559D01*
X82034Y-55521D01*
X82072Y-55484D01*
X82128Y-55465D01*
X82165Y-55465D01*
X82222Y-55484D01*
X82240Y-55503D01*
X82409Y-55859D02*
X82409Y-55465D01*
X82409Y-55653D02*
X82634Y-55653D01*
X82634Y-55859D02*
X82634Y-55465D01*
X82821Y-55653D02*
X82953Y-55653D01*
X83009Y-55859D02*
X82821Y-55859D01*
X82821Y-55465D01*
X83009Y-55465D01*
X83403Y-55859D02*
X83271Y-55671D01*
X83178Y-55859D02*
X83178Y-55465D01*
X83328Y-55465D01*
X83365Y-55484D01*
X83384Y-55503D01*
X83403Y-55540D01*
X83403Y-55596D01*
X83384Y-55634D01*
X83365Y-55653D01*
X83328Y-55671D01*
X83178Y-55671D01*
X83796Y-55859D02*
X83665Y-55671D01*
X83571Y-55859D02*
X83571Y-55465D01*
X83721Y-55465D01*
X83759Y-55484D01*
X83778Y-55503D01*
X83796Y-55540D01*
X83796Y-55596D01*
X83778Y-55634D01*
X83759Y-55653D01*
X83721Y-55671D01*
X83571Y-55671D01*
X84040Y-55671D02*
X84040Y-55859D01*
X83909Y-55465D02*
X84040Y-55671D01*
X84171Y-55465D01*
X84209Y-55896D02*
X84509Y-55896D01*
X84602Y-55859D02*
X84602Y-55465D01*
X84734Y-55746D01*
X84865Y-55465D01*
X84865Y-55859D01*
X85240Y-55859D02*
X85052Y-55859D01*
X85052Y-55465D01*
X89740Y-48821D02*
X89722Y-48840D01*
X89665Y-48859D01*
X89628Y-48859D01*
X89572Y-48840D01*
X89534Y-48803D01*
X89515Y-48765D01*
X89497Y-48690D01*
X89497Y-48634D01*
X89515Y-48559D01*
X89534Y-48521D01*
X89572Y-48484D01*
X89628Y-48465D01*
X89665Y-48465D01*
X89722Y-48484D01*
X89740Y-48503D01*
X89909Y-48859D02*
X89909Y-48465D01*
X89909Y-48653D02*
X90134Y-48653D01*
X90134Y-48859D02*
X90134Y-48465D01*
X90321Y-48653D02*
X90453Y-48653D01*
X90509Y-48859D02*
X90321Y-48859D01*
X90321Y-48465D01*
X90509Y-48465D01*
X90903Y-48859D02*
X90771Y-48671D01*
X90678Y-48859D02*
X90678Y-48465D01*
X90828Y-48465D01*
X90865Y-48484D01*
X90884Y-48503D01*
X90903Y-48540D01*
X90903Y-48596D01*
X90884Y-48634D01*
X90865Y-48653D01*
X90828Y-48671D01*
X90678Y-48671D01*
X91296Y-48859D02*
X91165Y-48671D01*
X91071Y-48859D02*
X91071Y-48465D01*
X91221Y-48465D01*
X91259Y-48484D01*
X91278Y-48503D01*
X91296Y-48540D01*
X91296Y-48596D01*
X91278Y-48634D01*
X91259Y-48653D01*
X91221Y-48671D01*
X91071Y-48671D01*
X91540Y-48671D02*
X91540Y-48859D01*
X91409Y-48465D02*
X91540Y-48671D01*
X91671Y-48465D01*
X91709Y-48896D02*
X92009Y-48896D01*
X92102Y-48859D02*
X92102Y-48465D01*
X92234Y-48746D01*
X92365Y-48465D01*
X92365Y-48859D01*
X92740Y-48859D02*
X92552Y-48859D01*
X92552Y-48465D01*
X89740Y-55821D02*
X89722Y-55840D01*
X89665Y-55859D01*
X89628Y-55859D01*
X89572Y-55840D01*
X89534Y-55803D01*
X89515Y-55765D01*
X89497Y-55690D01*
X89497Y-55634D01*
X89515Y-55559D01*
X89534Y-55521D01*
X89572Y-55484D01*
X89628Y-55465D01*
X89665Y-55465D01*
X89722Y-55484D01*
X89740Y-55503D01*
X89909Y-55859D02*
X89909Y-55465D01*
X89909Y-55653D02*
X90134Y-55653D01*
X90134Y-55859D02*
X90134Y-55465D01*
X90321Y-55653D02*
X90453Y-55653D01*
X90509Y-55859D02*
X90321Y-55859D01*
X90321Y-55465D01*
X90509Y-55465D01*
X90903Y-55859D02*
X90771Y-55671D01*
X90678Y-55859D02*
X90678Y-55465D01*
X90828Y-55465D01*
X90865Y-55484D01*
X90884Y-55503D01*
X90903Y-55540D01*
X90903Y-55596D01*
X90884Y-55634D01*
X90865Y-55653D01*
X90828Y-55671D01*
X90678Y-55671D01*
X91296Y-55859D02*
X91165Y-55671D01*
X91071Y-55859D02*
X91071Y-55465D01*
X91221Y-55465D01*
X91259Y-55484D01*
X91278Y-55503D01*
X91296Y-55540D01*
X91296Y-55596D01*
X91278Y-55634D01*
X91259Y-55653D01*
X91221Y-55671D01*
X91071Y-55671D01*
X91540Y-55671D02*
X91540Y-55859D01*
X91409Y-55465D02*
X91540Y-55671D01*
X91671Y-55465D01*
X91709Y-55896D02*
X92009Y-55896D01*
X92102Y-55859D02*
X92102Y-55465D01*
X92234Y-55746D01*
X92365Y-55465D01*
X92365Y-55859D01*
X92740Y-55859D02*
X92552Y-55859D01*
X92552Y-55465D01*
X67240Y-62821D02*
X67222Y-62840D01*
X67165Y-62859D01*
X67128Y-62859D01*
X67072Y-62840D01*
X67034Y-62803D01*
X67015Y-62765D01*
X66997Y-62690D01*
X66997Y-62634D01*
X67015Y-62559D01*
X67034Y-62521D01*
X67072Y-62484D01*
X67128Y-62465D01*
X67165Y-62465D01*
X67222Y-62484D01*
X67240Y-62503D01*
X67409Y-62859D02*
X67409Y-62465D01*
X67409Y-62653D02*
X67634Y-62653D01*
X67634Y-62859D02*
X67634Y-62465D01*
X67821Y-62653D02*
X67953Y-62653D01*
X68009Y-62859D02*
X67821Y-62859D01*
X67821Y-62465D01*
X68009Y-62465D01*
X68403Y-62859D02*
X68271Y-62671D01*
X68178Y-62859D02*
X68178Y-62465D01*
X68328Y-62465D01*
X68365Y-62484D01*
X68384Y-62503D01*
X68403Y-62540D01*
X68403Y-62596D01*
X68384Y-62634D01*
X68365Y-62653D01*
X68328Y-62671D01*
X68178Y-62671D01*
X68796Y-62859D02*
X68665Y-62671D01*
X68571Y-62859D02*
X68571Y-62465D01*
X68721Y-62465D01*
X68759Y-62484D01*
X68778Y-62503D01*
X68796Y-62540D01*
X68796Y-62596D01*
X68778Y-62634D01*
X68759Y-62653D01*
X68721Y-62671D01*
X68571Y-62671D01*
X69040Y-62671D02*
X69040Y-62859D01*
X68909Y-62465D02*
X69040Y-62671D01*
X69171Y-62465D01*
X69209Y-62896D02*
X69509Y-62896D01*
X69602Y-62859D02*
X69602Y-62465D01*
X69734Y-62746D01*
X69865Y-62465D01*
X69865Y-62859D01*
X70240Y-62859D02*
X70052Y-62859D01*
X70052Y-62465D01*
X74740Y-62821D02*
X74722Y-62840D01*
X74665Y-62859D01*
X74628Y-62859D01*
X74572Y-62840D01*
X74534Y-62803D01*
X74515Y-62765D01*
X74497Y-62690D01*
X74497Y-62634D01*
X74515Y-62559D01*
X74534Y-62521D01*
X74572Y-62484D01*
X74628Y-62465D01*
X74665Y-62465D01*
X74722Y-62484D01*
X74740Y-62503D01*
X74909Y-62859D02*
X74909Y-62465D01*
X74909Y-62653D02*
X75134Y-62653D01*
X75134Y-62859D02*
X75134Y-62465D01*
X75321Y-62653D02*
X75453Y-62653D01*
X75509Y-62859D02*
X75321Y-62859D01*
X75321Y-62465D01*
X75509Y-62465D01*
X75903Y-62859D02*
X75771Y-62671D01*
X75678Y-62859D02*
X75678Y-62465D01*
X75828Y-62465D01*
X75865Y-62484D01*
X75884Y-62503D01*
X75903Y-62540D01*
X75903Y-62596D01*
X75884Y-62634D01*
X75865Y-62653D01*
X75828Y-62671D01*
X75678Y-62671D01*
X76296Y-62859D02*
X76165Y-62671D01*
X76071Y-62859D02*
X76071Y-62465D01*
X76221Y-62465D01*
X76259Y-62484D01*
X76278Y-62503D01*
X76296Y-62540D01*
X76296Y-62596D01*
X76278Y-62634D01*
X76259Y-62653D01*
X76221Y-62671D01*
X76071Y-62671D01*
X76540Y-62671D02*
X76540Y-62859D01*
X76409Y-62465D02*
X76540Y-62671D01*
X76671Y-62465D01*
X76709Y-62896D02*
X77009Y-62896D01*
X77102Y-62859D02*
X77102Y-62465D01*
X77234Y-62746D01*
X77365Y-62465D01*
X77365Y-62859D01*
X77740Y-62859D02*
X77552Y-62859D01*
X77552Y-62465D01*
X82240Y-62821D02*
X82222Y-62840D01*
X82165Y-62859D01*
X82128Y-62859D01*
X82072Y-62840D01*
X82034Y-62803D01*
X82015Y-62765D01*
X81997Y-62690D01*
X81997Y-62634D01*
X82015Y-62559D01*
X82034Y-62521D01*
X82072Y-62484D01*
X82128Y-62465D01*
X82165Y-62465D01*
X82222Y-62484D01*
X82240Y-62503D01*
X82409Y-62859D02*
X82409Y-62465D01*
X82409Y-62653D02*
X82634Y-62653D01*
X82634Y-62859D02*
X82634Y-62465D01*
X82821Y-62653D02*
X82953Y-62653D01*
X83009Y-62859D02*
X82821Y-62859D01*
X82821Y-62465D01*
X83009Y-62465D01*
X83403Y-62859D02*
X83271Y-62671D01*
X83178Y-62859D02*
X83178Y-62465D01*
X83328Y-62465D01*
X83365Y-62484D01*
X83384Y-62503D01*
X83403Y-62540D01*
X83403Y-62596D01*
X83384Y-62634D01*
X83365Y-62653D01*
X83328Y-62671D01*
X83178Y-62671D01*
X83796Y-62859D02*
X83665Y-62671D01*
X83571Y-62859D02*
X83571Y-62465D01*
X83721Y-62465D01*
X83759Y-62484D01*
X83778Y-62503D01*
X83796Y-62540D01*
X83796Y-62596D01*
X83778Y-62634D01*
X83759Y-62653D01*
X83721Y-62671D01*
X83571Y-62671D01*
X84040Y-62671D02*
X84040Y-62859D01*
X83909Y-62465D02*
X84040Y-62671D01*
X84171Y-62465D01*
X84209Y-62896D02*
X84509Y-62896D01*
X84602Y-62859D02*
X84602Y-62465D01*
X84734Y-62746D01*
X84865Y-62465D01*
X84865Y-62859D01*
X85240Y-62859D02*
X85052Y-62859D01*
X85052Y-62465D01*
X89740Y-62821D02*
X89722Y-62840D01*
X89665Y-62859D01*
X89628Y-62859D01*
X89572Y-62840D01*
X89534Y-62803D01*
X89515Y-62765D01*
X89497Y-62690D01*
X89497Y-62634D01*
X89515Y-62559D01*
X89534Y-62521D01*
X89572Y-62484D01*
X89628Y-62465D01*
X89665Y-62465D01*
X89722Y-62484D01*
X89740Y-62503D01*
X89909Y-62859D02*
X89909Y-62465D01*
X89909Y-62653D02*
X90134Y-62653D01*
X90134Y-62859D02*
X90134Y-62465D01*
X90321Y-62653D02*
X90453Y-62653D01*
X90509Y-62859D02*
X90321Y-62859D01*
X90321Y-62465D01*
X90509Y-62465D01*
X90903Y-62859D02*
X90771Y-62671D01*
X90678Y-62859D02*
X90678Y-62465D01*
X90828Y-62465D01*
X90865Y-62484D01*
X90884Y-62503D01*
X90903Y-62540D01*
X90903Y-62596D01*
X90884Y-62634D01*
X90865Y-62653D01*
X90828Y-62671D01*
X90678Y-62671D01*
X91296Y-62859D02*
X91165Y-62671D01*
X91071Y-62859D02*
X91071Y-62465D01*
X91221Y-62465D01*
X91259Y-62484D01*
X91278Y-62503D01*
X91296Y-62540D01*
X91296Y-62596D01*
X91278Y-62634D01*
X91259Y-62653D01*
X91221Y-62671D01*
X91071Y-62671D01*
X91540Y-62671D02*
X91540Y-62859D01*
X91409Y-62465D02*
X91540Y-62671D01*
X91671Y-62465D01*
X91709Y-62896D02*
X92009Y-62896D01*
X92102Y-62859D02*
X92102Y-62465D01*
X92234Y-62746D01*
X92365Y-62465D01*
X92365Y-62859D01*
X92740Y-62859D02*
X92552Y-62859D01*
X92552Y-62465D01*
X67240Y-48821D02*
X67222Y-48840D01*
X67165Y-48859D01*
X67128Y-48859D01*
X67072Y-48840D01*
X67034Y-48803D01*
X67015Y-48765D01*
X66997Y-48690D01*
X66997Y-48634D01*
X67015Y-48559D01*
X67034Y-48521D01*
X67072Y-48484D01*
X67128Y-48465D01*
X67165Y-48465D01*
X67222Y-48484D01*
X67240Y-48503D01*
X67409Y-48859D02*
X67409Y-48465D01*
X67409Y-48653D02*
X67634Y-48653D01*
X67634Y-48859D02*
X67634Y-48465D01*
X67821Y-48653D02*
X67953Y-48653D01*
X68009Y-48859D02*
X67821Y-48859D01*
X67821Y-48465D01*
X68009Y-48465D01*
X68403Y-48859D02*
X68271Y-48671D01*
X68178Y-48859D02*
X68178Y-48465D01*
X68328Y-48465D01*
X68365Y-48484D01*
X68384Y-48503D01*
X68403Y-48540D01*
X68403Y-48596D01*
X68384Y-48634D01*
X68365Y-48653D01*
X68328Y-48671D01*
X68178Y-48671D01*
X68796Y-48859D02*
X68665Y-48671D01*
X68571Y-48859D02*
X68571Y-48465D01*
X68721Y-48465D01*
X68759Y-48484D01*
X68778Y-48503D01*
X68796Y-48540D01*
X68796Y-48596D01*
X68778Y-48634D01*
X68759Y-48653D01*
X68721Y-48671D01*
X68571Y-48671D01*
X69040Y-48671D02*
X69040Y-48859D01*
X68909Y-48465D02*
X69040Y-48671D01*
X69171Y-48465D01*
X69209Y-48896D02*
X69509Y-48896D01*
X69602Y-48859D02*
X69602Y-48465D01*
X69734Y-48746D01*
X69865Y-48465D01*
X69865Y-48859D01*
X70240Y-48859D02*
X70052Y-48859D01*
X70052Y-48465D01*
X89221Y-59159D02*
X89221Y-58765D01*
X89315Y-58765D01*
X89371Y-58784D01*
X89409Y-58821D01*
X89428Y-58859D01*
X89446Y-58934D01*
X89446Y-58990D01*
X89428Y-59065D01*
X89409Y-59103D01*
X89371Y-59140D01*
X89315Y-59159D01*
X89221Y-59159D01*
X89615Y-59159D02*
X89615Y-58765D01*
X89878Y-58765D02*
X89953Y-58765D01*
X89990Y-58784D01*
X90028Y-58821D01*
X90046Y-58896D01*
X90046Y-59028D01*
X90028Y-59103D01*
X89990Y-59140D01*
X89953Y-59159D01*
X89878Y-59159D01*
X89840Y-59140D01*
X89803Y-59103D01*
X89784Y-59028D01*
X89784Y-58896D01*
X89803Y-58821D01*
X89840Y-58784D01*
X89878Y-58765D01*
X90215Y-59159D02*
X90215Y-58765D01*
X90309Y-58765D01*
X90365Y-58784D01*
X90403Y-58821D01*
X90421Y-58859D01*
X90440Y-58934D01*
X90440Y-58990D01*
X90421Y-59065D01*
X90403Y-59103D01*
X90365Y-59140D01*
X90309Y-59159D01*
X90215Y-59159D01*
X90609Y-58953D02*
X90740Y-58953D01*
X90796Y-59159D02*
X90609Y-59159D01*
X90609Y-58765D01*
X90796Y-58765D01*
X89221Y-66159D02*
X89221Y-65765D01*
X89315Y-65765D01*
X89371Y-65784D01*
X89409Y-65821D01*
X89428Y-65859D01*
X89446Y-65934D01*
X89446Y-65990D01*
X89428Y-66065D01*
X89409Y-66103D01*
X89371Y-66140D01*
X89315Y-66159D01*
X89221Y-66159D01*
X89615Y-66159D02*
X89615Y-65765D01*
X89878Y-65765D02*
X89953Y-65765D01*
X89990Y-65784D01*
X90028Y-65821D01*
X90046Y-65896D01*
X90046Y-66028D01*
X90028Y-66103D01*
X89990Y-66140D01*
X89953Y-66159D01*
X89878Y-66159D01*
X89840Y-66140D01*
X89803Y-66103D01*
X89784Y-66028D01*
X89784Y-65896D01*
X89803Y-65821D01*
X89840Y-65784D01*
X89878Y-65765D01*
X90215Y-66159D02*
X90215Y-65765D01*
X90309Y-65765D01*
X90365Y-65784D01*
X90403Y-65821D01*
X90421Y-65859D01*
X90440Y-65934D01*
X90440Y-65990D01*
X90421Y-66065D01*
X90403Y-66103D01*
X90365Y-66140D01*
X90309Y-66159D01*
X90215Y-66159D01*
X90609Y-65953D02*
X90740Y-65953D01*
X90796Y-66159D02*
X90609Y-66159D01*
X90609Y-65765D01*
X90796Y-65765D01*
X66721Y-66159D02*
X66721Y-65765D01*
X66815Y-65765D01*
X66871Y-65784D01*
X66909Y-65821D01*
X66928Y-65859D01*
X66946Y-65934D01*
X66946Y-65990D01*
X66928Y-66065D01*
X66909Y-66103D01*
X66871Y-66140D01*
X66815Y-66159D01*
X66721Y-66159D01*
X67115Y-66159D02*
X67115Y-65765D01*
X67378Y-65765D02*
X67453Y-65765D01*
X67490Y-65784D01*
X67528Y-65821D01*
X67546Y-65896D01*
X67546Y-66028D01*
X67528Y-66103D01*
X67490Y-66140D01*
X67453Y-66159D01*
X67378Y-66159D01*
X67340Y-66140D01*
X67303Y-66103D01*
X67284Y-66028D01*
X67284Y-65896D01*
X67303Y-65821D01*
X67340Y-65784D01*
X67378Y-65765D01*
X67715Y-66159D02*
X67715Y-65765D01*
X67809Y-65765D01*
X67865Y-65784D01*
X67903Y-65821D01*
X67921Y-65859D01*
X67940Y-65934D01*
X67940Y-65990D01*
X67921Y-66065D01*
X67903Y-66103D01*
X67865Y-66140D01*
X67809Y-66159D01*
X67715Y-66159D01*
X68109Y-65953D02*
X68240Y-65953D01*
X68296Y-66159D02*
X68109Y-66159D01*
X68109Y-65765D01*
X68296Y-65765D01*
X74221Y-66159D02*
X74221Y-65765D01*
X74315Y-65765D01*
X74371Y-65784D01*
X74409Y-65821D01*
X74428Y-65859D01*
X74446Y-65934D01*
X74446Y-65990D01*
X74428Y-66065D01*
X74409Y-66103D01*
X74371Y-66140D01*
X74315Y-66159D01*
X74221Y-66159D01*
X74615Y-66159D02*
X74615Y-65765D01*
X74878Y-65765D02*
X74953Y-65765D01*
X74990Y-65784D01*
X75028Y-65821D01*
X75046Y-65896D01*
X75046Y-66028D01*
X75028Y-66103D01*
X74990Y-66140D01*
X74953Y-66159D01*
X74878Y-66159D01*
X74840Y-66140D01*
X74803Y-66103D01*
X74784Y-66028D01*
X74784Y-65896D01*
X74803Y-65821D01*
X74840Y-65784D01*
X74878Y-65765D01*
X75215Y-66159D02*
X75215Y-65765D01*
X75309Y-65765D01*
X75365Y-65784D01*
X75403Y-65821D01*
X75421Y-65859D01*
X75440Y-65934D01*
X75440Y-65990D01*
X75421Y-66065D01*
X75403Y-66103D01*
X75365Y-66140D01*
X75309Y-66159D01*
X75215Y-66159D01*
X75609Y-65953D02*
X75740Y-65953D01*
X75796Y-66159D02*
X75609Y-66159D01*
X75609Y-65765D01*
X75796Y-65765D01*
X81721Y-66159D02*
X81721Y-65765D01*
X81815Y-65765D01*
X81871Y-65784D01*
X81909Y-65821D01*
X81928Y-65859D01*
X81946Y-65934D01*
X81946Y-65990D01*
X81928Y-66065D01*
X81909Y-66103D01*
X81871Y-66140D01*
X81815Y-66159D01*
X81721Y-66159D01*
X82115Y-66159D02*
X82115Y-65765D01*
X82378Y-65765D02*
X82453Y-65765D01*
X82490Y-65784D01*
X82528Y-65821D01*
X82546Y-65896D01*
X82546Y-66028D01*
X82528Y-66103D01*
X82490Y-66140D01*
X82453Y-66159D01*
X82378Y-66159D01*
X82340Y-66140D01*
X82303Y-66103D01*
X82284Y-66028D01*
X82284Y-65896D01*
X82303Y-65821D01*
X82340Y-65784D01*
X82378Y-65765D01*
X82715Y-66159D02*
X82715Y-65765D01*
X82809Y-65765D01*
X82865Y-65784D01*
X82903Y-65821D01*
X82921Y-65859D01*
X82940Y-65934D01*
X82940Y-65990D01*
X82921Y-66065D01*
X82903Y-66103D01*
X82865Y-66140D01*
X82809Y-66159D01*
X82715Y-66159D01*
X83109Y-65953D02*
X83240Y-65953D01*
X83296Y-66159D02*
X83109Y-66159D01*
X83109Y-65765D01*
X83296Y-65765D01*
X81721Y-59159D02*
X81721Y-58765D01*
X81815Y-58765D01*
X81871Y-58784D01*
X81909Y-58821D01*
X81928Y-58859D01*
X81946Y-58934D01*
X81946Y-58990D01*
X81928Y-59065D01*
X81909Y-59103D01*
X81871Y-59140D01*
X81815Y-59159D01*
X81721Y-59159D01*
X82115Y-59159D02*
X82115Y-58765D01*
X82378Y-58765D02*
X82453Y-58765D01*
X82490Y-58784D01*
X82528Y-58821D01*
X82546Y-58896D01*
X82546Y-59028D01*
X82528Y-59103D01*
X82490Y-59140D01*
X82453Y-59159D01*
X82378Y-59159D01*
X82340Y-59140D01*
X82303Y-59103D01*
X82284Y-59028D01*
X82284Y-58896D01*
X82303Y-58821D01*
X82340Y-58784D01*
X82378Y-58765D01*
X82715Y-59159D02*
X82715Y-58765D01*
X82809Y-58765D01*
X82865Y-58784D01*
X82903Y-58821D01*
X82921Y-58859D01*
X82940Y-58934D01*
X82940Y-58990D01*
X82921Y-59065D01*
X82903Y-59103D01*
X82865Y-59140D01*
X82809Y-59159D01*
X82715Y-59159D01*
X83109Y-58953D02*
X83240Y-58953D01*
X83296Y-59159D02*
X83109Y-59159D01*
X83109Y-58765D01*
X83296Y-58765D01*
X74221Y-59159D02*
X74221Y-58765D01*
X74315Y-58765D01*
X74371Y-58784D01*
X74409Y-58821D01*
X74428Y-58859D01*
X74446Y-58934D01*
X74446Y-58990D01*
X74428Y-59065D01*
X74409Y-59103D01*
X74371Y-59140D01*
X74315Y-59159D01*
X74221Y-59159D01*
X74615Y-59159D02*
X74615Y-58765D01*
X74878Y-58765D02*
X74953Y-58765D01*
X74990Y-58784D01*
X75028Y-58821D01*
X75046Y-58896D01*
X75046Y-59028D01*
X75028Y-59103D01*
X74990Y-59140D01*
X74953Y-59159D01*
X74878Y-59159D01*
X74840Y-59140D01*
X74803Y-59103D01*
X74784Y-59028D01*
X74784Y-58896D01*
X74803Y-58821D01*
X74840Y-58784D01*
X74878Y-58765D01*
X75215Y-59159D02*
X75215Y-58765D01*
X75309Y-58765D01*
X75365Y-58784D01*
X75403Y-58821D01*
X75421Y-58859D01*
X75440Y-58934D01*
X75440Y-58990D01*
X75421Y-59065D01*
X75403Y-59103D01*
X75365Y-59140D01*
X75309Y-59159D01*
X75215Y-59159D01*
X75609Y-58953D02*
X75740Y-58953D01*
X75796Y-59159D02*
X75609Y-59159D01*
X75609Y-58765D01*
X75796Y-58765D01*
X66721Y-59159D02*
X66721Y-58765D01*
X66815Y-58765D01*
X66871Y-58784D01*
X66909Y-58821D01*
X66928Y-58859D01*
X66946Y-58934D01*
X66946Y-58990D01*
X66928Y-59065D01*
X66909Y-59103D01*
X66871Y-59140D01*
X66815Y-59159D01*
X66721Y-59159D01*
X67115Y-59159D02*
X67115Y-58765D01*
X67378Y-58765D02*
X67453Y-58765D01*
X67490Y-58784D01*
X67528Y-58821D01*
X67546Y-58896D01*
X67546Y-59028D01*
X67528Y-59103D01*
X67490Y-59140D01*
X67453Y-59159D01*
X67378Y-59159D01*
X67340Y-59140D01*
X67303Y-59103D01*
X67284Y-59028D01*
X67284Y-58896D01*
X67303Y-58821D01*
X67340Y-58784D01*
X67378Y-58765D01*
X67715Y-59159D02*
X67715Y-58765D01*
X67809Y-58765D01*
X67865Y-58784D01*
X67903Y-58821D01*
X67921Y-58859D01*
X67940Y-58934D01*
X67940Y-58990D01*
X67921Y-59065D01*
X67903Y-59103D01*
X67865Y-59140D01*
X67809Y-59159D01*
X67715Y-59159D01*
X68109Y-58953D02*
X68240Y-58953D01*
X68296Y-59159D02*
X68109Y-59159D01*
X68109Y-58765D01*
X68296Y-58765D01*
X89221Y-52159D02*
X89221Y-51765D01*
X89315Y-51765D01*
X89371Y-51784D01*
X89409Y-51821D01*
X89428Y-51859D01*
X89446Y-51934D01*
X89446Y-51990D01*
X89428Y-52065D01*
X89409Y-52103D01*
X89371Y-52140D01*
X89315Y-52159D01*
X89221Y-52159D01*
X89615Y-52159D02*
X89615Y-51765D01*
X89878Y-51765D02*
X89953Y-51765D01*
X89990Y-51784D01*
X90028Y-51821D01*
X90046Y-51896D01*
X90046Y-52028D01*
X90028Y-52103D01*
X89990Y-52140D01*
X89953Y-52159D01*
X89878Y-52159D01*
X89840Y-52140D01*
X89803Y-52103D01*
X89784Y-52028D01*
X89784Y-51896D01*
X89803Y-51821D01*
X89840Y-51784D01*
X89878Y-51765D01*
X90215Y-52159D02*
X90215Y-51765D01*
X90309Y-51765D01*
X90365Y-51784D01*
X90403Y-51821D01*
X90421Y-51859D01*
X90440Y-51934D01*
X90440Y-51990D01*
X90421Y-52065D01*
X90403Y-52103D01*
X90365Y-52140D01*
X90309Y-52159D01*
X90215Y-52159D01*
X90609Y-51953D02*
X90740Y-51953D01*
X90796Y-52159D02*
X90609Y-52159D01*
X90609Y-51765D01*
X90796Y-51765D01*
X81721Y-52159D02*
X81721Y-51765D01*
X81815Y-51765D01*
X81871Y-51784D01*
X81909Y-51821D01*
X81928Y-51859D01*
X81946Y-51934D01*
X81946Y-51990D01*
X81928Y-52065D01*
X81909Y-52103D01*
X81871Y-52140D01*
X81815Y-52159D01*
X81721Y-52159D01*
X82115Y-52159D02*
X82115Y-51765D01*
X82378Y-51765D02*
X82453Y-51765D01*
X82490Y-51784D01*
X82528Y-51821D01*
X82546Y-51896D01*
X82546Y-52028D01*
X82528Y-52103D01*
X82490Y-52140D01*
X82453Y-52159D01*
X82378Y-52159D01*
X82340Y-52140D01*
X82303Y-52103D01*
X82284Y-52028D01*
X82284Y-51896D01*
X82303Y-51821D01*
X82340Y-51784D01*
X82378Y-51765D01*
X82715Y-52159D02*
X82715Y-51765D01*
X82809Y-51765D01*
X82865Y-51784D01*
X82903Y-51821D01*
X82921Y-51859D01*
X82940Y-51934D01*
X82940Y-51990D01*
X82921Y-52065D01*
X82903Y-52103D01*
X82865Y-52140D01*
X82809Y-52159D01*
X82715Y-52159D01*
X83109Y-51953D02*
X83240Y-51953D01*
X83296Y-52159D02*
X83109Y-52159D01*
X83109Y-51765D01*
X83296Y-51765D01*
X74221Y-52159D02*
X74221Y-51765D01*
X74315Y-51765D01*
X74371Y-51784D01*
X74409Y-51821D01*
X74428Y-51859D01*
X74446Y-51934D01*
X74446Y-51990D01*
X74428Y-52065D01*
X74409Y-52103D01*
X74371Y-52140D01*
X74315Y-52159D01*
X74221Y-52159D01*
X74615Y-52159D02*
X74615Y-51765D01*
X74878Y-51765D02*
X74953Y-51765D01*
X74990Y-51784D01*
X75028Y-51821D01*
X75046Y-51896D01*
X75046Y-52028D01*
X75028Y-52103D01*
X74990Y-52140D01*
X74953Y-52159D01*
X74878Y-52159D01*
X74840Y-52140D01*
X74803Y-52103D01*
X74784Y-52028D01*
X74784Y-51896D01*
X74803Y-51821D01*
X74840Y-51784D01*
X74878Y-51765D01*
X75215Y-52159D02*
X75215Y-51765D01*
X75309Y-51765D01*
X75365Y-51784D01*
X75403Y-51821D01*
X75421Y-51859D01*
X75440Y-51934D01*
X75440Y-51990D01*
X75421Y-52065D01*
X75403Y-52103D01*
X75365Y-52140D01*
X75309Y-52159D01*
X75215Y-52159D01*
X75609Y-51953D02*
X75740Y-51953D01*
X75796Y-52159D02*
X75609Y-52159D01*
X75609Y-51765D01*
X75796Y-51765D01*
X66721Y-52159D02*
X66721Y-51765D01*
X66815Y-51765D01*
X66871Y-51784D01*
X66909Y-51821D01*
X66928Y-51859D01*
X66946Y-51934D01*
X66946Y-51990D01*
X66928Y-52065D01*
X66909Y-52103D01*
X66871Y-52140D01*
X66815Y-52159D01*
X66721Y-52159D01*
X67115Y-52159D02*
X67115Y-51765D01*
X67378Y-51765D02*
X67453Y-51765D01*
X67490Y-51784D01*
X67528Y-51821D01*
X67546Y-51896D01*
X67546Y-52028D01*
X67528Y-52103D01*
X67490Y-52140D01*
X67453Y-52159D01*
X67378Y-52159D01*
X67340Y-52140D01*
X67303Y-52103D01*
X67284Y-52028D01*
X67284Y-51896D01*
X67303Y-51821D01*
X67340Y-51784D01*
X67378Y-51765D01*
X67715Y-52159D02*
X67715Y-51765D01*
X67809Y-51765D01*
X67865Y-51784D01*
X67903Y-51821D01*
X67921Y-51859D01*
X67940Y-51934D01*
X67940Y-51990D01*
X67921Y-52065D01*
X67903Y-52103D01*
X67865Y-52140D01*
X67809Y-52159D01*
X67715Y-52159D01*
X68109Y-51953D02*
X68240Y-51953D01*
X68296Y-52159D02*
X68109Y-52159D01*
X68109Y-51765D01*
X68296Y-51765D01*
M02*
