M48
;DRILL file {KiCad 4.0.2-stable} date 31/03/2016 22:07:59
;FORMAT={-:-/ absolute / inch / decimal}
FMAT,2
INCH,TZ
T1C0.004
T2C0.016
T3C0.040
T4C0.043
%
G90
G05
M72
T1
X1.134Y-4.6337
X1.1601Y-4.486
X1.2963Y-4.8654
X1.331Y-4.6685
X1.3495Y-3.8602
X1.357Y-4.5207
X1.3755Y-3.7124
X1.4862Y-3.0847
X1.5117Y-4.0918
X1.5123Y-2.937
X1.528Y-4.7032
X1.5465Y-3.8949
X1.554Y-4.5555
X1.5725Y-3.7472
X1.623Y-2.3093
X1.6485Y-3.3164
X1.649Y-2.1616
X1.6832Y-3.1194
X1.7092Y-2.9717
X1.7434Y-3.9296
X1.7695Y-3.7819
X1.7852Y-2.541
X1.8199Y-2.344
X1.846Y-2.1963
X1.8802Y-3.1542
X1.9062Y-3.0065
X2.0087Y-4.656
X2.0169Y-2.3787
X2.0348Y-4.5083
X2.0429Y-2.231
X2.1454Y-3.8806
X2.1709Y-4.8877
X2.1715Y-3.7329
X2.2057Y-4.6907
X2.2317Y-4.543
X2.2822Y-3.1051
X2.3077Y-4.1123
X2.3082Y-2.9574
X2.3424Y-3.9153
X2.3685Y-3.7676
X2.4026Y-4.7255
X2.4189Y-2.3297
X2.4287Y-4.5777
X2.4444Y-3.3368
X2.445Y-2.182
X2.4791Y-3.1399
X2.5052Y-2.9921
X2.5394Y-3.95
X2.5654Y-3.8023
X2.5811Y-2.5614
X2.6159Y-2.3644
X2.6419Y-2.2167
X2.6761Y-3.1746
X2.7021Y-3.0269
X2.8128Y-2.3992
X2.8183Y-4.5989
X2.8389Y-2.2514
X2.8444Y-4.4512
X2.9551Y-3.8234
X2.9806Y-4.8306
X2.9811Y-3.6757
X3.0153Y-4.6336
X3.0413Y-4.4859
X3.0918Y-3.048
X3.1173Y-4.0551
X3.1178Y-2.9003
X3.152Y-3.8582
X3.1781Y-3.7105
X3.2123Y-4.6683
X3.2285Y-2.2726
X3.2383Y-4.5206
X3.254Y-3.2797
X3.2546Y-2.1248
X3.2888Y-3.0827
X3.3148Y-2.935
X3.349Y-3.8929
X3.375Y-3.7452
X3.3908Y-2.5043
X3.4255Y-2.3073
X3.4515Y-2.1596
X3.4857Y-3.1175
X3.5118Y-2.9697
X3.5528Y-4.9682
X3.5788Y-4.8205
X3.6225Y-2.342
X3.6485Y-2.1943
X3.6895Y-4.1928
X3.715Y-5.1999
X3.7155Y-4.0451
X3.7497Y-5.003
X3.7758Y-4.8553
X3.8262Y-3.4174
X3.8517Y-4.4245
X3.8523Y-3.2696
X3.8865Y-4.2275
X3.9125Y-4.0798
X3.9467Y-5.0377
X3.963Y-2.6419
X3.9727Y-4.89
X3.9885Y-3.6491
X3.989Y-2.4942
X4.0232Y-3.4521
X4.0492Y-3.3044
X4.0834Y-4.2623
X4.1095Y-4.1145
X4.1252Y-2.8736
X4.1599Y-2.6767
X4.186Y-2.5289
X4.2201Y-3.4868
X4.2462Y-3.3391
X4.294Y-5.2988
X4.3201Y-5.1511
X4.3569Y-2.7114
X4.3829Y-2.5637
X4.4307Y-4.5234
X4.4562Y-5.5305
X4.4568Y-4.3757
X4.491Y-5.3336
X4.517Y-5.1858
X4.5675Y-3.748
X4.593Y-4.7551
X4.5935Y-3.6002
X4.6277Y-4.5581
X4.6538Y-4.4104
X4.6879Y-5.3683
X4.7042Y-2.9725
X4.714Y-5.2206
X4.7297Y-3.9796
X4.7303Y-2.8248
X4.7644Y-3.7827
X4.7905Y-3.635
X4.8247Y-4.5929
X4.8507Y-4.4451
X4.8664Y-3.2042
X4.9012Y-3.0072
X4.9272Y-2.8595
X4.9614Y-3.8174
X4.9874Y-3.6697
X5.0981Y-3.042
X5.1242Y-2.8943
X5.1378Y-5.0478
X5.1639Y-4.9001
X5.3001Y-5.2795
X5.3348Y-5.0826
X5.3608Y-4.9349
X5.5317Y-5.1173
X5.5578Y-4.9696
X6.2527Y-4.9695
X6.2787Y-5.1172
X6.4497Y-4.9348
X6.4757Y-5.0825
X6.5104Y-5.2795
X6.6466Y-4.9001
X6.6727Y-5.0478
X6.6863Y-2.8942
X6.7124Y-3.0419
X6.823Y-3.6696
X6.8491Y-3.8174
X6.8833Y-2.8595
X6.9093Y-3.0072
X6.944Y-3.2042
X6.9598Y-4.4451
X6.9858Y-4.5928
X7.02Y-3.6349
X7.046Y-3.7826
X7.0802Y-2.8247
X7.0808Y-3.9796
X7.0965Y-5.2205
X7.1063Y-2.9725
X7.1225Y-5.3682
X7.1567Y-4.4103
X7.1828Y-4.5581
X7.217Y-3.6002
X7.2175Y-4.755
X7.243Y-3.7479
X7.2935Y-5.1858
X7.3195Y-5.3335
X7.3537Y-4.3756
X7.3542Y-5.5305
X7.3797Y-4.5233
X7.4276Y-2.5636
X7.4536Y-2.7113
X7.4904Y-5.1511
X7.5165Y-5.2988
X7.5643Y-3.339
X7.5903Y-3.4868
X7.6245Y-2.5289
X7.6506Y-2.6766
X7.6853Y-2.8736
X7.701Y-4.1145
X7.7271Y-4.2622
X7.7613Y-3.3043
X7.7873Y-3.452
X7.8215Y-2.4941
X7.822Y-3.649
X7.8378Y-4.8899
X7.8475Y-2.6419
X7.8638Y-5.0376
X7.898Y-4.0798
X7.924Y-4.2275
X7.9582Y-3.2696
X7.9588Y-4.4244
X7.9843Y-3.4173
X8.0347Y-4.8552
X8.0608Y-5.0029
X8.0949Y-4.045
X8.0955Y-5.1999
X8.121Y-4.1927
X8.162Y-2.1942
X8.188Y-2.342
X8.2317Y-4.8205
X8.2577Y-4.9682
X8.2987Y-2.9697
X8.3248Y-3.1174
X8.3589Y-2.1595
X8.385Y-2.3072
X8.4197Y-2.5042
X8.4354Y-3.7451
X8.4615Y-3.8928
X8.4957Y-2.935
X8.5217Y-3.0827
X8.5559Y-2.1248
X8.5565Y-3.2796
X8.5722Y-4.5206
X8.582Y-2.2725
X8.5982Y-4.6683
X8.6324Y-3.7104
X8.6585Y-3.8581
X8.6926Y-2.9002
X8.6932Y-4.0551
X8.7187Y-3.0479
X8.7691Y-4.4858
X8.7952Y-4.6336
X8.8294Y-3.6757
X8.8299Y-4.8305
X8.8554Y-3.8234
X8.9661Y-4.4511
X8.9716Y-2.2514
X8.9921Y-4.5988
X8.9977Y-2.3991
X9.1083Y-3.0268
X9.1344Y-3.1745
X9.1686Y-2.2166
X9.1946Y-2.3644
X9.2293Y-2.5613
X9.2451Y-3.8023
X9.2711Y-3.95
X9.3053Y-2.9921
X9.3313Y-3.1398
X9.3655Y-2.1819
X9.3661Y-3.3368
X9.3818Y-4.5777
X9.3916Y-2.3296
X9.4078Y-4.7254
X9.442Y-3.7675
X9.4681Y-3.9152
X9.5023Y-2.9574
X9.5028Y-4.1122
X9.5283Y-3.1051
X9.5788Y-4.543
X9.6048Y-4.6907
X9.639Y-3.7328
X9.6395Y-4.8876
X9.665Y-3.8805
X9.7676Y-2.231
X9.7757Y-4.5082
X9.7936Y-2.3787
X9.8018Y-4.656
X9.9043Y-3.0064
X9.9303Y-3.1541
X9.9645Y-2.1962
X9.9906Y-2.3439
X10.0253Y-2.5409
X10.041Y-3.7818
X10.0671Y-3.9296
X10.1012Y-2.9717
X10.1273Y-3.1194
X10.1615Y-2.1615
X10.162Y-3.3164
X10.1777Y-4.5573
X10.1875Y-2.3092
X10.2038Y-4.705
X10.238Y-3.7471
X10.264Y-3.8948
X10.2982Y-2.9369
X10.2988Y-4.0918
X10.3243Y-3.0847
X10.3747Y-4.5225
X10.4008Y-4.6703
X10.4349Y-3.7124
X10.4355Y-4.8672
X10.461Y-3.8601
X10.5717Y-4.4878
X10.5977Y-4.6355
T2
X5.4134Y-4.3992
X6.2008Y-4.4685
X6.6863Y-2.8942
T3
X4.0945Y-2.0276
X4.1835Y-2.1654
X4.1945Y-2.0276
X4.2835Y-2.1654
X4.2945Y-2.0276
X4.3835Y-2.1654
X4.3945Y-2.0276
X4.4835Y-2.1654
X4.4945Y-2.0276
X4.5835Y-2.1654
X4.5945Y-2.0276
X4.6835Y-2.1654
X4.6945Y-2.0276
X4.7835Y-2.1654
X5.4134Y-3.7992
X5.4134Y-3.8992
X5.4134Y-3.9992
X5.4134Y-4.0992
X5.4134Y-4.1992
X5.4134Y-4.2992
X5.4134Y-4.3992
T4
X5.6055Y-3.3083
X5.6055Y-3.4083
X5.6055Y-3.5083
X5.6055Y-3.6083
X5.6055Y-3.7083
X5.6055Y-3.8083
X5.6055Y-3.9083
X5.6055Y-4.0083
X5.6055Y-4.1083
X5.6055Y-4.2083
X5.6055Y-4.3083
X5.6055Y-4.4083
X6.2055Y-3.3083
X6.2055Y-3.4083
X6.2055Y-3.5083
X6.2055Y-3.6083
X6.2055Y-3.7083
X6.2055Y-3.8083
X6.2055Y-3.9083
X6.2055Y-4.0083
X6.2055Y-4.1083
X6.2055Y-4.2083
X6.2055Y-4.3083
X6.2055Y-4.4083
T0
M30
