G04 #@! TF.FileFunction,Legend,Top*
%FSLAX46Y46*%
G04 Gerber Fmt 4.6, Leading zero omitted, Abs format (unit mm)*
G04 Created by KiCad (PCBNEW (2015-03-15 BZR 5517)-product) date Thursday, March 31, 2016 'AMt' 09:30:05 AM*
%MOMM*%
G01*
G04 APERTURE LIST*
%ADD10C,0.100000*%
%ADD11C,0.381000*%
%ADD12C,0.150000*%
%ADD13C,0.203200*%
G04 APERTURE END LIST*
D10*
D11*
X147904500Y-82760000D02*
X147904500Y-87205000D01*
X147904500Y-87205000D02*
X151905000Y-87205000D01*
X151905000Y-87205000D02*
X151905000Y-82760000D01*
X158890000Y-82760000D02*
X141110000Y-82760000D01*
X141110000Y-82760000D02*
X141110000Y-113240000D01*
X141110000Y-113240000D02*
X158890000Y-113240000D01*
X158890000Y-113240000D02*
X158890000Y-82760000D01*
X143650000Y-82760000D02*
X143650000Y-85300000D01*
X143650000Y-85300000D02*
X141110000Y-85300000D01*
D12*
X120230000Y-56270000D02*
X104990000Y-56270000D01*
X104990000Y-56270000D02*
X104990000Y-53730000D01*
X104990000Y-53730000D02*
X120230000Y-53730000D01*
X123050000Y-56550000D02*
X121500000Y-56550000D01*
X120230000Y-56270000D02*
X120230000Y-53730000D01*
X121500000Y-53450000D02*
X123050000Y-53450000D01*
X123050000Y-53450000D02*
X123050000Y-56550000D01*
X105270000Y-50230000D02*
X120510000Y-50230000D01*
X120510000Y-50230000D02*
X120510000Y-52770000D01*
X120510000Y-52770000D02*
X105270000Y-52770000D01*
X102450000Y-49950000D02*
X104000000Y-49950000D01*
X105270000Y-50230000D02*
X105270000Y-52770000D01*
X104000000Y-53050000D02*
X102450000Y-53050000D01*
X102450000Y-53050000D02*
X102450000Y-49950000D01*
X138770000Y-97770000D02*
X138770000Y-113010000D01*
X138770000Y-113010000D02*
X136230000Y-113010000D01*
X136230000Y-113010000D02*
X136230000Y-97770000D01*
X139050000Y-94950000D02*
X139050000Y-96500000D01*
X138770000Y-97770000D02*
X136230000Y-97770000D01*
X135950000Y-96500000D02*
X135950000Y-94950000D01*
X135950000Y-94950000D02*
X139050000Y-94950000D01*
D13*
X148161524Y-99161143D02*
X149189619Y-99161143D01*
X149310571Y-99088571D01*
X149371048Y-99016000D01*
X149431524Y-98870857D01*
X149431524Y-98580571D01*
X149371048Y-98435429D01*
X149310571Y-98362857D01*
X149189619Y-98290286D01*
X148161524Y-98290286D01*
X149431524Y-96766286D02*
X149431524Y-97637143D01*
X149431524Y-97201715D02*
X148161524Y-97201715D01*
X148342952Y-97346858D01*
X148463905Y-97492000D01*
X148524381Y-97637143D01*
D12*
X224591314Y-120939452D02*
X224552687Y-120994616D01*
X224420269Y-121066319D01*
X224326478Y-121082857D01*
X224177522Y-121060768D01*
X224067193Y-120983515D01*
X224003759Y-120897993D01*
X223923788Y-120718679D01*
X223898981Y-120577992D01*
X223912800Y-120382141D01*
X223943158Y-120280081D01*
X224020411Y-120169752D01*
X224152830Y-120098049D01*
X224246621Y-120081511D01*
X224395577Y-120103600D01*
X224450741Y-120142226D01*
X225029912Y-120958822D02*
X224856263Y-119974015D01*
X224938953Y-120442970D02*
X225501701Y-120343743D01*
X225592659Y-120859595D02*
X225419011Y-119874787D01*
X225970656Y-120261053D02*
X226298926Y-120203170D01*
X226530572Y-120694216D02*
X226061615Y-120776905D01*
X225887967Y-119792098D01*
X226356923Y-119709408D01*
X227515379Y-120520567D02*
X227104420Y-120109494D01*
X226952632Y-120619795D02*
X226778983Y-119634987D01*
X227154149Y-119568835D01*
X227256209Y-119599193D01*
X227311373Y-119637820D01*
X227374807Y-119723342D01*
X227399614Y-119864029D01*
X227369256Y-119966089D01*
X227330629Y-120021253D01*
X227245107Y-120084687D01*
X226869942Y-120150838D01*
X228500187Y-120346919D02*
X228089227Y-119935845D01*
X227937439Y-120446147D02*
X227763791Y-119461339D01*
X228138957Y-119395187D01*
X228241017Y-119425545D01*
X228296181Y-119464172D01*
X228359615Y-119549694D01*
X228384422Y-119690380D01*
X228354064Y-119792440D01*
X228315437Y-119847605D01*
X228229915Y-119911038D01*
X227854750Y-119977190D01*
X229027140Y-119770466D02*
X229109829Y-120239423D01*
X228607912Y-119312498D02*
X229027140Y-119770466D01*
X229264451Y-119196732D01*
X229548428Y-120258793D02*
X230298758Y-120126490D01*
X230516698Y-119991354D02*
X230343050Y-119006546D01*
X230795354Y-119652098D01*
X230999589Y-118890781D01*
X231173237Y-119875588D01*
X232111149Y-119710209D02*
X231642193Y-119792899D01*
X231468544Y-118808091D01*
X241682746Y-102694372D02*
X241644119Y-102749536D01*
X241511701Y-102821239D01*
X241417910Y-102837777D01*
X241268954Y-102815688D01*
X241158625Y-102738435D01*
X241095191Y-102652913D01*
X241015220Y-102473599D01*
X240990413Y-102332912D01*
X241004232Y-102137061D01*
X241034590Y-102035001D01*
X241111843Y-101924672D01*
X241244262Y-101852969D01*
X241338053Y-101836431D01*
X241487009Y-101858520D01*
X241542173Y-101897146D01*
X242121344Y-102713742D02*
X241947695Y-101728935D01*
X242030385Y-102197890D02*
X242593133Y-102098663D01*
X242684091Y-102614515D02*
X242510443Y-101629707D01*
X243062088Y-102015973D02*
X243390358Y-101958090D01*
X243622004Y-102449136D02*
X243153047Y-102531825D01*
X242979399Y-101547018D01*
X243448355Y-101464328D01*
X244606811Y-102275487D02*
X244195852Y-101864414D01*
X244044064Y-102374715D02*
X243870415Y-101389907D01*
X244245581Y-101323755D01*
X244347641Y-101354113D01*
X244402805Y-101392740D01*
X244466239Y-101478262D01*
X244491046Y-101618949D01*
X244460688Y-101721009D01*
X244422061Y-101776173D01*
X244336539Y-101839607D01*
X243961374Y-101905758D01*
X245591619Y-102101839D02*
X245180659Y-101690765D01*
X245028871Y-102201067D02*
X244855223Y-101216259D01*
X245230389Y-101150107D01*
X245332449Y-101180465D01*
X245387613Y-101219092D01*
X245451047Y-101304614D01*
X245475854Y-101445300D01*
X245445496Y-101547360D01*
X245406869Y-101602525D01*
X245321347Y-101665958D01*
X244946182Y-101732110D01*
X246118572Y-101525386D02*
X246201261Y-101994343D01*
X245699344Y-101067418D02*
X246118572Y-101525386D01*
X246355883Y-100951652D01*
X246639860Y-102013713D02*
X247390190Y-101881410D01*
X247608130Y-101746274D02*
X247434482Y-100761466D01*
X247886786Y-101407018D01*
X248091021Y-100645701D01*
X248264669Y-101630508D01*
X249202581Y-101465129D02*
X248733625Y-101547819D01*
X248559976Y-100563011D01*
X44290756Y-70697006D02*
X44174990Y-71353544D01*
X44122429Y-70280496D02*
X43763916Y-70942586D01*
X44373560Y-71050082D01*
X45206694Y-71535462D02*
X44643946Y-71436234D01*
X44925319Y-71485848D02*
X45098967Y-70501040D01*
X44980369Y-70625189D01*
X44870040Y-70702442D01*
X44767980Y-70732800D01*
X46166580Y-71027764D02*
X46050815Y-71684303D01*
X45998253Y-70611255D02*
X45639741Y-71273344D01*
X46249384Y-71380841D01*
X46806580Y-71237320D02*
X46721058Y-71173887D01*
X46682431Y-71118722D01*
X46652074Y-71016662D01*
X46660343Y-70969767D01*
X46723776Y-70884245D01*
X46778941Y-70845618D01*
X46881001Y-70815260D01*
X47068584Y-70848336D01*
X47154106Y-70911770D01*
X47192733Y-70966934D01*
X47223090Y-71068994D01*
X47214821Y-71115890D01*
X47151388Y-71201412D01*
X47096223Y-71240039D01*
X46994163Y-71270396D01*
X46806580Y-71237320D01*
X46704520Y-71267678D01*
X46649356Y-71306305D01*
X46585922Y-71391828D01*
X46552846Y-71579410D01*
X46583204Y-71681470D01*
X46621830Y-71736635D01*
X46707353Y-71800068D01*
X46894936Y-71833144D01*
X46996996Y-71802786D01*
X47052160Y-71764160D01*
X47115594Y-71678638D01*
X47148670Y-71491055D01*
X47118312Y-71388994D01*
X47079686Y-71333830D01*
X46994163Y-71270396D01*
X40644144Y-91377969D02*
X40528378Y-92034507D01*
X40475817Y-90961459D02*
X40117304Y-91623549D01*
X40726948Y-91731045D01*
X41560082Y-92216425D02*
X40997334Y-92117197D01*
X41278707Y-92166811D02*
X41452355Y-91182003D01*
X41333757Y-91306152D01*
X41223428Y-91383405D01*
X41121368Y-91413763D01*
X42519968Y-91708727D02*
X42404203Y-92365266D01*
X42351641Y-91292218D02*
X41993129Y-91954307D01*
X42602772Y-92061804D01*
X43159968Y-91918283D02*
X43074446Y-91854850D01*
X43035819Y-91799685D01*
X43005462Y-91697625D01*
X43013731Y-91650730D01*
X43077164Y-91565208D01*
X43132329Y-91526581D01*
X43234389Y-91496223D01*
X43421972Y-91529299D01*
X43507494Y-91592733D01*
X43546121Y-91647897D01*
X43576478Y-91749957D01*
X43568209Y-91796853D01*
X43504776Y-91882375D01*
X43449611Y-91921002D01*
X43347551Y-91951359D01*
X43159968Y-91918283D01*
X43057908Y-91948641D01*
X43002744Y-91987268D01*
X42939310Y-92072791D01*
X42906234Y-92260373D01*
X42936592Y-92362433D01*
X42975218Y-92417598D01*
X43060741Y-92481031D01*
X43248324Y-92514107D01*
X43350384Y-92483749D01*
X43405548Y-92445123D01*
X43468982Y-92359601D01*
X43502058Y-92172018D01*
X43471700Y-92069957D01*
X43433074Y-92014793D01*
X43347551Y-91951359D01*
X37344829Y-110089316D02*
X37229063Y-110745854D01*
X37176502Y-109672806D02*
X36817989Y-110334896D01*
X37427633Y-110442392D01*
X38260767Y-110927772D02*
X37698019Y-110828544D01*
X37979392Y-110878158D02*
X38153040Y-109893350D01*
X38034442Y-110017499D01*
X37924113Y-110094752D01*
X37822053Y-110125110D01*
X39220653Y-110420074D02*
X39104888Y-111076613D01*
X39052326Y-110003565D02*
X38693814Y-110665654D01*
X39303457Y-110773151D01*
X39860653Y-110629630D02*
X39775131Y-110566197D01*
X39736504Y-110511032D01*
X39706147Y-110408972D01*
X39714416Y-110362077D01*
X39777849Y-110276555D01*
X39833014Y-110237928D01*
X39935074Y-110207570D01*
X40122657Y-110240646D01*
X40208179Y-110304080D01*
X40246806Y-110359244D01*
X40277163Y-110461304D01*
X40268894Y-110508200D01*
X40205461Y-110593722D01*
X40150296Y-110632349D01*
X40048236Y-110662706D01*
X39860653Y-110629630D01*
X39758593Y-110659988D01*
X39703429Y-110698615D01*
X39639995Y-110784138D01*
X39606919Y-110971720D01*
X39637277Y-111073780D01*
X39675903Y-111128945D01*
X39761426Y-111192378D01*
X39949009Y-111225454D01*
X40051069Y-111195096D01*
X40106233Y-111156470D01*
X40169667Y-111070948D01*
X40202743Y-110883365D01*
X40172385Y-110781304D01*
X40133759Y-110726140D01*
X40048236Y-110662706D01*
X31627564Y-129295922D02*
X31511798Y-129952460D01*
X31459237Y-128879412D02*
X31100724Y-129541502D01*
X31710368Y-129648998D01*
X32543502Y-130134378D02*
X31980754Y-130035150D01*
X32262127Y-130084764D02*
X32435775Y-129099956D01*
X32317177Y-129224105D01*
X32206848Y-129301358D01*
X32104788Y-129331716D01*
X33503388Y-129626680D02*
X33387623Y-130283219D01*
X33335061Y-129210171D02*
X32976549Y-129872260D01*
X33586192Y-129979757D01*
X34143388Y-129836236D02*
X34057866Y-129772803D01*
X34019239Y-129717638D01*
X33988882Y-129615578D01*
X33997151Y-129568683D01*
X34060584Y-129483161D01*
X34115749Y-129444534D01*
X34217809Y-129414176D01*
X34405392Y-129447252D01*
X34490914Y-129510686D01*
X34529541Y-129565850D01*
X34559898Y-129667910D01*
X34551629Y-129714806D01*
X34488196Y-129800328D01*
X34433031Y-129838955D01*
X34330971Y-129869312D01*
X34143388Y-129836236D01*
X34041328Y-129866594D01*
X33986164Y-129905221D01*
X33922730Y-129990744D01*
X33889654Y-130178326D01*
X33920012Y-130280386D01*
X33958638Y-130335551D01*
X34044161Y-130398984D01*
X34231744Y-130432060D01*
X34333804Y-130401702D01*
X34388968Y-130363076D01*
X34452402Y-130277554D01*
X34485478Y-130089971D01*
X34455120Y-129987910D01*
X34416494Y-129932746D01*
X34330971Y-129869312D01*
X64507855Y-71215546D02*
X64392089Y-71872084D01*
X64339528Y-70799036D02*
X63981015Y-71461126D01*
X64590659Y-71568622D01*
X65423793Y-72054002D02*
X64861045Y-71954774D01*
X65142418Y-72004388D02*
X65316066Y-71019580D01*
X65197468Y-71143729D01*
X65087139Y-71220982D01*
X64985079Y-71251340D01*
X66383679Y-71546304D02*
X66267914Y-72202843D01*
X66215352Y-71129795D02*
X65856840Y-71791884D01*
X66466483Y-71899381D01*
X67023679Y-71755860D02*
X66938157Y-71692427D01*
X66899530Y-71637262D01*
X66869173Y-71535202D01*
X66877442Y-71488307D01*
X66940875Y-71402785D01*
X66996040Y-71364158D01*
X67098100Y-71333800D01*
X67285683Y-71366876D01*
X67371205Y-71430310D01*
X67409832Y-71485474D01*
X67440189Y-71587534D01*
X67431920Y-71634430D01*
X67368487Y-71719952D01*
X67313322Y-71758579D01*
X67211262Y-71788936D01*
X67023679Y-71755860D01*
X66921619Y-71786218D01*
X66866455Y-71824845D01*
X66803021Y-71910368D01*
X66769945Y-72097950D01*
X66800303Y-72200010D01*
X66838929Y-72255175D01*
X66924452Y-72318608D01*
X67112035Y-72351684D01*
X67214095Y-72321326D01*
X67269259Y-72282700D01*
X67332693Y-72197178D01*
X67365769Y-72009595D01*
X67335411Y-71907534D01*
X67296785Y-71852370D01*
X67211262Y-71788936D01*
X61034892Y-90911701D02*
X60919126Y-91568239D01*
X60866565Y-90495191D02*
X60508052Y-91157281D01*
X61117696Y-91264777D01*
X61950830Y-91750157D02*
X61388082Y-91650929D01*
X61669455Y-91700543D02*
X61843103Y-90715735D01*
X61724505Y-90839884D01*
X61614176Y-90917137D01*
X61512116Y-90947495D01*
X62910716Y-91242459D02*
X62794951Y-91898998D01*
X62742389Y-90825950D02*
X62383877Y-91488039D01*
X62993520Y-91595536D01*
X63550716Y-91452015D02*
X63465194Y-91388582D01*
X63426567Y-91333417D01*
X63396210Y-91231357D01*
X63404479Y-91184462D01*
X63467912Y-91098940D01*
X63523077Y-91060313D01*
X63625137Y-91029955D01*
X63812720Y-91063031D01*
X63898242Y-91126465D01*
X63936869Y-91181629D01*
X63967226Y-91283689D01*
X63958957Y-91330585D01*
X63895524Y-91416107D01*
X63840359Y-91454734D01*
X63738299Y-91485091D01*
X63550716Y-91452015D01*
X63448656Y-91482373D01*
X63393492Y-91521000D01*
X63330058Y-91606523D01*
X63296982Y-91794105D01*
X63327340Y-91896165D01*
X63365966Y-91951330D01*
X63451489Y-92014763D01*
X63639072Y-92047839D01*
X63741132Y-92017481D01*
X63796296Y-91978855D01*
X63859730Y-91893333D01*
X63892806Y-91705750D01*
X63862448Y-91603689D01*
X63823822Y-91548525D01*
X63738299Y-91485091D01*
X57561928Y-110607856D02*
X57446162Y-111264394D01*
X57393601Y-110191346D02*
X57035088Y-110853436D01*
X57644732Y-110960932D01*
X58477866Y-111446312D02*
X57915118Y-111347084D01*
X58196491Y-111396698D02*
X58370139Y-110411890D01*
X58251541Y-110536039D01*
X58141212Y-110613292D01*
X58039152Y-110643650D01*
X59437752Y-110938614D02*
X59321987Y-111595153D01*
X59269425Y-110522105D02*
X58910913Y-111184194D01*
X59520556Y-111291691D01*
X60077752Y-111148170D02*
X59992230Y-111084737D01*
X59953603Y-111029572D01*
X59923246Y-110927512D01*
X59931515Y-110880617D01*
X59994948Y-110795095D01*
X60050113Y-110756468D01*
X60152173Y-110726110D01*
X60339756Y-110759186D01*
X60425278Y-110822620D01*
X60463905Y-110877784D01*
X60494262Y-110979844D01*
X60485993Y-111026740D01*
X60422560Y-111112262D01*
X60367395Y-111150889D01*
X60265335Y-111181246D01*
X60077752Y-111148170D01*
X59975692Y-111178528D01*
X59920528Y-111217155D01*
X59857094Y-111302678D01*
X59824018Y-111490260D01*
X59854376Y-111592320D01*
X59893002Y-111647485D01*
X59978525Y-111710918D01*
X60166108Y-111743994D01*
X60268168Y-111713636D01*
X60323332Y-111675010D01*
X60386766Y-111589488D01*
X60419842Y-111401905D01*
X60389484Y-111299844D01*
X60350858Y-111244680D01*
X60265335Y-111181246D01*
X54088965Y-130304011D02*
X53973199Y-130960549D01*
X53920638Y-129887501D02*
X53562125Y-130549591D01*
X54171769Y-130657087D01*
X55004903Y-131142467D02*
X54442155Y-131043239D01*
X54723528Y-131092853D02*
X54897176Y-130108045D01*
X54778578Y-130232194D01*
X54668249Y-130309447D01*
X54566189Y-130339805D01*
X55964789Y-130634769D02*
X55849024Y-131291308D01*
X55796462Y-130218260D02*
X55437950Y-130880349D01*
X56047593Y-130987846D01*
X56604789Y-130844325D02*
X56519267Y-130780892D01*
X56480640Y-130725727D01*
X56450283Y-130623667D01*
X56458552Y-130576772D01*
X56521985Y-130491250D01*
X56577150Y-130452623D01*
X56679210Y-130422265D01*
X56866793Y-130455341D01*
X56952315Y-130518775D01*
X56990942Y-130573939D01*
X57021299Y-130675999D01*
X57013030Y-130722895D01*
X56949597Y-130808417D01*
X56894432Y-130847044D01*
X56792372Y-130877401D01*
X56604789Y-130844325D01*
X56502729Y-130874683D01*
X56447565Y-130913310D01*
X56384131Y-130998833D01*
X56351055Y-131186415D01*
X56381413Y-131288475D01*
X56420039Y-131343640D01*
X56505562Y-131407073D01*
X56693145Y-131440149D01*
X56795205Y-131409791D01*
X56850369Y-131371165D01*
X56913803Y-131285643D01*
X56946879Y-131098060D01*
X56916521Y-130995999D01*
X56877895Y-130940835D01*
X56792372Y-130877401D01*
X85072251Y-69764471D02*
X84956485Y-70421009D01*
X84903924Y-69347961D02*
X84545411Y-70010051D01*
X85155055Y-70117547D01*
X85988189Y-70602927D02*
X85425441Y-70503699D01*
X85706814Y-70553313D02*
X85880462Y-69568505D01*
X85761864Y-69692654D01*
X85651535Y-69769907D01*
X85549475Y-69800265D01*
X86948075Y-70095229D02*
X86832310Y-70751768D01*
X86779748Y-69678720D02*
X86421236Y-70340809D01*
X87030879Y-70448306D01*
X87588075Y-70304785D02*
X87502553Y-70241352D01*
X87463926Y-70186187D01*
X87433569Y-70084127D01*
X87441838Y-70037232D01*
X87505271Y-69951710D01*
X87560436Y-69913083D01*
X87662496Y-69882725D01*
X87850079Y-69915801D01*
X87935601Y-69979235D01*
X87974228Y-70034399D01*
X88004585Y-70136459D01*
X87996316Y-70183355D01*
X87932883Y-70268877D01*
X87877718Y-70307504D01*
X87775658Y-70337861D01*
X87588075Y-70304785D01*
X87486015Y-70335143D01*
X87430851Y-70373770D01*
X87367417Y-70459293D01*
X87334341Y-70646875D01*
X87364699Y-70748935D01*
X87403325Y-70804100D01*
X87488848Y-70867533D01*
X87676431Y-70900609D01*
X87778491Y-70870251D01*
X87833655Y-70831625D01*
X87897089Y-70746103D01*
X87930165Y-70558520D01*
X87899807Y-70456459D01*
X87861181Y-70401295D01*
X87775658Y-70337861D01*
X81599288Y-89460626D02*
X81483522Y-90117164D01*
X81430961Y-89044116D02*
X81072448Y-89706206D01*
X81682092Y-89813702D01*
X82515226Y-90299082D02*
X81952478Y-90199854D01*
X82233851Y-90249468D02*
X82407499Y-89264660D01*
X82288901Y-89388809D01*
X82178572Y-89466062D01*
X82076512Y-89496420D01*
X83475112Y-89791384D02*
X83359347Y-90447923D01*
X83306785Y-89374875D02*
X82948273Y-90036964D01*
X83557916Y-90144461D01*
X84115112Y-90000940D02*
X84029590Y-89937507D01*
X83990963Y-89882342D01*
X83960606Y-89780282D01*
X83968875Y-89733387D01*
X84032308Y-89647865D01*
X84087473Y-89609238D01*
X84189533Y-89578880D01*
X84377116Y-89611956D01*
X84462638Y-89675390D01*
X84501265Y-89730554D01*
X84531622Y-89832614D01*
X84523353Y-89879510D01*
X84459920Y-89965032D01*
X84404755Y-90003659D01*
X84302695Y-90034016D01*
X84115112Y-90000940D01*
X84013052Y-90031298D01*
X83957888Y-90069925D01*
X83894454Y-90155448D01*
X83861378Y-90343030D01*
X83891736Y-90445090D01*
X83930362Y-90500255D01*
X84015885Y-90563688D01*
X84203468Y-90596764D01*
X84305528Y-90566406D01*
X84360692Y-90527780D01*
X84424126Y-90442258D01*
X84457202Y-90254675D01*
X84426844Y-90152614D01*
X84388218Y-90097450D01*
X84302695Y-90034016D01*
X78126324Y-109156781D02*
X78010558Y-109813319D01*
X77957997Y-108740271D02*
X77599484Y-109402361D01*
X78209128Y-109509857D01*
X79042262Y-109995237D02*
X78479514Y-109896009D01*
X78760887Y-109945623D02*
X78934535Y-108960815D01*
X78815937Y-109084964D01*
X78705608Y-109162217D01*
X78603548Y-109192575D01*
X80002148Y-109487539D02*
X79886383Y-110144078D01*
X79833821Y-109071030D02*
X79475309Y-109733119D01*
X80084952Y-109840616D01*
X80642148Y-109697095D02*
X80556626Y-109633662D01*
X80517999Y-109578497D01*
X80487642Y-109476437D01*
X80495911Y-109429542D01*
X80559344Y-109344020D01*
X80614509Y-109305393D01*
X80716569Y-109275035D01*
X80904152Y-109308111D01*
X80989674Y-109371545D01*
X81028301Y-109426709D01*
X81058658Y-109528769D01*
X81050389Y-109575665D01*
X80986956Y-109661187D01*
X80931791Y-109699814D01*
X80829731Y-109730171D01*
X80642148Y-109697095D01*
X80540088Y-109727453D01*
X80484924Y-109766080D01*
X80421490Y-109851603D01*
X80388414Y-110039185D01*
X80418772Y-110141245D01*
X80457398Y-110196410D01*
X80542921Y-110259843D01*
X80730504Y-110292919D01*
X80832564Y-110262561D01*
X80887728Y-110223935D01*
X80951162Y-110138413D01*
X80984238Y-109950830D01*
X80953880Y-109848769D01*
X80915254Y-109793605D01*
X80829731Y-109730171D01*
X74653361Y-128852936D02*
X74537595Y-129509474D01*
X74485034Y-128436426D02*
X74126521Y-129098516D01*
X74736165Y-129206012D01*
X75569299Y-129691392D02*
X75006551Y-129592164D01*
X75287924Y-129641778D02*
X75461572Y-128656970D01*
X75342974Y-128781119D01*
X75232645Y-128858372D01*
X75130585Y-128888730D01*
X76529185Y-129183694D02*
X76413420Y-129840233D01*
X76360858Y-128767185D02*
X76002346Y-129429274D01*
X76611989Y-129536771D01*
X77169185Y-129393250D02*
X77083663Y-129329817D01*
X77045036Y-129274652D01*
X77014679Y-129172592D01*
X77022948Y-129125697D01*
X77086381Y-129040175D01*
X77141546Y-129001548D01*
X77243606Y-128971190D01*
X77431189Y-129004266D01*
X77516711Y-129067700D01*
X77555338Y-129122864D01*
X77585695Y-129224924D01*
X77577426Y-129271820D01*
X77513993Y-129357342D01*
X77458828Y-129395969D01*
X77356768Y-129426326D01*
X77169185Y-129393250D01*
X77067125Y-129423608D01*
X77011961Y-129462235D01*
X76948527Y-129547758D01*
X76915451Y-129735340D01*
X76945809Y-129837400D01*
X76984435Y-129892565D01*
X77069958Y-129955998D01*
X77257541Y-129989074D01*
X77359601Y-129958716D01*
X77414765Y-129920090D01*
X77478199Y-129834568D01*
X77511275Y-129646985D01*
X77480917Y-129544924D01*
X77442291Y-129489760D01*
X77356768Y-129426326D01*
X103726517Y-79146281D02*
X103610751Y-79802819D01*
X103558190Y-78729771D02*
X103199677Y-79391861D01*
X103809321Y-79499357D01*
X104642455Y-79984737D02*
X104079707Y-79885509D01*
X104361080Y-79935123D02*
X104534728Y-78950315D01*
X104416130Y-79074464D01*
X104305801Y-79151717D01*
X104203741Y-79182075D01*
X105602341Y-79477039D02*
X105486576Y-80133578D01*
X105434014Y-79060530D02*
X105075502Y-79722619D01*
X105685145Y-79830116D01*
X106242341Y-79686595D02*
X106156819Y-79623162D01*
X106118192Y-79567997D01*
X106087835Y-79465937D01*
X106096104Y-79419042D01*
X106159537Y-79333520D01*
X106214702Y-79294893D01*
X106316762Y-79264535D01*
X106504345Y-79297611D01*
X106589867Y-79361045D01*
X106628494Y-79416209D01*
X106658851Y-79518269D01*
X106650582Y-79565165D01*
X106587149Y-79650687D01*
X106531984Y-79689314D01*
X106429924Y-79719671D01*
X106242341Y-79686595D01*
X106140281Y-79716953D01*
X106085117Y-79755580D01*
X106021683Y-79841103D01*
X105988607Y-80028685D01*
X106018965Y-80130745D01*
X106057591Y-80185910D01*
X106143114Y-80249343D01*
X106330697Y-80282419D01*
X106432757Y-80252061D01*
X106487921Y-80213435D01*
X106551355Y-80127913D01*
X106584431Y-79940330D01*
X106554073Y-79838269D01*
X106515447Y-79783105D01*
X106429924Y-79719671D01*
X100253554Y-98842436D02*
X100137788Y-99498974D01*
X100085227Y-98425926D02*
X99726714Y-99088016D01*
X100336358Y-99195512D01*
X101169492Y-99680892D02*
X100606744Y-99581664D01*
X100888117Y-99631278D02*
X101061765Y-98646470D01*
X100943167Y-98770619D01*
X100832838Y-98847872D01*
X100730778Y-98878230D01*
X102129378Y-99173194D02*
X102013613Y-99829733D01*
X101961051Y-98756685D02*
X101602539Y-99418774D01*
X102212182Y-99526271D01*
X102769378Y-99382750D02*
X102683856Y-99319317D01*
X102645229Y-99264152D01*
X102614872Y-99162092D01*
X102623141Y-99115197D01*
X102686574Y-99029675D01*
X102741739Y-98991048D01*
X102843799Y-98960690D01*
X103031382Y-98993766D01*
X103116904Y-99057200D01*
X103155531Y-99112364D01*
X103185888Y-99214424D01*
X103177619Y-99261320D01*
X103114186Y-99346842D01*
X103059021Y-99385469D01*
X102956961Y-99415826D01*
X102769378Y-99382750D01*
X102667318Y-99413108D01*
X102612154Y-99451735D01*
X102548720Y-99537258D01*
X102515644Y-99724840D01*
X102546002Y-99826900D01*
X102584628Y-99882065D01*
X102670151Y-99945498D01*
X102857734Y-99978574D01*
X102959794Y-99948216D01*
X103014958Y-99909590D01*
X103078392Y-99824068D01*
X103111468Y-99636485D01*
X103081110Y-99534424D01*
X103042484Y-99479260D01*
X102956961Y-99415826D01*
X96780590Y-118538591D02*
X96664824Y-119195129D01*
X96612263Y-118122081D02*
X96253750Y-118784171D01*
X96863394Y-118891667D01*
X97696528Y-119377047D02*
X97133780Y-119277819D01*
X97415153Y-119327433D02*
X97588801Y-118342625D01*
X97470203Y-118466774D01*
X97359874Y-118544027D01*
X97257814Y-118574385D01*
X98656414Y-118869349D02*
X98540649Y-119525888D01*
X98488087Y-118452840D02*
X98129575Y-119114929D01*
X98739218Y-119222426D01*
X99296414Y-119078905D02*
X99210892Y-119015472D01*
X99172265Y-118960307D01*
X99141908Y-118858247D01*
X99150177Y-118811352D01*
X99213610Y-118725830D01*
X99268775Y-118687203D01*
X99370835Y-118656845D01*
X99558418Y-118689921D01*
X99643940Y-118753355D01*
X99682567Y-118808519D01*
X99712924Y-118910579D01*
X99704655Y-118957475D01*
X99641222Y-119042997D01*
X99586057Y-119081624D01*
X99483997Y-119111981D01*
X99296414Y-119078905D01*
X99194354Y-119109263D01*
X99139190Y-119147890D01*
X99075756Y-119233413D01*
X99042680Y-119420995D01*
X99073038Y-119523055D01*
X99111664Y-119578220D01*
X99197187Y-119641653D01*
X99384770Y-119674729D01*
X99486830Y-119644371D01*
X99541994Y-119605745D01*
X99605428Y-119520223D01*
X99638504Y-119332640D01*
X99608146Y-119230579D01*
X99569520Y-119175415D01*
X99483997Y-119111981D01*
X93307627Y-138234746D02*
X93191861Y-138891284D01*
X93139300Y-137818236D02*
X92780787Y-138480326D01*
X93390431Y-138587822D01*
X94223565Y-139073202D02*
X93660817Y-138973974D01*
X93942190Y-139023588D02*
X94115838Y-138038780D01*
X93997240Y-138162929D01*
X93886911Y-138240182D01*
X93784851Y-138270540D01*
X95183451Y-138565504D02*
X95067686Y-139222043D01*
X95015124Y-138148995D02*
X94656612Y-138811084D01*
X95266255Y-138918581D01*
X95823451Y-138775060D02*
X95737929Y-138711627D01*
X95699302Y-138656462D01*
X95668945Y-138554402D01*
X95677214Y-138507507D01*
X95740647Y-138421985D01*
X95795812Y-138383358D01*
X95897872Y-138353000D01*
X96085455Y-138386076D01*
X96170977Y-138449510D01*
X96209604Y-138504674D01*
X96239961Y-138606734D01*
X96231692Y-138653630D01*
X96168259Y-138739152D01*
X96113094Y-138777779D01*
X96011034Y-138808136D01*
X95823451Y-138775060D01*
X95721391Y-138805418D01*
X95666227Y-138844045D01*
X95602793Y-138929568D01*
X95569717Y-139117150D01*
X95600075Y-139219210D01*
X95638701Y-139274375D01*
X95724224Y-139337808D01*
X95911807Y-139370884D01*
X96013867Y-139340526D01*
X96069031Y-139301900D01*
X96132465Y-139216378D01*
X96165541Y-139028795D01*
X96135183Y-138926734D01*
X96096557Y-138871570D01*
X96011034Y-138808136D01*
X122554431Y-87543283D02*
X122438665Y-88199821D01*
X122386104Y-87126773D02*
X122027591Y-87788863D01*
X122637235Y-87896359D01*
X123470369Y-88381739D02*
X122907621Y-88282511D01*
X123188994Y-88332125D02*
X123362642Y-87347317D01*
X123244044Y-87471466D01*
X123133715Y-87548719D01*
X123031655Y-87579077D01*
X124430255Y-87874041D02*
X124314490Y-88530580D01*
X124261928Y-87457532D02*
X123903416Y-88119621D01*
X124513059Y-88227118D01*
X125070255Y-88083597D02*
X124984733Y-88020164D01*
X124946106Y-87964999D01*
X124915749Y-87862939D01*
X124924018Y-87816044D01*
X124987451Y-87730522D01*
X125042616Y-87691895D01*
X125144676Y-87661537D01*
X125332259Y-87694613D01*
X125417781Y-87758047D01*
X125456408Y-87813211D01*
X125486765Y-87915271D01*
X125478496Y-87962167D01*
X125415063Y-88047689D01*
X125359898Y-88086316D01*
X125257838Y-88116673D01*
X125070255Y-88083597D01*
X124968195Y-88113955D01*
X124913031Y-88152582D01*
X124849597Y-88238105D01*
X124816521Y-88425687D01*
X124846879Y-88527747D01*
X124885505Y-88582912D01*
X124971028Y-88646345D01*
X125158611Y-88679421D01*
X125260671Y-88649063D01*
X125315835Y-88610437D01*
X125379269Y-88524915D01*
X125412345Y-88337332D01*
X125381987Y-88235271D01*
X125343361Y-88180107D01*
X125257838Y-88116673D01*
X119081468Y-107239438D02*
X118965702Y-107895976D01*
X118913141Y-106822928D02*
X118554628Y-107485018D01*
X119164272Y-107592514D01*
X119997406Y-108077894D02*
X119434658Y-107978666D01*
X119716031Y-108028280D02*
X119889679Y-107043472D01*
X119771081Y-107167621D01*
X119660752Y-107244874D01*
X119558692Y-107275232D01*
X120957292Y-107570196D02*
X120841527Y-108226735D01*
X120788965Y-107153687D02*
X120430453Y-107815776D01*
X121040096Y-107923273D01*
X121597292Y-107779752D02*
X121511770Y-107716319D01*
X121473143Y-107661154D01*
X121442786Y-107559094D01*
X121451055Y-107512199D01*
X121514488Y-107426677D01*
X121569653Y-107388050D01*
X121671713Y-107357692D01*
X121859296Y-107390768D01*
X121944818Y-107454202D01*
X121983445Y-107509366D01*
X122013802Y-107611426D01*
X122005533Y-107658322D01*
X121942100Y-107743844D01*
X121886935Y-107782471D01*
X121784875Y-107812828D01*
X121597292Y-107779752D01*
X121495232Y-107810110D01*
X121440068Y-107848737D01*
X121376634Y-107934260D01*
X121343558Y-108121842D01*
X121373916Y-108223902D01*
X121412542Y-108279067D01*
X121498065Y-108342500D01*
X121685648Y-108375576D01*
X121787708Y-108345218D01*
X121842872Y-108306592D01*
X121906306Y-108221070D01*
X121939382Y-108033487D01*
X121909024Y-107931426D01*
X121870398Y-107876262D01*
X121784875Y-107812828D01*
X115608504Y-126935593D02*
X115492738Y-127592131D01*
X115440177Y-126519083D02*
X115081664Y-127181173D01*
X115691308Y-127288669D01*
X116524442Y-127774049D02*
X115961694Y-127674821D01*
X116243067Y-127724435D02*
X116416715Y-126739627D01*
X116298117Y-126863776D01*
X116187788Y-126941029D01*
X116085728Y-126971387D01*
X117484328Y-127266351D02*
X117368563Y-127922890D01*
X117316001Y-126849842D02*
X116957489Y-127511931D01*
X117567132Y-127619428D01*
X118124328Y-127475907D02*
X118038806Y-127412474D01*
X118000179Y-127357309D01*
X117969822Y-127255249D01*
X117978091Y-127208354D01*
X118041524Y-127122832D01*
X118096689Y-127084205D01*
X118198749Y-127053847D01*
X118386332Y-127086923D01*
X118471854Y-127150357D01*
X118510481Y-127205521D01*
X118540838Y-127307581D01*
X118532569Y-127354477D01*
X118469136Y-127439999D01*
X118413971Y-127478626D01*
X118311911Y-127508983D01*
X118124328Y-127475907D01*
X118022268Y-127506265D01*
X117967104Y-127544892D01*
X117903670Y-127630415D01*
X117870594Y-127817997D01*
X117900952Y-127920057D01*
X117939578Y-127975222D01*
X118025101Y-128038655D01*
X118212684Y-128071731D01*
X118314744Y-128041373D01*
X118369908Y-128002747D01*
X118433342Y-127917225D01*
X118466418Y-127729642D01*
X118436060Y-127627581D01*
X118397434Y-127572417D01*
X118311911Y-127508983D01*
X111961893Y-147616556D02*
X111846127Y-148273094D01*
X111793566Y-147200046D02*
X111435053Y-147862136D01*
X112044697Y-147969632D01*
X112877831Y-148455012D02*
X112315083Y-148355784D01*
X112596456Y-148405398D02*
X112770104Y-147420590D01*
X112651506Y-147544739D01*
X112541177Y-147621992D01*
X112439117Y-147652350D01*
X113837717Y-147947314D02*
X113721952Y-148603853D01*
X113669390Y-147530805D02*
X113310878Y-148192894D01*
X113920521Y-148300391D01*
X114477717Y-148156870D02*
X114392195Y-148093437D01*
X114353568Y-148038272D01*
X114323211Y-147936212D01*
X114331480Y-147889317D01*
X114394913Y-147803795D01*
X114450078Y-147765168D01*
X114552138Y-147734810D01*
X114739721Y-147767886D01*
X114825243Y-147831320D01*
X114863870Y-147886484D01*
X114894227Y-147988544D01*
X114885958Y-148035440D01*
X114822525Y-148120962D01*
X114767360Y-148159589D01*
X114665300Y-148189946D01*
X114477717Y-148156870D01*
X114375657Y-148187228D01*
X114320493Y-148225855D01*
X114257059Y-148311378D01*
X114223983Y-148498960D01*
X114254341Y-148601020D01*
X114292967Y-148656185D01*
X114378490Y-148719618D01*
X114566073Y-148752694D01*
X114668133Y-148722336D01*
X114723297Y-148683710D01*
X114786731Y-148598188D01*
X114819807Y-148410605D01*
X114789449Y-148308544D01*
X114750823Y-148253380D01*
X114665300Y-148189946D01*
X131775251Y-135797552D02*
X131659485Y-136454090D01*
X131606924Y-135381042D02*
X131248411Y-136043132D01*
X131858055Y-136150628D01*
X132691189Y-136636008D02*
X132128441Y-136536780D01*
X132409814Y-136586394D02*
X132583462Y-135601586D01*
X132464864Y-135725735D01*
X132354535Y-135802988D01*
X132252475Y-135833346D01*
X133651075Y-136128310D02*
X133535310Y-136784849D01*
X133482748Y-135711801D02*
X133124236Y-136373890D01*
X133733879Y-136481387D01*
X134291075Y-136337866D02*
X134205553Y-136274433D01*
X134166926Y-136219268D01*
X134136569Y-136117208D01*
X134144838Y-136070313D01*
X134208271Y-135984791D01*
X134263436Y-135946164D01*
X134365496Y-135915806D01*
X134553079Y-135948882D01*
X134638601Y-136012316D01*
X134677228Y-136067480D01*
X134707585Y-136169540D01*
X134699316Y-136216436D01*
X134635883Y-136301958D01*
X134580718Y-136340585D01*
X134478658Y-136370942D01*
X134291075Y-136337866D01*
X134189015Y-136368224D01*
X134133851Y-136406851D01*
X134070417Y-136492374D01*
X134037341Y-136679956D01*
X134067699Y-136782016D01*
X134106325Y-136837181D01*
X134191848Y-136900614D01*
X134379431Y-136933690D01*
X134481491Y-136903332D01*
X134536655Y-136864706D01*
X134600089Y-136779184D01*
X134633165Y-136591601D01*
X134602807Y-136489540D01*
X134564181Y-136434376D01*
X134478658Y-136370942D01*
X166654630Y-141228864D02*
X166770396Y-141885403D01*
X166354000Y-140895045D02*
X166243556Y-141639824D01*
X166853200Y-141532327D01*
X167802099Y-141703486D02*
X167239351Y-141802714D01*
X167520725Y-141753100D02*
X167347076Y-140768292D01*
X167278092Y-140925517D01*
X167200839Y-141035846D01*
X167115317Y-141099279D01*
X168530454Y-140898106D02*
X168646220Y-141554645D01*
X168229824Y-140564286D02*
X168119381Y-141309066D01*
X168729024Y-141201569D01*
X169203530Y-140876132D02*
X169101470Y-140845774D01*
X169046306Y-140807147D01*
X168982872Y-140721625D01*
X168974603Y-140674730D01*
X169004961Y-140572670D01*
X169043587Y-140517505D01*
X169129110Y-140454072D01*
X169316693Y-140420996D01*
X169418753Y-140451353D01*
X169473917Y-140489980D01*
X169537351Y-140575502D01*
X169545620Y-140622398D01*
X169515262Y-140724458D01*
X169476636Y-140779622D01*
X169391113Y-140843056D01*
X169203530Y-140876132D01*
X169118008Y-140939565D01*
X169079381Y-140994730D01*
X169049024Y-141096791D01*
X169082100Y-141284373D01*
X169145533Y-141369895D01*
X169200698Y-141408522D01*
X169302758Y-141438879D01*
X169490341Y-141405803D01*
X169575863Y-141342370D01*
X169614490Y-141287206D01*
X169644847Y-141185145D01*
X169611772Y-140997563D01*
X169548338Y-140912040D01*
X169493174Y-140873413D01*
X169391113Y-140843056D01*
X174051732Y-82723083D02*
X174167498Y-83379622D01*
X173751102Y-82389264D02*
X173640658Y-83134043D01*
X174250302Y-83026546D01*
X175199201Y-83197705D02*
X174636453Y-83296933D01*
X174917827Y-83247319D02*
X174744178Y-82262511D01*
X174675194Y-82419736D01*
X174597941Y-82530065D01*
X174512419Y-82593498D01*
X175927556Y-82392325D02*
X176043322Y-83048864D01*
X175626926Y-82058505D02*
X175516483Y-82803285D01*
X176126126Y-82695788D01*
X176600632Y-82370351D02*
X176498572Y-82339993D01*
X176443408Y-82301366D01*
X176379974Y-82215844D01*
X176371705Y-82168949D01*
X176402063Y-82066889D01*
X176440689Y-82011724D01*
X176526212Y-81948291D01*
X176713795Y-81915215D01*
X176815855Y-81945572D01*
X176871019Y-81984199D01*
X176934453Y-82069721D01*
X176942722Y-82116617D01*
X176912364Y-82218677D01*
X176873738Y-82273841D01*
X176788215Y-82337275D01*
X176600632Y-82370351D01*
X176515110Y-82433784D01*
X176476483Y-82488949D01*
X176446126Y-82591010D01*
X176479202Y-82778592D01*
X176542635Y-82864114D01*
X176597800Y-82902741D01*
X176699860Y-82933098D01*
X176887443Y-82900022D01*
X176972965Y-82836589D01*
X177011592Y-82781425D01*
X177041949Y-82679364D01*
X177008874Y-82491782D01*
X176945440Y-82406259D01*
X176890276Y-82367632D01*
X176788215Y-82337275D01*
X178051732Y-102723083D02*
X178167498Y-103379622D01*
X177751102Y-102389264D02*
X177640658Y-103134043D01*
X178250302Y-103026546D01*
X179199201Y-103197705D02*
X178636453Y-103296933D01*
X178917827Y-103247319D02*
X178744178Y-102262511D01*
X178675194Y-102419736D01*
X178597941Y-102530065D01*
X178512419Y-102593498D01*
X179927556Y-102392325D02*
X180043322Y-103048864D01*
X179626926Y-102058505D02*
X179516483Y-102803285D01*
X180126126Y-102695788D01*
X180600632Y-102370351D02*
X180498572Y-102339993D01*
X180443408Y-102301366D01*
X180379974Y-102215844D01*
X180371705Y-102168949D01*
X180402063Y-102066889D01*
X180440689Y-102011724D01*
X180526212Y-101948291D01*
X180713795Y-101915215D01*
X180815855Y-101945572D01*
X180871019Y-101984199D01*
X180934453Y-102069721D01*
X180942722Y-102116617D01*
X180912364Y-102218677D01*
X180873738Y-102273841D01*
X180788215Y-102337275D01*
X180600632Y-102370351D01*
X180515110Y-102433784D01*
X180476483Y-102488949D01*
X180446126Y-102591010D01*
X180479202Y-102778592D01*
X180542635Y-102864114D01*
X180597800Y-102902741D01*
X180699860Y-102933098D01*
X180887443Y-102900022D01*
X180972965Y-102836589D01*
X181011592Y-102781425D01*
X181041949Y-102679364D01*
X181008874Y-102491782D01*
X180945440Y-102406259D01*
X180890276Y-102367632D01*
X180788215Y-102337275D01*
X181051732Y-121723083D02*
X181167498Y-122379622D01*
X180751102Y-121389264D02*
X180640658Y-122134043D01*
X181250302Y-122026546D01*
X182199201Y-122197705D02*
X181636453Y-122296933D01*
X181917827Y-122247319D02*
X181744178Y-121262511D01*
X181675194Y-121419736D01*
X181597941Y-121530065D01*
X181512419Y-121593498D01*
X182927556Y-121392325D02*
X183043322Y-122048864D01*
X182626926Y-121058505D02*
X182516483Y-121803285D01*
X183126126Y-121695788D01*
X183600632Y-121370351D02*
X183498572Y-121339993D01*
X183443408Y-121301366D01*
X183379974Y-121215844D01*
X183371705Y-121168949D01*
X183402063Y-121066889D01*
X183440689Y-121011724D01*
X183526212Y-120948291D01*
X183713795Y-120915215D01*
X183815855Y-120945572D01*
X183871019Y-120984199D01*
X183934453Y-121069721D01*
X183942722Y-121116617D01*
X183912364Y-121218677D01*
X183873738Y-121273841D01*
X183788215Y-121337275D01*
X183600632Y-121370351D01*
X183515110Y-121433784D01*
X183476483Y-121488949D01*
X183446126Y-121591010D01*
X183479202Y-121778592D01*
X183542635Y-121864114D01*
X183597800Y-121902741D01*
X183699860Y-121933098D01*
X183887443Y-121900022D01*
X183972965Y-121836589D01*
X184011592Y-121781425D01*
X184041949Y-121679364D01*
X184008874Y-121491782D01*
X183945440Y-121406259D01*
X183890276Y-121367632D01*
X183788215Y-121337275D01*
X185051732Y-142723083D02*
X185167498Y-143379622D01*
X184751102Y-142389264D02*
X184640658Y-143134043D01*
X185250302Y-143026546D01*
X186199201Y-143197705D02*
X185636453Y-143296933D01*
X185917827Y-143247319D02*
X185744178Y-142262511D01*
X185675194Y-142419736D01*
X185597941Y-142530065D01*
X185512419Y-142593498D01*
X186927556Y-142392325D02*
X187043322Y-143048864D01*
X186626926Y-142058505D02*
X186516483Y-142803285D01*
X187126126Y-142695788D01*
X187600632Y-142370351D02*
X187498572Y-142339993D01*
X187443408Y-142301366D01*
X187379974Y-142215844D01*
X187371705Y-142168949D01*
X187402063Y-142066889D01*
X187440689Y-142011724D01*
X187526212Y-141948291D01*
X187713795Y-141915215D01*
X187815855Y-141945572D01*
X187871019Y-141984199D01*
X187934453Y-142069721D01*
X187942722Y-142116617D01*
X187912364Y-142218677D01*
X187873738Y-142273841D01*
X187788215Y-142337275D01*
X187600632Y-142370351D01*
X187515110Y-142433784D01*
X187476483Y-142488949D01*
X187446126Y-142591010D01*
X187479202Y-142778592D01*
X187542635Y-142864114D01*
X187597800Y-142902741D01*
X187699860Y-142933098D01*
X187887443Y-142900022D01*
X187972965Y-142836589D01*
X188011592Y-142781425D01*
X188041949Y-142679364D01*
X188008874Y-142491782D01*
X187945440Y-142406259D01*
X187890276Y-142367632D01*
X187788215Y-142337275D01*
X193051732Y-74723083D02*
X193167498Y-75379622D01*
X192751102Y-74389264D02*
X192640658Y-75134043D01*
X193250302Y-75026546D01*
X194199201Y-75197705D02*
X193636453Y-75296933D01*
X193917827Y-75247319D02*
X193744178Y-74262511D01*
X193675194Y-74419736D01*
X193597941Y-74530065D01*
X193512419Y-74593498D01*
X194927556Y-74392325D02*
X195043322Y-75048864D01*
X194626926Y-74058505D02*
X194516483Y-74803285D01*
X195126126Y-74695788D01*
X195600632Y-74370351D02*
X195498572Y-74339993D01*
X195443408Y-74301366D01*
X195379974Y-74215844D01*
X195371705Y-74168949D01*
X195402063Y-74066889D01*
X195440689Y-74011724D01*
X195526212Y-73948291D01*
X195713795Y-73915215D01*
X195815855Y-73945572D01*
X195871019Y-73984199D01*
X195934453Y-74069721D01*
X195942722Y-74116617D01*
X195912364Y-74218677D01*
X195873738Y-74273841D01*
X195788215Y-74337275D01*
X195600632Y-74370351D01*
X195515110Y-74433784D01*
X195476483Y-74488949D01*
X195446126Y-74591010D01*
X195479202Y-74778592D01*
X195542635Y-74864114D01*
X195597800Y-74902741D01*
X195699860Y-74933098D01*
X195887443Y-74900022D01*
X195972965Y-74836589D01*
X196011592Y-74781425D01*
X196041949Y-74679364D01*
X196008874Y-74491782D01*
X195945440Y-74406259D01*
X195890276Y-74367632D01*
X195788215Y-74337275D01*
X197051732Y-95723083D02*
X197167498Y-96379622D01*
X196751102Y-95389264D02*
X196640658Y-96134043D01*
X197250302Y-96026546D01*
X198199201Y-96197705D02*
X197636453Y-96296933D01*
X197917827Y-96247319D02*
X197744178Y-95262511D01*
X197675194Y-95419736D01*
X197597941Y-95530065D01*
X197512419Y-95593498D01*
X198927556Y-95392325D02*
X199043322Y-96048864D01*
X198626926Y-95058505D02*
X198516483Y-95803285D01*
X199126126Y-95695788D01*
X199600632Y-95370351D02*
X199498572Y-95339993D01*
X199443408Y-95301366D01*
X199379974Y-95215844D01*
X199371705Y-95168949D01*
X199402063Y-95066889D01*
X199440689Y-95011724D01*
X199526212Y-94948291D01*
X199713795Y-94915215D01*
X199815855Y-94945572D01*
X199871019Y-94984199D01*
X199934453Y-95069721D01*
X199942722Y-95116617D01*
X199912364Y-95218677D01*
X199873738Y-95273841D01*
X199788215Y-95337275D01*
X199600632Y-95370351D01*
X199515110Y-95433784D01*
X199476483Y-95488949D01*
X199446126Y-95591010D01*
X199479202Y-95778592D01*
X199542635Y-95864114D01*
X199597800Y-95902741D01*
X199699860Y-95933098D01*
X199887443Y-95900022D01*
X199972965Y-95836589D01*
X200011592Y-95781425D01*
X200041949Y-95679364D01*
X200008874Y-95491782D01*
X199945440Y-95406259D01*
X199890276Y-95367632D01*
X199788215Y-95337275D01*
X200051732Y-113723083D02*
X200167498Y-114379622D01*
X199751102Y-113389264D02*
X199640658Y-114134043D01*
X200250302Y-114026546D01*
X201199201Y-114197705D02*
X200636453Y-114296933D01*
X200917827Y-114247319D02*
X200744178Y-113262511D01*
X200675194Y-113419736D01*
X200597941Y-113530065D01*
X200512419Y-113593498D01*
X201927556Y-113392325D02*
X202043322Y-114048864D01*
X201626926Y-113058505D02*
X201516483Y-113803285D01*
X202126126Y-113695788D01*
X202600632Y-113370351D02*
X202498572Y-113339993D01*
X202443408Y-113301366D01*
X202379974Y-113215844D01*
X202371705Y-113168949D01*
X202402063Y-113066889D01*
X202440689Y-113011724D01*
X202526212Y-112948291D01*
X202713795Y-112915215D01*
X202815855Y-112945572D01*
X202871019Y-112984199D01*
X202934453Y-113069721D01*
X202942722Y-113116617D01*
X202912364Y-113218677D01*
X202873738Y-113273841D01*
X202788215Y-113337275D01*
X202600632Y-113370351D01*
X202515110Y-113433784D01*
X202476483Y-113488949D01*
X202446126Y-113591010D01*
X202479202Y-113778592D01*
X202542635Y-113864114D01*
X202597800Y-113902741D01*
X202699860Y-113933098D01*
X202887443Y-113900022D01*
X202972965Y-113836589D01*
X203011592Y-113781425D01*
X203041949Y-113679364D01*
X203008874Y-113491782D01*
X202945440Y-113406259D01*
X202890276Y-113367632D01*
X202788215Y-113337275D01*
X203051732Y-133723083D02*
X203167498Y-134379622D01*
X202751102Y-133389264D02*
X202640658Y-134134043D01*
X203250302Y-134026546D01*
X204199201Y-134197705D02*
X203636453Y-134296933D01*
X203917827Y-134247319D02*
X203744178Y-133262511D01*
X203675194Y-133419736D01*
X203597941Y-133530065D01*
X203512419Y-133593498D01*
X204927556Y-133392325D02*
X205043322Y-134048864D01*
X204626926Y-133058505D02*
X204516483Y-133803285D01*
X205126126Y-133695788D01*
X205600632Y-133370351D02*
X205498572Y-133339993D01*
X205443408Y-133301366D01*
X205379974Y-133215844D01*
X205371705Y-133168949D01*
X205402063Y-133066889D01*
X205440689Y-133011724D01*
X205526212Y-132948291D01*
X205713795Y-132915215D01*
X205815855Y-132945572D01*
X205871019Y-132984199D01*
X205934453Y-133069721D01*
X205942722Y-133116617D01*
X205912364Y-133218677D01*
X205873738Y-133273841D01*
X205788215Y-133337275D01*
X205600632Y-133370351D01*
X205515110Y-133433784D01*
X205476483Y-133488949D01*
X205446126Y-133591010D01*
X205479202Y-133778592D01*
X205542635Y-133864114D01*
X205597800Y-133902741D01*
X205699860Y-133933098D01*
X205887443Y-133900022D01*
X205972965Y-133836589D01*
X206011592Y-133781425D01*
X206041949Y-133679364D01*
X206008874Y-133491782D01*
X205945440Y-133406259D01*
X205890276Y-133367632D01*
X205788215Y-133337275D01*
X212051732Y-64723083D02*
X212167498Y-65379622D01*
X211751102Y-64389264D02*
X211640658Y-65134043D01*
X212250302Y-65026546D01*
X213199201Y-65197705D02*
X212636453Y-65296933D01*
X212917827Y-65247319D02*
X212744178Y-64262511D01*
X212675194Y-64419736D01*
X212597941Y-64530065D01*
X212512419Y-64593498D01*
X213927556Y-64392325D02*
X214043322Y-65048864D01*
X213626926Y-64058505D02*
X213516483Y-64803285D01*
X214126126Y-64695788D01*
X214600632Y-64370351D02*
X214498572Y-64339993D01*
X214443408Y-64301366D01*
X214379974Y-64215844D01*
X214371705Y-64168949D01*
X214402063Y-64066889D01*
X214440689Y-64011724D01*
X214526212Y-63948291D01*
X214713795Y-63915215D01*
X214815855Y-63945572D01*
X214871019Y-63984199D01*
X214934453Y-64069721D01*
X214942722Y-64116617D01*
X214912364Y-64218677D01*
X214873738Y-64273841D01*
X214788215Y-64337275D01*
X214600632Y-64370351D01*
X214515110Y-64433784D01*
X214476483Y-64488949D01*
X214446126Y-64591010D01*
X214479202Y-64778592D01*
X214542635Y-64864114D01*
X214597800Y-64902741D01*
X214699860Y-64933098D01*
X214887443Y-64900022D01*
X214972965Y-64836589D01*
X215011592Y-64781425D01*
X215041949Y-64679364D01*
X215008874Y-64491782D01*
X214945440Y-64406259D01*
X214890276Y-64367632D01*
X214788215Y-64337275D01*
X215051732Y-84723083D02*
X215167498Y-85379622D01*
X214751102Y-84389264D02*
X214640658Y-85134043D01*
X215250302Y-85026546D01*
X216199201Y-85197705D02*
X215636453Y-85296933D01*
X215917827Y-85247319D02*
X215744178Y-84262511D01*
X215675194Y-84419736D01*
X215597941Y-84530065D01*
X215512419Y-84593498D01*
X216927556Y-84392325D02*
X217043322Y-85048864D01*
X216626926Y-84058505D02*
X216516483Y-84803285D01*
X217126126Y-84695788D01*
X217600632Y-84370351D02*
X217498572Y-84339993D01*
X217443408Y-84301366D01*
X217379974Y-84215844D01*
X217371705Y-84168949D01*
X217402063Y-84066889D01*
X217440689Y-84011724D01*
X217526212Y-83948291D01*
X217713795Y-83915215D01*
X217815855Y-83945572D01*
X217871019Y-83984199D01*
X217934453Y-84069721D01*
X217942722Y-84116617D01*
X217912364Y-84218677D01*
X217873738Y-84273841D01*
X217788215Y-84337275D01*
X217600632Y-84370351D01*
X217515110Y-84433784D01*
X217476483Y-84488949D01*
X217446126Y-84591010D01*
X217479202Y-84778592D01*
X217542635Y-84864114D01*
X217597800Y-84902741D01*
X217699860Y-84933098D01*
X217887443Y-84900022D01*
X217972965Y-84836589D01*
X218011592Y-84781425D01*
X218041949Y-84679364D01*
X218008874Y-84491782D01*
X217945440Y-84406259D01*
X217890276Y-84367632D01*
X217788215Y-84337275D01*
X218051732Y-104723083D02*
X218167498Y-105379622D01*
X217751102Y-104389264D02*
X217640658Y-105134043D01*
X218250302Y-105026546D01*
X219199201Y-105197705D02*
X218636453Y-105296933D01*
X218917827Y-105247319D02*
X218744178Y-104262511D01*
X218675194Y-104419736D01*
X218597941Y-104530065D01*
X218512419Y-104593498D01*
X219927556Y-104392325D02*
X220043322Y-105048864D01*
X219626926Y-104058505D02*
X219516483Y-104803285D01*
X220126126Y-104695788D01*
X220600632Y-104370351D02*
X220498572Y-104339993D01*
X220443408Y-104301366D01*
X220379974Y-104215844D01*
X220371705Y-104168949D01*
X220402063Y-104066889D01*
X220440689Y-104011724D01*
X220526212Y-103948291D01*
X220713795Y-103915215D01*
X220815855Y-103945572D01*
X220871019Y-103984199D01*
X220934453Y-104069721D01*
X220942722Y-104116617D01*
X220912364Y-104218677D01*
X220873738Y-104273841D01*
X220788215Y-104337275D01*
X220600632Y-104370351D01*
X220515110Y-104433784D01*
X220476483Y-104488949D01*
X220446126Y-104591010D01*
X220479202Y-104778592D01*
X220542635Y-104864114D01*
X220597800Y-104902741D01*
X220699860Y-104933098D01*
X220887443Y-104900022D01*
X220972965Y-104836589D01*
X221011592Y-104781425D01*
X221041949Y-104679364D01*
X221008874Y-104491782D01*
X220945440Y-104406259D01*
X220890276Y-104367632D01*
X220788215Y-104337275D01*
X222051732Y-124723083D02*
X222167498Y-125379622D01*
X221751102Y-124389264D02*
X221640658Y-125134043D01*
X222250302Y-125026546D01*
X223199201Y-125197705D02*
X222636453Y-125296933D01*
X222917827Y-125247319D02*
X222744178Y-124262511D01*
X222675194Y-124419736D01*
X222597941Y-124530065D01*
X222512419Y-124593498D01*
X223927556Y-124392325D02*
X224043322Y-125048864D01*
X223626926Y-124058505D02*
X223516483Y-124803285D01*
X224126126Y-124695788D01*
X224600632Y-124370351D02*
X224498572Y-124339993D01*
X224443408Y-124301366D01*
X224379974Y-124215844D01*
X224371705Y-124168949D01*
X224402063Y-124066889D01*
X224440689Y-124011724D01*
X224526212Y-123948291D01*
X224713795Y-123915215D01*
X224815855Y-123945572D01*
X224871019Y-123984199D01*
X224934453Y-124069721D01*
X224942722Y-124116617D01*
X224912364Y-124218677D01*
X224873738Y-124273841D01*
X224788215Y-124337275D01*
X224600632Y-124370351D01*
X224515110Y-124433784D01*
X224476483Y-124488949D01*
X224446126Y-124591010D01*
X224479202Y-124778592D01*
X224542635Y-124864114D01*
X224597800Y-124902741D01*
X224699860Y-124933098D01*
X224887443Y-124900022D01*
X224972965Y-124836589D01*
X225011592Y-124781425D01*
X225041949Y-124679364D01*
X225008874Y-124491782D01*
X224945440Y-124406259D01*
X224890276Y-124367632D01*
X224788215Y-124337275D01*
X232051732Y-66723083D02*
X232167498Y-67379622D01*
X231751102Y-66389264D02*
X231640658Y-67134043D01*
X232250302Y-67026546D01*
X233199201Y-67197705D02*
X232636453Y-67296933D01*
X232917827Y-67247319D02*
X232744178Y-66262511D01*
X232675194Y-66419736D01*
X232597941Y-66530065D01*
X232512419Y-66593498D01*
X233927556Y-66392325D02*
X234043322Y-67048864D01*
X233626926Y-66058505D02*
X233516483Y-66803285D01*
X234126126Y-66695788D01*
X234600632Y-66370351D02*
X234498572Y-66339993D01*
X234443408Y-66301366D01*
X234379974Y-66215844D01*
X234371705Y-66168949D01*
X234402063Y-66066889D01*
X234440689Y-66011724D01*
X234526212Y-65948291D01*
X234713795Y-65915215D01*
X234815855Y-65945572D01*
X234871019Y-65984199D01*
X234934453Y-66069721D01*
X234942722Y-66116617D01*
X234912364Y-66218677D01*
X234873738Y-66273841D01*
X234788215Y-66337275D01*
X234600632Y-66370351D01*
X234515110Y-66433784D01*
X234476483Y-66488949D01*
X234446126Y-66591010D01*
X234479202Y-66778592D01*
X234542635Y-66864114D01*
X234597800Y-66902741D01*
X234699860Y-66933098D01*
X234887443Y-66900022D01*
X234972965Y-66836589D01*
X235011592Y-66781425D01*
X235041949Y-66679364D01*
X235008874Y-66491782D01*
X234945440Y-66406259D01*
X234890276Y-66367632D01*
X234788215Y-66337275D01*
X236051732Y-85723083D02*
X236167498Y-86379622D01*
X235751102Y-85389264D02*
X235640658Y-86134043D01*
X236250302Y-86026546D01*
X237199201Y-86197705D02*
X236636453Y-86296933D01*
X236917827Y-86247319D02*
X236744178Y-85262511D01*
X236675194Y-85419736D01*
X236597941Y-85530065D01*
X236512419Y-85593498D01*
X237927556Y-85392325D02*
X238043322Y-86048864D01*
X237626926Y-85058505D02*
X237516483Y-85803285D01*
X238126126Y-85695788D01*
X238600632Y-85370351D02*
X238498572Y-85339993D01*
X238443408Y-85301366D01*
X238379974Y-85215844D01*
X238371705Y-85168949D01*
X238402063Y-85066889D01*
X238440689Y-85011724D01*
X238526212Y-84948291D01*
X238713795Y-84915215D01*
X238815855Y-84945572D01*
X238871019Y-84984199D01*
X238934453Y-85069721D01*
X238942722Y-85116617D01*
X238912364Y-85218677D01*
X238873738Y-85273841D01*
X238788215Y-85337275D01*
X238600632Y-85370351D01*
X238515110Y-85433784D01*
X238476483Y-85488949D01*
X238446126Y-85591010D01*
X238479202Y-85778592D01*
X238542635Y-85864114D01*
X238597800Y-85902741D01*
X238699860Y-85933098D01*
X238887443Y-85900022D01*
X238972965Y-85836589D01*
X239011592Y-85781425D01*
X239041949Y-85679364D01*
X239008874Y-85491782D01*
X238945440Y-85406259D01*
X238890276Y-85367632D01*
X238788215Y-85337275D01*
X239051732Y-105723083D02*
X239167498Y-106379622D01*
X238751102Y-105389264D02*
X238640658Y-106134043D01*
X239250302Y-106026546D01*
X240199201Y-106197705D02*
X239636453Y-106296933D01*
X239917827Y-106247319D02*
X239744178Y-105262511D01*
X239675194Y-105419736D01*
X239597941Y-105530065D01*
X239512419Y-105593498D01*
X240927556Y-105392325D02*
X241043322Y-106048864D01*
X240626926Y-105058505D02*
X240516483Y-105803285D01*
X241126126Y-105695788D01*
X241600632Y-105370351D02*
X241498572Y-105339993D01*
X241443408Y-105301366D01*
X241379974Y-105215844D01*
X241371705Y-105168949D01*
X241402063Y-105066889D01*
X241440689Y-105011724D01*
X241526212Y-104948291D01*
X241713795Y-104915215D01*
X241815855Y-104945572D01*
X241871019Y-104984199D01*
X241934453Y-105069721D01*
X241942722Y-105116617D01*
X241912364Y-105218677D01*
X241873738Y-105273841D01*
X241788215Y-105337275D01*
X241600632Y-105370351D01*
X241515110Y-105433784D01*
X241476483Y-105488949D01*
X241446126Y-105591010D01*
X241479202Y-105778592D01*
X241542635Y-105864114D01*
X241597800Y-105902741D01*
X241699860Y-105933098D01*
X241887443Y-105900022D01*
X241972965Y-105836589D01*
X242011592Y-105781425D01*
X242041949Y-105679364D01*
X242008874Y-105491782D01*
X241945440Y-105406259D01*
X241890276Y-105367632D01*
X241788215Y-105337275D01*
X242051732Y-125723083D02*
X242167498Y-126379622D01*
X241751102Y-125389264D02*
X241640658Y-126134043D01*
X242250302Y-126026546D01*
X243199201Y-126197705D02*
X242636453Y-126296933D01*
X242917827Y-126247319D02*
X242744178Y-125262511D01*
X242675194Y-125419736D01*
X242597941Y-125530065D01*
X242512419Y-125593498D01*
X243927556Y-125392325D02*
X244043322Y-126048864D01*
X243626926Y-125058505D02*
X243516483Y-125803285D01*
X244126126Y-125695788D01*
X244600632Y-125370351D02*
X244498572Y-125339993D01*
X244443408Y-125301366D01*
X244379974Y-125215844D01*
X244371705Y-125168949D01*
X244402063Y-125066889D01*
X244440689Y-125011724D01*
X244526212Y-124948291D01*
X244713795Y-124915215D01*
X244815855Y-124945572D01*
X244871019Y-124984199D01*
X244934453Y-125069721D01*
X244942722Y-125116617D01*
X244912364Y-125218677D01*
X244873738Y-125273841D01*
X244788215Y-125337275D01*
X244600632Y-125370351D01*
X244515110Y-125433784D01*
X244476483Y-125488949D01*
X244446126Y-125591010D01*
X244479202Y-125778592D01*
X244542635Y-125864114D01*
X244597800Y-125902741D01*
X244699860Y-125933098D01*
X244887443Y-125900022D01*
X244972965Y-125836589D01*
X245011592Y-125781425D01*
X245041949Y-125679364D01*
X245008874Y-125491782D01*
X244945440Y-125406259D01*
X244890276Y-125367632D01*
X244788215Y-125337275D01*
X253051732Y-66723083D02*
X253167498Y-67379622D01*
X252751102Y-66389264D02*
X252640658Y-67134043D01*
X253250302Y-67026546D01*
X254199201Y-67197705D02*
X253636453Y-67296933D01*
X253917827Y-67247319D02*
X253744178Y-66262511D01*
X253675194Y-66419736D01*
X253597941Y-66530065D01*
X253512419Y-66593498D01*
X254927556Y-66392325D02*
X255043322Y-67048864D01*
X254626926Y-66058505D02*
X254516483Y-66803285D01*
X255126126Y-66695788D01*
X255600632Y-66370351D02*
X255498572Y-66339993D01*
X255443408Y-66301366D01*
X255379974Y-66215844D01*
X255371705Y-66168949D01*
X255402063Y-66066889D01*
X255440689Y-66011724D01*
X255526212Y-65948291D01*
X255713795Y-65915215D01*
X255815855Y-65945572D01*
X255871019Y-65984199D01*
X255934453Y-66069721D01*
X255942722Y-66116617D01*
X255912364Y-66218677D01*
X255873738Y-66273841D01*
X255788215Y-66337275D01*
X255600632Y-66370351D01*
X255515110Y-66433784D01*
X255476483Y-66488949D01*
X255446126Y-66591010D01*
X255479202Y-66778592D01*
X255542635Y-66864114D01*
X255597800Y-66902741D01*
X255699860Y-66933098D01*
X255887443Y-66900022D01*
X255972965Y-66836589D01*
X256011592Y-66781425D01*
X256041949Y-66679364D01*
X256008874Y-66491782D01*
X255945440Y-66406259D01*
X255890276Y-66367632D01*
X255788215Y-66337275D01*
X256051732Y-85723083D02*
X256167498Y-86379622D01*
X255751102Y-85389264D02*
X255640658Y-86134043D01*
X256250302Y-86026546D01*
X257199201Y-86197705D02*
X256636453Y-86296933D01*
X256917827Y-86247319D02*
X256744178Y-85262511D01*
X256675194Y-85419736D01*
X256597941Y-85530065D01*
X256512419Y-85593498D01*
X257927556Y-85392325D02*
X258043322Y-86048864D01*
X257626926Y-85058505D02*
X257516483Y-85803285D01*
X258126126Y-85695788D01*
X258600632Y-85370351D02*
X258498572Y-85339993D01*
X258443408Y-85301366D01*
X258379974Y-85215844D01*
X258371705Y-85168949D01*
X258402063Y-85066889D01*
X258440689Y-85011724D01*
X258526212Y-84948291D01*
X258713795Y-84915215D01*
X258815855Y-84945572D01*
X258871019Y-84984199D01*
X258934453Y-85069721D01*
X258942722Y-85116617D01*
X258912364Y-85218677D01*
X258873738Y-85273841D01*
X258788215Y-85337275D01*
X258600632Y-85370351D01*
X258515110Y-85433784D01*
X258476483Y-85488949D01*
X258446126Y-85591010D01*
X258479202Y-85778592D01*
X258542635Y-85864114D01*
X258597800Y-85902741D01*
X258699860Y-85933098D01*
X258887443Y-85900022D01*
X258972965Y-85836589D01*
X259011592Y-85781425D01*
X259041949Y-85679364D01*
X259008874Y-85491782D01*
X258945440Y-85406259D01*
X258890276Y-85367632D01*
X258788215Y-85337275D01*
X259051732Y-105723083D02*
X259167498Y-106379622D01*
X258751102Y-105389264D02*
X258640658Y-106134043D01*
X259250302Y-106026546D01*
X260199201Y-106197705D02*
X259636453Y-106296933D01*
X259917827Y-106247319D02*
X259744178Y-105262511D01*
X259675194Y-105419736D01*
X259597941Y-105530065D01*
X259512419Y-105593498D01*
X260927556Y-105392325D02*
X261043322Y-106048864D01*
X260626926Y-105058505D02*
X260516483Y-105803285D01*
X261126126Y-105695788D01*
X261600632Y-105370351D02*
X261498572Y-105339993D01*
X261443408Y-105301366D01*
X261379974Y-105215844D01*
X261371705Y-105168949D01*
X261402063Y-105066889D01*
X261440689Y-105011724D01*
X261526212Y-104948291D01*
X261713795Y-104915215D01*
X261815855Y-104945572D01*
X261871019Y-104984199D01*
X261934453Y-105069721D01*
X261942722Y-105116617D01*
X261912364Y-105218677D01*
X261873738Y-105273841D01*
X261788215Y-105337275D01*
X261600632Y-105370351D01*
X261515110Y-105433784D01*
X261476483Y-105488949D01*
X261446126Y-105591010D01*
X261479202Y-105778592D01*
X261542635Y-105864114D01*
X261597800Y-105902741D01*
X261699860Y-105933098D01*
X261887443Y-105900022D01*
X261972965Y-105836589D01*
X262011592Y-105781425D01*
X262041949Y-105679364D01*
X262008874Y-105491782D01*
X261945440Y-105406259D01*
X261890276Y-105367632D01*
X261788215Y-105337275D01*
X263051732Y-124723083D02*
X263167498Y-125379622D01*
X262751102Y-124389264D02*
X262640658Y-125134043D01*
X263250302Y-125026546D01*
X264199201Y-125197705D02*
X263636453Y-125296933D01*
X263917827Y-125247319D02*
X263744178Y-124262511D01*
X263675194Y-124419736D01*
X263597941Y-124530065D01*
X263512419Y-124593498D01*
X264927556Y-124392325D02*
X265043322Y-125048864D01*
X264626926Y-124058505D02*
X264516483Y-124803285D01*
X265126126Y-124695788D01*
X265600632Y-124370351D02*
X265498572Y-124339993D01*
X265443408Y-124301366D01*
X265379974Y-124215844D01*
X265371705Y-124168949D01*
X265402063Y-124066889D01*
X265440689Y-124011724D01*
X265526212Y-123948291D01*
X265713795Y-123915215D01*
X265815855Y-123945572D01*
X265871019Y-123984199D01*
X265934453Y-124069721D01*
X265942722Y-124116617D01*
X265912364Y-124218677D01*
X265873738Y-124273841D01*
X265788215Y-124337275D01*
X265600632Y-124370351D01*
X265515110Y-124433784D01*
X265476483Y-124488949D01*
X265446126Y-124591010D01*
X265479202Y-124778592D01*
X265542635Y-124864114D01*
X265597800Y-124902741D01*
X265699860Y-124933098D01*
X265887443Y-124900022D01*
X265972965Y-124836589D01*
X266011592Y-124781425D01*
X266041949Y-124679364D01*
X266008874Y-124491782D01*
X265945440Y-124406259D01*
X265890276Y-124367632D01*
X265788215Y-124337275D01*
X46237055Y-62997432D02*
X46181891Y-63036058D01*
X46032935Y-63058147D01*
X45939144Y-63041609D01*
X45806725Y-62969906D01*
X45729472Y-62859577D01*
X45699114Y-62757517D01*
X45685295Y-62561666D01*
X45710102Y-62420978D01*
X45790073Y-62241665D01*
X45853506Y-62156143D01*
X45963835Y-62078890D01*
X46112792Y-62056801D01*
X46206583Y-62073339D01*
X46339001Y-62145042D01*
X46377628Y-62200206D01*
X46642577Y-63165643D02*
X46816226Y-62180835D01*
X46733536Y-62649791D02*
X47296284Y-62749019D01*
X47205325Y-63264871D02*
X47378973Y-62280063D01*
X47765239Y-62831708D02*
X48093509Y-62889591D01*
X48143237Y-63430250D02*
X47674281Y-63347560D01*
X47847929Y-62362753D01*
X48316885Y-62445442D01*
X49128045Y-63603898D02*
X48882465Y-63077059D01*
X48565297Y-63504671D02*
X48738945Y-62519863D01*
X49114111Y-62586015D01*
X49199633Y-62649448D01*
X49238260Y-62704613D01*
X49268617Y-62806673D01*
X49243810Y-62947359D01*
X49180377Y-63032882D01*
X49125213Y-63071508D01*
X49023152Y-63101866D01*
X48647987Y-63035714D01*
X50112853Y-63777546D02*
X49867273Y-63250707D01*
X49550105Y-63678319D02*
X49723753Y-62693511D01*
X50098919Y-62759663D01*
X50184441Y-62823096D01*
X50223067Y-62878261D01*
X50253425Y-62980321D01*
X50228618Y-63121008D01*
X50165185Y-63206530D01*
X50110020Y-63245156D01*
X50007960Y-63275514D01*
X49632795Y-63209362D01*
X50805185Y-63416086D02*
X50722495Y-63885043D01*
X50567874Y-62842352D02*
X50805185Y-63416086D01*
X51224413Y-62958118D01*
X51128018Y-64053255D02*
X51878348Y-64185558D01*
X52129364Y-64133112D02*
X52303012Y-63148304D01*
X52507247Y-63909621D01*
X52959551Y-63264069D01*
X52785903Y-64248877D01*
X53723815Y-64414256D02*
X53254858Y-64331567D01*
X53428506Y-63346759D01*
X42764092Y-82693587D02*
X42708928Y-82732213D01*
X42559972Y-82754302D01*
X42466181Y-82737764D01*
X42333762Y-82666061D01*
X42256509Y-82555732D01*
X42226151Y-82453672D01*
X42212332Y-82257821D01*
X42237139Y-82117133D01*
X42317110Y-81937820D01*
X42380543Y-81852298D01*
X42490872Y-81775045D01*
X42639829Y-81752956D01*
X42733620Y-81769494D01*
X42866038Y-81841197D01*
X42904665Y-81896361D01*
X43169614Y-82861798D02*
X43343263Y-81876990D01*
X43260573Y-82345946D02*
X43823321Y-82445174D01*
X43732362Y-82961026D02*
X43906010Y-81976218D01*
X44292276Y-82527863D02*
X44620546Y-82585746D01*
X44670274Y-83126405D02*
X44201318Y-83043715D01*
X44374966Y-82058908D01*
X44843922Y-82141597D01*
X45655082Y-83300053D02*
X45409502Y-82773214D01*
X45092334Y-83200826D02*
X45265982Y-82216018D01*
X45641148Y-82282170D01*
X45726670Y-82345603D01*
X45765297Y-82400768D01*
X45795654Y-82502828D01*
X45770847Y-82643514D01*
X45707414Y-82729037D01*
X45652250Y-82767663D01*
X45550189Y-82798021D01*
X45175024Y-82731869D01*
X46639890Y-83473701D02*
X46394310Y-82946862D01*
X46077142Y-83374474D02*
X46250790Y-82389666D01*
X46625956Y-82455818D01*
X46711478Y-82519251D01*
X46750104Y-82574416D01*
X46780462Y-82676476D01*
X46755655Y-82817163D01*
X46692222Y-82902685D01*
X46637057Y-82941311D01*
X46534997Y-82971669D01*
X46159832Y-82905517D01*
X47332222Y-83112241D02*
X47249532Y-83581198D01*
X47094911Y-82538507D02*
X47332222Y-83112241D01*
X47751450Y-82654273D01*
X47655055Y-83749410D02*
X48405385Y-83881713D01*
X48656401Y-83829267D02*
X48830049Y-82844459D01*
X49034284Y-83605776D01*
X49486588Y-82960224D01*
X49312940Y-83945032D01*
X50250852Y-84110411D02*
X49781895Y-84027722D01*
X49955543Y-83042914D01*
X39291128Y-102389742D02*
X39235964Y-102428368D01*
X39087008Y-102450457D01*
X38993217Y-102433919D01*
X38860798Y-102362216D01*
X38783545Y-102251887D01*
X38753187Y-102149827D01*
X38739368Y-101953976D01*
X38764175Y-101813288D01*
X38844146Y-101633975D01*
X38907579Y-101548453D01*
X39017908Y-101471200D01*
X39166865Y-101449111D01*
X39260656Y-101465649D01*
X39393074Y-101537352D01*
X39431701Y-101592516D01*
X39696650Y-102557953D02*
X39870299Y-101573145D01*
X39787609Y-102042101D02*
X40350357Y-102141329D01*
X40259398Y-102657181D02*
X40433046Y-101672373D01*
X40819312Y-102224018D02*
X41147582Y-102281901D01*
X41197310Y-102822560D02*
X40728354Y-102739870D01*
X40902002Y-101755063D01*
X41370958Y-101837752D01*
X42182118Y-102996208D02*
X41936538Y-102469369D01*
X41619370Y-102896981D02*
X41793018Y-101912173D01*
X42168184Y-101978325D01*
X42253706Y-102041758D01*
X42292333Y-102096923D01*
X42322690Y-102198983D01*
X42297883Y-102339669D01*
X42234450Y-102425192D01*
X42179286Y-102463818D01*
X42077225Y-102494176D01*
X41702060Y-102428024D01*
X43166926Y-103169856D02*
X42921346Y-102643017D01*
X42604178Y-103070629D02*
X42777826Y-102085821D01*
X43152992Y-102151973D01*
X43238514Y-102215406D01*
X43277140Y-102270571D01*
X43307498Y-102372631D01*
X43282691Y-102513318D01*
X43219258Y-102598840D01*
X43164093Y-102637466D01*
X43062033Y-102667824D01*
X42686868Y-102601672D01*
X43859258Y-102808396D02*
X43776568Y-103277353D01*
X43621947Y-102234662D02*
X43859258Y-102808396D01*
X44278486Y-102350428D01*
X44182091Y-103445565D02*
X44932421Y-103577868D01*
X45183437Y-103525422D02*
X45357085Y-102540614D01*
X45561320Y-103301931D01*
X46013624Y-102656379D01*
X45839976Y-103641187D01*
X46777888Y-103806566D02*
X46308931Y-103723877D01*
X46482579Y-102739069D01*
X33818165Y-122038333D02*
X33763001Y-122076959D01*
X33614045Y-122099048D01*
X33520254Y-122082510D01*
X33387835Y-122010807D01*
X33310582Y-121900478D01*
X33280224Y-121798418D01*
X33266405Y-121602567D01*
X33291212Y-121461879D01*
X33371183Y-121282566D01*
X33434616Y-121197044D01*
X33544945Y-121119791D01*
X33693902Y-121097702D01*
X33787693Y-121114240D01*
X33920111Y-121185943D01*
X33958738Y-121241107D01*
X34223687Y-122206544D02*
X34397336Y-121221736D01*
X34314646Y-121690692D02*
X34877394Y-121789920D01*
X34786435Y-122305772D02*
X34960083Y-121320964D01*
X35346349Y-121872609D02*
X35674619Y-121930492D01*
X35724347Y-122471151D02*
X35255391Y-122388461D01*
X35429039Y-121403654D01*
X35897995Y-121486343D01*
X36709155Y-122644799D02*
X36463575Y-122117960D01*
X36146407Y-122545572D02*
X36320055Y-121560764D01*
X36695221Y-121626916D01*
X36780743Y-121690349D01*
X36819370Y-121745514D01*
X36849727Y-121847574D01*
X36824920Y-121988260D01*
X36761487Y-122073783D01*
X36706323Y-122112409D01*
X36604262Y-122142767D01*
X36229097Y-122076615D01*
X37693963Y-122818447D02*
X37448383Y-122291608D01*
X37131215Y-122719220D02*
X37304863Y-121734412D01*
X37680029Y-121800564D01*
X37765551Y-121863997D01*
X37804177Y-121919162D01*
X37834535Y-122021222D01*
X37809728Y-122161909D01*
X37746295Y-122247431D01*
X37691130Y-122286057D01*
X37589070Y-122316415D01*
X37213905Y-122250263D01*
X38386295Y-122456987D02*
X38303605Y-122925944D01*
X38148984Y-121883253D02*
X38386295Y-122456987D01*
X38805523Y-121999019D01*
X38709128Y-123094156D02*
X39459458Y-123226459D01*
X39710474Y-123174013D02*
X39884122Y-122189205D01*
X40088357Y-122950522D01*
X40540661Y-122304970D01*
X40367013Y-123289778D01*
X41304925Y-123455157D02*
X40835968Y-123372468D01*
X41009616Y-122387660D01*
X66454155Y-63515972D02*
X66398991Y-63554598D01*
X66250035Y-63576687D01*
X66156244Y-63560149D01*
X66023825Y-63488446D01*
X65946572Y-63378117D01*
X65916214Y-63276057D01*
X65902395Y-63080206D01*
X65927202Y-62939518D01*
X66007173Y-62760205D01*
X66070606Y-62674683D01*
X66180935Y-62597430D01*
X66329892Y-62575341D01*
X66423683Y-62591879D01*
X66556101Y-62663582D01*
X66594728Y-62718746D01*
X66859677Y-63684183D02*
X67033326Y-62699375D01*
X66950636Y-63168331D02*
X67513384Y-63267559D01*
X67422425Y-63783411D02*
X67596073Y-62798603D01*
X67982339Y-63350248D02*
X68310609Y-63408131D01*
X68360337Y-63948790D02*
X67891381Y-63866100D01*
X68065029Y-62881293D01*
X68533985Y-62963982D01*
X69345145Y-64122438D02*
X69099565Y-63595599D01*
X68782397Y-64023211D02*
X68956045Y-63038403D01*
X69331211Y-63104555D01*
X69416733Y-63167988D01*
X69455360Y-63223153D01*
X69485717Y-63325213D01*
X69460910Y-63465899D01*
X69397477Y-63551422D01*
X69342313Y-63590048D01*
X69240252Y-63620406D01*
X68865087Y-63554254D01*
X70329953Y-64296086D02*
X70084373Y-63769247D01*
X69767205Y-64196859D02*
X69940853Y-63212051D01*
X70316019Y-63278203D01*
X70401541Y-63341636D01*
X70440167Y-63396801D01*
X70470525Y-63498861D01*
X70445718Y-63639548D01*
X70382285Y-63725070D01*
X70327120Y-63763696D01*
X70225060Y-63794054D01*
X69849895Y-63727902D01*
X71022285Y-63934626D02*
X70939595Y-64403583D01*
X70784974Y-63360892D02*
X71022285Y-63934626D01*
X71441513Y-63476658D01*
X71345118Y-64571795D02*
X72095448Y-64704098D01*
X72346464Y-64651652D02*
X72520112Y-63666844D01*
X72724347Y-64428161D01*
X73176651Y-63782609D01*
X73003003Y-64767417D01*
X73940915Y-64932796D02*
X73471958Y-64850107D01*
X73645606Y-63865299D01*
X62981191Y-83212127D02*
X62926027Y-83250753D01*
X62777071Y-83272842D01*
X62683280Y-83256304D01*
X62550861Y-83184601D01*
X62473608Y-83074272D01*
X62443250Y-82972212D01*
X62429431Y-82776361D01*
X62454238Y-82635673D01*
X62534209Y-82456360D01*
X62597642Y-82370838D01*
X62707971Y-82293585D01*
X62856928Y-82271496D01*
X62950719Y-82288034D01*
X63083137Y-82359737D01*
X63121764Y-82414901D01*
X63386713Y-83380338D02*
X63560362Y-82395530D01*
X63477672Y-82864486D02*
X64040420Y-82963714D01*
X63949461Y-83479566D02*
X64123109Y-82494758D01*
X64509375Y-83046403D02*
X64837645Y-83104286D01*
X64887373Y-83644945D02*
X64418417Y-83562255D01*
X64592065Y-82577448D01*
X65061021Y-82660137D01*
X65872181Y-83818593D02*
X65626601Y-83291754D01*
X65309433Y-83719366D02*
X65483081Y-82734558D01*
X65858247Y-82800710D01*
X65943769Y-82864143D01*
X65982396Y-82919308D01*
X66012753Y-83021368D01*
X65987946Y-83162054D01*
X65924513Y-83247577D01*
X65869349Y-83286203D01*
X65767288Y-83316561D01*
X65392123Y-83250409D01*
X66856989Y-83992241D02*
X66611409Y-83465402D01*
X66294241Y-83893014D02*
X66467889Y-82908206D01*
X66843055Y-82974358D01*
X66928577Y-83037791D01*
X66967203Y-83092956D01*
X66997561Y-83195016D01*
X66972754Y-83335703D01*
X66909321Y-83421225D01*
X66854156Y-83459851D01*
X66752096Y-83490209D01*
X66376931Y-83424057D01*
X67549321Y-83630781D02*
X67466631Y-84099738D01*
X67312010Y-83057047D02*
X67549321Y-83630781D01*
X67968549Y-83172813D01*
X67872154Y-84267950D02*
X68622484Y-84400253D01*
X68873500Y-84347807D02*
X69047148Y-83362999D01*
X69251383Y-84124316D01*
X69703687Y-83478764D01*
X69530039Y-84463572D01*
X70467951Y-84628951D02*
X69998994Y-84546262D01*
X70172642Y-83561454D01*
X59508228Y-102908282D02*
X59453064Y-102946908D01*
X59304108Y-102968997D01*
X59210317Y-102952459D01*
X59077898Y-102880756D01*
X59000645Y-102770427D01*
X58970287Y-102668367D01*
X58956468Y-102472516D01*
X58981275Y-102331828D01*
X59061246Y-102152515D01*
X59124679Y-102066993D01*
X59235008Y-101989740D01*
X59383965Y-101967651D01*
X59477756Y-101984189D01*
X59610174Y-102055892D01*
X59648801Y-102111056D01*
X59913750Y-103076493D02*
X60087399Y-102091685D01*
X60004709Y-102560641D02*
X60567457Y-102659869D01*
X60476498Y-103175721D02*
X60650146Y-102190913D01*
X61036412Y-102742558D02*
X61364682Y-102800441D01*
X61414410Y-103341100D02*
X60945454Y-103258410D01*
X61119102Y-102273603D01*
X61588058Y-102356292D01*
X62399218Y-103514748D02*
X62153638Y-102987909D01*
X61836470Y-103415521D02*
X62010118Y-102430713D01*
X62385284Y-102496865D01*
X62470806Y-102560298D01*
X62509433Y-102615463D01*
X62539790Y-102717523D01*
X62514983Y-102858209D01*
X62451550Y-102943732D01*
X62396386Y-102982358D01*
X62294325Y-103012716D01*
X61919160Y-102946564D01*
X63384026Y-103688396D02*
X63138446Y-103161557D01*
X62821278Y-103589169D02*
X62994926Y-102604361D01*
X63370092Y-102670513D01*
X63455614Y-102733946D01*
X63494240Y-102789111D01*
X63524598Y-102891171D01*
X63499791Y-103031858D01*
X63436358Y-103117380D01*
X63381193Y-103156006D01*
X63279133Y-103186364D01*
X62903968Y-103120212D01*
X64076358Y-103326936D02*
X63993668Y-103795893D01*
X63839047Y-102753202D02*
X64076358Y-103326936D01*
X64495586Y-102868968D01*
X64399191Y-103964105D02*
X65149521Y-104096408D01*
X65400537Y-104043962D02*
X65574185Y-103059154D01*
X65778420Y-103820471D01*
X66230724Y-103174919D01*
X66057076Y-104159727D01*
X66994988Y-104325106D02*
X66526031Y-104242417D01*
X66699679Y-103257609D01*
X56035264Y-122604438D02*
X55980100Y-122643064D01*
X55831144Y-122665153D01*
X55737353Y-122648615D01*
X55604934Y-122576912D01*
X55527681Y-122466583D01*
X55497323Y-122364523D01*
X55483504Y-122168672D01*
X55508311Y-122027984D01*
X55588282Y-121848671D01*
X55651715Y-121763149D01*
X55762044Y-121685896D01*
X55911001Y-121663807D01*
X56004792Y-121680345D01*
X56137210Y-121752048D01*
X56175837Y-121807212D01*
X56440786Y-122772649D02*
X56614435Y-121787841D01*
X56531745Y-122256797D02*
X57094493Y-122356025D01*
X57003534Y-122871877D02*
X57177182Y-121887069D01*
X57563448Y-122438714D02*
X57891718Y-122496597D01*
X57941446Y-123037256D02*
X57472490Y-122954566D01*
X57646138Y-121969759D01*
X58115094Y-122052448D01*
X58926254Y-123210904D02*
X58680674Y-122684065D01*
X58363506Y-123111677D02*
X58537154Y-122126869D01*
X58912320Y-122193021D01*
X58997842Y-122256454D01*
X59036469Y-122311619D01*
X59066826Y-122413679D01*
X59042019Y-122554365D01*
X58978586Y-122639888D01*
X58923422Y-122678514D01*
X58821361Y-122708872D01*
X58446196Y-122642720D01*
X59911062Y-123384552D02*
X59665482Y-122857713D01*
X59348314Y-123285325D02*
X59521962Y-122300517D01*
X59897128Y-122366669D01*
X59982650Y-122430102D01*
X60021276Y-122485267D01*
X60051634Y-122587327D01*
X60026827Y-122728014D01*
X59963394Y-122813536D01*
X59908229Y-122852162D01*
X59806169Y-122882520D01*
X59431004Y-122816368D01*
X60603394Y-123023092D02*
X60520704Y-123492049D01*
X60366083Y-122449358D02*
X60603394Y-123023092D01*
X61022622Y-122565124D01*
X60926227Y-123660261D02*
X61676557Y-123792564D01*
X61927573Y-123740118D02*
X62101221Y-122755310D01*
X62305456Y-123516627D01*
X62757760Y-122871075D01*
X62584112Y-123855883D01*
X63522024Y-124021262D02*
X63053067Y-123938573D01*
X63226715Y-122953765D01*
X87018551Y-62064897D02*
X86963387Y-62103523D01*
X86814431Y-62125612D01*
X86720640Y-62109074D01*
X86588221Y-62037371D01*
X86510968Y-61927042D01*
X86480610Y-61824982D01*
X86466791Y-61629131D01*
X86491598Y-61488443D01*
X86571569Y-61309130D01*
X86635002Y-61223608D01*
X86745331Y-61146355D01*
X86894288Y-61124266D01*
X86988079Y-61140804D01*
X87120497Y-61212507D01*
X87159124Y-61267671D01*
X87424073Y-62233108D02*
X87597722Y-61248300D01*
X87515032Y-61717256D02*
X88077780Y-61816484D01*
X87986821Y-62332336D02*
X88160469Y-61347528D01*
X88546735Y-61899173D02*
X88875005Y-61957056D01*
X88924733Y-62497715D02*
X88455777Y-62415025D01*
X88629425Y-61430218D01*
X89098381Y-61512907D01*
X89909541Y-62671363D02*
X89663961Y-62144524D01*
X89346793Y-62572136D02*
X89520441Y-61587328D01*
X89895607Y-61653480D01*
X89981129Y-61716913D01*
X90019756Y-61772078D01*
X90050113Y-61874138D01*
X90025306Y-62014824D01*
X89961873Y-62100347D01*
X89906709Y-62138973D01*
X89804648Y-62169331D01*
X89429483Y-62103179D01*
X90894349Y-62845011D02*
X90648769Y-62318172D01*
X90331601Y-62745784D02*
X90505249Y-61760976D01*
X90880415Y-61827128D01*
X90965937Y-61890561D01*
X91004563Y-61945726D01*
X91034921Y-62047786D01*
X91010114Y-62188473D01*
X90946681Y-62273995D01*
X90891516Y-62312621D01*
X90789456Y-62342979D01*
X90414291Y-62276827D01*
X91586681Y-62483551D02*
X91503991Y-62952508D01*
X91349370Y-61909817D02*
X91586681Y-62483551D01*
X92005909Y-62025583D01*
X91909514Y-63120720D02*
X92659844Y-63253023D01*
X92910860Y-63200577D02*
X93084508Y-62215769D01*
X93288743Y-62977086D01*
X93741047Y-62331534D01*
X93567399Y-63316342D01*
X94505311Y-63481721D02*
X94036354Y-63399032D01*
X94210002Y-62414224D01*
X83545587Y-81761052D02*
X83490423Y-81799678D01*
X83341467Y-81821767D01*
X83247676Y-81805229D01*
X83115257Y-81733526D01*
X83038004Y-81623197D01*
X83007646Y-81521137D01*
X82993827Y-81325286D01*
X83018634Y-81184598D01*
X83098605Y-81005285D01*
X83162038Y-80919763D01*
X83272367Y-80842510D01*
X83421324Y-80820421D01*
X83515115Y-80836959D01*
X83647533Y-80908662D01*
X83686160Y-80963826D01*
X83951109Y-81929263D02*
X84124758Y-80944455D01*
X84042068Y-81413411D02*
X84604816Y-81512639D01*
X84513857Y-82028491D02*
X84687505Y-81043683D01*
X85073771Y-81595328D02*
X85402041Y-81653211D01*
X85451769Y-82193870D02*
X84982813Y-82111180D01*
X85156461Y-81126373D01*
X85625417Y-81209062D01*
X86436577Y-82367518D02*
X86190997Y-81840679D01*
X85873829Y-82268291D02*
X86047477Y-81283483D01*
X86422643Y-81349635D01*
X86508165Y-81413068D01*
X86546792Y-81468233D01*
X86577149Y-81570293D01*
X86552342Y-81710979D01*
X86488909Y-81796502D01*
X86433745Y-81835128D01*
X86331684Y-81865486D01*
X85956519Y-81799334D01*
X87421385Y-82541166D02*
X87175805Y-82014327D01*
X86858637Y-82441939D02*
X87032285Y-81457131D01*
X87407451Y-81523283D01*
X87492973Y-81586716D01*
X87531599Y-81641881D01*
X87561957Y-81743941D01*
X87537150Y-81884628D01*
X87473717Y-81970150D01*
X87418552Y-82008776D01*
X87316492Y-82039134D01*
X86941327Y-81972982D01*
X88113717Y-82179706D02*
X88031027Y-82648663D01*
X87876406Y-81605972D02*
X88113717Y-82179706D01*
X88532945Y-81721738D01*
X88436550Y-82816875D02*
X89186880Y-82949178D01*
X89437896Y-82896732D02*
X89611544Y-81911924D01*
X89815779Y-82673241D01*
X90268083Y-82027689D01*
X90094435Y-83012497D01*
X91032347Y-83177876D02*
X90563390Y-83095187D01*
X90737038Y-82110379D01*
X80072624Y-101457207D02*
X80017460Y-101495833D01*
X79868504Y-101517922D01*
X79774713Y-101501384D01*
X79642294Y-101429681D01*
X79565041Y-101319352D01*
X79534683Y-101217292D01*
X79520864Y-101021441D01*
X79545671Y-100880753D01*
X79625642Y-100701440D01*
X79689075Y-100615918D01*
X79799404Y-100538665D01*
X79948361Y-100516576D01*
X80042152Y-100533114D01*
X80174570Y-100604817D01*
X80213197Y-100659981D01*
X80478146Y-101625418D02*
X80651795Y-100640610D01*
X80569105Y-101109566D02*
X81131853Y-101208794D01*
X81040894Y-101724646D02*
X81214542Y-100739838D01*
X81600808Y-101291483D02*
X81929078Y-101349366D01*
X81978806Y-101890025D02*
X81509850Y-101807335D01*
X81683498Y-100822528D01*
X82152454Y-100905217D01*
X82963614Y-102063673D02*
X82718034Y-101536834D01*
X82400866Y-101964446D02*
X82574514Y-100979638D01*
X82949680Y-101045790D01*
X83035202Y-101109223D01*
X83073829Y-101164388D01*
X83104186Y-101266448D01*
X83079379Y-101407134D01*
X83015946Y-101492657D01*
X82960782Y-101531283D01*
X82858721Y-101561641D01*
X82483556Y-101495489D01*
X83948422Y-102237321D02*
X83702842Y-101710482D01*
X83385674Y-102138094D02*
X83559322Y-101153286D01*
X83934488Y-101219438D01*
X84020010Y-101282871D01*
X84058636Y-101338036D01*
X84088994Y-101440096D01*
X84064187Y-101580783D01*
X84000754Y-101666305D01*
X83945589Y-101704931D01*
X83843529Y-101735289D01*
X83468364Y-101669137D01*
X84640754Y-101875861D02*
X84558064Y-102344818D01*
X84403443Y-101302127D02*
X84640754Y-101875861D01*
X85059982Y-101417893D01*
X84963587Y-102513030D02*
X85713917Y-102645333D01*
X85964933Y-102592887D02*
X86138581Y-101608079D01*
X86342816Y-102369396D01*
X86795120Y-101723844D01*
X86621472Y-102708652D01*
X87559384Y-102874031D02*
X87090427Y-102791342D01*
X87264075Y-101806534D01*
X76599660Y-121153362D02*
X76544496Y-121191988D01*
X76395540Y-121214077D01*
X76301749Y-121197539D01*
X76169330Y-121125836D01*
X76092077Y-121015507D01*
X76061719Y-120913447D01*
X76047900Y-120717596D01*
X76072707Y-120576908D01*
X76152678Y-120397595D01*
X76216111Y-120312073D01*
X76326440Y-120234820D01*
X76475397Y-120212731D01*
X76569188Y-120229269D01*
X76701606Y-120300972D01*
X76740233Y-120356136D01*
X77005182Y-121321573D02*
X77178831Y-120336765D01*
X77096141Y-120805721D02*
X77658889Y-120904949D01*
X77567930Y-121420801D02*
X77741578Y-120435993D01*
X78127844Y-120987638D02*
X78456114Y-121045521D01*
X78505842Y-121586180D02*
X78036886Y-121503490D01*
X78210534Y-120518683D01*
X78679490Y-120601372D01*
X79490650Y-121759828D02*
X79245070Y-121232989D01*
X78927902Y-121660601D02*
X79101550Y-120675793D01*
X79476716Y-120741945D01*
X79562238Y-120805378D01*
X79600865Y-120860543D01*
X79631222Y-120962603D01*
X79606415Y-121103289D01*
X79542982Y-121188812D01*
X79487818Y-121227438D01*
X79385757Y-121257796D01*
X79010592Y-121191644D01*
X80475458Y-121933476D02*
X80229878Y-121406637D01*
X79912710Y-121834249D02*
X80086358Y-120849441D01*
X80461524Y-120915593D01*
X80547046Y-120979026D01*
X80585672Y-121034191D01*
X80616030Y-121136251D01*
X80591223Y-121276938D01*
X80527790Y-121362460D01*
X80472625Y-121401086D01*
X80370565Y-121431444D01*
X79995400Y-121365292D01*
X81167790Y-121572016D02*
X81085100Y-122040973D01*
X80930479Y-120998282D02*
X81167790Y-121572016D01*
X81587018Y-121114048D01*
X81490623Y-122209185D02*
X82240953Y-122341488D01*
X82491969Y-122289042D02*
X82665617Y-121304234D01*
X82869852Y-122065551D01*
X83322156Y-121419999D01*
X83148508Y-122404807D01*
X84086420Y-122570186D02*
X83617463Y-122487497D01*
X83791111Y-121502689D01*
X105672817Y-71446707D02*
X105617653Y-71485333D01*
X105468697Y-71507422D01*
X105374906Y-71490884D01*
X105242487Y-71419181D01*
X105165234Y-71308852D01*
X105134876Y-71206792D01*
X105121057Y-71010941D01*
X105145864Y-70870253D01*
X105225835Y-70690940D01*
X105289268Y-70605418D01*
X105399597Y-70528165D01*
X105548554Y-70506076D01*
X105642345Y-70522614D01*
X105774763Y-70594317D01*
X105813390Y-70649481D01*
X106078339Y-71614918D02*
X106251988Y-70630110D01*
X106169298Y-71099066D02*
X106732046Y-71198294D01*
X106641087Y-71714146D02*
X106814735Y-70729338D01*
X107201001Y-71280983D02*
X107529271Y-71338866D01*
X107578999Y-71879525D02*
X107110043Y-71796835D01*
X107283691Y-70812028D01*
X107752647Y-70894717D01*
X108563807Y-72053173D02*
X108318227Y-71526334D01*
X108001059Y-71953946D02*
X108174707Y-70969138D01*
X108549873Y-71035290D01*
X108635395Y-71098723D01*
X108674022Y-71153888D01*
X108704379Y-71255948D01*
X108679572Y-71396634D01*
X108616139Y-71482157D01*
X108560975Y-71520783D01*
X108458914Y-71551141D01*
X108083749Y-71484989D01*
X109548615Y-72226821D02*
X109303035Y-71699982D01*
X108985867Y-72127594D02*
X109159515Y-71142786D01*
X109534681Y-71208938D01*
X109620203Y-71272371D01*
X109658829Y-71327536D01*
X109689187Y-71429596D01*
X109664380Y-71570283D01*
X109600947Y-71655805D01*
X109545782Y-71694431D01*
X109443722Y-71724789D01*
X109068557Y-71658637D01*
X110240947Y-71865361D02*
X110158257Y-72334318D01*
X110003636Y-71291627D02*
X110240947Y-71865361D01*
X110660175Y-71407393D01*
X110563780Y-72502530D02*
X111314110Y-72634833D01*
X111565126Y-72582387D02*
X111738774Y-71597579D01*
X111943009Y-72358896D01*
X112395313Y-71713344D01*
X112221665Y-72698152D01*
X113159577Y-72863531D02*
X112690620Y-72780842D01*
X112864268Y-71796034D01*
X102199853Y-91142862D02*
X102144689Y-91181488D01*
X101995733Y-91203577D01*
X101901942Y-91187039D01*
X101769523Y-91115336D01*
X101692270Y-91005007D01*
X101661912Y-90902947D01*
X101648093Y-90707096D01*
X101672900Y-90566408D01*
X101752871Y-90387095D01*
X101816304Y-90301573D01*
X101926633Y-90224320D01*
X102075590Y-90202231D01*
X102169381Y-90218769D01*
X102301799Y-90290472D01*
X102340426Y-90345636D01*
X102605375Y-91311073D02*
X102779024Y-90326265D01*
X102696334Y-90795221D02*
X103259082Y-90894449D01*
X103168123Y-91410301D02*
X103341771Y-90425493D01*
X103728037Y-90977138D02*
X104056307Y-91035021D01*
X104106035Y-91575680D02*
X103637079Y-91492990D01*
X103810727Y-90508183D01*
X104279683Y-90590872D01*
X105090843Y-91749328D02*
X104845263Y-91222489D01*
X104528095Y-91650101D02*
X104701743Y-90665293D01*
X105076909Y-90731445D01*
X105162431Y-90794878D01*
X105201058Y-90850043D01*
X105231415Y-90952103D01*
X105206608Y-91092789D01*
X105143175Y-91178312D01*
X105088011Y-91216938D01*
X104985950Y-91247296D01*
X104610785Y-91181144D01*
X106075651Y-91922976D02*
X105830071Y-91396137D01*
X105512903Y-91823749D02*
X105686551Y-90838941D01*
X106061717Y-90905093D01*
X106147239Y-90968526D01*
X106185865Y-91023691D01*
X106216223Y-91125751D01*
X106191416Y-91266438D01*
X106127983Y-91351960D01*
X106072818Y-91390586D01*
X105970758Y-91420944D01*
X105595593Y-91354792D01*
X106767983Y-91561516D02*
X106685293Y-92030473D01*
X106530672Y-90987782D02*
X106767983Y-91561516D01*
X107187211Y-91103548D01*
X107090816Y-92198685D02*
X107841146Y-92330988D01*
X108092162Y-92278542D02*
X108265810Y-91293734D01*
X108470045Y-92055051D01*
X108922349Y-91409499D01*
X108748701Y-92394307D01*
X109686613Y-92559686D02*
X109217656Y-92476997D01*
X109391304Y-91492189D01*
X98726890Y-110839017D02*
X98671726Y-110877643D01*
X98522770Y-110899732D01*
X98428979Y-110883194D01*
X98296560Y-110811491D01*
X98219307Y-110701162D01*
X98188949Y-110599102D01*
X98175130Y-110403251D01*
X98199937Y-110262563D01*
X98279908Y-110083250D01*
X98343341Y-109997728D01*
X98453670Y-109920475D01*
X98602627Y-109898386D01*
X98696418Y-109914924D01*
X98828836Y-109986627D01*
X98867463Y-110041791D01*
X99132412Y-111007228D02*
X99306061Y-110022420D01*
X99223371Y-110491376D02*
X99786119Y-110590604D01*
X99695160Y-111106456D02*
X99868808Y-110121648D01*
X100255074Y-110673293D02*
X100583344Y-110731176D01*
X100633072Y-111271835D02*
X100164116Y-111189145D01*
X100337764Y-110204338D01*
X100806720Y-110287027D01*
X101617880Y-111445483D02*
X101372300Y-110918644D01*
X101055132Y-111346256D02*
X101228780Y-110361448D01*
X101603946Y-110427600D01*
X101689468Y-110491033D01*
X101728095Y-110546198D01*
X101758452Y-110648258D01*
X101733645Y-110788944D01*
X101670212Y-110874467D01*
X101615048Y-110913093D01*
X101512987Y-110943451D01*
X101137822Y-110877299D01*
X102602688Y-111619131D02*
X102357108Y-111092292D01*
X102039940Y-111519904D02*
X102213588Y-110535096D01*
X102588754Y-110601248D01*
X102674276Y-110664681D01*
X102712902Y-110719846D01*
X102743260Y-110821906D01*
X102718453Y-110962593D01*
X102655020Y-111048115D01*
X102599855Y-111086741D01*
X102497795Y-111117099D01*
X102122630Y-111050947D01*
X103295020Y-111257671D02*
X103212330Y-111726628D01*
X103057709Y-110683937D02*
X103295020Y-111257671D01*
X103714248Y-110799703D01*
X103617853Y-111894840D02*
X104368183Y-112027143D01*
X104619199Y-111974697D02*
X104792847Y-110989889D01*
X104997082Y-111751206D01*
X105449386Y-111105654D01*
X105275738Y-112090462D01*
X106213650Y-112255841D02*
X105744693Y-112173152D01*
X105918341Y-111188344D01*
X95253926Y-130535172D02*
X95198762Y-130573798D01*
X95049806Y-130595887D01*
X94956015Y-130579349D01*
X94823596Y-130507646D01*
X94746343Y-130397317D01*
X94715985Y-130295257D01*
X94702166Y-130099406D01*
X94726973Y-129958718D01*
X94806944Y-129779405D01*
X94870377Y-129693883D01*
X94980706Y-129616630D01*
X95129663Y-129594541D01*
X95223454Y-129611079D01*
X95355872Y-129682782D01*
X95394499Y-129737946D01*
X95659448Y-130703383D02*
X95833097Y-129718575D01*
X95750407Y-130187531D02*
X96313155Y-130286759D01*
X96222196Y-130802611D02*
X96395844Y-129817803D01*
X96782110Y-130369448D02*
X97110380Y-130427331D01*
X97160108Y-130967990D02*
X96691152Y-130885300D01*
X96864800Y-129900493D01*
X97333756Y-129983182D01*
X98144916Y-131141638D02*
X97899336Y-130614799D01*
X97582168Y-131042411D02*
X97755816Y-130057603D01*
X98130982Y-130123755D01*
X98216504Y-130187188D01*
X98255131Y-130242353D01*
X98285488Y-130344413D01*
X98260681Y-130485099D01*
X98197248Y-130570622D01*
X98142084Y-130609248D01*
X98040023Y-130639606D01*
X97664858Y-130573454D01*
X99129724Y-131315286D02*
X98884144Y-130788447D01*
X98566976Y-131216059D02*
X98740624Y-130231251D01*
X99115790Y-130297403D01*
X99201312Y-130360836D01*
X99239938Y-130416001D01*
X99270296Y-130518061D01*
X99245489Y-130658748D01*
X99182056Y-130744270D01*
X99126891Y-130782896D01*
X99024831Y-130813254D01*
X98649666Y-130747102D01*
X99822056Y-130953826D02*
X99739366Y-131422783D01*
X99584745Y-130380092D02*
X99822056Y-130953826D01*
X100241284Y-130495858D01*
X100144889Y-131590995D02*
X100895219Y-131723298D01*
X101146235Y-131670852D02*
X101319883Y-130686044D01*
X101524118Y-131447361D01*
X101976422Y-130801809D01*
X101802774Y-131786617D01*
X102740686Y-131951996D02*
X102271729Y-131869307D01*
X102445377Y-130884499D01*
X124500731Y-79843710D02*
X124445567Y-79882336D01*
X124296611Y-79904425D01*
X124202820Y-79887887D01*
X124070401Y-79816184D01*
X123993148Y-79705855D01*
X123962790Y-79603795D01*
X123948971Y-79407944D01*
X123973778Y-79267256D01*
X124053749Y-79087943D01*
X124117182Y-79002421D01*
X124227511Y-78925168D01*
X124376468Y-78903079D01*
X124470259Y-78919617D01*
X124602677Y-78991320D01*
X124641304Y-79046484D01*
X124906253Y-80011921D02*
X125079902Y-79027113D01*
X124997212Y-79496069D02*
X125559960Y-79595297D01*
X125469001Y-80111149D02*
X125642649Y-79126341D01*
X126028915Y-79677986D02*
X126357185Y-79735869D01*
X126406913Y-80276528D02*
X125937957Y-80193838D01*
X126111605Y-79209031D01*
X126580561Y-79291720D01*
X127391721Y-80450176D02*
X127146141Y-79923337D01*
X126828973Y-80350949D02*
X127002621Y-79366141D01*
X127377787Y-79432293D01*
X127463309Y-79495726D01*
X127501936Y-79550891D01*
X127532293Y-79652951D01*
X127507486Y-79793637D01*
X127444053Y-79879160D01*
X127388889Y-79917786D01*
X127286828Y-79948144D01*
X126911663Y-79881992D01*
X128376529Y-80623824D02*
X128130949Y-80096985D01*
X127813781Y-80524597D02*
X127987429Y-79539789D01*
X128362595Y-79605941D01*
X128448117Y-79669374D01*
X128486743Y-79724539D01*
X128517101Y-79826599D01*
X128492294Y-79967286D01*
X128428861Y-80052808D01*
X128373696Y-80091434D01*
X128271636Y-80121792D01*
X127896471Y-80055640D01*
X129068861Y-80262364D02*
X128986171Y-80731321D01*
X128831550Y-79688630D02*
X129068861Y-80262364D01*
X129488089Y-79804396D01*
X129391694Y-80899533D02*
X130142024Y-81031836D01*
X130393040Y-80979390D02*
X130566688Y-79994582D01*
X130770923Y-80755899D01*
X131223227Y-80110347D01*
X131049579Y-81095155D01*
X131987491Y-81260534D02*
X131518534Y-81177845D01*
X131692182Y-80193037D01*
X121027768Y-99539865D02*
X120972604Y-99578491D01*
X120823648Y-99600580D01*
X120729857Y-99584042D01*
X120597438Y-99512339D01*
X120520185Y-99402010D01*
X120489827Y-99299950D01*
X120476008Y-99104099D01*
X120500815Y-98963411D01*
X120580786Y-98784098D01*
X120644219Y-98698576D01*
X120754548Y-98621323D01*
X120903505Y-98599234D01*
X120997296Y-98615772D01*
X121129714Y-98687475D01*
X121168341Y-98742639D01*
X121433290Y-99708076D02*
X121606939Y-98723268D01*
X121524249Y-99192224D02*
X122086997Y-99291452D01*
X121996038Y-99807304D02*
X122169686Y-98822496D01*
X122555952Y-99374141D02*
X122884222Y-99432024D01*
X122933950Y-99972683D02*
X122464994Y-99889993D01*
X122638642Y-98905186D01*
X123107598Y-98987875D01*
X123918758Y-100146331D02*
X123673178Y-99619492D01*
X123356010Y-100047104D02*
X123529658Y-99062296D01*
X123904824Y-99128448D01*
X123990346Y-99191881D01*
X124028973Y-99247046D01*
X124059330Y-99349106D01*
X124034523Y-99489792D01*
X123971090Y-99575315D01*
X123915926Y-99613941D01*
X123813865Y-99644299D01*
X123438700Y-99578147D01*
X124903566Y-100319979D02*
X124657986Y-99793140D01*
X124340818Y-100220752D02*
X124514466Y-99235944D01*
X124889632Y-99302096D01*
X124975154Y-99365529D01*
X125013780Y-99420694D01*
X125044138Y-99522754D01*
X125019331Y-99663441D01*
X124955898Y-99748963D01*
X124900733Y-99787589D01*
X124798673Y-99817947D01*
X124423508Y-99751795D01*
X125595898Y-99958519D02*
X125513208Y-100427476D01*
X125358587Y-99384785D02*
X125595898Y-99958519D01*
X126015126Y-99500551D01*
X125918731Y-100595688D02*
X126669061Y-100727991D01*
X126920077Y-100675545D02*
X127093725Y-99690737D01*
X127297960Y-100452054D01*
X127750264Y-99806502D01*
X127576616Y-100791310D01*
X128514528Y-100956689D02*
X128045571Y-100874000D01*
X128219219Y-99889192D01*
X117554804Y-119236020D02*
X117499640Y-119274646D01*
X117350684Y-119296735D01*
X117256893Y-119280197D01*
X117124474Y-119208494D01*
X117047221Y-119098165D01*
X117016863Y-118996105D01*
X117003044Y-118800254D01*
X117027851Y-118659566D01*
X117107822Y-118480253D01*
X117171255Y-118394731D01*
X117281584Y-118317478D01*
X117430541Y-118295389D01*
X117524332Y-118311927D01*
X117656750Y-118383630D01*
X117695377Y-118438794D01*
X117960326Y-119404231D02*
X118133975Y-118419423D01*
X118051285Y-118888379D02*
X118614033Y-118987607D01*
X118523074Y-119503459D02*
X118696722Y-118518651D01*
X119082988Y-119070296D02*
X119411258Y-119128179D01*
X119460986Y-119668838D02*
X118992030Y-119586148D01*
X119165678Y-118601341D01*
X119634634Y-118684030D01*
X120445794Y-119842486D02*
X120200214Y-119315647D01*
X119883046Y-119743259D02*
X120056694Y-118758451D01*
X120431860Y-118824603D01*
X120517382Y-118888036D01*
X120556009Y-118943201D01*
X120586366Y-119045261D01*
X120561559Y-119185947D01*
X120498126Y-119271470D01*
X120442962Y-119310096D01*
X120340901Y-119340454D01*
X119965736Y-119274302D01*
X121430602Y-120016134D02*
X121185022Y-119489295D01*
X120867854Y-119916907D02*
X121041502Y-118932099D01*
X121416668Y-118998251D01*
X121502190Y-119061684D01*
X121540816Y-119116849D01*
X121571174Y-119218909D01*
X121546367Y-119359596D01*
X121482934Y-119445118D01*
X121427769Y-119483744D01*
X121325709Y-119514102D01*
X120950544Y-119447950D01*
X122122934Y-119654674D02*
X122040244Y-120123631D01*
X121885623Y-119080940D02*
X122122934Y-119654674D01*
X122542162Y-119196706D01*
X122445767Y-120291843D02*
X123196097Y-120424146D01*
X123447113Y-120371700D02*
X123620761Y-119386892D01*
X123824996Y-120148209D01*
X124277300Y-119502657D01*
X124103652Y-120487465D01*
X125041564Y-120652844D02*
X124572607Y-120570155D01*
X124746255Y-119585347D01*
X114081840Y-138932175D02*
X114026676Y-138970801D01*
X113877720Y-138992890D01*
X113783929Y-138976352D01*
X113651510Y-138904649D01*
X113574257Y-138794320D01*
X113543899Y-138692260D01*
X113530080Y-138496409D01*
X113554887Y-138355721D01*
X113634858Y-138176408D01*
X113698291Y-138090886D01*
X113808620Y-138013633D01*
X113957577Y-137991544D01*
X114051368Y-138008082D01*
X114183786Y-138079785D01*
X114222413Y-138134949D01*
X114487362Y-139100386D02*
X114661011Y-138115578D01*
X114578321Y-138584534D02*
X115141069Y-138683762D01*
X115050110Y-139199614D02*
X115223758Y-138214806D01*
X115610024Y-138766451D02*
X115938294Y-138824334D01*
X115988022Y-139364993D02*
X115519066Y-139282303D01*
X115692714Y-138297496D01*
X116161670Y-138380185D01*
X116972830Y-139538641D02*
X116727250Y-139011802D01*
X116410082Y-139439414D02*
X116583730Y-138454606D01*
X116958896Y-138520758D01*
X117044418Y-138584191D01*
X117083045Y-138639356D01*
X117113402Y-138741416D01*
X117088595Y-138882102D01*
X117025162Y-138967625D01*
X116969998Y-139006251D01*
X116867937Y-139036609D01*
X116492772Y-138970457D01*
X117957638Y-139712289D02*
X117712058Y-139185450D01*
X117394890Y-139613062D02*
X117568538Y-138628254D01*
X117943704Y-138694406D01*
X118029226Y-138757839D01*
X118067852Y-138813004D01*
X118098210Y-138915064D01*
X118073403Y-139055751D01*
X118009970Y-139141273D01*
X117954805Y-139179899D01*
X117852745Y-139210257D01*
X117477580Y-139144105D01*
X118649970Y-139350829D02*
X118567280Y-139819786D01*
X118412659Y-138777095D02*
X118649970Y-139350829D01*
X119069198Y-138892861D01*
X118972803Y-139987998D02*
X119723133Y-140120301D01*
X119974149Y-140067855D02*
X120147797Y-139083047D01*
X120352032Y-139844364D01*
X120804336Y-139198812D01*
X120630688Y-140183620D01*
X121568600Y-140348999D02*
X121099643Y-140266310D01*
X121273291Y-139281502D01*
X135514477Y-132557061D02*
X135459313Y-132595687D01*
X135310357Y-132617776D01*
X135216566Y-132601238D01*
X135084147Y-132529535D01*
X135006894Y-132419206D01*
X134976536Y-132317146D01*
X134962717Y-132121295D01*
X134987524Y-131980607D01*
X135067495Y-131801294D01*
X135130928Y-131715772D01*
X135241257Y-131638519D01*
X135390214Y-131616430D01*
X135484005Y-131632968D01*
X135616423Y-131704671D01*
X135655050Y-131759835D01*
X135919999Y-132725272D02*
X136093648Y-131740464D01*
X136010958Y-132209420D02*
X136573706Y-132308648D01*
X136482747Y-132824500D02*
X136656395Y-131839692D01*
X137042661Y-132391337D02*
X137370931Y-132449220D01*
X137420659Y-132989879D02*
X136951703Y-132907189D01*
X137125351Y-131922382D01*
X137594307Y-132005071D01*
X138405467Y-133163527D02*
X138159887Y-132636688D01*
X137842719Y-133064300D02*
X138016367Y-132079492D01*
X138391533Y-132145644D01*
X138477055Y-132209077D01*
X138515682Y-132264242D01*
X138546039Y-132366302D01*
X138521232Y-132506988D01*
X138457799Y-132592511D01*
X138402635Y-132631137D01*
X138300574Y-132661495D01*
X137925409Y-132595343D01*
X139390275Y-133337175D02*
X139144695Y-132810336D01*
X138827527Y-133237948D02*
X139001175Y-132253140D01*
X139376341Y-132319292D01*
X139461863Y-132382725D01*
X139500489Y-132437890D01*
X139530847Y-132539950D01*
X139506040Y-132680637D01*
X139442607Y-132766159D01*
X139387442Y-132804785D01*
X139285382Y-132835143D01*
X138910217Y-132768991D01*
X140082607Y-132975715D02*
X139999917Y-133444672D01*
X139845296Y-132401981D02*
X140082607Y-132975715D01*
X140501835Y-132517747D01*
X140405440Y-133612884D02*
X141155770Y-133745187D01*
X141406786Y-133692741D02*
X141580434Y-132707933D01*
X141784669Y-133469250D01*
X142236973Y-132823698D01*
X142063325Y-133808506D01*
X143001237Y-133973885D02*
X142532280Y-133891196D01*
X142705928Y-132906388D01*
X165676497Y-132343150D02*
X165637870Y-132398314D01*
X165505452Y-132470017D01*
X165411661Y-132486555D01*
X165262705Y-132464466D01*
X165152376Y-132387213D01*
X165088942Y-132301691D01*
X165008971Y-132122377D01*
X164984164Y-131981690D01*
X164997983Y-131785839D01*
X165028341Y-131683779D01*
X165105594Y-131573450D01*
X165238013Y-131501747D01*
X165331804Y-131485209D01*
X165480760Y-131507298D01*
X165535924Y-131545924D01*
X166115095Y-132362520D02*
X165941446Y-131377713D01*
X166024136Y-131846668D02*
X166586884Y-131747441D01*
X166677842Y-132263293D02*
X166504194Y-131278485D01*
X167055839Y-131664751D02*
X167384109Y-131606868D01*
X167615755Y-132097914D02*
X167146798Y-132180603D01*
X166973150Y-131195796D01*
X167442106Y-131113106D01*
X168600562Y-131924265D02*
X168189603Y-131513192D01*
X168037815Y-132023493D02*
X167864166Y-131038685D01*
X168239332Y-130972533D01*
X168341392Y-131002891D01*
X168396556Y-131041518D01*
X168459990Y-131127040D01*
X168484797Y-131267727D01*
X168454439Y-131369787D01*
X168415812Y-131424951D01*
X168330290Y-131488385D01*
X167955125Y-131554536D01*
X169585370Y-131750617D02*
X169174410Y-131339543D01*
X169022622Y-131849845D02*
X168848974Y-130865037D01*
X169224140Y-130798885D01*
X169326200Y-130829243D01*
X169381364Y-130867870D01*
X169444798Y-130953392D01*
X169469605Y-131094078D01*
X169439247Y-131196138D01*
X169400620Y-131251303D01*
X169315098Y-131314736D01*
X168939933Y-131380888D01*
X170112323Y-131174164D02*
X170195012Y-131643121D01*
X169693095Y-130716196D02*
X170112323Y-131174164D01*
X170349634Y-130600430D01*
X170633611Y-131662491D02*
X171383941Y-131530188D01*
X171601881Y-131395052D02*
X171428233Y-130410244D01*
X171880537Y-131055796D01*
X172084772Y-130294479D01*
X172258420Y-131279286D01*
X173196332Y-131113907D02*
X172727376Y-131196597D01*
X172553727Y-130211789D01*
X176690243Y-79629799D02*
X176651616Y-79684963D01*
X176519198Y-79756666D01*
X176425407Y-79773204D01*
X176276451Y-79751115D01*
X176166122Y-79673862D01*
X176102688Y-79588340D01*
X176022717Y-79409026D01*
X175997910Y-79268339D01*
X176011729Y-79072488D01*
X176042087Y-78970428D01*
X176119340Y-78860099D01*
X176251759Y-78788396D01*
X176345550Y-78771858D01*
X176494506Y-78793947D01*
X176549670Y-78832573D01*
X177128841Y-79649169D02*
X176955192Y-78664362D01*
X177037882Y-79133317D02*
X177600630Y-79034090D01*
X177691588Y-79549942D02*
X177517940Y-78565134D01*
X178069585Y-78951400D02*
X178397855Y-78893517D01*
X178629501Y-79384563D02*
X178160544Y-79467252D01*
X177986896Y-78482445D01*
X178455852Y-78399755D01*
X179614308Y-79210914D02*
X179203349Y-78799841D01*
X179051561Y-79310142D02*
X178877912Y-78325334D01*
X179253078Y-78259182D01*
X179355138Y-78289540D01*
X179410302Y-78328167D01*
X179473736Y-78413689D01*
X179498543Y-78554376D01*
X179468185Y-78656436D01*
X179429558Y-78711600D01*
X179344036Y-78775034D01*
X178968871Y-78841185D01*
X180599116Y-79037266D02*
X180188156Y-78626192D01*
X180036368Y-79136494D02*
X179862720Y-78151686D01*
X180237886Y-78085534D01*
X180339946Y-78115892D01*
X180395110Y-78154519D01*
X180458544Y-78240041D01*
X180483351Y-78380727D01*
X180452993Y-78482787D01*
X180414366Y-78537952D01*
X180328844Y-78601385D01*
X179953679Y-78667537D01*
X181126069Y-78460813D02*
X181208758Y-78929770D01*
X180706841Y-78002845D02*
X181126069Y-78460813D01*
X181363380Y-77887079D01*
X181647357Y-78949140D02*
X182397687Y-78816837D01*
X182615627Y-78681701D02*
X182441979Y-77696893D01*
X182894283Y-78342445D01*
X183098518Y-77581128D01*
X183272166Y-78565935D01*
X184210078Y-78400556D02*
X183741122Y-78483246D01*
X183567473Y-77498438D01*
X180163206Y-99325954D02*
X180124579Y-99381118D01*
X179992161Y-99452821D01*
X179898370Y-99469359D01*
X179749414Y-99447270D01*
X179639085Y-99370017D01*
X179575651Y-99284495D01*
X179495680Y-99105181D01*
X179470873Y-98964494D01*
X179484692Y-98768643D01*
X179515050Y-98666583D01*
X179592303Y-98556254D01*
X179724722Y-98484551D01*
X179818513Y-98468013D01*
X179967469Y-98490102D01*
X180022633Y-98528728D01*
X180601804Y-99345324D02*
X180428155Y-98360517D01*
X180510845Y-98829472D02*
X181073593Y-98730245D01*
X181164551Y-99246097D02*
X180990903Y-98261289D01*
X181542548Y-98647555D02*
X181870818Y-98589672D01*
X182102464Y-99080718D02*
X181633507Y-99163407D01*
X181459859Y-98178600D01*
X181928815Y-98095910D01*
X183087271Y-98907069D02*
X182676312Y-98495996D01*
X182524524Y-99006297D02*
X182350875Y-98021489D01*
X182726041Y-97955337D01*
X182828101Y-97985695D01*
X182883265Y-98024322D01*
X182946699Y-98109844D01*
X182971506Y-98250531D01*
X182941148Y-98352591D01*
X182902521Y-98407755D01*
X182816999Y-98471189D01*
X182441834Y-98537340D01*
X184072079Y-98733421D02*
X183661119Y-98322347D01*
X183509331Y-98832649D02*
X183335683Y-97847841D01*
X183710849Y-97781689D01*
X183812909Y-97812047D01*
X183868073Y-97850674D01*
X183931507Y-97936196D01*
X183956314Y-98076882D01*
X183925956Y-98178942D01*
X183887329Y-98234107D01*
X183801807Y-98297540D01*
X183426642Y-98363692D01*
X184599032Y-98156968D02*
X184681721Y-98625925D01*
X184179804Y-97699000D02*
X184599032Y-98156968D01*
X184836343Y-97583234D01*
X185120320Y-98645295D02*
X185870650Y-98512992D01*
X186088590Y-98377856D02*
X185914942Y-97393048D01*
X186367246Y-98038600D01*
X186571481Y-97277283D01*
X186745129Y-98262090D01*
X187683041Y-98096711D02*
X187214085Y-98179401D01*
X187040436Y-97194593D01*
X183636170Y-119022109D02*
X183597543Y-119077273D01*
X183465125Y-119148976D01*
X183371334Y-119165514D01*
X183222378Y-119143425D01*
X183112049Y-119066172D01*
X183048615Y-118980650D01*
X182968644Y-118801336D01*
X182943837Y-118660649D01*
X182957656Y-118464798D01*
X182988014Y-118362738D01*
X183065267Y-118252409D01*
X183197686Y-118180706D01*
X183291477Y-118164168D01*
X183440433Y-118186257D01*
X183495597Y-118224883D01*
X184074768Y-119041479D02*
X183901119Y-118056672D01*
X183983809Y-118525627D02*
X184546557Y-118426400D01*
X184637515Y-118942252D02*
X184463867Y-117957444D01*
X185015512Y-118343710D02*
X185343782Y-118285827D01*
X185575428Y-118776873D02*
X185106471Y-118859562D01*
X184932823Y-117874755D01*
X185401779Y-117792065D01*
X186560235Y-118603224D02*
X186149276Y-118192151D01*
X185997488Y-118702452D02*
X185823839Y-117717644D01*
X186199005Y-117651492D01*
X186301065Y-117681850D01*
X186356229Y-117720477D01*
X186419663Y-117805999D01*
X186444470Y-117946686D01*
X186414112Y-118048746D01*
X186375485Y-118103910D01*
X186289963Y-118167344D01*
X185914798Y-118233495D01*
X187545043Y-118429576D02*
X187134083Y-118018502D01*
X186982295Y-118528804D02*
X186808647Y-117543996D01*
X187183813Y-117477844D01*
X187285873Y-117508202D01*
X187341037Y-117546829D01*
X187404471Y-117632351D01*
X187429278Y-117773037D01*
X187398920Y-117875097D01*
X187360293Y-117930262D01*
X187274771Y-117993695D01*
X186899606Y-118059847D01*
X188071996Y-117853123D02*
X188154685Y-118322080D01*
X187652768Y-117395155D02*
X188071996Y-117853123D01*
X188309307Y-117279389D01*
X188593284Y-118341450D02*
X189343614Y-118209147D01*
X189561554Y-118074011D02*
X189387906Y-117089203D01*
X189840210Y-117734755D01*
X190044445Y-116973438D01*
X190218093Y-117958245D01*
X191156005Y-117792866D02*
X190687049Y-117875556D01*
X190513400Y-116890748D01*
X187109133Y-138718264D02*
X187070506Y-138773428D01*
X186938088Y-138845131D01*
X186844297Y-138861669D01*
X186695341Y-138839580D01*
X186585012Y-138762327D01*
X186521578Y-138676805D01*
X186441607Y-138497491D01*
X186416800Y-138356804D01*
X186430619Y-138160953D01*
X186460977Y-138058893D01*
X186538230Y-137948564D01*
X186670649Y-137876861D01*
X186764440Y-137860323D01*
X186913396Y-137882412D01*
X186968560Y-137921038D01*
X187547731Y-138737634D02*
X187374082Y-137752827D01*
X187456772Y-138221782D02*
X188019520Y-138122555D01*
X188110478Y-138638407D02*
X187936830Y-137653599D01*
X188488475Y-138039865D02*
X188816745Y-137981982D01*
X189048391Y-138473028D02*
X188579434Y-138555717D01*
X188405786Y-137570910D01*
X188874742Y-137488220D01*
X190033198Y-138299379D02*
X189622239Y-137888306D01*
X189470451Y-138398607D02*
X189296802Y-137413799D01*
X189671968Y-137347647D01*
X189774028Y-137378005D01*
X189829192Y-137416632D01*
X189892626Y-137502154D01*
X189917433Y-137642841D01*
X189887075Y-137744901D01*
X189848448Y-137800065D01*
X189762926Y-137863499D01*
X189387761Y-137929650D01*
X191018006Y-138125731D02*
X190607046Y-137714657D01*
X190455258Y-138224959D02*
X190281610Y-137240151D01*
X190656776Y-137173999D01*
X190758836Y-137204357D01*
X190814000Y-137242984D01*
X190877434Y-137328506D01*
X190902241Y-137469192D01*
X190871883Y-137571252D01*
X190833256Y-137626417D01*
X190747734Y-137689850D01*
X190372569Y-137756002D01*
X191544959Y-137549278D02*
X191627648Y-138018235D01*
X191125731Y-137091310D02*
X191544959Y-137549278D01*
X191782270Y-136975544D01*
X192066247Y-138037605D02*
X192816577Y-137905302D01*
X193034517Y-137770166D02*
X192860869Y-136785358D01*
X193313173Y-137430910D01*
X193517408Y-136669593D01*
X193691056Y-137654400D01*
X194628968Y-137489021D02*
X194160012Y-137571711D01*
X193986363Y-136586903D01*
X195518157Y-71232797D02*
X195479530Y-71287961D01*
X195347112Y-71359664D01*
X195253321Y-71376202D01*
X195104365Y-71354113D01*
X194994036Y-71276860D01*
X194930602Y-71191338D01*
X194850631Y-71012024D01*
X194825824Y-70871337D01*
X194839643Y-70675486D01*
X194870001Y-70573426D01*
X194947254Y-70463097D01*
X195079673Y-70391394D01*
X195173464Y-70374856D01*
X195322420Y-70396945D01*
X195377584Y-70435571D01*
X195956755Y-71252167D02*
X195783106Y-70267360D01*
X195865796Y-70736315D02*
X196428544Y-70637088D01*
X196519502Y-71152940D02*
X196345854Y-70168132D01*
X196897499Y-70554398D02*
X197225769Y-70496515D01*
X197457415Y-70987561D02*
X196988458Y-71070250D01*
X196814810Y-70085443D01*
X197283766Y-70002753D01*
X198442222Y-70813912D02*
X198031263Y-70402839D01*
X197879475Y-70913140D02*
X197705826Y-69928332D01*
X198080992Y-69862180D01*
X198183052Y-69892538D01*
X198238216Y-69931165D01*
X198301650Y-70016687D01*
X198326457Y-70157374D01*
X198296099Y-70259434D01*
X198257472Y-70314598D01*
X198171950Y-70378032D01*
X197796785Y-70444183D01*
X199427030Y-70640264D02*
X199016070Y-70229190D01*
X198864282Y-70739492D02*
X198690634Y-69754684D01*
X199065800Y-69688532D01*
X199167860Y-69718890D01*
X199223024Y-69757517D01*
X199286458Y-69843039D01*
X199311265Y-69983725D01*
X199280907Y-70085785D01*
X199242280Y-70140950D01*
X199156758Y-70204383D01*
X198781593Y-70270535D01*
X199953983Y-70063811D02*
X200036672Y-70532768D01*
X199534755Y-69605843D02*
X199953983Y-70063811D01*
X200191294Y-69490077D01*
X200475271Y-70552138D02*
X201225601Y-70419835D01*
X201443541Y-70284699D02*
X201269893Y-69299891D01*
X201722197Y-69945443D01*
X201926432Y-69184126D01*
X202100080Y-70168933D01*
X203037992Y-70003554D02*
X202569036Y-70086244D01*
X202395387Y-69101436D01*
X198991121Y-90928952D02*
X198952494Y-90984116D01*
X198820076Y-91055819D01*
X198726285Y-91072357D01*
X198577329Y-91050268D01*
X198467000Y-90973015D01*
X198403566Y-90887493D01*
X198323595Y-90708179D01*
X198298788Y-90567492D01*
X198312607Y-90371641D01*
X198342965Y-90269581D01*
X198420218Y-90159252D01*
X198552637Y-90087549D01*
X198646428Y-90071011D01*
X198795384Y-90093100D01*
X198850548Y-90131726D01*
X199429719Y-90948322D02*
X199256070Y-89963515D01*
X199338760Y-90432470D02*
X199901508Y-90333243D01*
X199992466Y-90849095D02*
X199818818Y-89864287D01*
X200370463Y-90250553D02*
X200698733Y-90192670D01*
X200930379Y-90683716D02*
X200461422Y-90766405D01*
X200287774Y-89781598D01*
X200756730Y-89698908D01*
X201915186Y-90510067D02*
X201504227Y-90098994D01*
X201352439Y-90609295D02*
X201178790Y-89624487D01*
X201553956Y-89558335D01*
X201656016Y-89588693D01*
X201711180Y-89627320D01*
X201774614Y-89712842D01*
X201799421Y-89853529D01*
X201769063Y-89955589D01*
X201730436Y-90010753D01*
X201644914Y-90074187D01*
X201269749Y-90140338D01*
X202899994Y-90336419D02*
X202489034Y-89925345D01*
X202337246Y-90435647D02*
X202163598Y-89450839D01*
X202538764Y-89384687D01*
X202640824Y-89415045D01*
X202695988Y-89453672D01*
X202759422Y-89539194D01*
X202784229Y-89679880D01*
X202753871Y-89781940D01*
X202715244Y-89837105D01*
X202629722Y-89900538D01*
X202254557Y-89966690D01*
X203426947Y-89759966D02*
X203509636Y-90228923D01*
X203007719Y-89301998D02*
X203426947Y-89759966D01*
X203664258Y-89186232D01*
X203948235Y-90248293D02*
X204698565Y-90115990D01*
X204916505Y-89980854D02*
X204742857Y-88996046D01*
X205195161Y-89641598D01*
X205399396Y-88880281D01*
X205573044Y-89865088D01*
X206510956Y-89699709D02*
X206042000Y-89782399D01*
X205868351Y-88797591D01*
X202464084Y-110625107D02*
X202425457Y-110680271D01*
X202293039Y-110751974D01*
X202199248Y-110768512D01*
X202050292Y-110746423D01*
X201939963Y-110669170D01*
X201876529Y-110583648D01*
X201796558Y-110404334D01*
X201771751Y-110263647D01*
X201785570Y-110067796D01*
X201815928Y-109965736D01*
X201893181Y-109855407D01*
X202025600Y-109783704D01*
X202119391Y-109767166D01*
X202268347Y-109789255D01*
X202323511Y-109827881D01*
X202902682Y-110644477D02*
X202729033Y-109659670D01*
X202811723Y-110128625D02*
X203374471Y-110029398D01*
X203465429Y-110545250D02*
X203291781Y-109560442D01*
X203843426Y-109946708D02*
X204171696Y-109888825D01*
X204403342Y-110379871D02*
X203934385Y-110462560D01*
X203760737Y-109477753D01*
X204229693Y-109395063D01*
X205388149Y-110206222D02*
X204977190Y-109795149D01*
X204825402Y-110305450D02*
X204651753Y-109320642D01*
X205026919Y-109254490D01*
X205128979Y-109284848D01*
X205184143Y-109323475D01*
X205247577Y-109408997D01*
X205272384Y-109549684D01*
X205242026Y-109651744D01*
X205203399Y-109706908D01*
X205117877Y-109770342D01*
X204742712Y-109836493D01*
X206372957Y-110032574D02*
X205961997Y-109621500D01*
X205810209Y-110131802D02*
X205636561Y-109146994D01*
X206011727Y-109080842D01*
X206113787Y-109111200D01*
X206168951Y-109149827D01*
X206232385Y-109235349D01*
X206257192Y-109376035D01*
X206226834Y-109478095D01*
X206188207Y-109533260D01*
X206102685Y-109596693D01*
X205727520Y-109662845D01*
X206899910Y-109456121D02*
X206982599Y-109925078D01*
X206480682Y-108998153D02*
X206899910Y-109456121D01*
X207137221Y-108882387D01*
X207421198Y-109944448D02*
X208171528Y-109812145D01*
X208389468Y-109677009D02*
X208215820Y-108692201D01*
X208668124Y-109337753D01*
X208872359Y-108576436D01*
X209046007Y-109561243D01*
X209983919Y-109395864D02*
X209514963Y-109478554D01*
X209341314Y-108493746D01*
X205937048Y-130321262D02*
X205898421Y-130376426D01*
X205766003Y-130448129D01*
X205672212Y-130464667D01*
X205523256Y-130442578D01*
X205412927Y-130365325D01*
X205349493Y-130279803D01*
X205269522Y-130100489D01*
X205244715Y-129959802D01*
X205258534Y-129763951D01*
X205288892Y-129661891D01*
X205366145Y-129551562D01*
X205498564Y-129479859D01*
X205592355Y-129463321D01*
X205741311Y-129485410D01*
X205796475Y-129524036D01*
X206375646Y-130340632D02*
X206201997Y-129355825D01*
X206284687Y-129824780D02*
X206847435Y-129725553D01*
X206938393Y-130241405D02*
X206764745Y-129256597D01*
X207316390Y-129642863D02*
X207644660Y-129584980D01*
X207876306Y-130076026D02*
X207407349Y-130158715D01*
X207233701Y-129173908D01*
X207702657Y-129091218D01*
X208861113Y-129902377D02*
X208450154Y-129491304D01*
X208298366Y-130001605D02*
X208124717Y-129016797D01*
X208499883Y-128950645D01*
X208601943Y-128981003D01*
X208657107Y-129019630D01*
X208720541Y-129105152D01*
X208745348Y-129245839D01*
X208714990Y-129347899D01*
X208676363Y-129403063D01*
X208590841Y-129466497D01*
X208215676Y-129532648D01*
X209845921Y-129728729D02*
X209434961Y-129317655D01*
X209283173Y-129827957D02*
X209109525Y-128843149D01*
X209484691Y-128776997D01*
X209586751Y-128807355D01*
X209641915Y-128845982D01*
X209705349Y-128931504D01*
X209730156Y-129072190D01*
X209699798Y-129174250D01*
X209661171Y-129229415D01*
X209575649Y-129292848D01*
X209200484Y-129359000D01*
X210372874Y-129152276D02*
X210455563Y-129621233D01*
X209953646Y-128694308D02*
X210372874Y-129152276D01*
X210610185Y-128578542D01*
X210894162Y-129640603D02*
X211644492Y-129508300D01*
X211862432Y-129373164D02*
X211688784Y-128388356D01*
X212141088Y-129033908D01*
X212345323Y-128272591D01*
X212518971Y-129257398D01*
X213456883Y-129092019D02*
X212987927Y-129174709D01*
X212814278Y-128189901D01*
X214172423Y-61850986D02*
X214133796Y-61906150D01*
X214001378Y-61977853D01*
X213907587Y-61994391D01*
X213758631Y-61972302D01*
X213648302Y-61895049D01*
X213584868Y-61809527D01*
X213504897Y-61630213D01*
X213480090Y-61489526D01*
X213493909Y-61293675D01*
X213524267Y-61191615D01*
X213601520Y-61081286D01*
X213733939Y-61009583D01*
X213827730Y-60993045D01*
X213976686Y-61015134D01*
X214031850Y-61053760D01*
X214611021Y-61870356D02*
X214437372Y-60885549D01*
X214520062Y-61354504D02*
X215082810Y-61255277D01*
X215173768Y-61771129D02*
X215000120Y-60786321D01*
X215551765Y-61172587D02*
X215880035Y-61114704D01*
X216111681Y-61605750D02*
X215642724Y-61688439D01*
X215469076Y-60703632D01*
X215938032Y-60620942D01*
X217096488Y-61432101D02*
X216685529Y-61021028D01*
X216533741Y-61531329D02*
X216360092Y-60546521D01*
X216735258Y-60480369D01*
X216837318Y-60510727D01*
X216892482Y-60549354D01*
X216955916Y-60634876D01*
X216980723Y-60775563D01*
X216950365Y-60877623D01*
X216911738Y-60932787D01*
X216826216Y-60996221D01*
X216451051Y-61062372D01*
X218081296Y-61258453D02*
X217670336Y-60847379D01*
X217518548Y-61357681D02*
X217344900Y-60372873D01*
X217720066Y-60306721D01*
X217822126Y-60337079D01*
X217877290Y-60375706D01*
X217940724Y-60461228D01*
X217965531Y-60601914D01*
X217935173Y-60703974D01*
X217896546Y-60759139D01*
X217811024Y-60822572D01*
X217435859Y-60888724D01*
X218608249Y-60682000D02*
X218690938Y-61150957D01*
X218189021Y-60224032D02*
X218608249Y-60682000D01*
X218845560Y-60108266D01*
X219129537Y-61170327D02*
X219879867Y-61038024D01*
X220097807Y-60902888D02*
X219924159Y-59918080D01*
X220376463Y-60563632D01*
X220580698Y-59802315D01*
X220754346Y-60787122D01*
X221692258Y-60621743D02*
X221223302Y-60704433D01*
X221049653Y-59719625D01*
X217645387Y-81547141D02*
X217606760Y-81602305D01*
X217474342Y-81674008D01*
X217380551Y-81690546D01*
X217231595Y-81668457D01*
X217121266Y-81591204D01*
X217057832Y-81505682D01*
X216977861Y-81326368D01*
X216953054Y-81185681D01*
X216966873Y-80989830D01*
X216997231Y-80887770D01*
X217074484Y-80777441D01*
X217206903Y-80705738D01*
X217300694Y-80689200D01*
X217449650Y-80711289D01*
X217504814Y-80749915D01*
X218083985Y-81566511D02*
X217910336Y-80581704D01*
X217993026Y-81050659D02*
X218555774Y-80951432D01*
X218646732Y-81467284D02*
X218473084Y-80482476D01*
X219024729Y-80868742D02*
X219352999Y-80810859D01*
X219584645Y-81301905D02*
X219115688Y-81384594D01*
X218942040Y-80399787D01*
X219410996Y-80317097D01*
X220569452Y-81128256D02*
X220158493Y-80717183D01*
X220006705Y-81227484D02*
X219833056Y-80242676D01*
X220208222Y-80176524D01*
X220310282Y-80206882D01*
X220365446Y-80245509D01*
X220428880Y-80331031D01*
X220453687Y-80471718D01*
X220423329Y-80573778D01*
X220384702Y-80628942D01*
X220299180Y-80692376D01*
X219924015Y-80758527D01*
X221554260Y-80954608D02*
X221143300Y-80543534D01*
X220991512Y-81053836D02*
X220817864Y-80069028D01*
X221193030Y-80002876D01*
X221295090Y-80033234D01*
X221350254Y-80071861D01*
X221413688Y-80157383D01*
X221438495Y-80298069D01*
X221408137Y-80400129D01*
X221369510Y-80455294D01*
X221283988Y-80518727D01*
X220908823Y-80584879D01*
X222081213Y-80378155D02*
X222163902Y-80847112D01*
X221661985Y-79920187D02*
X222081213Y-80378155D01*
X222318524Y-79804421D01*
X222602501Y-80866482D02*
X223352831Y-80734179D01*
X223570771Y-80599043D02*
X223397123Y-79614235D01*
X223849427Y-80259787D01*
X224053662Y-79498470D01*
X224227310Y-80483277D01*
X225165222Y-80317898D02*
X224696266Y-80400588D01*
X224522617Y-79415780D01*
X221118350Y-101243297D02*
X221079723Y-101298461D01*
X220947305Y-101370164D01*
X220853514Y-101386702D01*
X220704558Y-101364613D01*
X220594229Y-101287360D01*
X220530795Y-101201838D01*
X220450824Y-101022524D01*
X220426017Y-100881837D01*
X220439836Y-100685986D01*
X220470194Y-100583926D01*
X220547447Y-100473597D01*
X220679866Y-100401894D01*
X220773657Y-100385356D01*
X220922613Y-100407445D01*
X220977777Y-100446071D01*
X221556948Y-101262667D02*
X221383299Y-100277860D01*
X221465989Y-100746815D02*
X222028737Y-100647588D01*
X222119695Y-101163440D02*
X221946047Y-100178632D01*
X222497692Y-100564898D02*
X222825962Y-100507015D01*
X223057608Y-100998061D02*
X222588651Y-101080750D01*
X222415003Y-100095943D01*
X222883959Y-100013253D01*
X224042415Y-100824412D02*
X223631456Y-100413339D01*
X223479668Y-100923640D02*
X223306019Y-99938832D01*
X223681185Y-99872680D01*
X223783245Y-99903038D01*
X223838409Y-99941665D01*
X223901843Y-100027187D01*
X223926650Y-100167874D01*
X223896292Y-100269934D01*
X223857665Y-100325098D01*
X223772143Y-100388532D01*
X223396978Y-100454683D01*
X225027223Y-100650764D02*
X224616263Y-100239690D01*
X224464475Y-100749992D02*
X224290827Y-99765184D01*
X224665993Y-99699032D01*
X224768053Y-99729390D01*
X224823217Y-99768017D01*
X224886651Y-99853539D01*
X224911458Y-99994225D01*
X224881100Y-100096285D01*
X224842473Y-100151450D01*
X224756951Y-100214883D01*
X224381786Y-100281035D01*
X225554176Y-100074311D02*
X225636865Y-100543268D01*
X225134948Y-99616343D02*
X225554176Y-100074311D01*
X225791487Y-99500577D01*
X226075464Y-100562638D02*
X226825794Y-100430335D01*
X227043734Y-100295199D02*
X226870086Y-99310391D01*
X227322390Y-99955943D01*
X227526625Y-99194626D01*
X227700273Y-100179433D01*
X228638185Y-100014054D02*
X228169229Y-100096744D01*
X227995580Y-99111936D01*
X234736819Y-63302062D02*
X234698192Y-63357226D01*
X234565774Y-63428929D01*
X234471983Y-63445467D01*
X234323027Y-63423378D01*
X234212698Y-63346125D01*
X234149264Y-63260603D01*
X234069293Y-63081289D01*
X234044486Y-62940602D01*
X234058305Y-62744751D01*
X234088663Y-62642691D01*
X234165916Y-62532362D01*
X234298335Y-62460659D01*
X234392126Y-62444121D01*
X234541082Y-62466210D01*
X234596246Y-62504836D01*
X235175417Y-63321432D02*
X235001768Y-62336625D01*
X235084458Y-62805580D02*
X235647206Y-62706353D01*
X235738164Y-63222205D02*
X235564516Y-62237397D01*
X236116161Y-62623663D02*
X236444431Y-62565780D01*
X236676077Y-63056826D02*
X236207120Y-63139515D01*
X236033472Y-62154708D01*
X236502428Y-62072018D01*
X237660884Y-62883177D02*
X237249925Y-62472104D01*
X237098137Y-62982405D02*
X236924488Y-61997597D01*
X237299654Y-61931445D01*
X237401714Y-61961803D01*
X237456878Y-62000430D01*
X237520312Y-62085952D01*
X237545119Y-62226639D01*
X237514761Y-62328699D01*
X237476134Y-62383863D01*
X237390612Y-62447297D01*
X237015447Y-62513448D01*
X238645692Y-62709529D02*
X238234732Y-62298455D01*
X238082944Y-62808757D02*
X237909296Y-61823949D01*
X238284462Y-61757797D01*
X238386522Y-61788155D01*
X238441686Y-61826782D01*
X238505120Y-61912304D01*
X238529927Y-62052990D01*
X238499569Y-62155050D01*
X238460942Y-62210215D01*
X238375420Y-62273648D01*
X238000255Y-62339800D01*
X239172645Y-62133076D02*
X239255334Y-62602033D01*
X238753417Y-61675108D02*
X239172645Y-62133076D01*
X239409956Y-61559342D01*
X239693933Y-62621403D02*
X240444263Y-62489100D01*
X240662203Y-62353964D02*
X240488555Y-61369156D01*
X240940859Y-62014708D01*
X241145094Y-61253391D01*
X241318742Y-62238198D01*
X242256654Y-62072819D02*
X241787698Y-62155509D01*
X241614049Y-61170701D01*
X238209782Y-82998217D02*
X238171155Y-83053381D01*
X238038737Y-83125084D01*
X237944946Y-83141622D01*
X237795990Y-83119533D01*
X237685661Y-83042280D01*
X237622227Y-82956758D01*
X237542256Y-82777444D01*
X237517449Y-82636757D01*
X237531268Y-82440906D01*
X237561626Y-82338846D01*
X237638879Y-82228517D01*
X237771298Y-82156814D01*
X237865089Y-82140276D01*
X238014045Y-82162365D01*
X238069209Y-82200991D01*
X238648380Y-83017587D02*
X238474731Y-82032780D01*
X238557421Y-82501735D02*
X239120169Y-82402508D01*
X239211127Y-82918360D02*
X239037479Y-81933552D01*
X239589124Y-82319818D02*
X239917394Y-82261935D01*
X240149040Y-82752981D02*
X239680083Y-82835670D01*
X239506435Y-81850863D01*
X239975391Y-81768173D01*
X241133847Y-82579332D02*
X240722888Y-82168259D01*
X240571100Y-82678560D02*
X240397451Y-81693752D01*
X240772617Y-81627600D01*
X240874677Y-81657958D01*
X240929841Y-81696585D01*
X240993275Y-81782107D01*
X241018082Y-81922794D01*
X240987724Y-82024854D01*
X240949097Y-82080018D01*
X240863575Y-82143452D01*
X240488410Y-82209603D01*
X242118655Y-82405684D02*
X241707695Y-81994610D01*
X241555907Y-82504912D02*
X241382259Y-81520104D01*
X241757425Y-81453952D01*
X241859485Y-81484310D01*
X241914649Y-81522937D01*
X241978083Y-81608459D01*
X242002890Y-81749145D01*
X241972532Y-81851205D01*
X241933905Y-81906370D01*
X241848383Y-81969803D01*
X241473218Y-82035955D01*
X242645608Y-81829231D02*
X242728297Y-82298188D01*
X242226380Y-81371263D02*
X242645608Y-81829231D01*
X242882919Y-81255497D01*
X243166896Y-82317558D02*
X243917226Y-82185255D01*
X244135166Y-82050119D02*
X243961518Y-81065311D01*
X244413822Y-81710863D01*
X244618057Y-80949546D01*
X244791705Y-81934353D01*
X245729617Y-81768974D02*
X245260661Y-81851664D01*
X245087012Y-80866856D01*
X245155710Y-122390527D02*
X245117083Y-122445691D01*
X244984665Y-122517394D01*
X244890874Y-122533932D01*
X244741918Y-122511843D01*
X244631589Y-122434590D01*
X244568155Y-122349068D01*
X244488184Y-122169754D01*
X244463377Y-122029067D01*
X244477196Y-121833216D01*
X244507554Y-121731156D01*
X244584807Y-121620827D01*
X244717226Y-121549124D01*
X244811017Y-121532586D01*
X244959973Y-121554675D01*
X245015137Y-121593301D01*
X245594308Y-122409897D02*
X245420659Y-121425090D01*
X245503349Y-121894045D02*
X246066097Y-121794818D01*
X246157055Y-122310670D02*
X245983407Y-121325862D01*
X246535052Y-121712128D02*
X246863322Y-121654245D01*
X247094968Y-122145291D02*
X246626011Y-122227980D01*
X246452363Y-121243173D01*
X246921319Y-121160483D01*
X248079775Y-121971642D02*
X247668816Y-121560569D01*
X247517028Y-122070870D02*
X247343379Y-121086062D01*
X247718545Y-121019910D01*
X247820605Y-121050268D01*
X247875769Y-121088895D01*
X247939203Y-121174417D01*
X247964010Y-121315104D01*
X247933652Y-121417164D01*
X247895025Y-121472328D01*
X247809503Y-121535762D01*
X247434338Y-121601913D01*
X249064583Y-121797994D02*
X248653623Y-121386920D01*
X248501835Y-121897222D02*
X248328187Y-120912414D01*
X248703353Y-120846262D01*
X248805413Y-120876620D01*
X248860577Y-120915247D01*
X248924011Y-121000769D01*
X248948818Y-121141455D01*
X248918460Y-121243515D01*
X248879833Y-121298680D01*
X248794311Y-121362113D01*
X248419146Y-121428265D01*
X249591536Y-121221541D02*
X249674225Y-121690498D01*
X249172308Y-120763573D02*
X249591536Y-121221541D01*
X249828847Y-120647807D01*
X250112824Y-121709868D02*
X250863154Y-121577565D01*
X251081094Y-121442429D02*
X250907446Y-120457621D01*
X251359750Y-121103173D01*
X251563985Y-120341856D01*
X251737633Y-121326663D01*
X252675545Y-121161284D02*
X252206589Y-121243974D01*
X252032940Y-120259166D01*
X254953919Y-62783521D02*
X254915292Y-62838685D01*
X254782874Y-62910388D01*
X254689083Y-62926926D01*
X254540127Y-62904837D01*
X254429798Y-62827584D01*
X254366364Y-62742062D01*
X254286393Y-62562748D01*
X254261586Y-62422061D01*
X254275405Y-62226210D01*
X254305763Y-62124150D01*
X254383016Y-62013821D01*
X254515435Y-61942118D01*
X254609226Y-61925580D01*
X254758182Y-61947669D01*
X254813346Y-61986295D01*
X255392517Y-62802891D02*
X255218868Y-61818084D01*
X255301558Y-62287039D02*
X255864306Y-62187812D01*
X255955264Y-62703664D02*
X255781616Y-61718856D01*
X256333261Y-62105122D02*
X256661531Y-62047239D01*
X256893177Y-62538285D02*
X256424220Y-62620974D01*
X256250572Y-61636167D01*
X256719528Y-61553477D01*
X257877984Y-62364636D02*
X257467025Y-61953563D01*
X257315237Y-62463864D02*
X257141588Y-61479056D01*
X257516754Y-61412904D01*
X257618814Y-61443262D01*
X257673978Y-61481889D01*
X257737412Y-61567411D01*
X257762219Y-61708098D01*
X257731861Y-61810158D01*
X257693234Y-61865322D01*
X257607712Y-61928756D01*
X257232547Y-61994907D01*
X258862792Y-62190988D02*
X258451832Y-61779914D01*
X258300044Y-62290216D02*
X258126396Y-61305408D01*
X258501562Y-61239256D01*
X258603622Y-61269614D01*
X258658786Y-61308241D01*
X258722220Y-61393763D01*
X258747027Y-61534449D01*
X258716669Y-61636509D01*
X258678042Y-61691674D01*
X258592520Y-61755107D01*
X258217355Y-61821259D01*
X259389745Y-61614535D02*
X259472434Y-62083492D01*
X258970517Y-61156567D02*
X259389745Y-61614535D01*
X259627056Y-61040801D01*
X259911033Y-62102862D02*
X260661363Y-61970559D01*
X260879303Y-61835423D02*
X260705655Y-60850615D01*
X261157959Y-61496167D01*
X261362194Y-60734850D01*
X261535842Y-61719657D01*
X262473754Y-61554278D02*
X262004798Y-61636968D01*
X261831149Y-60652160D01*
X258426882Y-82479676D02*
X258388255Y-82534840D01*
X258255837Y-82606543D01*
X258162046Y-82623081D01*
X258013090Y-82600992D01*
X257902761Y-82523739D01*
X257839327Y-82438217D01*
X257759356Y-82258903D01*
X257734549Y-82118216D01*
X257748368Y-81922365D01*
X257778726Y-81820305D01*
X257855979Y-81709976D01*
X257988398Y-81638273D01*
X258082189Y-81621735D01*
X258231145Y-81643824D01*
X258286309Y-81682450D01*
X258865480Y-82499046D02*
X258691831Y-81514239D01*
X258774521Y-81983194D02*
X259337269Y-81883967D01*
X259428227Y-82399819D02*
X259254579Y-81415011D01*
X259806224Y-81801277D02*
X260134494Y-81743394D01*
X260366140Y-82234440D02*
X259897183Y-82317129D01*
X259723535Y-81332322D01*
X260192491Y-81249632D01*
X261350947Y-82060791D02*
X260939988Y-81649718D01*
X260788200Y-82160019D02*
X260614551Y-81175211D01*
X260989717Y-81109059D01*
X261091777Y-81139417D01*
X261146941Y-81178044D01*
X261210375Y-81263566D01*
X261235182Y-81404253D01*
X261204824Y-81506313D01*
X261166197Y-81561477D01*
X261080675Y-81624911D01*
X260705510Y-81691062D01*
X262335755Y-81887143D02*
X261924795Y-81476069D01*
X261773007Y-81986371D02*
X261599359Y-81001563D01*
X261974525Y-80935411D01*
X262076585Y-80965769D01*
X262131749Y-81004396D01*
X262195183Y-81089918D01*
X262219990Y-81230604D01*
X262189632Y-81332664D01*
X262151005Y-81387829D01*
X262065483Y-81451262D01*
X261690318Y-81517414D01*
X262862708Y-81310690D02*
X262945397Y-81779647D01*
X262443480Y-80852722D02*
X262862708Y-81310690D01*
X263100019Y-80736956D01*
X263383996Y-81799017D02*
X264134326Y-81666714D01*
X264352266Y-81531578D02*
X264178618Y-80546770D01*
X264630922Y-81192322D01*
X264835157Y-80431005D01*
X265008805Y-81415812D01*
X265946717Y-81250433D02*
X265477761Y-81333123D01*
X265304112Y-80348315D01*
X261899846Y-102175831D02*
X261861219Y-102230995D01*
X261728801Y-102302698D01*
X261635010Y-102319236D01*
X261486054Y-102297147D01*
X261375725Y-102219894D01*
X261312291Y-102134372D01*
X261232320Y-101955058D01*
X261207513Y-101814371D01*
X261221332Y-101618520D01*
X261251690Y-101516460D01*
X261328943Y-101406131D01*
X261461362Y-101334428D01*
X261555153Y-101317890D01*
X261704109Y-101339979D01*
X261759273Y-101378605D01*
X262338444Y-102195201D02*
X262164795Y-101210394D01*
X262247485Y-101679349D02*
X262810233Y-101580122D01*
X262901191Y-102095974D02*
X262727543Y-101111166D01*
X263279188Y-101497432D02*
X263607458Y-101439549D01*
X263839104Y-101930595D02*
X263370147Y-102013284D01*
X263196499Y-101028477D01*
X263665455Y-100945787D01*
X264823911Y-101756946D02*
X264412952Y-101345873D01*
X264261164Y-101856174D02*
X264087515Y-100871366D01*
X264462681Y-100805214D01*
X264564741Y-100835572D01*
X264619905Y-100874199D01*
X264683339Y-100959721D01*
X264708146Y-101100408D01*
X264677788Y-101202468D01*
X264639161Y-101257632D01*
X264553639Y-101321066D01*
X264178474Y-101387217D01*
X265808719Y-101583298D02*
X265397759Y-101172224D01*
X265245971Y-101682526D02*
X265072323Y-100697718D01*
X265447489Y-100631566D01*
X265549549Y-100661924D01*
X265604713Y-100700551D01*
X265668147Y-100786073D01*
X265692954Y-100926759D01*
X265662596Y-101028819D01*
X265623969Y-101083984D01*
X265538447Y-101147417D01*
X265163282Y-101213569D01*
X266335672Y-101006845D02*
X266418361Y-101475802D01*
X265916444Y-100548877D02*
X266335672Y-101006845D01*
X266572983Y-100433111D01*
X266856960Y-101495172D02*
X267607290Y-101362869D01*
X267825230Y-101227733D02*
X267651582Y-100242925D01*
X268103886Y-100888477D01*
X268308121Y-100127160D01*
X268481769Y-101111967D01*
X269419681Y-100946588D02*
X268950725Y-101029278D01*
X268777076Y-100044470D01*
X265372809Y-121871987D02*
X265334182Y-121927151D01*
X265201764Y-121998854D01*
X265107973Y-122015392D01*
X264959017Y-121993303D01*
X264848688Y-121916050D01*
X264785254Y-121830528D01*
X264705283Y-121651214D01*
X264680476Y-121510527D01*
X264694295Y-121314676D01*
X264724653Y-121212616D01*
X264801906Y-121102287D01*
X264934325Y-121030584D01*
X265028116Y-121014046D01*
X265177072Y-121036135D01*
X265232236Y-121074761D01*
X265811407Y-121891357D02*
X265637758Y-120906550D01*
X265720448Y-121375505D02*
X266283196Y-121276278D01*
X266374154Y-121792130D02*
X266200506Y-120807322D01*
X266752151Y-121193588D02*
X267080421Y-121135705D01*
X267312067Y-121626751D02*
X266843110Y-121709440D01*
X266669462Y-120724633D01*
X267138418Y-120641943D01*
X268296874Y-121453102D02*
X267885915Y-121042029D01*
X267734127Y-121552330D02*
X267560478Y-120567522D01*
X267935644Y-120501370D01*
X268037704Y-120531728D01*
X268092868Y-120570355D01*
X268156302Y-120655877D01*
X268181109Y-120796564D01*
X268150751Y-120898624D01*
X268112124Y-120953788D01*
X268026602Y-121017222D01*
X267651437Y-121083373D01*
X269281682Y-121279454D02*
X268870722Y-120868380D01*
X268718934Y-121378682D02*
X268545286Y-120393874D01*
X268920452Y-120327722D01*
X269022512Y-120358080D01*
X269077676Y-120396707D01*
X269141110Y-120482229D01*
X269165917Y-120622915D01*
X269135559Y-120724975D01*
X269096932Y-120780140D01*
X269011410Y-120843573D01*
X268636245Y-120909725D01*
X269808635Y-120703001D02*
X269891324Y-121171958D01*
X269389407Y-120245033D02*
X269808635Y-120703001D01*
X270045946Y-120129267D01*
X270329923Y-121191328D02*
X271080253Y-121059025D01*
X271298193Y-120923889D02*
X271124545Y-119939081D01*
X271576849Y-120584633D01*
X271781084Y-119823316D01*
X271954732Y-120808123D01*
X272892644Y-120642744D02*
X272423688Y-120725434D01*
X272250039Y-119740626D01*
X127052381Y-55738095D02*
X126052381Y-55738095D01*
X126052381Y-55357142D01*
X126100000Y-55261904D01*
X126147619Y-55214285D01*
X126242857Y-55166666D01*
X126385714Y-55166666D01*
X126480952Y-55214285D01*
X126528571Y-55261904D01*
X126576190Y-55357142D01*
X126576190Y-55738095D01*
X127052381Y-54214285D02*
X127052381Y-54785714D01*
X127052381Y-54500000D02*
X126052381Y-54500000D01*
X126195238Y-54595238D01*
X126290476Y-54690476D01*
X126338095Y-54785714D01*
X99352381Y-52238095D02*
X98352381Y-52238095D01*
X98352381Y-51857142D01*
X98400000Y-51761904D01*
X98447619Y-51714285D01*
X98542857Y-51666666D01*
X98685714Y-51666666D01*
X98780952Y-51714285D01*
X98828571Y-51761904D01*
X98876190Y-51857142D01*
X98876190Y-52238095D01*
X98447619Y-51285714D02*
X98400000Y-51238095D01*
X98352381Y-51142857D01*
X98352381Y-50904761D01*
X98400000Y-50809523D01*
X98447619Y-50761904D01*
X98542857Y-50714285D01*
X98638095Y-50714285D01*
X98780952Y-50761904D01*
X99352381Y-51333333D01*
X99352381Y-50714285D01*
X136761905Y-91852381D02*
X136761905Y-90852381D01*
X137142858Y-90852381D01*
X137238096Y-90900000D01*
X137285715Y-90947619D01*
X137333334Y-91042857D01*
X137333334Y-91185714D01*
X137285715Y-91280952D01*
X137238096Y-91328571D01*
X137142858Y-91376190D01*
X136761905Y-91376190D01*
X137666667Y-90852381D02*
X138285715Y-90852381D01*
X137952381Y-91233333D01*
X138095239Y-91233333D01*
X138190477Y-91280952D01*
X138238096Y-91328571D01*
X138285715Y-91423810D01*
X138285715Y-91661905D01*
X138238096Y-91757143D01*
X138190477Y-91804762D01*
X138095239Y-91852381D01*
X137809524Y-91852381D01*
X137714286Y-91804762D01*
X137666667Y-91757143D01*
M02*
