G04 #@! TF.FileFunction,Copper,L2,Bot,Signal*
%FSLAX46Y46*%
G04 Gerber Fmt 4.6, Leading zero omitted, Abs format (unit mm)*
G04 Created by KiCad (PCBNEW 4.0.2-stable) date 30/03/2016 21:54:54*
%MOMM*%
G01*
G04 APERTURE LIST*
%ADD10C,0.100000*%
%ADD11R,1.752600X1.752600*%
%ADD12C,1.752600*%
%ADD13C,2.500000*%
%ADD14C,0.600000*%
%ADD15C,0.500000*%
G04 APERTURE END LIST*
D10*
D11*
X142380000Y-84030000D03*
D12*
X142380000Y-86570000D03*
X142380000Y-89110000D03*
X142380000Y-91650000D03*
X142380000Y-94190000D03*
X142380000Y-96730000D03*
X142380000Y-99270000D03*
X142380000Y-101810000D03*
X142380000Y-104350000D03*
X142380000Y-106890000D03*
X142380000Y-109430000D03*
X142380000Y-111970000D03*
X157620000Y-111970000D03*
X157620000Y-109430000D03*
X157620000Y-106890000D03*
X157620000Y-104350000D03*
X157620000Y-101810000D03*
X157620000Y-99270000D03*
X157620000Y-96730000D03*
X157620000Y-94190000D03*
X157620000Y-91650000D03*
X157620000Y-89110000D03*
X157620000Y-86570000D03*
X157620000Y-84030000D03*
D13*
X227738914Y-113057997D03*
X217733267Y-114822262D03*
X224279823Y-122695070D03*
X222736090Y-113940129D03*
X244830346Y-94812917D03*
X234824699Y-96577182D03*
X241371255Y-104449990D03*
X239827522Y-95695049D03*
D10*
G36*
X43991312Y-69044183D02*
X44251784Y-67566972D01*
X45335072Y-67757985D01*
X45074600Y-69235196D01*
X43991312Y-69044183D01*
X43991312Y-69044183D01*
G37*
G36*
X47241178Y-69617222D02*
X47501650Y-68140011D01*
X48584938Y-68331024D01*
X48324466Y-69808235D01*
X47241178Y-69617222D01*
X47241178Y-69617222D01*
G37*
G36*
X40344700Y-89725146D02*
X40605172Y-88247935D01*
X41688460Y-88438948D01*
X41427988Y-89916159D01*
X40344700Y-89725146D01*
X40344700Y-89725146D01*
G37*
G36*
X43594566Y-90298185D02*
X43855038Y-88820974D01*
X44938326Y-89011987D01*
X44677854Y-90489198D01*
X43594566Y-90298185D01*
X43594566Y-90298185D01*
G37*
G36*
X37045385Y-108436493D02*
X37305857Y-106959282D01*
X38389145Y-107150295D01*
X38128673Y-108627506D01*
X37045385Y-108436493D01*
X37045385Y-108436493D01*
G37*
G36*
X40295251Y-109009532D02*
X40555723Y-107532321D01*
X41639011Y-107723334D01*
X41378539Y-109200545D01*
X40295251Y-109009532D01*
X40295251Y-109009532D01*
G37*
G36*
X31328120Y-127643099D02*
X31588592Y-126165888D01*
X32671880Y-126356901D01*
X32411408Y-127834112D01*
X31328120Y-127643099D01*
X31328120Y-127643099D01*
G37*
G36*
X34577986Y-128216138D02*
X34838458Y-126738927D01*
X35921746Y-126929940D01*
X35661274Y-128407151D01*
X34577986Y-128216138D01*
X34577986Y-128216138D01*
G37*
G36*
X64208411Y-69562723D02*
X64468883Y-68085512D01*
X65552171Y-68276525D01*
X65291699Y-69753736D01*
X64208411Y-69562723D01*
X64208411Y-69562723D01*
G37*
G36*
X67458277Y-70135762D02*
X67718749Y-68658551D01*
X68802037Y-68849564D01*
X68541565Y-70326775D01*
X67458277Y-70135762D01*
X67458277Y-70135762D01*
G37*
G36*
X60735448Y-89258878D02*
X60995920Y-87781667D01*
X62079208Y-87972680D01*
X61818736Y-89449891D01*
X60735448Y-89258878D01*
X60735448Y-89258878D01*
G37*
G36*
X63985314Y-89831917D02*
X64245786Y-88354706D01*
X65329074Y-88545719D01*
X65068602Y-90022930D01*
X63985314Y-89831917D01*
X63985314Y-89831917D01*
G37*
G36*
X57262484Y-108955033D02*
X57522956Y-107477822D01*
X58606244Y-107668835D01*
X58345772Y-109146046D01*
X57262484Y-108955033D01*
X57262484Y-108955033D01*
G37*
G36*
X60512350Y-109528072D02*
X60772822Y-108050861D01*
X61856110Y-108241874D01*
X61595638Y-109719085D01*
X60512350Y-109528072D01*
X60512350Y-109528072D01*
G37*
G36*
X53789521Y-128651188D02*
X54049993Y-127173977D01*
X55133281Y-127364990D01*
X54872809Y-128842201D01*
X53789521Y-128651188D01*
X53789521Y-128651188D01*
G37*
G36*
X57039387Y-129224227D02*
X57299859Y-127747016D01*
X58383147Y-127938029D01*
X58122675Y-129415240D01*
X57039387Y-129224227D01*
X57039387Y-129224227D01*
G37*
G36*
X84772807Y-68111648D02*
X85033279Y-66634437D01*
X86116567Y-66825450D01*
X85856095Y-68302661D01*
X84772807Y-68111648D01*
X84772807Y-68111648D01*
G37*
G36*
X88022673Y-68684687D02*
X88283145Y-67207476D01*
X89366433Y-67398489D01*
X89105961Y-68875700D01*
X88022673Y-68684687D01*
X88022673Y-68684687D01*
G37*
G36*
X81299844Y-87807803D02*
X81560316Y-86330592D01*
X82643604Y-86521605D01*
X82383132Y-87998816D01*
X81299844Y-87807803D01*
X81299844Y-87807803D01*
G37*
G36*
X84549710Y-88380842D02*
X84810182Y-86903631D01*
X85893470Y-87094644D01*
X85632998Y-88571855D01*
X84549710Y-88380842D01*
X84549710Y-88380842D01*
G37*
G36*
X77826880Y-107503958D02*
X78087352Y-106026747D01*
X79170640Y-106217760D01*
X78910168Y-107694971D01*
X77826880Y-107503958D01*
X77826880Y-107503958D01*
G37*
G36*
X81076746Y-108076997D02*
X81337218Y-106599786D01*
X82420506Y-106790799D01*
X82160034Y-108268010D01*
X81076746Y-108076997D01*
X81076746Y-108076997D01*
G37*
G36*
X74353917Y-127200113D02*
X74614389Y-125722902D01*
X75697677Y-125913915D01*
X75437205Y-127391126D01*
X74353917Y-127200113D01*
X74353917Y-127200113D01*
G37*
G36*
X77603783Y-127773152D02*
X77864255Y-126295941D01*
X78947543Y-126486954D01*
X78687071Y-127964165D01*
X77603783Y-127773152D01*
X77603783Y-127773152D01*
G37*
G36*
X103427073Y-77493458D02*
X103687545Y-76016247D01*
X104770833Y-76207260D01*
X104510361Y-77684471D01*
X103427073Y-77493458D01*
X103427073Y-77493458D01*
G37*
G36*
X106676939Y-78066497D02*
X106937411Y-76589286D01*
X108020699Y-76780299D01*
X107760227Y-78257510D01*
X106676939Y-78066497D01*
X106676939Y-78066497D01*
G37*
G36*
X99954110Y-97189613D02*
X100214582Y-95712402D01*
X101297870Y-95903415D01*
X101037398Y-97380626D01*
X99954110Y-97189613D01*
X99954110Y-97189613D01*
G37*
G36*
X103203976Y-97762652D02*
X103464448Y-96285441D01*
X104547736Y-96476454D01*
X104287264Y-97953665D01*
X103203976Y-97762652D01*
X103203976Y-97762652D01*
G37*
G36*
X96481146Y-116885768D02*
X96741618Y-115408557D01*
X97824906Y-115599570D01*
X97564434Y-117076781D01*
X96481146Y-116885768D01*
X96481146Y-116885768D01*
G37*
G36*
X99731012Y-117458807D02*
X99991484Y-115981596D01*
X101074772Y-116172609D01*
X100814300Y-117649820D01*
X99731012Y-117458807D01*
X99731012Y-117458807D01*
G37*
G36*
X93008183Y-136581923D02*
X93268655Y-135104712D01*
X94351943Y-135295725D01*
X94091471Y-136772936D01*
X93008183Y-136581923D01*
X93008183Y-136581923D01*
G37*
G36*
X96258049Y-137154962D02*
X96518521Y-135677751D01*
X97601809Y-135868764D01*
X97341337Y-137345975D01*
X96258049Y-137154962D01*
X96258049Y-137154962D01*
G37*
G36*
X122254987Y-85890460D02*
X122515459Y-84413249D01*
X123598747Y-84604262D01*
X123338275Y-86081473D01*
X122254987Y-85890460D01*
X122254987Y-85890460D01*
G37*
G36*
X125504853Y-86463499D02*
X125765325Y-84986288D01*
X126848613Y-85177301D01*
X126588141Y-86654512D01*
X125504853Y-86463499D01*
X125504853Y-86463499D01*
G37*
G36*
X118782024Y-105586615D02*
X119042496Y-104109404D01*
X120125784Y-104300417D01*
X119865312Y-105777628D01*
X118782024Y-105586615D01*
X118782024Y-105586615D01*
G37*
G36*
X122031890Y-106159654D02*
X122292362Y-104682443D01*
X123375650Y-104873456D01*
X123115178Y-106350667D01*
X122031890Y-106159654D01*
X122031890Y-106159654D01*
G37*
G36*
X115309060Y-125282770D02*
X115569532Y-123805559D01*
X116652820Y-123996572D01*
X116392348Y-125473783D01*
X115309060Y-125282770D01*
X115309060Y-125282770D01*
G37*
G36*
X118558926Y-125855809D02*
X118819398Y-124378598D01*
X119902686Y-124569611D01*
X119642214Y-126046822D01*
X118558926Y-125855809D01*
X118558926Y-125855809D01*
G37*
G36*
X111662449Y-145963733D02*
X111922921Y-144486522D01*
X113006209Y-144677535D01*
X112745737Y-146154746D01*
X111662449Y-145963733D01*
X111662449Y-145963733D01*
G37*
G36*
X114912315Y-146536772D02*
X115172787Y-145059561D01*
X116256075Y-145250574D01*
X115995603Y-146727785D01*
X114912315Y-146536772D01*
X114912315Y-146536772D01*
G37*
G36*
X134438845Y-138302421D02*
X134178373Y-139779632D01*
X133095085Y-139588619D01*
X133355557Y-138111408D01*
X134438845Y-138302421D01*
X134438845Y-138302421D01*
G37*
G36*
X131188979Y-137729382D02*
X130928507Y-139206593D01*
X129845219Y-139015580D01*
X130105691Y-137538369D01*
X131188979Y-137729382D01*
X131188979Y-137729382D01*
G37*
G36*
X165807946Y-139778135D02*
X165547474Y-138300924D01*
X166630762Y-138109911D01*
X166891234Y-139587122D01*
X165807946Y-139778135D01*
X165807946Y-139778135D01*
G37*
G36*
X169057812Y-139205096D02*
X168797340Y-137727885D01*
X169880628Y-137536872D01*
X170141100Y-139014083D01*
X169057812Y-139205096D01*
X169057812Y-139205096D01*
G37*
G36*
X177411408Y-84165888D02*
X177671880Y-85643099D01*
X176588592Y-85834112D01*
X176328120Y-84356901D01*
X177411408Y-84165888D01*
X177411408Y-84165888D01*
G37*
G36*
X174161542Y-84738927D02*
X174422014Y-86216138D01*
X173338726Y-86407151D01*
X173078254Y-84929940D01*
X174161542Y-84738927D01*
X174161542Y-84738927D01*
G37*
G36*
X181411408Y-104165888D02*
X181671880Y-105643099D01*
X180588592Y-105834112D01*
X180328120Y-104356901D01*
X181411408Y-104165888D01*
X181411408Y-104165888D01*
G37*
G36*
X178161542Y-104738927D02*
X178422014Y-106216138D01*
X177338726Y-106407151D01*
X177078254Y-104929940D01*
X178161542Y-104738927D01*
X178161542Y-104738927D01*
G37*
G36*
X184411408Y-123165888D02*
X184671880Y-124643099D01*
X183588592Y-124834112D01*
X183328120Y-123356901D01*
X184411408Y-123165888D01*
X184411408Y-123165888D01*
G37*
G36*
X181161542Y-123738927D02*
X181422014Y-125216138D01*
X180338726Y-125407151D01*
X180078254Y-123929940D01*
X181161542Y-123738927D01*
X181161542Y-123738927D01*
G37*
G36*
X188411408Y-144165888D02*
X188671880Y-145643099D01*
X187588592Y-145834112D01*
X187328120Y-144356901D01*
X188411408Y-144165888D01*
X188411408Y-144165888D01*
G37*
G36*
X185161542Y-144738927D02*
X185422014Y-146216138D01*
X184338726Y-146407151D01*
X184078254Y-144929940D01*
X185161542Y-144738927D01*
X185161542Y-144738927D01*
G37*
G36*
X196411408Y-76165888D02*
X196671880Y-77643099D01*
X195588592Y-77834112D01*
X195328120Y-76356901D01*
X196411408Y-76165888D01*
X196411408Y-76165888D01*
G37*
G36*
X193161542Y-76738927D02*
X193422014Y-78216138D01*
X192338726Y-78407151D01*
X192078254Y-76929940D01*
X193161542Y-76738927D01*
X193161542Y-76738927D01*
G37*
G36*
X200411408Y-97165888D02*
X200671880Y-98643099D01*
X199588592Y-98834112D01*
X199328120Y-97356901D01*
X200411408Y-97165888D01*
X200411408Y-97165888D01*
G37*
G36*
X197161542Y-97738927D02*
X197422014Y-99216138D01*
X196338726Y-99407151D01*
X196078254Y-97929940D01*
X197161542Y-97738927D01*
X197161542Y-97738927D01*
G37*
G36*
X203411408Y-115165888D02*
X203671880Y-116643099D01*
X202588592Y-116834112D01*
X202328120Y-115356901D01*
X203411408Y-115165888D01*
X203411408Y-115165888D01*
G37*
G36*
X200161542Y-115738927D02*
X200422014Y-117216138D01*
X199338726Y-117407151D01*
X199078254Y-115929940D01*
X200161542Y-115738927D01*
X200161542Y-115738927D01*
G37*
G36*
X206411408Y-135165888D02*
X206671880Y-136643099D01*
X205588592Y-136834112D01*
X205328120Y-135356901D01*
X206411408Y-135165888D01*
X206411408Y-135165888D01*
G37*
G36*
X203161542Y-135738927D02*
X203422014Y-137216138D01*
X202338726Y-137407151D01*
X202078254Y-135929940D01*
X203161542Y-135738927D01*
X203161542Y-135738927D01*
G37*
G36*
X215411408Y-66165888D02*
X215671880Y-67643099D01*
X214588592Y-67834112D01*
X214328120Y-66356901D01*
X215411408Y-66165888D01*
X215411408Y-66165888D01*
G37*
G36*
X212161542Y-66738927D02*
X212422014Y-68216138D01*
X211338726Y-68407151D01*
X211078254Y-66929940D01*
X212161542Y-66738927D01*
X212161542Y-66738927D01*
G37*
G36*
X218411408Y-86165888D02*
X218671880Y-87643099D01*
X217588592Y-87834112D01*
X217328120Y-86356901D01*
X218411408Y-86165888D01*
X218411408Y-86165888D01*
G37*
G36*
X215161542Y-86738927D02*
X215422014Y-88216138D01*
X214338726Y-88407151D01*
X214078254Y-86929940D01*
X215161542Y-86738927D01*
X215161542Y-86738927D01*
G37*
G36*
X221411408Y-106165888D02*
X221671880Y-107643099D01*
X220588592Y-107834112D01*
X220328120Y-106356901D01*
X221411408Y-106165888D01*
X221411408Y-106165888D01*
G37*
G36*
X218161542Y-106738927D02*
X218422014Y-108216138D01*
X217338726Y-108407151D01*
X217078254Y-106929940D01*
X218161542Y-106738927D01*
X218161542Y-106738927D01*
G37*
G36*
X225411408Y-126165888D02*
X225671880Y-127643099D01*
X224588592Y-127834112D01*
X224328120Y-126356901D01*
X225411408Y-126165888D01*
X225411408Y-126165888D01*
G37*
G36*
X222161542Y-126738927D02*
X222422014Y-128216138D01*
X221338726Y-128407151D01*
X221078254Y-126929940D01*
X222161542Y-126738927D01*
X222161542Y-126738927D01*
G37*
G36*
X235411408Y-68165888D02*
X235671880Y-69643099D01*
X234588592Y-69834112D01*
X234328120Y-68356901D01*
X235411408Y-68165888D01*
X235411408Y-68165888D01*
G37*
G36*
X232161542Y-68738927D02*
X232422014Y-70216138D01*
X231338726Y-70407151D01*
X231078254Y-68929940D01*
X232161542Y-68738927D01*
X232161542Y-68738927D01*
G37*
G36*
X239411408Y-87165888D02*
X239671880Y-88643099D01*
X238588592Y-88834112D01*
X238328120Y-87356901D01*
X239411408Y-87165888D01*
X239411408Y-87165888D01*
G37*
G36*
X236161542Y-87738927D02*
X236422014Y-89216138D01*
X235338726Y-89407151D01*
X235078254Y-87929940D01*
X236161542Y-87738927D01*
X236161542Y-87738927D01*
G37*
G36*
X242411408Y-107165888D02*
X242671880Y-108643099D01*
X241588592Y-108834112D01*
X241328120Y-107356901D01*
X242411408Y-107165888D01*
X242411408Y-107165888D01*
G37*
G36*
X239161542Y-107738927D02*
X239422014Y-109216138D01*
X238338726Y-109407151D01*
X238078254Y-107929940D01*
X239161542Y-107738927D01*
X239161542Y-107738927D01*
G37*
G36*
X245411408Y-127165888D02*
X245671880Y-128643099D01*
X244588592Y-128834112D01*
X244328120Y-127356901D01*
X245411408Y-127165888D01*
X245411408Y-127165888D01*
G37*
G36*
X242161542Y-127738927D02*
X242422014Y-129216138D01*
X241338726Y-129407151D01*
X241078254Y-127929940D01*
X242161542Y-127738927D01*
X242161542Y-127738927D01*
G37*
G36*
X256411408Y-68165888D02*
X256671880Y-69643099D01*
X255588592Y-69834112D01*
X255328120Y-68356901D01*
X256411408Y-68165888D01*
X256411408Y-68165888D01*
G37*
G36*
X253161542Y-68738927D02*
X253422014Y-70216138D01*
X252338726Y-70407151D01*
X252078254Y-68929940D01*
X253161542Y-68738927D01*
X253161542Y-68738927D01*
G37*
G36*
X259411408Y-87165888D02*
X259671880Y-88643099D01*
X258588592Y-88834112D01*
X258328120Y-87356901D01*
X259411408Y-87165888D01*
X259411408Y-87165888D01*
G37*
G36*
X256161542Y-87738927D02*
X256422014Y-89216138D01*
X255338726Y-89407151D01*
X255078254Y-87929940D01*
X256161542Y-87738927D01*
X256161542Y-87738927D01*
G37*
G36*
X262411408Y-107165888D02*
X262671880Y-108643099D01*
X261588592Y-108834112D01*
X261328120Y-107356901D01*
X262411408Y-107165888D01*
X262411408Y-107165888D01*
G37*
G36*
X259161542Y-107738927D02*
X259422014Y-109216138D01*
X258338726Y-109407151D01*
X258078254Y-107929940D01*
X259161542Y-107738927D01*
X259161542Y-107738927D01*
G37*
G36*
X266411408Y-126165888D02*
X266671880Y-127643099D01*
X265588592Y-127834112D01*
X265328120Y-126356901D01*
X266411408Y-126165888D01*
X266411408Y-126165888D01*
G37*
G36*
X263161542Y-126738927D02*
X263422014Y-128216138D01*
X262338726Y-128407151D01*
X262078254Y-126929940D01*
X263161542Y-126738927D01*
X263161542Y-126738927D01*
G37*
D13*
X51890448Y-56667829D03*
X41884801Y-54903564D03*
X45343892Y-64540637D03*
X46887625Y-55785696D03*
X48417485Y-76363984D03*
X38411838Y-74599719D03*
X41870929Y-84236792D03*
X43414662Y-75481851D03*
X44944521Y-96060139D03*
X34938874Y-94295874D03*
X38397965Y-103932947D03*
X39941698Y-95178006D03*
X39471558Y-115708730D03*
X29465911Y-113944465D03*
X32925002Y-123581538D03*
X34468735Y-114826597D03*
X72107548Y-57186369D03*
X62101901Y-55422104D03*
X65560992Y-65059177D03*
X67104725Y-56304236D03*
X68634584Y-76882524D03*
X58628937Y-75118259D03*
X62088028Y-84755332D03*
X63631761Y-76000391D03*
X65161621Y-96578679D03*
X55155974Y-94814414D03*
X58615065Y-104451487D03*
X60158798Y-95696546D03*
X61688657Y-116274835D03*
X51683010Y-114510570D03*
X55142101Y-124147643D03*
X56685834Y-115392702D03*
X92671944Y-55735294D03*
X82666297Y-53971029D03*
X86125388Y-63608102D03*
X87669121Y-54853161D03*
X89198980Y-75431449D03*
X79193333Y-73667184D03*
X82652424Y-83304257D03*
X84196157Y-74549316D03*
X85726017Y-95127604D03*
X75720370Y-93363339D03*
X79179461Y-103000412D03*
X80723194Y-94245471D03*
X82253053Y-114823759D03*
X72247406Y-113059494D03*
X75706497Y-122696567D03*
X77250230Y-113941626D03*
X111326210Y-65117104D03*
X101320563Y-63352839D03*
X104779654Y-72989912D03*
X106323387Y-64234971D03*
X107853246Y-84813259D03*
X97847599Y-83048994D03*
X101306690Y-92686067D03*
X102850423Y-83931126D03*
X104380283Y-104509414D03*
X94374636Y-102745149D03*
X97833727Y-112382222D03*
X99377460Y-103627281D03*
X100907319Y-124205569D03*
X90901672Y-122441304D03*
X94360763Y-132078377D03*
X95904496Y-123323436D03*
X130154124Y-73514107D03*
X120148477Y-71749842D03*
X123607568Y-81386915D03*
X125151301Y-72631974D03*
X126681161Y-93210262D03*
X116675514Y-91445997D03*
X120134605Y-101083070D03*
X121678338Y-92328129D03*
X123208197Y-112906417D03*
X113202550Y-111142152D03*
X116661641Y-120779225D03*
X118205374Y-112024284D03*
X119735233Y-132602572D03*
X109729586Y-130838307D03*
X113188677Y-140475380D03*
X114732410Y-131720439D03*
X141167870Y-126227458D03*
X131162223Y-124463193D03*
X134621314Y-134100266D03*
X136165047Y-125345325D03*
X168824097Y-124461695D03*
X158818450Y-126225960D03*
X165365006Y-134098768D03*
X163821273Y-125343827D03*
X179837843Y-71748344D03*
X169832196Y-73512609D03*
X176378752Y-81385417D03*
X174835019Y-72630476D03*
X183310806Y-91444499D03*
X173305159Y-93208764D03*
X179851715Y-101081572D03*
X178307982Y-92326631D03*
X186783770Y-111140654D03*
X176778123Y-112904919D03*
X183324679Y-120777727D03*
X181780946Y-112022786D03*
X190256733Y-130836809D03*
X180251086Y-132601074D03*
X186797642Y-140473882D03*
X185253909Y-131718941D03*
X198665757Y-63351342D03*
X188660110Y-65115607D03*
X195206666Y-72988415D03*
X193662933Y-64233474D03*
X202138721Y-83047497D03*
X192133074Y-84811762D03*
X198679630Y-92684570D03*
X197135897Y-83929629D03*
X205611684Y-102743652D03*
X195606037Y-104507917D03*
X202152593Y-112380725D03*
X200608860Y-103625784D03*
X209084648Y-122439807D03*
X199079001Y-124204072D03*
X205625557Y-132076880D03*
X204081824Y-123321939D03*
X217320023Y-53969531D03*
X207314376Y-55733796D03*
X213860932Y-63606604D03*
X212317199Y-54851663D03*
X220792987Y-73665686D03*
X210787340Y-75429951D03*
X217333896Y-83302759D03*
X215790163Y-74547818D03*
X224265950Y-93361842D03*
X214260303Y-95126107D03*
X220806859Y-102998915D03*
X219263126Y-94243974D03*
X237884419Y-55420607D03*
X227878772Y-57184872D03*
X234425328Y-65057680D03*
X232881595Y-56302739D03*
X241357382Y-75116762D03*
X231351735Y-76881027D03*
X237898291Y-84753835D03*
X236354558Y-75998894D03*
X248303310Y-114509072D03*
X238297663Y-116273337D03*
X244844219Y-124146145D03*
X243300486Y-115391204D03*
X258101519Y-54902066D03*
X248095872Y-56666331D03*
X254642428Y-64539139D03*
X253098695Y-55784198D03*
X261574482Y-74598221D03*
X251568835Y-76362486D03*
X258115391Y-84235294D03*
X256571658Y-75480353D03*
X265047446Y-94294376D03*
X255041799Y-96058641D03*
X261588355Y-103931449D03*
X260044622Y-95176508D03*
X268520409Y-113990532D03*
X258514762Y-115754797D03*
X265061318Y-123627605D03*
X263517585Y-114872664D03*
D14*
X169832196Y-73512609D03*
D15*
X37000000Y-133000000D02*
X112000000Y-150000000D01*
X122000000Y-49000000D02*
X39000000Y-49000000D01*
X164000000Y-63000000D02*
X136000000Y-63000000D01*
X136000000Y-63000000D02*
X122000000Y-49000000D01*
X178000000Y-49000000D02*
X261000000Y-49000000D01*
X266000000Y-132000000D02*
X188000000Y-150000000D01*
X266000000Y-132000000D02*
X275000000Y-129000000D01*
X261000000Y-49000000D02*
X275000000Y-129000000D01*
X178000000Y-49000000D02*
X164000000Y-63000000D01*
X39000000Y-49000000D02*
X23000000Y-128000000D01*
X37000000Y-133000000D02*
X23000000Y-128000000D01*
X112000000Y-150000000D02*
X188000000Y-150000000D01*
X44663192Y-68401084D02*
X45343892Y-64540637D01*
X44000000Y-89000000D02*
X44266446Y-89655086D01*
X45000000Y-83000000D02*
X44000000Y-89000000D01*
X47913058Y-68974123D02*
X45000000Y-83000000D01*
X41000000Y-102000000D02*
X40967131Y-108366433D01*
X44266446Y-89655086D02*
X41000000Y-102000000D01*
X37000000Y-114000000D02*
X36000000Y-125000000D01*
X36000000Y-125000000D02*
X35249866Y-127573039D01*
X40967131Y-108366433D02*
X37000000Y-114000000D01*
X142380000Y-96730000D02*
X142380000Y-96620000D01*
X107000000Y-59000000D02*
X118000000Y-59000000D01*
X118000000Y-59000000D02*
X126000000Y-67000000D01*
X126000000Y-67000000D02*
X138000000Y-67000000D01*
X138000000Y-67000000D02*
X148000000Y-77000000D01*
X148000000Y-77000000D02*
X148000000Y-82000000D01*
X50000000Y-55000000D02*
X54000000Y-51000000D01*
X48000000Y-63000000D02*
X50000000Y-55000000D01*
X48000000Y-63000000D02*
X47913058Y-68974123D01*
X54000000Y-51000000D02*
X99000000Y-51000000D01*
X142380000Y-96620000D02*
X148000000Y-91000000D01*
X148000000Y-91000000D02*
X148000000Y-82000000D01*
X99000000Y-51000000D02*
X107000000Y-59000000D01*
X41870929Y-84236792D02*
X41016580Y-89082047D01*
X38397965Y-103932947D02*
X37717265Y-107793394D01*
X32925002Y-123581538D02*
X32000000Y-127000000D01*
X64880291Y-68919624D02*
X65560992Y-65059177D01*
X61000000Y-103000000D02*
X61184230Y-108884973D01*
X64657194Y-89188818D02*
X61000000Y-103000000D01*
X58000000Y-123000000D02*
X57711267Y-128581128D01*
X61184230Y-108884973D02*
X58000000Y-123000000D01*
X65000000Y-83000000D02*
X64657194Y-89188818D01*
X68130157Y-69492663D02*
X65000000Y-83000000D01*
X142380000Y-94190000D02*
X142380000Y-93620000D01*
X142380000Y-94190000D02*
X142810000Y-94190000D01*
X73000000Y-52000000D02*
X98000000Y-52000000D01*
X98000000Y-52000000D02*
X106000000Y-60000000D01*
X106000000Y-60000000D02*
X117000000Y-60000000D01*
X117000000Y-60000000D02*
X125000000Y-68000000D01*
X125000000Y-68000000D02*
X137000000Y-68000000D01*
X137000000Y-68000000D02*
X147000000Y-78000000D01*
X147000000Y-78000000D02*
X147000000Y-82000000D01*
X147000000Y-90000000D02*
X142810000Y-94190000D01*
X147000000Y-90000000D02*
X147000000Y-82000000D01*
X68130157Y-69492663D02*
X68000000Y-64000000D01*
X68000000Y-64000000D02*
X70000000Y-55000000D01*
X70000000Y-55000000D02*
X73000000Y-52000000D01*
X61407328Y-88615779D02*
X62088028Y-84755332D01*
X57934364Y-108311934D02*
X58615065Y-104451487D01*
X54461401Y-128008089D02*
X55142101Y-124147643D01*
X85444687Y-67468549D02*
X86125388Y-63608102D01*
X85000000Y-83000000D02*
X85221590Y-87737743D01*
X88694553Y-68041588D02*
X85000000Y-83000000D01*
X82000000Y-102000000D02*
X81748626Y-107433898D01*
X85221590Y-87737743D02*
X82000000Y-102000000D01*
X78000000Y-121000000D02*
X78275663Y-127130053D01*
X81748626Y-107433898D02*
X78000000Y-121000000D01*
X142380000Y-91650000D02*
X142380000Y-91620000D01*
X146000000Y-88000000D02*
X142380000Y-91620000D01*
X90000000Y-54000000D02*
X91000000Y-53000000D01*
X89000000Y-62000000D02*
X90000000Y-54000000D01*
X88694553Y-68041588D02*
X89000000Y-62000000D01*
X136000000Y-69000000D02*
X146000000Y-79000000D01*
X124000000Y-69000000D02*
X136000000Y-69000000D01*
X116000000Y-61000000D02*
X124000000Y-69000000D01*
X105000000Y-61000000D02*
X116000000Y-61000000D01*
X97000000Y-53000000D02*
X105000000Y-61000000D01*
X91000000Y-53000000D02*
X97000000Y-53000000D01*
X146000000Y-88000000D02*
X146000000Y-79000000D01*
X82652424Y-83304257D02*
X81971724Y-87164704D01*
X78498760Y-106860859D02*
X79179461Y-103000412D01*
X75706497Y-122696567D02*
X75025797Y-126557014D01*
X104779654Y-72989912D02*
X104098953Y-76850359D01*
X104000000Y-93000000D02*
X103875856Y-97119553D01*
X107348819Y-77423398D02*
X104000000Y-93000000D01*
X100000000Y-111000000D02*
X100402892Y-116815708D01*
X103875856Y-97119553D02*
X100000000Y-111000000D01*
X97000000Y-130000000D02*
X96929929Y-136511863D01*
X100402892Y-116815708D02*
X97000000Y-130000000D01*
X142380000Y-89110000D02*
X142890000Y-89110000D01*
X145000000Y-83000000D02*
X145000000Y-82000000D01*
X145000000Y-87000000D02*
X142890000Y-89110000D01*
X145000000Y-87000000D02*
X145000000Y-83000000D01*
X110000000Y-62000000D02*
X115000000Y-62000000D01*
X115000000Y-62000000D02*
X123000000Y-70000000D01*
X123000000Y-70000000D02*
X135000000Y-70000000D01*
X135000000Y-70000000D02*
X145000000Y-80000000D01*
X145000000Y-80000000D02*
X145000000Y-83000000D01*
X107000000Y-72000000D02*
X109000000Y-63000000D01*
X107348819Y-77423398D02*
X107000000Y-72000000D01*
X109000000Y-63000000D02*
X110000000Y-62000000D01*
X101306690Y-92686067D02*
X100625990Y-96546514D01*
X97833727Y-112382222D02*
X97153026Y-116242669D01*
X94360763Y-132078377D02*
X93680063Y-135938824D01*
X123607568Y-81386915D02*
X122926867Y-85247361D01*
X115584195Y-145893673D02*
X130517099Y-138372481D01*
X123000000Y-99000000D02*
X122703770Y-105516555D01*
X126176733Y-85820400D02*
X123000000Y-99000000D01*
X119000000Y-119000000D02*
X119230806Y-125212710D01*
X122703770Y-105516555D02*
X119000000Y-119000000D01*
X115000000Y-143000000D02*
X115584195Y-145893673D01*
X119230806Y-125212710D02*
X115000000Y-143000000D01*
X126000000Y-81000000D02*
X127807692Y-71961540D01*
X126176733Y-85820400D02*
X126000000Y-81000000D01*
X142380000Y-86570000D02*
X142430000Y-86570000D01*
X128038460Y-71961540D02*
X129000000Y-71000000D01*
X129000000Y-71000000D02*
X134000000Y-71000000D01*
X134000000Y-71000000D02*
X144000000Y-81000000D01*
X144000000Y-81000000D02*
X144000000Y-82000000D01*
X144000000Y-85000000D02*
X142430000Y-86570000D01*
X144000000Y-85000000D02*
X144000000Y-82000000D01*
X127807692Y-71961540D02*
X128038460Y-71961540D01*
X120134605Y-101083070D02*
X119453904Y-104943516D01*
X116661641Y-120779225D02*
X115980940Y-124639671D01*
X112334329Y-145320634D02*
X113188677Y-140475380D01*
X133766965Y-138945520D02*
X134621314Y-134100266D01*
X166219354Y-138944023D02*
X165365006Y-134098768D01*
X157620000Y-86570000D02*
X157570000Y-86570000D01*
X184000000Y-140000000D02*
X180750134Y-124573039D01*
X184750134Y-145573039D02*
X184000000Y-140000000D01*
X178000000Y-106000000D02*
X177750134Y-105573039D01*
X180000000Y-119000000D02*
X178000000Y-106000000D01*
X180750134Y-124573039D02*
X180000000Y-119000000D01*
X177000000Y-100000000D02*
X173750134Y-85573039D01*
X177750134Y-105573039D02*
X177000000Y-100000000D01*
X169469220Y-138370984D02*
X184750134Y-145573039D01*
X173750134Y-85573039D02*
X173426961Y-85573039D01*
X171000000Y-71000000D02*
X166000000Y-71000000D01*
X166000000Y-71000000D02*
X156000000Y-81000000D01*
X156000000Y-81000000D02*
X156000000Y-82000000D01*
X173000000Y-80000000D02*
X173750134Y-85573039D01*
X173000000Y-80000000D02*
X172000000Y-72000000D01*
X156000000Y-85000000D02*
X156000000Y-82000000D01*
X157570000Y-86570000D02*
X156000000Y-85000000D01*
X172000000Y-72000000D02*
X171000000Y-71000000D01*
X177000000Y-85000000D02*
X176378752Y-81385417D01*
X181000000Y-105000000D02*
X179851715Y-101081572D01*
X184000000Y-124000000D02*
X183324679Y-120777727D01*
X188000000Y-145000000D02*
X186797642Y-140473882D01*
X195206666Y-72988415D02*
X196000000Y-77000000D01*
X157620000Y-89110000D02*
X157110000Y-89110000D01*
X203000000Y-131000000D02*
X199750134Y-116573039D01*
X202750134Y-136573039D02*
X203000000Y-131000000D01*
X199000000Y-111000000D02*
X196750134Y-98573039D01*
X199750134Y-116573039D02*
X199000000Y-111000000D01*
X196000000Y-93000000D02*
X192750134Y-77573039D01*
X196750134Y-98573039D02*
X196000000Y-93000000D01*
X190000000Y-62000000D02*
X185000000Y-62000000D01*
X185000000Y-62000000D02*
X177000000Y-70000000D01*
X177000000Y-70000000D02*
X165000000Y-70000000D01*
X165000000Y-70000000D02*
X155000000Y-80000000D01*
X155000000Y-80000000D02*
X155000000Y-82000000D01*
X192000000Y-73000000D02*
X191000000Y-63000000D01*
X192000000Y-73000000D02*
X192750134Y-77573039D01*
X155000000Y-87000000D02*
X155000000Y-82000000D01*
X157110000Y-89110000D02*
X155000000Y-87000000D01*
X191000000Y-63000000D02*
X190000000Y-62000000D01*
X198679630Y-92684570D02*
X200000000Y-98000000D01*
X202152593Y-112380725D02*
X203000000Y-116000000D01*
X205625557Y-132076880D02*
X206000000Y-136000000D01*
X213860932Y-63606604D02*
X215000000Y-67000000D01*
X157620000Y-91650000D02*
X157620000Y-91620000D01*
X222000000Y-121000000D02*
X217750134Y-107573039D01*
X221750134Y-127573039D02*
X222000000Y-121000000D01*
X218000000Y-103000000D02*
X214750134Y-87573039D01*
X217750134Y-107573039D02*
X218000000Y-103000000D01*
X215000000Y-83000000D02*
X211750134Y-67573039D01*
X214750134Y-87573039D02*
X215000000Y-83000000D01*
X176000000Y-69000000D02*
X164000000Y-69000000D01*
X164000000Y-69000000D02*
X154000000Y-79000000D01*
X154000000Y-79000000D02*
X154000000Y-82000000D01*
X210000000Y-54000000D02*
X209000000Y-53000000D01*
X211000000Y-62000000D02*
X211750134Y-67573039D01*
X211000000Y-62000000D02*
X210000000Y-54000000D01*
X195000000Y-61000000D02*
X184000000Y-61000000D01*
X203000000Y-53000000D02*
X195000000Y-61000000D01*
X209000000Y-53000000D02*
X203000000Y-53000000D01*
X157620000Y-91620000D02*
X154000000Y-88000000D01*
X154000000Y-88000000D02*
X154000000Y-82000000D01*
X184000000Y-61000000D02*
X176000000Y-69000000D01*
X217333896Y-83302759D02*
X218000000Y-87000000D01*
X220806859Y-102998915D02*
X221000000Y-107000000D01*
X224279823Y-122695070D02*
X225000000Y-127000000D01*
X234425328Y-65057680D02*
X235000000Y-69000000D01*
X157620000Y-94190000D02*
X157190000Y-94190000D01*
X242000000Y-122000000D02*
X238750134Y-108573039D01*
X241750134Y-128573039D02*
X242000000Y-122000000D01*
X239000000Y-103000000D02*
X235750134Y-88573039D01*
X238750134Y-108573039D02*
X239000000Y-103000000D01*
X235000000Y-83000000D02*
X231750134Y-69573039D01*
X235750134Y-88573039D02*
X235000000Y-83000000D01*
X227000000Y-52000000D02*
X230000000Y-55000000D01*
X175000000Y-68000000D02*
X183000000Y-60000000D01*
X153000000Y-78000000D02*
X163000000Y-68000000D01*
X163000000Y-68000000D02*
X175000000Y-68000000D01*
X153000000Y-90000000D02*
X157190000Y-94190000D01*
X153000000Y-90000000D02*
X153000000Y-82000000D01*
X153000000Y-82000000D02*
X153000000Y-78000000D01*
X202000000Y-52000000D02*
X203000000Y-52000000D01*
X194000000Y-60000000D02*
X202000000Y-52000000D01*
X183000000Y-60000000D02*
X194000000Y-60000000D01*
X232000000Y-64000000D02*
X230000000Y-55000000D01*
X231750134Y-69573039D02*
X232000000Y-64000000D01*
X203000000Y-52000000D02*
X227000000Y-52000000D01*
X239000000Y-88000000D02*
X237898291Y-84753835D01*
X242000000Y-108000000D02*
X241371255Y-104449990D01*
X244844219Y-124146145D02*
X245000000Y-128000000D01*
X256000000Y-69000000D02*
X254642428Y-64539139D01*
X173700002Y-67000000D02*
X174000000Y-67000000D01*
X193000000Y-59000000D02*
X201000000Y-51000000D01*
X252000000Y-65000000D02*
X250000000Y-55000000D01*
X252750134Y-69573039D02*
X252000000Y-65000000D01*
X152000000Y-77000000D02*
X162000000Y-67000000D01*
X162000000Y-67000000D02*
X173700002Y-67000000D01*
X152000000Y-91000000D02*
X157620000Y-96620000D01*
X152000000Y-91000000D02*
X152000000Y-82000000D01*
X152000000Y-82000000D02*
X152000000Y-77000000D01*
X246000000Y-51000000D02*
X250000000Y-55000000D01*
X201000000Y-51000000D02*
X246000000Y-51000000D01*
X182000000Y-59000000D02*
X193000000Y-59000000D01*
X174000000Y-67000000D02*
X182000000Y-59000000D01*
X259000000Y-103000000D02*
X255750134Y-88573039D01*
X258750134Y-108573039D02*
X259000000Y-103000000D01*
X262000000Y-122000000D02*
X258750134Y-108573039D01*
X262750134Y-127573039D02*
X262000000Y-122000000D01*
X255000000Y-82000000D02*
X252750134Y-69573039D01*
X255750134Y-88573039D02*
X255000000Y-82000000D01*
X157620000Y-96730000D02*
X157620000Y-96620000D01*
X259000000Y-88000000D02*
X258115391Y-84235294D01*
X262000000Y-108000000D02*
X261588355Y-103931449D01*
X266000000Y-127000000D02*
X265061318Y-123627605D01*
X62101901Y-55422104D02*
X67104725Y-56304236D01*
X51890448Y-56667829D02*
X62101901Y-55422104D01*
X58628937Y-75118259D02*
X63631761Y-76000391D01*
X48417485Y-76363984D02*
X58628937Y-75118259D01*
X55155974Y-94814414D02*
X60158798Y-95696546D01*
X44944521Y-96060139D02*
X55155974Y-94814414D01*
X51683010Y-114510570D02*
X56685834Y-115392702D01*
X39471558Y-115708730D02*
X51683010Y-114510570D01*
X82666297Y-53971029D02*
X87669121Y-54853161D01*
X72107548Y-57186369D02*
X82666297Y-53971029D01*
X79193333Y-73667184D02*
X84196157Y-74549316D01*
X78000000Y-74000000D02*
X79193333Y-73667184D01*
X68634584Y-76882524D02*
X78000000Y-74000000D01*
X75720370Y-93363339D02*
X80723194Y-94245471D01*
X65161621Y-96578679D02*
X75720370Y-93363339D01*
X72247406Y-113059494D02*
X77250230Y-113941626D01*
X61688657Y-116274835D02*
X72247406Y-113059494D01*
X101320563Y-63352839D02*
X106323387Y-64234971D01*
X92671944Y-55735294D02*
X101320563Y-63352839D01*
X97847599Y-83048994D02*
X102850423Y-83931126D01*
X97000000Y-82000000D02*
X97847599Y-83048994D01*
X89198980Y-75431449D02*
X97000000Y-82000000D01*
X94374636Y-102745149D02*
X99377460Y-103627281D01*
X85726017Y-95127604D02*
X94374636Y-102745149D01*
X90901672Y-122441304D02*
X95904496Y-123323436D01*
X82253053Y-114823759D02*
X90901672Y-122441304D01*
X120148477Y-71749842D02*
X125151301Y-72631974D01*
X111326210Y-65117104D02*
X120148477Y-71749842D01*
X116675514Y-91445997D02*
X121678338Y-92328129D01*
X107853246Y-84813259D02*
X116675514Y-91445997D01*
X113202550Y-111142152D02*
X118205374Y-112024284D01*
X104380283Y-104509414D02*
X113202550Y-111142152D01*
X109729586Y-130838307D02*
X114732410Y-131720439D01*
X100907319Y-124205569D02*
X109729586Y-130838307D01*
X157620000Y-99270000D02*
X157270000Y-99270000D01*
X168487391Y-73512609D02*
X164000000Y-78000000D01*
X164000000Y-78000000D02*
X164000000Y-92890000D01*
X164000000Y-92890000D02*
X157620000Y-99270000D01*
X169832196Y-73512609D02*
X168487391Y-73512609D01*
X149000000Y-107890000D02*
X157620000Y-99270000D01*
X149000000Y-113000000D02*
X149000000Y-107890000D01*
X147000000Y-115000000D02*
X149000000Y-113000000D01*
X135000000Y-115000000D02*
X147000000Y-115000000D01*
X134000000Y-114000000D02*
X135000000Y-115000000D01*
X134000000Y-78000000D02*
X134000000Y-114000000D01*
X130154124Y-74154124D02*
X134000000Y-78000000D01*
X130154124Y-73514107D02*
X130154124Y-74154124D01*
X169791236Y-93208764D02*
X161190000Y-101810000D01*
X161190000Y-101810000D02*
X157620000Y-101810000D01*
X173305159Y-93208764D02*
X169791236Y-93208764D01*
X129210262Y-93210262D02*
X130000000Y-94000000D01*
X130000000Y-94000000D02*
X130000000Y-116000000D01*
X130000000Y-116000000D02*
X131000000Y-117000000D01*
X131000000Y-117000000D02*
X150000000Y-117000000D01*
X150000000Y-117000000D02*
X151000000Y-116000000D01*
X151000000Y-116000000D02*
X151000000Y-108430000D01*
X151000000Y-108430000D02*
X157620000Y-101810000D01*
X126681161Y-93210262D02*
X129210262Y-93210262D01*
X170904919Y-112904919D02*
X162350000Y-104350000D01*
X162350000Y-104350000D02*
X157620000Y-104350000D01*
X176778123Y-112904919D02*
X170904919Y-112904919D01*
X156650000Y-104350000D02*
X153000000Y-108000000D01*
X153000000Y-108000000D02*
X153000000Y-116000000D01*
X153000000Y-116000000D02*
X150000000Y-119000000D01*
X150000000Y-119000000D02*
X129301780Y-119000000D01*
X129301780Y-119000000D02*
X123208197Y-112906417D01*
X157620000Y-104350000D02*
X156650000Y-104350000D01*
X157000000Y-107000000D02*
X157620000Y-106890000D01*
X180251086Y-131251086D02*
X171000000Y-122000000D01*
X171000000Y-122000000D02*
X171000000Y-117000000D01*
X171000000Y-117000000D02*
X161000000Y-107000000D01*
X161000000Y-107000000D02*
X157000000Y-107000000D01*
X180251086Y-132601074D02*
X180251086Y-131251086D01*
X178650012Y-131000000D02*
X180251086Y-132601074D01*
X166000000Y-131000000D02*
X178650012Y-131000000D01*
X165000000Y-132000000D02*
X166000000Y-131000000D01*
X135000000Y-132000000D02*
X165000000Y-132000000D01*
X134000000Y-131000000D02*
X135000000Y-132000000D01*
X132000000Y-131000000D02*
X134000000Y-131000000D01*
X121000000Y-131000000D02*
X132000000Y-131000000D01*
X119735233Y-132264767D02*
X121000000Y-131000000D01*
X119735233Y-132602572D02*
X119735233Y-132264767D01*
X158816952Y-126227458D02*
X158818450Y-126225960D01*
X141167870Y-126227458D02*
X158816952Y-126227458D01*
X155000000Y-122000000D02*
X155000000Y-112050000D01*
X155000000Y-112050000D02*
X157620000Y-109430000D01*
X158818450Y-125818450D02*
X155000000Y-122000000D01*
X158818450Y-126225960D02*
X158818450Y-125818450D01*
X179837843Y-71748344D02*
X188660110Y-65115607D01*
X174835019Y-72630476D02*
X179837843Y-71748344D01*
X183310806Y-91444499D02*
X192133074Y-84811762D01*
X178307982Y-92326631D02*
X183310806Y-91444499D01*
X186783770Y-111140654D02*
X195606037Y-104507917D01*
X181780946Y-112022786D02*
X186783770Y-111140654D01*
X190256733Y-130836809D02*
X199079001Y-124204072D01*
X185253909Y-131718941D02*
X190256733Y-130836809D01*
X193662933Y-64233474D02*
X198665757Y-63351342D01*
X198665757Y-63351342D02*
X207314376Y-55733796D01*
X202138721Y-83047497D02*
X210787340Y-75429951D01*
X197135897Y-83929629D02*
X202138721Y-83047497D01*
X205611684Y-102743652D02*
X214260303Y-95126107D01*
X200608860Y-103625784D02*
X205611684Y-102743652D01*
X209084648Y-122439807D02*
X217733267Y-114822262D01*
X204081824Y-123321939D02*
X209084648Y-122439807D01*
X217320023Y-53969531D02*
X227878772Y-57184872D01*
X212317199Y-54851663D02*
X217320023Y-53969531D01*
X220792987Y-73665686D02*
X231351735Y-76881027D01*
X215790163Y-74547818D02*
X220792987Y-73665686D01*
X224265950Y-93361842D02*
X234824699Y-96577182D01*
X219263126Y-94243974D02*
X224265950Y-93361842D01*
X227738914Y-113057997D02*
X238297663Y-116273337D01*
X222736090Y-113940129D02*
X227738914Y-113057997D01*
X248095872Y-56666331D02*
X237884419Y-55420607D01*
X237884419Y-55420607D02*
X232881595Y-56302739D01*
X241357382Y-75116762D02*
X251568835Y-76362486D01*
X236354558Y-75998894D02*
X241357382Y-75116762D01*
X244830346Y-94812917D02*
X239827522Y-95695049D01*
X255041799Y-96058641D02*
X244830346Y-94812917D01*
X248303310Y-114509072D02*
X258514762Y-115754797D01*
X243300486Y-115391204D02*
X248303310Y-114509072D01*
M02*
