M48
;DRILL file {KiCad 4.0.2-stable} date 30/03/2016 21:54:51
;FORMAT={-:-/ absolute / inch / decimal}
FMAT,2
INCH,TZ
T1C0.061
T2C0.102
%
G90
G05
M72
T1
X1.134Y-4.6337
X1.3495Y-3.8602
X1.4862Y-3.0847
X1.528Y-4.7032
X1.623Y-2.3093
X1.7434Y-3.9296
X1.8802Y-3.1542
X2.0087Y-4.656
X2.0169Y-2.3787
X2.1454Y-3.8806
X2.2822Y-3.1051
X2.4026Y-4.7255
X2.4189Y-2.3297
X2.5394Y-3.95
X2.6761Y-3.1746
X2.8128Y-2.3992
X2.8183Y-4.5989
X2.9551Y-3.8234
X3.0918Y-3.048
X3.2123Y-4.6683
X3.2285Y-2.2726
X3.349Y-3.8929
X3.4857Y-3.1175
X3.5528Y-4.9682
X3.6225Y-2.342
X3.6895Y-4.1928
X3.8262Y-3.4174
X3.9467Y-5.0377
X3.963Y-2.6419
X4.0834Y-4.2623
X4.2201Y-3.4868
X4.294Y-5.2988
X4.3569Y-2.7114
X4.4307Y-4.5234
X4.5675Y-3.748
X4.6879Y-5.3683
X4.7042Y-2.9725
X4.8247Y-4.5929
X4.9614Y-3.8174
X5.0981Y-3.042
X5.1378Y-5.0478
X5.5317Y-5.1173
X6.2787Y-5.1172
X6.6727Y-5.0478
X6.7124Y-3.0419
X6.8491Y-3.8174
X6.9858Y-4.5928
X7.1063Y-2.9725
X7.1225Y-5.3682
X7.243Y-3.7479
X7.3797Y-4.5233
X7.4536Y-2.7113
X7.5165Y-5.2988
X7.5903Y-3.4868
X7.7271Y-4.2622
X7.8475Y-2.6419
X7.8638Y-5.0376
X7.9843Y-3.4173
X8.121Y-4.1927
X8.188Y-2.342
X8.2577Y-4.9682
X8.3248Y-3.1174
X8.4615Y-3.8928
X8.582Y-2.2725
X8.5982Y-4.6683
X8.7187Y-3.0479
X8.8554Y-3.8234
X8.9921Y-4.5988
X8.9977Y-2.3991
X9.1344Y-3.1745
X9.2711Y-3.95
X9.3916Y-2.3296
X9.4078Y-4.7254
X9.5283Y-3.1051
X9.665Y-3.8805
X9.7936Y-2.3787
X9.8018Y-4.656
X9.9303Y-3.1541
X10.0671Y-3.9296
X10.1875Y-2.3092
X10.2038Y-4.705
X10.3243Y-3.0847
X10.461Y-3.8601
X10.5977Y-4.6355
T2
X1.331Y-4.6685
X1.5465Y-3.8949
X1.6832Y-3.1194
X1.8199Y-2.344
X2.2057Y-4.6907
X2.3424Y-3.9153
X2.4791Y-3.1399
X2.6159Y-2.3644
X3.0153Y-4.6336
X3.152Y-3.8582
X3.2888Y-3.0827
X3.4255Y-2.3073
X3.7497Y-5.003
X3.8865Y-4.2275
X4.0232Y-3.4521
X4.1599Y-2.6767
X4.491Y-5.3336
X4.6277Y-4.5581
X4.7644Y-3.7827
X4.9012Y-3.0072
X5.3348Y-5.0826
X6.4757Y-5.0825
X6.9093Y-3.0072
X7.046Y-3.7826
X7.1828Y-4.5581
X7.3195Y-5.3335
X7.6506Y-2.6766
X7.7873Y-3.452
X7.924Y-4.2275
X8.0608Y-5.0029
X8.385Y-2.3072
X8.5217Y-3.0827
X8.6585Y-3.8581
X8.7952Y-4.6336
X9.1946Y-2.3644
X9.3313Y-3.1398
X9.4681Y-3.9152
X9.6048Y-4.6907
X9.9906Y-2.3439
X10.1273Y-3.1194
X10.264Y-3.8948
X10.4008Y-4.6703
T0
M30
