G04 #@! TF.FileFunction,Copper,L1,Top,Signal*
%FSLAX46Y46*%
G04 Gerber Fmt 4.6, Leading zero omitted, Abs format (unit mm)*
G04 Created by KiCad (PCBNEW 4.0.2-stable) date 31/03/2016 22:07:56*
%MOMM*%
G01*
G04 APERTURE LIST*
%ADD10C,0.100000*%
%ADD11R,1.752600X1.752600*%
%ADD12C,1.752600*%
%ADD13R,1.727200X2.032000*%
%ADD14O,1.727200X2.032000*%
%ADD15R,2.032000X1.727200*%
%ADD16O,2.032000X1.727200*%
%ADD17C,2.600000*%
%ADD18C,1.550000*%
%ADD19C,2.500000*%
%ADD20C,0.600000*%
%ADD21C,0.500000*%
G04 APERTURE END LIST*
D10*
D11*
X142380000Y-84030000D03*
D12*
X142380000Y-86570000D03*
X142380000Y-89110000D03*
X142380000Y-91650000D03*
X142380000Y-94190000D03*
X142380000Y-96730000D03*
X142380000Y-99270000D03*
X142380000Y-101810000D03*
X142380000Y-104350000D03*
X142380000Y-106890000D03*
X142380000Y-109430000D03*
X142380000Y-111970000D03*
X157620000Y-111970000D03*
X157620000Y-109430000D03*
X157620000Y-106890000D03*
X157620000Y-104350000D03*
X157620000Y-101810000D03*
X157620000Y-99270000D03*
X157620000Y-96730000D03*
X157620000Y-94190000D03*
X157620000Y-91650000D03*
X157620000Y-89110000D03*
X157620000Y-86570000D03*
X157620000Y-84030000D03*
D13*
X121500000Y-55000000D03*
D14*
X118960000Y-55000000D03*
X116420000Y-55000000D03*
X113880000Y-55000000D03*
X111340000Y-55000000D03*
X108800000Y-55000000D03*
X106260000Y-55000000D03*
D13*
X104000000Y-51500000D03*
D14*
X106540000Y-51500000D03*
X109080000Y-51500000D03*
X111620000Y-51500000D03*
X114160000Y-51500000D03*
X116700000Y-51500000D03*
X119240000Y-51500000D03*
D15*
X137500000Y-96500000D03*
D16*
X137500000Y-99040000D03*
X137500000Y-101580000D03*
X137500000Y-104120000D03*
X137500000Y-106660000D03*
X137500000Y-109200000D03*
X137500000Y-111740000D03*
D17*
X178969582Y-96078749D03*
D18*
X173966759Y-96960882D03*
X183972405Y-95196616D03*
D19*
X183310806Y-91444499D03*
X173305159Y-93208764D03*
X179851715Y-101081572D03*
X178307982Y-92326631D03*
D17*
X197797497Y-87681747D03*
D18*
X192794674Y-88563880D03*
X202800320Y-86799614D03*
D19*
X202138721Y-83047497D03*
X192133074Y-84811762D03*
X198679630Y-92684570D03*
X197135897Y-83929629D03*
D17*
X216451763Y-78299936D03*
D18*
X211448940Y-79182069D03*
X221454586Y-77417803D03*
D19*
X220792987Y-73665686D03*
X210787340Y-75429951D03*
X217333896Y-83302759D03*
X215790163Y-74547818D03*
D17*
X237016158Y-79751012D03*
D18*
X232013335Y-80633145D03*
X242018981Y-78868879D03*
D19*
X241357382Y-75116762D03*
X231351735Y-76881027D03*
X237898291Y-84753835D03*
X236354558Y-75998894D03*
D17*
X253760295Y-59536316D03*
D18*
X248757472Y-60418449D03*
X258763118Y-58654183D03*
D19*
X258101519Y-54902066D03*
X248095872Y-56666331D03*
X254642428Y-64539139D03*
X253098695Y-55784198D03*
D17*
X257233258Y-79232471D03*
D18*
X252230435Y-80114604D03*
X262236081Y-78350338D03*
D19*
X261574482Y-74598221D03*
X251568835Y-76362486D03*
X258115391Y-84235294D03*
X256571658Y-75480353D03*
D17*
X233543195Y-60054857D03*
D18*
X228540372Y-60936990D03*
X238546018Y-59172724D03*
D19*
X237884419Y-55420607D03*
X227878772Y-57184872D03*
X234425328Y-65057680D03*
X232881595Y-56302739D03*
D17*
X212978799Y-58603781D03*
D18*
X207975976Y-59485914D03*
X217981622Y-57721648D03*
D19*
X217320023Y-53969531D03*
X207314376Y-55733796D03*
X213860932Y-63606604D03*
X212317199Y-54851663D03*
D17*
X194324533Y-67985592D03*
D18*
X189321710Y-68867725D03*
X199327356Y-67103459D03*
D19*
X198665757Y-63351342D03*
X188660110Y-65115607D03*
X195206666Y-72988415D03*
X193662933Y-64233474D03*
D17*
X175496619Y-76382594D03*
D18*
X170493796Y-77264727D03*
X180499442Y-75500461D03*
D19*
X179837843Y-71748344D03*
X169832196Y-73512609D03*
X176378752Y-81385417D03*
X174835019Y-72630476D03*
D17*
X260706222Y-98928626D03*
D18*
X255703399Y-99810759D03*
X265709045Y-98046493D03*
D19*
X265047446Y-94294376D03*
X255041799Y-96058641D03*
X261588355Y-103931449D03*
X260044622Y-95176508D03*
D17*
X240489122Y-99447167D03*
D18*
X235486299Y-100329300D03*
X245491945Y-98565034D03*
D19*
X244830346Y-94812917D03*
X234824699Y-96577182D03*
X241371255Y-104449990D03*
X239827522Y-95695049D03*
D17*
X219924726Y-97996092D03*
D18*
X214921903Y-98878225D03*
X224927549Y-97113959D03*
D19*
X224265950Y-93361842D03*
X214260303Y-95126107D03*
X220806859Y-102998915D03*
X219263126Y-94243974D03*
D17*
X201270460Y-107377902D03*
D18*
X196267637Y-108260035D03*
X206273283Y-106495769D03*
D19*
X205611684Y-102743652D03*
X195606037Y-104507917D03*
X202152593Y-112380725D03*
X200608860Y-103625784D03*
D17*
X182442546Y-115774904D03*
D18*
X177439723Y-116657037D03*
X187445369Y-114892771D03*
D19*
X186783770Y-111140654D03*
X176778123Y-112904919D03*
X183324679Y-120777727D03*
X181780946Y-112022786D03*
D17*
X264179185Y-118624782D03*
D18*
X259176362Y-119506915D03*
X269182008Y-117742649D03*
D19*
X268520409Y-113990532D03*
X258514762Y-115754797D03*
X265061318Y-123627605D03*
X263517585Y-114872664D03*
D17*
X243962086Y-119143322D03*
D18*
X238959263Y-120025455D03*
X248964909Y-118261189D03*
D19*
X248303310Y-114509072D03*
X238297663Y-116273337D03*
X244844219Y-124146145D03*
X243300486Y-115391204D03*
D17*
X223397690Y-117692247D03*
D18*
X218394867Y-118574380D03*
X228400513Y-116810114D03*
D19*
X227738914Y-113057997D03*
X217733267Y-114822262D03*
X224279823Y-122695070D03*
X222736090Y-113940129D03*
D17*
X204743424Y-127074057D03*
D18*
X199740601Y-127956190D03*
X209746247Y-126191924D03*
D19*
X209084648Y-122439807D03*
X199079001Y-124204072D03*
X205625557Y-132076880D03*
X204081824Y-123321939D03*
D17*
X185915509Y-135471059D03*
D18*
X180912686Y-136353192D03*
X190918332Y-134588926D03*
D19*
X190256733Y-130836809D03*
X180251086Y-132601074D03*
X186797642Y-140473882D03*
X185253909Y-131718941D03*
D17*
X164482873Y-129095945D03*
D18*
X159480050Y-129978078D03*
X169485696Y-128213812D03*
D19*
X168824097Y-124461695D03*
X158818450Y-126225960D03*
X165365006Y-134098768D03*
X163821273Y-125343827D03*
D17*
X135503447Y-129097443D03*
D18*
X130500624Y-128215310D03*
X140506270Y-129979576D03*
D19*
X141167870Y-126227458D03*
X131162223Y-124463193D03*
X134621314Y-134100266D03*
X136165047Y-125345325D03*
D17*
X114070810Y-135472557D03*
D18*
X109067987Y-134590424D03*
X119073633Y-136354690D03*
D19*
X119735233Y-132602572D03*
X109729586Y-130838307D03*
X113188677Y-140475380D03*
X114732410Y-131720439D03*
D17*
X117543774Y-115776402D03*
D18*
X112540951Y-114894269D03*
X122546597Y-116658535D03*
D19*
X123208197Y-112906417D03*
X113202550Y-111142152D03*
X116661641Y-120779225D03*
X118205374Y-112024284D03*
D17*
X121016738Y-96080247D03*
D18*
X116013915Y-95198114D03*
X126019561Y-96962380D03*
D19*
X126681161Y-93210262D03*
X116675514Y-91445997D03*
X120134605Y-101083070D03*
X121678338Y-92328129D03*
D17*
X124489701Y-76384092D03*
D18*
X119486878Y-75501959D03*
X129492524Y-77266225D03*
D19*
X130154124Y-73514107D03*
X120148477Y-71749842D03*
X123607568Y-81386915D03*
X125151301Y-72631974D03*
D17*
X105661787Y-67987089D03*
D18*
X100658964Y-67104956D03*
X110664610Y-68869222D03*
D19*
X111326210Y-65117104D03*
X101320563Y-63352839D03*
X104779654Y-72989912D03*
X106323387Y-64234971D03*
D17*
X102188823Y-87683244D03*
D18*
X97186000Y-86801111D03*
X107191646Y-88565377D03*
D19*
X107853246Y-84813259D03*
X97847599Y-83048994D03*
X101306690Y-92686067D03*
X102850423Y-83931126D03*
D17*
X98715860Y-107379399D03*
D18*
X93713037Y-106497266D03*
X103718683Y-108261532D03*
D19*
X104380283Y-104509414D03*
X94374636Y-102745149D03*
X97833727Y-112382222D03*
X99377460Y-103627281D03*
D17*
X95242896Y-127075554D03*
D18*
X90240073Y-126193421D03*
X100245719Y-127957687D03*
D19*
X100907319Y-124205569D03*
X90901672Y-122441304D03*
X94360763Y-132078377D03*
X95904496Y-123323436D03*
D17*
X76588630Y-117693744D03*
D18*
X71585807Y-116811611D03*
X81591453Y-118575877D03*
D19*
X82253053Y-114823759D03*
X72247406Y-113059494D03*
X75706497Y-122696567D03*
X77250230Y-113941626D03*
D17*
X80061594Y-97997589D03*
D18*
X75058771Y-97115456D03*
X85064417Y-98879722D03*
D19*
X85726017Y-95127604D03*
X75720370Y-93363339D03*
X79179461Y-103000412D03*
X80723194Y-94245471D03*
D17*
X83534557Y-78301434D03*
D18*
X78531734Y-77419301D03*
X88537380Y-79183567D03*
D19*
X89198980Y-75431449D03*
X79193333Y-73667184D03*
X82652424Y-83304257D03*
X84196157Y-74549316D03*
D17*
X87007521Y-58605279D03*
D18*
X82004698Y-57723146D03*
X92010344Y-59487412D03*
D19*
X92671944Y-55735294D03*
X82666297Y-53971029D03*
X86125388Y-63608102D03*
X87669121Y-54853161D03*
D17*
X56024234Y-119144820D03*
D18*
X51021411Y-118262687D03*
X61027057Y-120026953D03*
D19*
X61688657Y-116274835D03*
X51683010Y-114510570D03*
X55142101Y-124147643D03*
X56685834Y-115392702D03*
D17*
X59497198Y-99448664D03*
D18*
X54494375Y-98566531D03*
X64500021Y-100330797D03*
D19*
X65161621Y-96578679D03*
X55155974Y-94814414D03*
X58615065Y-104451487D03*
X60158798Y-95696546D03*
D17*
X62970161Y-79752509D03*
D18*
X57967338Y-78870376D03*
X67972984Y-80634642D03*
D19*
X68634584Y-76882524D03*
X58628937Y-75118259D03*
X62088028Y-84755332D03*
X63631761Y-76000391D03*
D17*
X66443125Y-60056354D03*
D18*
X61440302Y-59174221D03*
X71445948Y-60938487D03*
D19*
X72107548Y-57186369D03*
X62101901Y-55422104D03*
X65560992Y-65059177D03*
X67104725Y-56304236D03*
D17*
X33807135Y-118578715D03*
D18*
X28804312Y-117696582D03*
X38809958Y-119460848D03*
D19*
X39471558Y-115708730D03*
X29465911Y-113944465D03*
X32925002Y-123581538D03*
X34468735Y-114826597D03*
D17*
X39280098Y-98930124D03*
D18*
X34277275Y-98047991D03*
X44282921Y-99812257D03*
D19*
X44944521Y-96060139D03*
X34938874Y-94295874D03*
X38397965Y-103932947D03*
X39941698Y-95178006D03*
D17*
X42753062Y-79233969D03*
D18*
X37750239Y-78351836D03*
X47755885Y-80116102D03*
D19*
X48417485Y-76363984D03*
X38411838Y-74599719D03*
X41870929Y-84236792D03*
X43414662Y-75481851D03*
D17*
X46226025Y-59537814D03*
D18*
X41223202Y-58655681D03*
X51228848Y-60419947D03*
D19*
X51890448Y-56667829D03*
X41884801Y-54903564D03*
X45343892Y-64540637D03*
X46887625Y-55785696D03*
D20*
X169832196Y-73512609D03*
X137500000Y-111740000D03*
X157500000Y-113500000D03*
D21*
X169832196Y-73512609D02*
X169319587Y-73000000D01*
X137500000Y-111740000D02*
X139260000Y-113500000D01*
X139260000Y-113500000D02*
X157500000Y-113500000D01*
M02*
